<svg width="76" height="12" viewBox="0 0 76 12" fill="none" xmlns="http://www.w3.org/2000/svg">
<rect width="76" height="12" fill="#232323"/>
<path d="M0 6C0 2.68629 2.68629 0 6 0H70C73.3137 0 76 2.68629 76 6V6C76 9.31371 73.3137 12 70 12H6C2.68629 12 0 9.31371 0 6V6Z" fill="#A20405"/>
<circle cx="6" cy="6" r="1" fill="#F7D6B4"/>
<path d="M15.3792 7.45479H16.0416V8.87671H10V7.45479H10.6536C10.9363 7.03288 11.0776 6.42466 11.0776 5.63014V3.12329H15.3792V7.45479ZM12.2965 7.45479H13.8069V4.48767H12.6498V5.64658C12.6498 6.4137 12.5321 7.01644 12.2965 7.45479Z" fill="#F7D6B4"/>
<path d="M23.224 8.13699C22.5998 8.71233 21.8343 9 20.9275 9C20.0207 9 19.2522 8.71233 18.6221 8.13699C17.9979 7.55616 17.6859 6.84384 17.6859 6C17.6859 5.15616 17.9979 4.44658 18.6221 3.87123C19.2522 3.29041 20.0207 3 20.9275 3C21.8343 3 22.5998 3.29041 23.224 3.87123C23.8541 4.44658 24.1691 5.15616 24.1691 6C24.1691 6.84384 23.8541 7.55616 23.224 8.13699ZM19.7351 7.12603C20.053 7.41644 20.4505 7.56164 20.9275 7.56164C21.4045 7.56164 21.8019 7.41644 22.1199 7.12603C22.4379 6.83014 22.5969 6.45479 22.5969 6C22.5969 5.54521 22.4379 5.1726 22.1199 4.88219C21.8019 4.5863 21.4045 4.43836 20.9275 4.43836C20.4505 4.43836 20.053 4.5863 19.7351 4.88219C19.4171 5.1726 19.2581 5.54521 19.2581 6C19.2581 6.45479 19.4171 6.83014 19.7351 7.12603Z" fill="#F7D6B4"/>
<path d="M29.213 9C28.2826 9 27.5112 8.71507 26.8988 8.14521C26.2923 7.56986 25.989 6.85479 25.989 6C25.989 5.14521 26.2923 4.43288 26.8988 3.86301C27.5112 3.28767 28.2826 3 29.213 3C29.7724 3 30.2906 3.12329 30.7676 3.36986C31.2446 3.61644 31.6185 3.94795 31.8894 4.36438L30.5203 5.09589C30.4025 4.89315 30.2258 4.73425 29.9903 4.61918C29.7606 4.49863 29.5016 4.43836 29.213 4.43836C28.7184 4.43836 28.318 4.58356 28.0118 4.87397C27.7114 5.1589 27.5613 5.53425 27.5613 6C27.5613 6.46575 27.7114 6.84384 28.0118 7.13425C28.318 7.41918 28.7184 7.56164 29.213 7.56164C29.5016 7.56164 29.7606 7.50411 29.9903 7.38904C30.2258 7.26849 30.4025 7.10411 30.5203 6.89589L31.8894 7.63562C31.6185 8.05753 31.2446 8.39178 30.7676 8.63836C30.2965 8.87945 29.7783 9 29.213 9Z" fill="#F7D6B4"/>
<path d="M38.0545 3.12329V4.54521H36.5264V8.87671H34.9454V4.54521H33.4173V3.12329H38.0545Z" fill="#F7D6B4"/>
<path d="M43.2846 8.87671L43.0196 8.04657H40.9615L40.6966 8.87671H38.983L41.0234 3.12329H42.9489L44.9893 8.87671H43.2846ZM41.3679 6.78082H42.6133L41.9861 4.82466L41.3679 6.78082Z" fill="#F7D6B4"/>
<path d="M50.6679 5.90137C51.1861 6.1863 51.4452 6.61644 51.4452 7.19178C51.4452 7.70137 51.2568 8.10959 50.8799 8.41644C50.503 8.72329 49.9996 8.87671 49.3695 8.87671H46.7638V3.12329H49.2017C49.82 3.12329 50.3146 3.27123 50.6856 3.56712C51.0565 3.85753 51.242 4.25479 51.242 4.7589C51.242 5.2411 51.0507 5.62192 50.6679 5.90137ZM49.1575 4.43836H48.3449V5.34247H49.1575C49.2988 5.34247 49.4166 5.30411 49.5108 5.2274C49.6109 5.14521 49.661 5.03288 49.661 4.89041C49.661 4.75342 49.6139 4.64384 49.5196 4.56164C49.4254 4.47945 49.3047 4.43836 49.1575 4.43836ZM49.3253 7.56164C49.4843 7.56164 49.6139 7.51781 49.714 7.43014C49.8141 7.33699 49.8641 7.21918 49.8641 7.07671C49.8641 6.92877 49.8141 6.81096 49.714 6.72329C49.6139 6.63562 49.4843 6.59178 49.3253 6.59178H48.3449V7.56164H49.3253Z" fill="#F7D6B4"/>
<path d="M58.5252 8.87671H56.7587L54.9833 6.30411V8.87671H53.4022V3.12329H54.9833V5.53973L56.6703 3.12329H58.4369L56.476 5.91781L58.5252 8.87671Z" fill="#F7D6B4"/>
<path d="M64.2953 8.87671L64.0303 8.04657H61.9722L61.7073 8.87671H59.9937L62.0341 3.12329H63.9596L66 8.87671H64.2953ZM62.3785 6.78082H63.624L62.9968 4.82466L62.3785 6.78082Z" fill="#F7D6B4"/>
<circle cx="70" cy="6" r="1" fill="#F7D6B4"/>
</svg>
