<svg width="162" height="32" viewBox="0 0 162 32" fill="none" xmlns="http://www.w3.org/2000/svg">
<path d="M0 9.6C0 4.29807 4.35179 0 9.72 0H152.28C157.648 0 162 4.29807 162 9.6V22.4C162 27.7019 157.648 32 152.28 32H9.72C4.35179 32 0 27.7019 0 22.4V9.6Z" fill="#DB1D1D"/>
<path fill-rule="evenodd" clip-rule="evenodd" d="M31.5338 10.7949H41.5176V13.6763H31.5338V14.7198H41.5176V17.6H31.5338C29.9288 17.6 28.6175 16.3038 28.6175 14.7198V6.87174H41.5176V9.75192H31.5338V10.7949ZM50.8865 9.75192V17.6H47.9689V9.75192H42.977V6.87174H55.8784V9.75192H50.8865ZM60.2553 13.6763V17.6H57.3378V6.87174H70.2391V10.7949C70.2391 12.3801 68.9266 13.6763 67.3228 13.6763H60.2553ZM60.2553 9.75192V10.7949H67.3228V9.75192H60.2553ZM84.5986 6.87174V9.75192H74.6148V14.7198H84.5986V17.6H74.6148C73.0115 17.6 71.6985 16.3038 71.6985 14.7198V6.87174H84.5986ZM84.5986 6.87174C86.2037 6.87174 87.5174 8.16797 87.5174 9.75192V14.7198C87.5174 16.3038 86.2037 17.6 84.5986 17.6V6.87174ZM88.9781 6.87174H91.9098C93.4189 6.87174 94.3451 8.37112 94.8119 9.75192L96.8204 15.1368L98.8284 9.75192C99.2944 8.37112 100.22 6.87174 101.729 6.87174H104.662V17.6H101.745V9.75192L99.8914 14.7198C98.4938 18.4634 95.1374 18.4527 93.7476 14.7198L91.8944 9.75192V17.6H88.9781V6.87174ZM119.022 6.87174V9.75192H109.038V14.7198H119.022V17.6H109.038C107.433 17.6 106.12 16.3038 106.12 14.7198V6.87174H119.022ZM119.022 6.87174C120.627 6.87174 121.94 8.16797 121.94 9.75192V14.7198C121.94 16.3038 120.627 17.6 119.022 17.6V6.87174ZM136.3 6.87174V9.75192H126.317V14.7198H136.3V17.6H126.317C124.712 17.6 123.399 16.3038 123.399 14.7198V6.87174H136.3ZM145.668 9.75192V17.6H142.751V9.75192H137.759V6.87174H150.66V9.75192H145.668ZM11.34 6.87174H24.2414C25.8451 6.87174 27.1581 8.16797 27.1581 9.75192V17.6H24.2414V9.75192H14.2567V17.6H11.34V6.87174Z" fill="#FFFEFE"/>
</svg>
