<svg width="82" height="12" viewBox="0 0 82 12" fill="none" xmlns="http://www.w3.org/2000/svg">
<rect x="-50" y="-32" width="390" height="52" fill="white"/>
<rect x="-50" y="-32" width="390" height="52" stroke="#F5E6D6" stroke-width="0.975"/>
<path d="M0 6C0 2.68629 2.68629 0 6 0H76C79.3137 0 82 2.68629 82 6C82 9.31371 79.3137 12 76 12H6C2.68629 12 0 9.31371 0 6Z" fill="#A20405"/>
<circle cx="6" cy="6" r="1" fill="#F6D6B4"/>
<path d="M13.0067 9C12.139 9 11.4196 8.71507 10.8485 8.14521C10.2828 7.56986 10 6.85479 10 6C10 5.14521 10.2828 4.43288 10.8485 3.86301C11.4196 3.28767 12.139 3 13.0067 3C13.5284 3 14.0117 3.12329 14.4565 3.36986C14.9013 3.61644 15.2501 3.94795 15.5027 4.36438L14.2259 5.09589C14.116 4.89315 13.9513 4.73425 13.7316 4.61918C13.5174 4.49863 13.2758 4.43836 13.0067 4.43836C12.5454 4.43836 12.172 4.58356 11.8864 4.87397C11.6063 5.1589 11.4663 5.53425 11.4663 6C11.4663 6.46575 11.6063 6.84384 11.8864 7.13425C12.172 7.41918 12.5454 7.56164 13.0067 7.56164C13.2758 7.56164 13.5174 7.50411 13.7316 7.38904C13.9513 7.26849 14.116 7.10411 14.2259 6.89589L15.5027 7.63562C15.2501 8.05753 14.9013 8.39178 14.4565 8.63836C14.0172 8.87945 13.5339 9 13.0067 9Z" fill="#F6D6B4"/>
<path d="M20.7836 8.87671L20.5365 8.04658H18.6171L18.37 8.87671H16.7719L18.6748 3.12329H20.4706L22.3734 8.87671H20.7836ZM18.996 6.78082H20.1575L19.5727 4.82466L18.996 6.78082Z" fill="#F6D6B4"/>
<path d="M29.9099 3.12329V8.87671H28.4436V5.77808L27.0433 8.08767H26.895L25.5028 5.7863V8.87671H24.0283V3.12329H25.5028L26.9691 5.58082L28.4436 3.12329H29.9099Z" fill="#F6D6B4"/>
<path d="M37.0041 8.13699C36.4219 8.71233 35.708 9 34.8623 9C34.0166 9 33.2999 8.71233 32.7123 8.13699C32.1302 7.55616 31.8391 6.84384 31.8391 6C31.8391 5.15616 32.1302 4.44658 32.7123 3.87123C33.2999 3.29041 34.0166 3 34.8623 3C35.708 3 36.4219 3.29041 37.0041 3.87123C37.5917 4.44658 37.8855 5.15616 37.8855 6C37.8855 6.84384 37.5917 7.55616 37.0041 8.13699ZM33.7502 7.12603C34.0468 7.41644 34.4175 7.56164 34.8623 7.56164C35.3071 7.56164 35.6778 7.41644 35.9744 7.12603C36.2709 6.83014 36.4192 6.45479 36.4192 6C36.4192 5.54521 36.2709 5.1726 35.9744 4.88219C35.6778 4.5863 35.3071 4.43836 34.8623 4.43836C34.4175 4.43836 34.0468 4.5863 33.7502 4.88219C33.4537 5.1726 33.3054 5.54521 33.3054 6C33.3054 6.45479 33.4537 6.83014 33.7502 7.12603Z" fill="#F6D6B4"/>
<path d="M43.4461 5.90137C43.9294 6.1863 44.171 6.61644 44.171 7.19178C44.171 7.70137 43.9953 8.10959 43.6438 8.41644C43.2924 8.72329 42.8228 8.87671 42.2352 8.87671H39.8051V3.12329H42.0787C42.6553 3.12329 43.1166 3.27123 43.4626 3.56712C43.8086 3.85753 43.9816 4.25479 43.9816 4.7589C43.9816 5.2411 43.8031 5.62192 43.4461 5.90137ZM42.0375 4.43836H41.2797V5.34247H42.0375C42.1693 5.34247 42.2791 5.30411 42.367 5.2274C42.4604 5.14521 42.5071 5.03288 42.5071 4.89041C42.5071 4.75342 42.4631 4.64384 42.3753 4.56164C42.2874 4.47945 42.1748 4.43836 42.0375 4.43836ZM42.194 7.56164C42.3423 7.56164 42.4631 7.51781 42.5565 7.43014C42.6498 7.33699 42.6965 7.21918 42.6965 7.07671C42.6965 6.92877 42.6498 6.81096 42.5565 6.72329C42.4631 6.63562 42.3423 6.59178 42.194 6.59178H41.2797V7.56164H42.194Z" fill="#F6D6B4"/>
<path d="M45.9962 8.87671V3.12329H47.4707V4.84932H48.2368C48.8189 4.84932 49.3077 5.0411 49.7031 5.42466C50.0985 5.80274 50.2962 6.28219 50.2962 6.86301C50.2962 7.44932 50.0985 7.93151 49.7031 8.30959C49.3077 8.68767 48.8189 8.87671 48.2368 8.87671H45.9962ZM50.7739 8.87671V3.12329H52.2402V8.87671H50.7739ZM47.4707 7.47945H48.2368C48.4015 7.47945 48.5388 7.42192 48.6486 7.30685C48.764 7.19178 48.8216 7.04384 48.8216 6.86301C48.8216 6.68219 48.764 6.53699 48.6486 6.4274C48.5388 6.31233 48.4015 6.25479 48.2368 6.25479H47.4707V7.47945Z" fill="#F6D6B4"/>
<path d="M58.0324 5.90137C58.5156 6.1863 58.7573 6.61644 58.7573 7.19178C58.7573 7.70137 58.5815 8.10959 58.2301 8.41644C57.8786 8.72329 57.4091 8.87671 56.8214 8.87671H54.3914V3.12329H56.6649C57.2416 3.12329 57.7029 3.27123 58.0488 3.56712C58.3948 3.85753 58.5678 4.25479 58.5678 4.7589C58.5678 5.2411 58.3893 5.62192 58.0324 5.90137ZM56.6237 4.43836H55.8659V5.34247H56.6237C56.7555 5.34247 56.8654 5.30411 56.9532 5.2274C57.0466 5.14521 57.0933 5.03288 57.0933 4.89041C57.0933 4.75342 57.0493 4.64384 56.9615 4.56164C56.8736 4.47945 56.761 4.43836 56.6237 4.43836ZM56.7803 7.56164C56.9285 7.56164 57.0493 7.51781 57.1427 7.43014C57.2361 7.33699 57.2827 7.21918 57.2827 7.07671C57.2827 6.92877 57.2361 6.81096 57.1427 6.72329C57.0493 6.63562 56.9285 6.59178 56.7803 6.59178H55.8659V7.56164H56.7803Z" fill="#F6D6B4"/>
<path d="M65.5249 8.13699C64.9428 8.71233 64.2289 9 63.3832 9C62.5374 9 61.8208 8.71233 61.2332 8.13699C60.651 7.55616 60.36 6.84384 60.36 6C60.36 5.15616 60.651 4.44658 61.2332 3.87123C61.8208 3.29041 62.5374 3 63.3832 3C64.2289 3 64.9428 3.29041 65.5249 3.87123C66.1125 4.44658 66.4063 5.15616 66.4063 6C66.4063 6.84384 66.1125 7.55616 65.5249 8.13699ZM62.2711 7.12603C62.5676 7.41644 62.9383 7.56164 63.3832 7.56164C63.828 7.56164 64.1987 7.41644 64.4952 7.12603C64.7918 6.83014 64.9401 6.45479 64.9401 6C64.9401 5.54521 64.7918 5.1726 64.4952 4.88219C64.1987 4.5863 63.828 4.43836 63.3832 4.43836C62.9383 4.43836 62.5676 4.5863 62.2711 4.88219C61.9745 5.1726 61.8263 5.54521 61.8263 6C61.8263 6.45479 61.9745 6.83014 62.2711 7.12603Z" fill="#F6D6B4"/>
<path d="M71.2257 5.90959C71.7419 6.2 72 6.64931 72 7.25753C72 7.78356 71.8023 8.20548 71.4069 8.52329C71.0115 8.8411 70.4898 9 69.8418 9C68.7215 9 67.9773 8.55068 67.6094 7.65205L68.8697 6.92877C69.0345 7.38356 69.3585 7.61096 69.8418 7.61096C70.2976 7.61096 70.5255 7.4411 70.5255 7.10137C70.5255 6.80548 70.3415 6.6411 69.9736 6.60822L69.1004 6.6V5.32603H69.6688C70.1136 5.32603 70.336 5.16712 70.336 4.84932C70.336 4.53151 70.1383 4.3726 69.7429 4.3726C69.3475 4.3726 69.0729 4.56712 68.9192 4.95616L67.6835 4.2411C67.8593 3.85205 68.1256 3.54795 68.4826 3.32877C68.845 3.10959 69.2734 3 69.7676 3C70.3717 3 70.8632 3.1589 71.2422 3.47671C71.6211 3.78904 71.8105 4.20548 71.8105 4.72603C71.8105 5.23014 71.6156 5.62466 71.2257 5.90959Z" fill="#F6D6B4"/>
<circle cx="76" cy="6" r="1" fill="#F6D6B4"/>
</svg>
