<svg width="60" height="12" viewBox="0 0 60 12" fill="none" xmlns="http://www.w3.org/2000/svg">
<rect x="-61" y="-32" width="390" height="52" fill="white"/>
<rect x="-61" y="-32" width="390" height="52" stroke="#F5E6D6" stroke-width="0.975"/>
<path d="M0 6C0 2.68629 2.68629 0 6 0H54C57.3137 0 60 2.68629 60 6C60 9.31371 57.3137 12 54 12H6C2.68629 12 0 9.31371 0 6Z" fill="#A20405"/>
<circle cx="4.90826" cy="6" r="1" fill="#F6D6B4"/>
<path d="M12.4443 5.90401C12.9136 6.18135 13.1483 6.60001 13.1483 7.16001C13.1483 7.65601 12.9776 8.05335 12.6363 8.35201C12.2949 8.65068 11.8389 8.80001 11.2683 8.80001H8.90826V3.20001H11.1163C11.6763 3.20001 12.1243 3.34401 12.4603 3.63201C12.7963 3.91468 12.9643 4.30135 12.9643 4.79201C12.9643 5.26135 12.7909 5.63201 12.4443 5.90401ZM11.0763 4.48001H10.3403V5.36001H11.0763C11.2043 5.36001 11.3109 5.32268 11.3963 5.24801C11.4869 5.16801 11.5323 5.05868 11.5323 4.92001C11.5323 4.78668 11.4896 4.68001 11.4043 4.60001C11.3189 4.52001 11.2096 4.48001 11.0763 4.48001ZM11.2283 7.52001C11.3723 7.52001 11.4896 7.47735 11.5803 7.39201C11.6709 7.30135 11.7163 7.18668 11.7163 7.04801C11.7163 6.90401 11.6709 6.78935 11.5803 6.70401C11.4896 6.61868 11.3723 6.57601 11.2283 6.57601H10.3403V7.52001H11.2283Z" fill="#F6D6B4"/>
<path d="M18.0088 8.80001V5.98401L16.0328 8.80001H14.9208V3.20001H16.3528V6.01601L18.3288 3.20001H19.4328V8.80001H18.0088Z" fill="#F6D6B4"/>
<path d="M25.3592 3.20001V4.58401H23.9752V8.80001H22.5432V4.58401H21.1592V3.20001H25.3592Z" fill="#F6D6B4"/>
<path d="M29.2546 3.20001C29.8199 3.20001 30.2946 3.38401 30.6786 3.75201C31.0626 4.12001 31.2546 4.58935 31.2546 5.16001C31.2546 5.73068 31.0626 6.20001 30.6786 6.56801C30.2946 6.93601 29.8199 7.12001 29.2546 7.12001H28.5106V8.80001H27.0786V3.20001H29.2546ZM29.2546 5.76001C29.4146 5.76001 29.5479 5.70401 29.6546 5.59201C29.7666 5.48001 29.8226 5.33601 29.8226 5.16001C29.8226 4.98401 29.7666 4.84268 29.6546 4.73601C29.5479 4.62401 29.4146 4.56801 29.2546 4.56801H28.5106V5.76001H29.2546Z" fill="#F6D6B4"/>
<path d="M36.101 8.80001V5.98401L34.125 8.80001H33.013V3.20001H34.445V6.01601L36.421 3.20001H37.525V8.80001H36.101Z" fill="#F6D6B4"/>
<path d="M42.6194 3.20001H44.0434V8.80001H42.6194V6.64801H41.0434V8.80001H39.6114V3.20001H41.0434V5.27201H42.6194V3.20001Z" fill="#F6D6B4"/>
<path d="M49.5477 8.80001L49.3077 7.99201H47.4437L47.2037 8.80001H45.6517L47.4997 3.20001H49.2437L51.0917 8.80001H49.5477ZM47.8117 6.76001H48.9397L48.3717 4.85601L47.8117 6.76001Z" fill="#F6D6B4"/>
<circle cx="55.0917" cy="6" r="1" fill="#F6D6B4"/>
</svg>
