<svg width="6" height="8" fill="none" xmlns="http://www.w3.org/2000/svg"><path fill-rule="evenodd" clip-rule="evenodd" d="M3 1A2.4 2.4 0 00.6 3.4c0 .93.605 1.831 1.268 2.531a8.827 8.827 0 001.132 1 8.827 8.827 0 001.132-1C4.795 5.231 5.4 4.33 5.4 3.4A2.4 2.4 0 003 1zm0 6.3l-.167.25v-.001l-.002-.001-.007-.005a3.387 3.387 0 01-.116-.081 9.427 9.427 0 01-1.276-1.118C.745 5.619 0 4.57 0 3.4a3 3 0 116 0c0 1.17-.745 2.219-1.432 2.944a9.427 9.427 0 01-1.392 1.199l-.007.005-.002.001L3 7.3zm0 0l.166.25a.3.3 0 01-.333 0L3 7.3z" fill="#BE957D"/><path fill-rule="evenodd" clip-rule="evenodd" d="M3 2.8A.6.6 0 103 4a.6.6 0 000-1.2zm-1.2.6a1.2 1.2 0 112.4 0 1.2 1.2 0 01-2.4 0z" fill="#BE957D"/></svg>