<svg width="8" height="8" fill="none" xmlns="http://www.w3.org/2000/svg"><path fill-rule="evenodd" clip-rule="evenodd" d="M1.082 2.769a.278.278 0 00-.197.34l.863 3.22c.04.148.192.236.34.196l4.83-1.294a.278.278 0 00.196-.34l-.862-3.22a.278.278 0 00-.34-.196l-4.83 1.294zm-.733.484a.833.833 0 01.59-1.02L5.767.937a.833.833 0 011.02.59l.863 3.22a.833.833 0 01-.59 1.02L2.233 7.062a.833.833 0 01-1.02-.59L.35 3.252z" fill="#BE957D"/><path fill-rule="evenodd" clip-rule="evenodd" d="M.636 4.326a.278.278 0 01.197-.34l5.903-1.582a.278.278 0 01.144.537L.977 4.523a.278.278 0 01-.34-.197z" fill="#BE957D"/></svg>