<svg width="6" height="6" fill="none" xmlns="http://www.w3.org/2000/svg"><path fill-rule="evenodd" clip-rule="evenodd" d="M5.153.542a.304.304 0 00-.215.09L2.415 3.155l-.144.574.574-.144 2.523-2.523a.304.304 0 00-.215-.52zM4.555.248a.847.847 0 111.197 1.197L3.175 4.022a.271.271 0 01-.126.071l-1.085.272a.271.271 0 01-.329-.33l.272-1.084a.271.271 0 01.071-.126L4.555.248zM.238.814A.814.814 0 01.814.575h1.898a.271.271 0 110 .543H.814a.271.271 0 00-.272.271v3.797a.271.271 0 00.272.272H4.61a.271.271 0 00.271-.272V3.288a.271.271 0 01.543 0v1.898A.814.814 0 014.61 6H.814A.814.814 0 010 5.186V1.39C0 1.173.086.966.238.814z" fill="#BE957D"/></svg>