<svg width="76" height="12" fill="none" xmlns="http://www.w3.org/2000/svg"><path fill="#232323" d="M0 0h76v12H0z"/><path d="M0 6a6 6 0 016-6h64a6 6 0 010 12H6a6 6 0 01-6-6z" fill="#A20405"/><circle cx="6" cy="6" r="1" fill="#F7D6B4"/><path d="M15.38 7.455h.662v1.422H10V7.455h.654c.282-.422.424-1.03.424-1.825V3.123h4.301v4.332zm-3.084 0h1.51V4.488H12.65v1.159c0 .767-.118 1.37-.354 1.808zm10.928.682c-.624.575-1.39.863-2.297.863-.906 0-1.675-.288-2.305-.863-.624-.58-.936-1.293-.936-2.137 0-.844.312-1.553.936-2.129.63-.58 1.399-.871 2.305-.871.907 0 1.673.29 2.297.871.63.576.945 1.285.945 2.129 0 .844-.315 1.556-.945 2.137zm-3.489-1.011c.318.29.716.436 1.192.436.477 0 .875-.146 1.193-.436.318-.296.477-.671.477-1.126 0-.455-.16-.827-.477-1.118-.318-.296-.716-.444-1.193-.444-.476 0-.874.148-1.192.444-.318.29-.477.663-.477 1.118 0 .455.16.83.477 1.126zM29.213 9c-.93 0-1.702-.285-2.314-.855-.607-.575-.91-1.29-.91-2.145s.303-1.567.91-2.137C27.51 3.288 28.283 3 29.213 3c.56 0 1.078.123 1.555.37.477.246.85.578 1.121.994l-1.369.732a1.203 1.203 0 00-.53-.477c-.23-.12-.488-.18-.777-.18-.495 0-.895.145-1.201.435-.3.285-.45.66-.45 1.126 0 .466.15.844.45 1.134.306.285.706.428 1.201.428.289 0 .548-.058.777-.173.236-.12.413-.285.53-.493l1.37.74a2.859 2.859 0 01-1.122 1.002c-.471.241-.99.362-1.555.362zm8.841-5.877v1.422h-1.528v4.332h-1.58V4.545h-1.529V3.123h4.637zm5.231 5.754l-.265-.83h-2.06l-.264.83h-1.714l2.04-5.754h1.926l2.04 5.754h-1.704zM41.368 6.78h1.245l-.627-1.956-.618 1.956zm9.3-.879c.518.285.777.715.777 1.29 0 .51-.188.919-.565 1.225-.377.307-.88.46-1.51.46h-2.606V3.124h2.438c.618 0 1.113.148 1.484.444.37.29.556.688.556 1.192 0 .482-.191.863-.574 1.142zm-1.51-1.463h-.813v.904h.813a.54.54 0 00.353-.115c.1-.082.15-.194.15-.337a.414.414 0 00-.141-.328.53.53 0 00-.363-.124zm.167 3.124a.568.568 0 00.389-.132.46.46 0 00.15-.353.446.446 0 00-.15-.354.568.568 0 00-.389-.131h-.98v.97h.98zm9.2 1.315H56.76l-1.776-2.573v2.573h-1.58V3.123h1.58V5.54l1.687-2.417h1.767l-1.961 2.795 2.05 2.959zm5.77 0l-.265-.83h-2.058l-.265.83h-1.713l2.04-5.754h1.926L66 8.877h-1.705zM62.38 6.78h1.245l-.627-1.956-.618 1.956z" fill="#F7D6B4"/><circle cx="70" cy="6" r="1" fill="#F7D6B4"/></svg>