<svg width="162" height="32" fill="none" xmlns="http://www.w3.org/2000/svg"><path d="M0 9.6C0 4.298 4.352 0 9.72 0h142.56c5.368 0 9.72 4.298 9.72 9.6v12.8c0 5.302-4.352 9.6-9.72 9.6H9.72C4.352 32 0 27.702 0 22.4V9.6z" fill="#DB1D1D"/><path fill-rule="evenodd" clip-rule="evenodd" d="M31.534 10.795h9.984v2.881h-9.984v1.044h9.984v2.88h-9.984c-1.605 0-2.916-1.296-2.916-2.88V6.872h12.9v2.88h-9.984v1.043zm19.352-1.043V17.6H47.97V9.752h-4.992v-2.88h12.901v2.88h-4.992zm9.37 3.924V17.6h-2.918V6.872h12.901v3.923c0 1.585-1.312 2.881-2.916 2.881h-7.068zm0-3.924v1.043h7.067V9.752h-7.068zm24.343-2.88v2.88h-9.984v4.968h9.984v2.88h-9.984c-1.603 0-2.916-1.296-2.916-2.88V6.872h12.9zm0 0c1.605 0 2.918 1.296 2.918 2.88v4.968c0 1.584-1.313 2.88-2.918 2.88V6.872zm4.38 0h2.93c1.51 0 2.436 1.5 2.903 2.88l2.008 5.385 2.008-5.385c.466-1.38 1.392-2.88 2.901-2.88h2.933V17.6h-2.917V9.752l-1.854 4.968c-1.397 3.743-4.754 3.733-6.143 0l-1.854-4.968V17.6h-2.916V6.872zm30.043 0v2.88h-9.984v4.968h9.984v2.88h-9.984c-1.605 0-2.918-1.296-2.918-2.88V6.872h12.902zm0 0c1.605 0 2.918 1.296 2.918 2.88v4.968c0 1.584-1.313 2.88-2.918 2.88V6.872zm17.278 0v2.88h-9.983v4.968h9.983v2.88h-9.983c-1.605 0-2.918-1.296-2.918-2.88V6.872H136.3zm9.368 2.88V17.6h-2.917V9.752h-4.992v-2.88h12.901v2.88h-4.992zM11.34 6.872h12.901c1.604 0 2.917 1.296 2.917 2.88V17.6h-2.917V9.752h-9.984V17.6H11.34V6.872z" fill="#FFFEFE"/></svg>