<svg width="82" height="12" fill="none" xmlns="http://www.w3.org/2000/svg"><path fill="#fff" d="M-50-32h390v52H-50z"/><path stroke="#F5E6D6" stroke-width=".975" d="M-50-32h390v52H-50z"/><path d="M0 6a6 6 0 016-6h70a6 6 0 010 12H6a6 6 0 01-6-6z" fill="#A20405"/><circle cx="6" cy="6" r="1" fill="#F6D6B4"/><path d="M13.007 9c-.868 0-1.587-.285-2.159-.855C10.284 7.57 10 6.855 10 6s.283-1.567.848-2.137C11.42 3.288 12.14 3 13.008 3a2.94 2.94 0 011.45.37c.444.246.793.578 1.046.994l-1.277.732a1.154 1.154 0 00-.494-.477 1.452 1.452 0 00-.725-.18c-.462 0-.835.145-1.12.435-.28.285-.42.66-.42 1.126 0 .466.14.844.42 1.134.285.285.658.428 1.12.428.269 0 .51-.058.725-.173.22-.12.384-.285.494-.493l1.277.74a2.745 2.745 0 01-1.046 1.002c-.44.241-.923.362-1.45.362zm7.777-.123l-.247-.83h-1.92l-.247.83h-1.598l1.903-5.754h1.796l1.902 5.754h-1.59zM18.996 6.78h1.162l-.585-1.956-.577 1.956zM29.91 3.123v5.754h-1.466V5.778l-1.4 2.31h-.149l-1.392-2.302v3.09h-1.475V3.124h1.475l1.466 2.458 1.475-2.458h1.466zm7.094 5.014c-.582.575-1.296.863-2.142.863-.845 0-1.562-.288-2.15-.863-.582-.58-.873-1.293-.873-2.137 0-.844.291-1.553.873-2.129.588-.58 1.305-.871 2.15-.871.846 0 1.56.29 2.142.871.588.576.882 1.285.882 2.129 0 .844-.294 1.556-.882 2.137zM33.75 7.126c.297.29.667.436 1.112.436.445 0 .816-.146 1.112-.436.297-.296.445-.671.445-1.126 0-.455-.148-.827-.445-1.118-.296-.296-.667-.444-1.112-.444a1.51 1.51 0 00-1.112.444c-.296.29-.445.663-.445 1.118 0 .455.149.83.445 1.126zm9.696-1.225c.483.285.725.715.725 1.29 0 .51-.176.919-.527 1.225-.352.307-.821.46-1.409.46h-2.43V3.124h2.274c.576 0 1.038.148 1.384.444.346.29.519.688.519 1.192 0 .482-.179.863-.536 1.142zm-1.408-1.463h-.758v.904h.758a.483.483 0 00.329-.115.426.426 0 00.14-.337.429.429 0 00-.132-.328.475.475 0 00-.337-.124zm.156 3.124c.148 0 .27-.044.362-.132a.479.479 0 00.14-.353.462.462 0 00-.14-.354.508.508 0 00-.362-.131h-.914v.97h.914zm3.802 1.315V3.123h1.475V4.85h.766c.582 0 1.07.192 1.466.576.395.378.593.857.593 1.438 0 .586-.197 1.069-.593 1.447-.395.378-.884.567-1.466.567h-2.24zm4.778 0V3.123h1.466v5.754h-1.466zM47.47 7.479h.766a.546.546 0 00.412-.172.6.6 0 00.173-.444.573.573 0 00-.173-.436.546.546 0 00-.412-.172h-.766v1.224zm10.562-1.578c.484.285.725.715.725 1.29 0 .51-.175.919-.527 1.225-.351.307-.82.46-1.409.46h-2.43V3.124h2.274c.577 0 1.038.148 1.384.444.346.29.519.688.519 1.192 0 .482-.179.863-.536 1.142zm-1.408-1.463h-.758v.904h.758a.483.483 0 00.33-.115.426.426 0 00.14-.337.429.429 0 00-.133-.328.475.475 0 00-.337-.124zm.156 3.124a.508.508 0 00.363-.132.478.478 0 00.14-.353.461.461 0 00-.14-.354.508.508 0 00-.363-.131h-.914v.97h.914zm8.745.575c-.582.575-1.296.863-2.142.863-.846 0-1.562-.288-2.15-.863-.582-.58-.873-1.293-.873-2.137 0-.844.291-1.553.873-2.129.588-.58 1.304-.871 2.15-.871.846 0 1.56.29 2.142.871.587.576.881 1.285.881 2.129 0 .844-.294 1.556-.881 2.137zM62.27 7.126c.297.29.667.436 1.112.436.445 0 .816-.146 1.112-.436.297-.296.445-.671.445-1.126 0-.455-.148-.827-.445-1.118-.296-.296-.667-.444-1.112-.444a1.51 1.51 0 00-1.112.444c-.297.29-.445.663-.445 1.118 0 .455.148.83.445 1.126zm8.956-1.216c.516.29.774.74.774 1.348 0 .526-.198.947-.593 1.265-.395.318-.917.477-1.565.477-1.12 0-1.865-.45-2.233-1.348l1.26-.723c.165.455.49.682.973.682.456 0 .683-.17.683-.51 0-.296-.184-.46-.551-.493L69.1 6.6V5.326h.569c.445 0 .667-.159.667-.477 0-.317-.198-.476-.593-.476-.395 0-.67.194-.824.583l-1.236-.715c.176-.389.443-.693.8-.912.362-.22.79-.329 1.285-.329.604 0 1.095.159 1.474.477.38.312.569.728.569 1.249 0 .504-.195.899-.585 1.184z" fill="#F6D6B4"/><circle cx="76" cy="6" r="1" fill="#F6D6B4"/></svg>