<svg width="60" height="12" fill="none" xmlns="http://www.w3.org/2000/svg"><path fill="#fff" d="M-61-32h390v52H-61z"/><path stroke="#F5E6D6" stroke-width=".975" d="M-61-32h390v52H-61z"/><path d="M0 6a6 6 0 016-6h48a6 6 0 010 12H6a6 6 0 01-6-6z" fill="#A20405"/><circle cx="4.908" cy="6" r="1" fill="#F6D6B4"/><path d="M12.444 5.904c.47.277.704.696.704 1.256 0 .496-.17.893-.512 1.192-.341.299-.797.448-1.368.448h-2.36V3.2h2.208c.56 0 1.008.144 1.344.432.336.283.504.67.504 1.16 0 .47-.173.84-.52 1.112zM11.076 4.48h-.736v.88h.736a.469.469 0 00.32-.112c.09-.08.136-.19.136-.328a.418.418 0 00-.128-.32.46.46 0 00-.328-.12zm.152 3.04a.493.493 0 00.352-.128.466.466 0 00.136-.344.45.45 0 00-.136-.344.493.493 0 00-.352-.128h-.888v.944h.888zm6.781 1.28V5.984L16.033 8.8H14.92V3.2h1.432v2.816L18.329 3.2h1.104v5.6h-1.424zm7.351-5.6v1.384h-1.385V8.8h-1.432V4.584H21.16V3.2h4.2zm3.895 0c.565 0 1.04.184 1.424.552.384.368.576.837.576 1.408 0 .57-.192 1.04-.576 1.408-.384.368-.86.552-1.424.552h-.744V8.8h-1.432V3.2h2.176zm0 2.56a.53.53 0 00.4-.168.585.585 0 00.168-.432.558.558 0 00-.168-.424.53.53 0 00-.4-.168h-.744V5.76h.744zm6.846 3.04V5.984L34.125 8.8h-1.112V3.2h1.432v2.816L36.421 3.2h1.104v5.6h-1.424zm6.519-5.6h1.423v5.6H42.62V6.648h-1.576V8.8h-1.432V3.2h1.432v2.072h1.576V3.2zm6.928 5.6l-.24-.808h-1.864l-.24.808h-1.552L47.5 3.2h1.744l1.848 5.6h-1.544zm-1.736-2.04h1.128l-.568-1.904-.56 1.904z" fill="#F6D6B4"/><circle cx="55.092" cy="6" r="1" fill="#F6D6B4"/></svg>