<svg width="6" height="6" viewBox="0 0 6 6" fill="none" xmlns="http://www.w3.org/2000/svg">
<path fill-rule="evenodd" clip-rule="evenodd" d="M4.45678 0.490362C4.94326 0.8244 5.32221 1.46115 5.57731 2.09263C5.83871 2.7397 6 3.45615 6 4C6 4.1841 5.85076 4.33333 5.66667 4.33333H0.333333C0.149238 4.33333 0 4.1841 0 4C0 3.45615 0.161289 2.7397 0.422687 2.09263C0.67779 1.46115 1.05674 0.824401 1.54322 0.490362C2.34803 -0.163454 3.65197 -0.163454 4.45678 0.490362ZM4.04475 1.01463C3.4833 0.55068 2.5167 0.55068 1.95525 1.01463C1.94678 1.02162 1.93798 1.0282 1.92886 1.03433C1.60496 1.25201 1.28386 1.74071 1.04082 2.34234C0.85742 2.79633 0.735266 3.27278 0.688283 3.66667H5.31172C5.26473 3.27278 5.14258 2.79633 4.95918 2.34234C4.71614 1.74071 4.39504 1.25201 4.07114 1.03433C4.06203 1.0282 4.05322 1.02162 4.04475 1.01463ZM1.76402 5.09791C1.89404 4.96758 2.1051 4.96733 2.23542 5.09735C2.29152 5.15331 2.3882 5.21441 2.5284 5.26115C2.66685 5.3073 2.82991 5.33333 3 5.33333C3.17009 5.33333 3.33315 5.3073 3.4716 5.26115C3.6118 5.21441 3.70848 5.15331 3.76458 5.09735C3.8949 4.96733 4.10596 4.96758 4.23598 5.09791C4.366 5.22824 4.36575 5.43929 4.23542 5.56931C4.08827 5.71612 3.89322 5.82334 3.68242 5.8936C3.46986 5.96445 3.23498 6 3 6C2.76502 6 2.53014 5.96445 2.31758 5.8936C2.10678 5.82334 1.91173 5.71612 1.76458 5.56931C1.63425 5.43929 1.634 5.22824 1.76402 5.09791Z" fill="#BE957D"/>
</svg>
