<svg width="31" height="48" viewBox="0 0 31 48" fill="none" xmlns="http://www.w3.org/2000/svg">
<g clip-path="url(#clip0_130_112)">
<path fill-rule="evenodd" clip-rule="evenodd" d="M26.1997 43.155C25.5893 43.767 24.8564 44.0713 24 44.0713C23.1438 44.0713 22.4107 43.767 21.8003 43.155C21.1883 42.5445 20.884 41.8111 20.884 40.9552C20.884 40.099 21.1883 39.366 21.8003 38.7555C22.4107 38.1435 23.1438 37.8392 24 37.8392C24.8564 37.8392 25.5893 38.1435 26.1997 38.7555C26.8117 39.366 27.116 40.099 27.116 40.9552C27.116 41.8111 26.8117 42.5445 26.1997 43.155ZM22.1293 34.9781L21.1408 25.2628V17.9286H26.8234V25.2628L25.8709 34.9781H22.1293ZM24 7C37.2553 7 48 17.7448 48 31.0001C48 44.2551 37.2553 55 24 55C10.7449 55 0 44.2551 0 31.0001C0 17.7448 10.7449 7 24 7Z" fill="#F5E6D6"/>
<path fill-rule="evenodd" clip-rule="evenodd" d="M20 6.99993C20 9.20905 21.7908 11 24 11C26.2093 11 28 9.20905 28 6.99993C28 4.79079 26.2092 3 24 3C21.7908 3 20 4.79078 20 6.99993ZM24 9.70191C22.5078 9.70191 21.2981 8.4922 21.2981 6.99993C21.2981 5.5077 22.5077 4.29809 24 4.29809C25.4923 4.29809 26.7019 5.50769 26.7019 6.99993C26.7019 8.49221 25.4922 9.70191 24 9.70191Z" fill="#FFFAF5"/>
<path fill-rule="evenodd" clip-rule="evenodd" d="M24 3.64905C25.8507 3.64905 27.3509 5.14924 27.3509 6.99993C27.3509 8.85063 25.8507 10.351 24 10.351C22.1493 10.351 20.6491 8.85063 20.6491 6.99993C20.6491 5.14924 22.1493 3.64905 24 3.64905Z" fill="#DE1C23"/>
<path d="M24.307 8.697C24.2221 8.78257 24.1197 8.82483 24 8.82483C23.8805 8.82483 23.778 8.78257 23.6931 8.697C23.6075 8.61175 23.5649 8.50931 23.5649 8.39009C23.5649 8.27044 23.6075 8.16797 23.6931 8.08272C23.778 7.99726 23.8805 7.95482 24 7.95482C24.1197 7.95482 24.2221 7.99726 24.307 8.08272C24.3926 8.16797 24.4352 8.27044 24.4352 8.39009C24.4352 8.50931 24.3926 8.61175 24.307 8.697ZM23.7387 7.55534L23.6008 6.19895V5.17496H24.3941V6.19895L24.2613 7.55534H23.7387Z" fill="#FFFEFE"/>
</g>
<defs>
<clipPath id="clip0_130_112">
<rect width="31" height="48" fill="white"/>
</clipPath>
</defs>
</svg>
