<svg width="6" height="6" viewBox="0 0 6 6" fill="none" xmlns="http://www.w3.org/2000/svg">
<path fill-rule="evenodd" clip-rule="evenodd" d="M0.9 0.6C0.820435 0.6 0.744129 0.631607 0.687868 0.687868C0.631607 0.744129 0.6 0.820435 0.6 0.9V5.1C0.6 5.17957 0.631607 5.25587 0.687868 5.31213C0.744129 5.36839 0.820435 5.4 0.9 5.4H2.1C2.26569 5.4 2.4 5.53432 2.4 5.7C2.4 5.86569 2.26569 6 2.1 6H0.9C0.661305 6 0.432387 5.90518 0.263604 5.7364C0.0948212 5.56761 0 5.3387 0 5.1V0.9C0 0.661305 0.0948211 0.432387 0.263604 0.263604C0.432387 0.0948211 0.661305 0 0.9 0H2.1C2.26569 0 2.4 0.134315 2.4 0.3C2.4 0.465685 2.26569 0.6 2.1 0.6H0.9Z" fill="#BE957D"/>
<path fill-rule="evenodd" clip-rule="evenodd" d="M3.98787 1.28787C4.10503 1.17071 4.29497 1.17071 4.41213 1.28787L5.91213 2.78787C6.02929 2.90503 6.02929 3.09497 5.91213 3.21213L4.41213 4.71213C4.29497 4.82929 4.10503 4.82929 3.98787 4.71213C3.87071 4.59497 3.87071 4.40503 3.98787 4.28787L5.27574 3L3.98787 1.71213C3.87071 1.59497 3.87071 1.40503 3.98787 1.28787Z" fill="#BE957D"/>
<path fill-rule="evenodd" clip-rule="evenodd" d="M1.8 3C1.8 2.83431 1.93431 2.7 2.1 2.7H5.7C5.86569 2.7 6 2.83431 6 3C6 3.16569 5.86569 3.3 5.7 3.3H2.1C1.93431 3.3 1.8 3.16569 1.8 3Z" fill="#BE957D"/>
</svg>
