<svg width="6" height="6" viewBox="0 0 6 6" fill="none" xmlns="http://www.w3.org/2000/svg">
<path d="M0 3C0 1.68501 0 1.02751 0.363183 0.584971C0.42967 0.503956 0.503956 0.42967 0.584971 0.363183C1.02751 0 1.68501 0 3 0C4.31499 0 4.97249 0 5.41503 0.363183C5.49604 0.42967 5.57033 0.503956 5.63682 0.584971C6 1.02751 6 1.68501 6 3C6 4.31499 6 4.97249 5.63682 5.41503C5.57033 5.49604 5.49604 5.57033 5.41503 5.63682C4.97249 6 4.31499 6 3 6C1.68501 6 1.02751 6 0.584971 5.63682C0.503956 5.57033 0.42967 5.49604 0.363183 5.41503C0 4.97249 0 4.31499 0 3Z" fill="#BE957D"/>
<path d="M3.17863 4.2C1.81198 4.2 1.03248 3.2991 1 1.8H1.68457C1.70706 2.9003 2.21173 3.36637 2.61148 3.46246V1.8H3.2561V2.74895C3.65086 2.70811 4.06555 2.27568 4.20546 1.8H4.85007C4.74264 2.38619 4.29292 2.81862 3.97312 2.9964C4.29292 3.14054 4.80512 3.51772 5 4.2H4.29042C4.13801 3.74354 3.75829 3.39039 3.2561 3.34234V4.2H3.17863Z" fill="#FFFEFE"/>
<path fill-rule="evenodd" clip-rule="evenodd" d="M3.17863 4.2C1.81198 4.2 1.03248 3.2991 1 1.8H1.68457C1.70706 2.9003 2.21173 3.36637 2.61148 3.46246V1.8H3.2561V2.74895C3.65086 2.70811 4.06555 2.27568 4.20546 1.8H4.85007C4.74264 2.38619 4.29292 2.81862 3.97312 2.9964C4.29292 3.14054 4.80512 3.51772 5 4.2H4.29042C4.13801 3.74354 3.75829 3.39039 3.2561 3.34234V4.2H3.17863Z" fill="white"/>
</svg>
