<svg width="75" height="8" fill="none" xmlns="http://www.w3.org/2000/svg"><path fill-rule="evenodd" clip-rule="evenodd" d="M15.73 1.298c-.025.103-.154.178-.116.278.023.059.18-.135.186-.156l.013.071-.092.18c-.03.093-.006.105.053.061l.109-.128.062.003-.014.082-.094.167c-.034.095-.011.108.04.083l.109-.145.063-.002-.028.074-.118.192c-.024.071-.007.092.051.064l.123-.13.088-.024-.065.077-.142.187c-.033.068-.02.09.038.067l.15-.137.054.003-.03.06-.142.222c-.012.057.002.082.053.061l.134-.15.088.002-.062.084-.148.225c-.012.062.005.083.05.062l.132-.163.094-.006-.08.062-.145.242c-.017.062 0 .083.052.062l.127-.155.075-.007-.057.094-.139.21c-.029.08-.007.095.046.075l.118-.142.07-.003-.06.075-.12.207c-.028.096-.01.118.055.068l.086-.129.084.003-.07.131-.127.194c-.023.068-.014.098.042.07l.1-.11.064.014-.057.082-.138.221c-.026.062.004.1.056.054l.095-.124.059.05-.052.038-.142.225c-.037.061-.003.12.047.07l.107-.148.067.045-.056.096-.138.205c-.018.058.014.093.062.055l.089-.11.118.198-.022.062-.288.302c-.067.095-.1.23-.096.412l-.088 1.16c-.023.305-.096.572-.255.773l-.41.452c-.01.026-.01.054.02.088a.32.32 0 00.119.084.282.282 0 00.243-.105c.208-.253.28-.605.369-.947l.006-.16a.803.803 0 01.218.323c-.027.187-.095.316-.25.317-.05.03-.057.053 0 .062.144-.009.242-.085.284-.242a.411.411 0 01.042.19c-.11.175-.243.287-.445.202-.046-.007-.054.009-.024.047.198.12.348.058.472-.096-.037.147-.089.285-.265.37-.114.055-.22.022-.322-.06-.04-.017-.064.013-.045.04.057.119.32.155.459.065a.456.456 0 01-.111.14c-.007.043.028.04.08.014a.796.796 0 00.255-.469 1.04 1.04 0 00-.073-.653.603.603 0 00-.27-.33l.049-.822c.069-.754.23-.737.667-1.08l.294-.142.193.159-.197.237a.515.515 0 00-.087.33l.108 1.665a1.213 1.213 0 01-.251.664l-.175.231c-.072.09-.074.152-.007.183.143.106.254.047.348-.095.13-.26.188-.553.205-.865l-.087-1.16.01-.525c.008-.173.1-.3.222-.409l.324-.297-2.097-3.297zm4.65 3.372c.11.146.25.28.423.398.164.117.31.242.388.394.075.109.108.24.047.417a2.322 2.322 0 01-.329.649 4.265 4.265 0 00-.37.6 1.293 1.293 0 00-.116.346l-.038.326c-.005.111.047.147.128.15.16 0 .23-.133.243-.356l.021-.54c-.01-.127.44-.803.597-1.237.03-.134.02-.255-.047-.355a3.289 3.289 0 00-.354-.488l-.362-.424-.23.12zm.751-.01c.603.271.877.642.969 1.067l.247 1.555a.55.55 0 00.17.295.908.908 0 00.483.231c.194-.002.227-.148.07-.272-.178-.092-.484-.196-.598-.37a.97.97 0 01-.1-.283l-.157-1.22a1.825 1.825 0 00-.333-.664l-.32-.349-.217-.156-.214.166zm-1-1.815a.098.098 0 100 .197.099.099 0 100-.197zm3.551 1.328a.087.087 0 100 .175.087.087 0 000-.175zm-1.334.16a.08.08 0 100 .16.08.08 0 000-.16zm-6.933-1.97a.094.094 0 100 .19.094.094 0 000-.19zm.17 1.809a.08.08 0 100 .16.08.08 0 000-.16zm6.493-2.114h-.068v.222h-.21v.07h.21v.221h.07v-.22h.208v-.07h-.209v-.223zm-2.921 4.4a.1.1 0 100 .2.1.1 0 000-.2zm.773-.774a.1.1 0 10.2 0 .1.1 0 00-.2 0zm-1.745 0a.1.1 0 10.198 0 .1.1 0 10-.199 0zm1.519.548a.1.1 0 10.14.141.1.1 0 00-.14-.141zm-1.067-.089l.067.068.4-.401v.545h.097v-.553l.393.393.068-.068-.39-.391h.555V5.64h-.552l.393-.393-.068-.068-.4.399V4.99h-.095v.579l-.406-.407-.068.068.409.41h-.575v.095h.578l-.406.407zm1.067-1.007a.1.1 0 10.14-.14.1.1 0 00-.14.14zM18.47 6.373a.1.1 0 10.141-.141.1.1 0 00-.14.14zm0-1.377a.1.1 0 10.14.14.1.1 0 00-.14-.14zm.688-.286a.1.1 0 100 .2.1.1 0 000-.2zm-3.574-1.057a.03.03 0 00.04.01.03.03 0 00.012-.04.74.74 0 01-.06-.118.29.29 0 01-.017-.101c0-.03.006-.058.018-.081V3.32a.167.167 0 01.065-.07.193.193 0 01.097-.026.25.25 0 01.226.158c.021.052.023.11.01.168a.387.387 0 01-.081.163.331.331 0 01-.216.119.396.396 0 01-.117-.014.295.295 0 01-.096-.048.498.498 0 01-.17-.29.645.645 0 01.018-.37.41.41 0 01.076-.125l.002-.002a.333.333 0 01.196-.103.444.444 0 01.235.03c.059.024.116.06.166.106a.468.468 0 01.107.145.73.73 0 01.063.207 1.237 1.237 0 01-.277.88.03.03 0 00.005.042.03.03 0 00.042-.005 1.296 1.296 0 00.29-.922V3.36a.782.782 0 00-.069-.226.547.547 0 00-.12-.163.619.619 0 00-.185-.117.51.51 0 00-.266-.034.395.395 0 00-.232.122l-.002.002a.464.464 0 00-.087.143.709.709 0 00-.02.406v.002c.03.13.094.251.192.324a.359.359 0 00.116.057.446.446 0 00.135.016h.003a.388.388 0 00.257-.14.442.442 0 00.094-.189.354.354 0 00-.012-.203.309.309 0 00-.283-.197.25.25 0 00-.128.036.228.228 0 00-.112.204c0 .046.007.083.021.122a.776.776 0 00.064.127zm1.402 3.366l-.075.008a.275.275 0 01-.176-.166l-.072-.263c-.064-.101-.126-.168-.188-.18a.115.115 0 00-.097.025c-.039.014-.044 0-.036-.024a.146.146 0 01.125-.064c.082.002.17.064.216.13.023.034.04.07.053.106.026.129.03.247.152.324.04.025.082.037.128.04.053.017.043.039-.03.064zm-.037-.53l-.075.007a.275.275 0 01-.176-.166l-.072-.263c-.063-.101-.126-.168-.188-.181a.116.116 0 00-.097.025c-.039.015-.044.002-.036-.023a.147.147 0 01.125-.064c.082.002.17.064.216.13.023.033.04.069.053.106.027.129.03.247.153.324a.275.275 0 00.127.04c.054.017.044.039-.03.064zm.041-.433l-.074.007a.274.274 0 01-.176-.166l-.073-.263c-.063-.101-.126-.167-.188-.18a.115.115 0 00-.097.025c-.038.014-.044.001-.036-.024a.147.147 0 01.125-.063c.083.001.17.064.216.13a.45.45 0 01.054.106c.026.128.03.246.152.323a.264.264 0 00.127.04c.054.018.044.04-.03.065zm.021-.444l-.063.007a.234.234 0 01-.15-.142l-.062-.224c-.054-.086-.107-.142-.16-.153a.098.098 0 00-.083.02c-.032.014-.037.002-.03-.019a.125.125 0 01.106-.054c.07.002.145.054.184.11a.45.45 0 01.046.09c.022.11.025.21.129.276.034.021.07.032.108.035.046.014.038.032-.025.054zm1.313 2.358l-.065-.038a.276.276 0 01-.044-.238c.053-.14.176-.374.052-.512a.113.113 0 00-.092-.037c-.04-.012-.037-.026-.016-.041a.147.147 0 01.139.023c.065.05.099.152.097.233a.473.473 0 01-.02.117c-.055.119-.121.216-.068.35a.273.273 0 00.079.109c.033.046.012.057-.062.034zm.406 0l-.064-.038a.276.276 0 01-.044-.238c.054-.14.176-.374.053-.512a.113.113 0 00-.094-.037c-.04-.012-.036-.026-.015-.041a.147.147 0 01.14.023c.064.05.098.152.096.233a.46.46 0 01-.02.117c-.054.119-.121.216-.068.35a.274.274 0 00.079.109c.033.046.012.057-.063.034zm.41 0l-.064-.038a.277.277 0 01-.044-.238c.053-.14.175-.374.052-.512a.114.114 0 00-.093-.037c-.04-.012-.037-.026-.015-.041a.147.147 0 01.139.023c.065.05.098.152.097.233a.477.477 0 01-.02.117c-.055.119-.122.216-.069.35a.275.275 0 00.08.109c.032.046.012.057-.063.034zm.418 0l-.064-.038a.276.276 0 01-.044-.238c.053-.14.175-.374.052-.512a.112.112 0 00-.093-.037c-.04-.012-.037-.026-.015-.041a.146.146 0 01.138.023c.066.05.1.152.097.233 0 .04-.008.079-.019.117-.055.119-.122.216-.069.35a.273.273 0 00.079.109c.034.046.013.057-.062.034zm1.6-1.474l-.005-.066a.248.248 0 01.158-.152c.135-.032.377-.061.416-.22.007-.028 0-.056-.021-.085-.013-.034 0-.04.023-.032a.126.126 0 01.056.112c-.004.072-.063.148-.125.187a.434.434 0 01-.1.045c-.12.02-.229.021-.302.127a.233.233 0 00-.04.111c-.017.047-.037.038-.06-.027zm-.179.542l-.005-.066a.242.242 0 01.149-.151c.127-.032.356-.062.394-.22a.102.102 0 00-.02-.086c-.013-.034-.001-.039.02-.031a.13.13 0 01.054.111c-.003.072-.06.148-.118.187a.414.414 0 01-.094.045c-.113.02-.217.021-.287.127a.238.238 0 00-.037.112c-.017.047-.035.037-.056-.028zm.368-1.039l-.006-.066a.249.249 0 01.157-.151c.136-.032.377-.062.417-.22.007-.029 0-.057-.021-.086-.013-.034-.001-.04.022-.031.043.031.058.07.056.11-.003.073-.062.149-.125.188a.433.433 0 01-.099.045c-.12.02-.229.021-.303.127a.23.23 0 00-.04.111c-.017.047-.036.039-.058-.027zm.053-.418l-.004-.046a.174.174 0 01.111-.107c.095-.023.265-.043.293-.154.005-.02 0-.04-.015-.06-.01-.025 0-.028.016-.023.03.022.04.05.04.079-.003.05-.045.103-.089.131a.307.307 0 01-.07.031c-.083.015-.16.016-.212.09a.161.161 0 00-.028.078c-.012.033-.026.027-.042-.019zm.782.938c.024-.063-.002-.069-.052-.047-.384.253-.488 1.06-.066 1.428.049.022.068.01.06-.034a.726.726 0 01-.222-.36c.157.2.335.26.53.214.042-.024.042-.042-.003-.053-.257.046-.545-.179-.557-.465.096.192.233.277.407.25.05-.021.05-.042 0-.063-.268.007-.438-.297-.345-.516.027.225.146.33.326.353.044-.01.049-.03.013-.058-.332-.052-.315-.468-.091-.649zM8.322.036C8.316.014 8.306.002 8.295 0c-.011-.001-.025.008-.04.028-.084.306-.217.463-.393.483.074-.257.053-.393-.02-.462-.04-.02-.062-.01-.065.035.084.208.085.41-.335.58L7.38.676c-.03-.104 0-.186.079-.265.03-.026.003-.065-.062-.028-.086.077-.12.183-.109.314l-.04.01C7.14.552 7.115.409 7.237.285 7.248.237 7.23.222 7.18.24c-.137.116-.127.277-.033.465L7.073.7c-.115-.157-.147-.298-.06-.413.042-.06.002-.099-.045-.081-.119.132-.132.292-.006.488-.299-.008-.654.062-1.043.18-.536.157-.99.37-1.473.564-.359.18-.724.326-1.095.442-.094.062-.107-.009-.071-.084.113-.182.324-.325.579-.45.048-.07.036-.096-.035-.08a1.85 1.85 0 00-.614.453.913.913 0 01.088-.331c.18-.149.374-.252.578-.326.049-.05.027-.073-.067-.07a2.749 2.749 0 00-.439.203.636.636 0 01.373-.355l.243-.132C4.015.672 3.98.655 3.925.657a.989.989 0 00-.299.133l.102-.165c.02-.053-.017-.068-.068-.038-.376.363-.589.798-.55 1.344l-.294-.012c-.03-.138.004-.223.106-.28.017-.033.006-.05-.043-.046-.114.063-.163.168-.147.317l-.24-.056c-.006-.178.04-.31.196-.325.028-.026.017-.047-.035-.062-.161.022-.239.144-.232.364l-.2-.082c-.057-.22.005-.377.238-.439.014-.025.022-.069-.034-.068-.229.059-.327.208-.318.433l-.13-.12c.009-.306.497-.624.755-.3.047.014.06-.012.045-.072-.265-.243-.532-.178-.791.045.022-.062.027-.087.07-.136a.43.43 0 01.336-.135c.125.001.266.047.443.17.03.026.053.04.063.032.039-.029-.031-.087-.05-.102a.783.783 0 00-.14-.086c-.213-.102-.49-.123-.689.024a.462.462 0 00-.19.354.503.503 0 00.176.404c.084.07.183.131.3.18.115.046.249.081.406.101.146.023.288.024.422-.004.052.128.121.24.236.359.213.22.688.341 1.125.13.033-.045.018-.094-.028-.093a1.776 1.776 0 01-.65.045.518.518 0 01-.226-.105c.319 0 .577-.028.725-.107.03-.04.02-.056-.032-.045a3.486 3.486 0 01-.813.06.276.276 0 01-.17-.208c.226.119.488.14.793.04.072-.041.06-.06.009-.068-.329.063-.58.048-.766-.032.45-.14.904-.329 1.36-.554-.183.35-.175.678.022.982.032.028.077.003.059-.044-.182-.307-.146-.793.067-1.015a1.12 1.12 0 00.02.856l.072.09c.024.026.053.006.032-.037-.138-.226-.177-.501-.058-.854-.035.25.032.44.247.542.076.023.09-.01.05-.047-.252-.145-.245-.366-.167-.608l.075-.054c-.062.247-.036.432.147.508.05-.006.064-.029.04-.069-.177-.087-.166-.355-.057-.51-.024.216.028.356.164.412.045.005.056-.025.039-.06-.142-.057-.157-.192-.107-.366l.16-.062c-.035.137-.013.205.057.262.035.021.063.022.086.003-.094-.081-.101-.184-.056-.3.396-.124.804-.236 1.232-.239l.076.015L7.924.603c.214-.105.355-.285.399-.567zm-.281 1.262c.024.103.154.178.115.278-.023.059-.18-.135-.185-.156l-.013.071.092.18c.029.093.005.105-.054.061l-.108-.128-.062.003.014.082.093.167c.035.095.011.108-.04.083l-.108-.145-.064-.002.03.074.116.192c.024.071.008.092-.051.064l-.123-.13-.087-.024.064.077.143.187c.033.068.02.09-.039.067l-.15-.137-.053.003.03.06.142.222c.011.057-.003.082-.054.061l-.134-.15-.088.002.062.084.149.225c.012.062-.005.083-.05.062l-.133-.163-.094-.006.08.062.145.242c.017.062 0 .083-.05.062l-.129-.155-.075-.007.058.094.139.21c.029.08.007.095-.046.075l-.118-.142L7.335 3l.059.075.12.207c.028.096.01.118-.054.068l-.086-.129-.085.003.07.131.127.194c.024.068.015.098-.041.07l-.1-.11-.064.014.057.082.138.221c.026.062-.004.1-.057.054l-.094-.124-.06.05.053.038.142.225c.037.061.003.12-.047.07l-.107-.148-.067.045.055.096.138.205c.018.058-.013.093-.062.055l-.088-.11-.119.198.023.062.288.302c.066.095.1.23.096.412l.087 1.16c.024.305.096.572.256.773l.41.452c.01.026.01.054-.02.088a.322.322 0 01-.12.084.281.281 0 01-.242-.105c-.208-.253-.281-.605-.37-.947l-.006-.16a.807.807 0 00-.217.323c.027.187.094.316.25.317.05.03.057.053 0 .062-.145-.009-.242-.085-.284-.242a.41.41 0 00-.043.19c.11.175.244.287.446.202.046-.007.054.009.023.047-.198.12-.347.058-.471-.096.036.147.088.285.264.37.114.055.22.022.322-.06.04-.017.064.013.045.04-.057.119-.32.155-.458.065a.464.464 0 00.11.14c.007.043-.027.04-.08.014a.796.796 0 01-.254-.469 1.045 1.045 0 01.072-.653.604.604 0 01.271-.33L7.512 5.7c-.07-.754-.23-.737-.668-1.08l-.294-.142-.192.159.197.237c.056.088.096.19.087.33l-.109 1.665c.022.256.105.477.252.664l.175.231c.072.09.074.152.006.183-.142.106-.253.047-.347-.095a2.175 2.175 0 01-.205-.865l.087-1.16-.01-.525c-.009-.173-.1-.3-.222-.409l-.324-.297L8.04 1.298zM3.389 4.67c-.11.146-.249.28-.422.398-.164.117-.31.242-.388.394a.434.434 0 00-.047.417c.077.233.183.451.328.649.145.204.279.406.37.6.058.119.099.235.117.346l.038.326c.005.111-.048.147-.128.15-.16 0-.232-.133-.243-.356l-.022-.54c.01-.127-.44-.803-.597-1.237-.03-.134-.02-.255.047-.355.102-.176.224-.336.354-.488l.363-.424.23.12zm-.75-.01c-.603.271-.878.642-.969 1.067l-.247 1.555a.553.553 0 01-.17.295.91.91 0 01-.483.231C.575 7.806.542 7.66.7 7.536c.178-.092.483-.196.597-.37.039-.057.063-.137.1-.283l.158-1.22c.053-.227.172-.448.333-.664l.32-.349.217-.156.213.166zm1-1.815zM.088 4.173a.088.088 0 110 .175.088.088 0 010-.175zm1.334.16a.08.08 0 010 .16.08.08 0 010-.16zm6.933-1.97a.094.094 0 010 .19.094.094 0 01-.094-.095c0-.052.042-.094.094-.094zm-.171 1.809a.08.08 0 110 .16.08.08 0 010-.16zM1.69 2.058h.069v.222h.211v.07h-.21v.221h-.07v-.22h-.208v-.07h.208v-.223zm2.922 4.4a.1.1 0 110 .2.1.1 0 010-.2zm-.774-.774a.1.1 0 11-.199 0 .1.1 0 01.2 0zm1.746 0a.1.1 0 11-.199 0 .1.1 0 01.199 0zm-1.52.548a.1.1 0 11-.14.141.1.1 0 01.14-.141zm1.068-.089l-.068.068-.4-.401v.545h-.096v-.553l-.393.393-.068-.068.39-.391h-.555V5.64h.552l-.393-.393.068-.068.399.399V4.99h.096v.579l.406-.407.068.068-.409.41h.575v.095h-.578l.406.407zM4.066 5.136a.1.1 0 11-.14-.14.1.1 0 01.14.14zM5.3 6.373a.1.1 0 11-.14-.141.1.1 0 01.14.14zm0-1.377a.1.1 0 11-.14.14.1.1 0 01.14-.14zm-.687-.286a.1.1 0 110 .199.1.1 0 010-.199zm3.574-1.057a.03.03 0 01-.042.01.03.03 0 01-.01-.04.807.807 0 00.059-.118.288.288 0 00.018-.101.18.18 0 00-.018-.081V3.32a.17.17 0 00-.066-.07.193.193 0 00-.097-.026.252.252 0 00-.226.158.293.293 0 00-.01.168.383.383 0 00.082.163.33.33 0 00.215.119.392.392 0 00.117-.014.293.293 0 00.097-.048.498.498 0 00.17-.29.647.647 0 00-.018-.37.408.408 0 00-.077-.125l-.001-.002a.334.334 0 00-.197-.103.445.445 0 00-.234.03.558.558 0 00-.166.106.483.483 0 00-.108.145.726.726 0 00-.063.207 1.248 1.248 0 00.278.88.03.03 0 01-.005.042.03.03 0 01-.043-.005 1.308 1.308 0 01-.29-.922V3.36a.796.796 0 01.07-.226.55.55 0 01.12-.163.623.623 0 01.184-.117.512.512 0 01.267-.034.395.395 0 01.232.122l.001.002a.464.464 0 01.088.143.71.71 0 01.02.406v.002a.558.558 0 01-.192.324.356.356 0 01-.117.057.442.442 0 01-.135.016h-.003a.39.39 0 01-.256-.14.438.438 0 01-.094-.189.35.35 0 01.011-.203.31.31 0 01.284-.197c.046 0 .09.013.128.036a.232.232 0 01.112.204.345.345 0 01-.021.122.842.842 0 01-.064.127zM6.785 7.019l.074.008a.275.275 0 00.176-.167l.073-.263c.063-.101.126-.168.188-.18a.115.115 0 01.097.025c.038.014.044 0 .036-.024a.147.147 0 00-.125-.064c-.083.002-.17.064-.216.13a.47.47 0 00-.054.106c-.026.129-.03.247-.152.324a.265.265 0 01-.127.04c-.054.017-.044.039.03.064zm.036-.53l.075.007a.28.28 0 00.176-.166l.073-.263c.063-.101.125-.168.187-.181a.116.116 0 01.097.025c.04.015.045.002.037-.023a.148.148 0 00-.126-.064c-.082.002-.17.064-.215.13a.457.457 0 00-.054.106c-.026.129-.03.247-.152.324a.271.271 0 01-.127.04c-.054.017-.044.039.03.064zm-.04-.433l.074.007c.08-.026.14-.08.176-.166l.073-.263c.063-.101.126-.167.188-.18a.115.115 0 01.096.025c.039.014.045.001.036-.024a.146.146 0 00-.125-.063c-.082.001-.17.064-.216.13a.451.451 0 00-.053.106c-.026.128-.03.246-.152.323a.267.267 0 01-.128.04c-.054.018-.044.04.03.065zm-.022-.444l.064.007a.235.235 0 00.15-.142l.062-.224c.053-.086.107-.142.16-.153a.098.098 0 01.082.02c.033.014.038.002.031-.019a.126.126 0 00-.107-.054c-.07.002-.144.054-.183.11a.403.403 0 00-.046.09c-.022.11-.025.21-.13.276a.233.233 0 01-.108.035c-.046.014-.037.032.025.054zM5.447 7.97l.065-.038a.276.276 0 00.043-.238c-.053-.14-.175-.374-.052-.512a.114.114 0 01.093-.037c.04-.012.037-.026.015-.041a.147.147 0 00-.139.023c-.065.05-.098.152-.097.233.002.04.01.079.02.117.055.119.122.216.069.35a.274.274 0 01-.08.109c-.032.046-.012.057.063.034zm-.407 0l.065-.038a.277.277 0 00.043-.238c-.053-.14-.175-.374-.052-.512a.113.113 0 01.093-.037c.04-.012.037-.026.016-.041a.147.147 0 00-.14.023c-.064.05-.098.152-.096.233 0 .04.008.079.02.117.054.119.121.216.068.35a.272.272 0 01-.079.109c-.033.046-.013.057.062.034zm-.41 0l.065-.038a.275.275 0 00.044-.238c-.054-.14-.176-.374-.052-.512a.113.113 0 01.092-.037c.04-.012.037-.026.016-.041a.146.146 0 00-.139.023c-.065.05-.099.152-.097.233.001.04.009.079.02.117.054.119.122.216.068.35a.273.273 0 01-.078.109c-.034.046-.013.057.062.034zm-.418 0l.065-.038a.276.276 0 00.044-.238c-.054-.14-.176-.374-.053-.512a.114.114 0 01.094-.037c.04-.012.036-.026.015-.041a.147.147 0 00-.139.023c-.065.05-.099.152-.097.233a.47.47 0 00.02.117c.054.119.121.216.068.35a.273.273 0 01-.079.109c-.033.046-.012.057.062.034zm-1.6-1.474l.005-.066a.25.25 0 00-.157-.152c-.135-.032-.377-.061-.417-.22-.007-.028 0-.056.022-.085.013-.034 0-.04-.023-.032a.127.127 0 00-.056.112c.003.072.063.148.125.187a.42.42 0 00.099.045c.12.02.229.021.303.127a.226.226 0 01.04.111c.017.047.037.038.059-.027zm.18.542l.005-.066a.241.241 0 00-.149-.151c-.128-.032-.356-.062-.394-.22a.102.102 0 01.02-.086c.012-.034 0-.039-.021-.031a.13.13 0 00-.054.111c.004.072.06.148.119.187a.41.41 0 00.094.045c.113.02.216.021.286.127a.239.239 0 01.038.112c.016.047.035.037.056-.028zm-.368-1.039l.005-.066a.249.249 0 00-.157-.151c-.135-.032-.376-.062-.416-.22a.097.097 0 01.021-.086c.013-.034 0-.04-.022-.031a.126.126 0 00-.057.11c.004.073.063.149.125.188a.43.43 0 00.1.045c.12.02.228.021.302.127a.234.234 0 01.04.111c.017.047.037.039.06-.027zm-.054-.418l.004-.046a.174.174 0 00-.11-.107c-.096-.023-.265-.043-.293-.154-.005-.02 0-.04.015-.06.009-.025 0-.028-.016-.023a.09.09 0 00-.04.079c.003.05.045.103.088.131a.312.312 0 00.07.031c.084.015.161.016.213.09.016.024.025.05.028.078.012.033.026.027.041-.019zm-.78.938c-.025-.063.001-.069.05-.047.384.253.489 1.06.067 1.428-.049.022-.069.01-.06-.034a.73.73 0 00.222-.36c-.158.2-.336.26-.53.214-.043-.024-.042-.042.003-.053.257.046.545-.179.556-.465-.095.192-.232.277-.407.25-.05-.021-.05-.042 0-.063.269.007.439-.297.345-.516-.027.225-.145.33-.326.353-.044-.01-.048-.03-.012-.058.332-.052.314-.468.091-.649zM12.18.975c.099-.127.232-.21.268-.17.036.041.056.172-.13.35-.185.178-.281.212-.317.172-.036-.04.08-.224.18-.352zm.191.335c.14-.144.229-.163.276-.1.048.061-.005.217-.136.365-.13.148-.37.303-.417.241-.048-.062.138-.363.277-.506zm.101.462c.164-.177.248-.226.307-.15.059.077.04.208-.12.397-.159.19-.452.414-.51.337-.06-.076.16-.407.323-.584zm.221.499c.224-.176.298-.186.355-.132.058.055.032.24-.175.427s-.561.386-.617.314c-.055-.072.213-.433.437-.61zm.08.655c.272-.17.402-.147.447-.11.045.035.06.19-.223.398-.284.21-.736.308-.78.234-.045-.073.285-.353.557-.522zm-.156.751c.283-.133.373-.106.414-.015.042.09-.02.239-.303.372-.284.133-.704.235-.746.144-.041-.09.352-.368.635-.5zm-.225.792c.256-.142.436-.142.476-.045.04.096-.073.298-.338.406-.266.108-.662.217-.702.12-.04-.095.308-.338.564-.48zm.044.62c.248-.078.34-.089.37.004.028.092-.119.283-.367.362-.249.077-.54.117-.57.025-.029-.093.319-.312.567-.39zM11.98.778c.04-.115.117-.206.152-.185.036.02.08.11-.01.281-.091.172-.152.22-.188.2-.035-.021.006-.181.046-.296zm3.316 4.256c.124-.026.245-.007.246.036 0 .043-.054.13-.256.142-.201.011-.277-.018-.277-.06-.001-.043.163-.093.287-.118zm-.057.297c.156-.014.22.02.216.082-.003.061-.114.128-.268.149-.154.021-.376-.008-.373-.07.003-.061.268-.146.425-.16zm-.176.328c.188-.022.264-.007.26.068-.005.076-.082.145-.275.176-.192.032-.481.015-.477-.06.004-.077.303-.162.492-.184zm-.123.411c.224.01.272.042.279.104.006.062-.103.16-.323.165-.219.006-.532-.057-.528-.129.003-.07.348-.15.572-.14zm-.287.433c.249.038.315.118.323.163.009.044-.061.144-.337.124-.276-.02-.597-.194-.586-.26.011-.067.351-.065.6-.027zm-.477.368c.236.066.276.129.255.204-.022.075-.135.132-.372.066s-.54-.22-.519-.296c.022-.075.399-.04.636.026zm-.54.358c.226.046.333.139.308.217-.025.078-.197.14-.41.069-.214-.071-.506-.21-.481-.287.025-.078.357-.045.583 0zm-.29.393c.187.08.248.121.218.191s-.216.11-.404.029c-.188-.081-.383-.207-.353-.277.03-.07.35-.023.538.057zm1.931-2.809c.083-.047.175-.063.186-.032.01.03-.009.107-.15.162-.143.056-.204.054-.214.023-.01-.03.095-.105.178-.153zm-6.852.221c-.124-.026-.246-.007-.247.036 0 .043.055.13.256.142.202.011.277-.018.278-.06 0-.043-.163-.093-.287-.118zm.057.297c-.157-.014-.22.02-.217.082.004.061.115.128.269.149.154.021.376-.008.372-.07-.003-.061-.268-.146-.424-.16zm.175.328c-.188-.022-.263-.007-.259.068.004.076.082.145.274.176.192.032.482.015.478-.06-.005-.077-.304-.162-.493-.184zm.124.411c-.224.01-.273.042-.28.104-.006.062.104.16.323.165.22.006.533-.057.529-.129-.004-.07-.348-.15-.572-.14zm.286.433c-.248.038-.314.118-.323.163-.008.044.062.144.338.124.276-.02.596-.194.585-.26-.01-.067-.35-.065-.6-.027zm.478.368c-.237.066-.277.129-.255.204.021.075.134.132.371.066s.541-.22.52-.296c-.022-.075-.4-.04-.636.026zm.54.358c-.226.046-.333.139-.308.217.025.078.196.14.41.069.213-.071.506-.21.48-.287-.024-.078-.357-.045-.583 0zm.29.393c-.188.08-.249.121-.219.191s.216.11.404.029c.189-.081.383-.207.353-.277-.03-.07-.35-.023-.538.057zM8.444 4.813c-.084-.047-.175-.063-.186-.032-.01.03.008.107.15.162.142.056.203.054.214.023.01-.03-.096-.105-.178-.153zM15.448.036c.008-.022.017-.034.029-.036.011-.001.024.008.04.028.084.306.217.463.393.483-.075-.257-.054-.393.02-.462.04-.02.061-.01.064.035-.083.208-.085.41.336.58l.061.012c.03-.104 0-.186-.08-.265-.029-.026-.003-.065.063-.028.086.077.119.183.108.314l.04.01c.109-.155.134-.298.012-.422-.012-.048.007-.063.055-.045.137.116.127.277.034.465L16.698.7c.114-.157.147-.298.06-.413-.043-.06-.002-.099.044-.081.119.132.133.292.007.488.298-.008.653.062 1.043.18.535.157.989.37 1.472.564.36.18.725.326 1.096.442.094.062.107-.009.07-.084-.112-.182-.323-.325-.578-.45-.048-.07-.037-.096.034-.08.236.108.44.259.614.453a.907.907 0 00-.087-.331 1.944 1.944 0 00-.578-.326c-.049-.05-.027-.073.066-.07.15.052.296.122.44.203a.636.636 0 00-.373-.354l-.244-.132c-.028-.037.007-.054.062-.052a.992.992 0 01.299.133l-.103-.165c-.02-.053.018-.068.068-.038.377.363.59.798.55 1.344l.295-.012c.03-.138-.004-.223-.106-.28-.017-.033-.007-.05.042-.046.115.063.164.168.147.317l.241-.056c.005-.178-.04-.31-.196-.325-.028-.026-.017-.047.034-.062.162.022.239.144.233.364l.2-.082c.057-.22-.005-.377-.239-.439-.014-.025-.022-.069.035-.068.228.059.327.208.317.433l.13-.12c-.008-.306-.497-.624-.755-.3-.047.014-.06-.012-.044-.072.265-.243.531-.178.79.045-.021-.062-.026-.087-.068-.136a.43.43 0 00-.338-.135c-.125.001-.265.047-.442.17-.03.026-.054.04-.064.032-.038-.029.032-.087.051-.102a.78.78 0 01.14-.086c.213-.102.49-.123.689.024.121.09.184.22.19.354a.504.504 0 01-.177.404c-.084.07-.182.131-.3.18a1.616 1.616 0 01-.405.101 1.168 1.168 0 01-.423-.004c-.052.128-.12.24-.236.359-.212.22-.688.341-1.124.13-.034-.045-.018-.094.027-.093.212.052.428.072.65.045a.516.516 0 00.227-.105c-.32 0-.577-.028-.726-.107-.03-.04-.02-.056.033-.045.261.054.534.068.812.06a.272.272 0 00.17-.208c-.225.119-.487.14-.793.04-.071-.041-.059-.06-.008-.068.329.063.58.048.766-.032a9.307 9.307 0 01-1.361-.554c.183.35.176.678-.021.982-.033.028-.077.003-.06-.044.183-.307.147-.793-.066-1.015a1.12 1.12 0 01-.02.856l-.072.09c-.024.026-.053.006-.032-.037.137-.226.176-.501.057-.854.035.25-.031.44-.247.542-.075.023-.089-.01-.049-.047.252-.145.245-.366.166-.608l-.074-.054c.062.247.036.432-.147.508-.05-.006-.065-.029-.04-.069.176-.087.166-.355.057-.51.023.216-.029.356-.165.412-.044.005-.055-.025-.038-.06.141-.057.156-.192.107-.366l-.16-.062c.035.137.012.205-.058.262-.034.021-.063.022-.085.003.093-.081.101-.184.055-.3-.395-.124-.804-.236-1.231-.239l-.076.015-1.028-.254c-.214-.105-.355-.285-.399-.567z" fill="#592829"/><path fill-rule="evenodd" clip-rule="evenodd" d="M8.43.564c.313-.006.48.123.472.228-.004.06-.062.112-.178.129a.793.793 0 00-.359.127c-.348.231-.614.77-.752 1.145-.142.38-.221.797-.26 1.235l-.082.99a.149.149 0 01-.061.108c-.065.05-.182.083-.366.092-.76.03-1.526.048-2.295.054a77.494 77.494 0 01-2.43-.024.25.25 0 01-.047-.112c-.038-.216-.035-.61.224-.902.15-.17.387-.305.752-.352l.917-.017a.966.966 0 00.545-.136c.13-.084.23-.21.3-.382.235-.522.466-1.015.922-1.327.611-.418 1.398-.804 2.315-.822.053-.078.291-.326.407-.24.071.053-.043.123-.023.206zm3.281.056c-.086-.133-.146-.134-.199-.103-.053.03-.078.082.008.215.086.132.246.318.299.288.052-.032-.021-.268-.108-.4zm-.095.391c-.108-.088-.159-.073-.195-.032-.036.04-.044.09.065.178.108.088.293.2.33.16.035-.04-.091-.218-.2-.306zm-.028.422c-.157-.122-.227-.096-.274-.034-.048.062-.055.136.101.259.157.122.421.275.47.213.047-.062-.14-.316-.297-.438zm-.044.483c-.193-.15-.28-.118-.338-.042-.06.077-.069.17.125.32.193.151.52.341.58.264.058-.076-.173-.39-.367-.542zm-.027.604c-.229-.17-.318-.144-.37-.071-.054.073-.053.166.176.337.23.17.607.39.66.317.053-.073-.238-.413-.466-.583zm-.2.607c-.256-.192-.373-.174-.424-.105-.05.07-.064.187.192.379s.698.424.748.355c.05-.07-.26-.437-.516-.629zm-.276.718c-.285-.105-.368-.052-.4.038-.033.091-.003.186.282.291.285.106.738.218.77.126.033-.09-.367-.35-.652-.455zm-.112.703c-.256-.072-.33-.01-.356.083-.027.093.002.183.259.254.256.072.663.131.69.038.027-.093-.336-.304-.593-.375zm.069.85c-.26 0-.312.078-.312.175 0 .097.051.176.312.176.26 0 .657-.052.657-.15 0-.096-.397-.202-.657-.202zm.948.597c.005.07.002.11-.01.124-.011.014-.032 0-.06-.043a2.267 2.267 0 01-.229-.773 1.93 1.93 0 01.009-.721l.352-1.193c.015-.115.028-.235.03-.379.006-.617-.141-1.203-.203-1.862.005-.097.021-.113.047-.05.097.399.188.852.245 1.6.014.135.02.27.014.406a1.77 1.77 0 01-.037.296l-.343 1.2a2.45 2.45 0 000 .691c.046.238.098.474.184.705zm3.251-1.414c.017-.123-.018-.155-.066-.164-.047-.008-.089.01-.106.133-.016.123-.016.316.032.325.047.008.124-.17.14-.294zm-.256.185c-.02-.108-.058-.125-.1-.12-.043.006-.073.033-.053.14.02.108.073.27.115.265.042-.006.058-.177.038-.285zm-.233.237c-.031-.153-.086-.173-.146-.16-.06.012-.103.053-.072.206.03.154.11.38.17.368.06-.013.079-.26.048-.414zm-.273.267c-.039-.19-.107-.214-.181-.199-.074.016-.127.066-.089.256.039.189.137.47.212.454.074-.015.096-.322.058-.51zm-.325.346c-.05-.219-.116-.249-.185-.232-.07.016-.116.073-.066.292.049.219.162.544.231.527.07-.016.069-.368.02-.587zm-.43.26c-.055-.246-.134-.295-.2-.28-.065.016-.134.08-.079.325.055.246.2.61.266.596.066-.016.068-.395.013-.64zm-.531.288c-.117-.21-.194-.22-.26-.183-.066.038-.096.11.02.319.117.209.33.508.396.47.066-.037-.04-.397-.156-.606zm-.427.362c-.117-.174-.192-.175-.255-.133-.064.042-.093.11.024.285.117.174.33.418.393.376.064-.042-.045-.353-.162-.528zm-.393.543c-.156-.133-.227-.113-.276-.055-.05.058-.06.131.096.265.156.133.42.305.469.248.05-.058-.134-.325-.29-.458zm.26.843c-.032.044-.055.067-.069.069-.013.002-.018-.017-.014-.057.043-.2.138-.391.259-.578.095-.168.224-.306.374-.427l.82-.532c.068-.06.137-.126.211-.211.32-.366.53-.79.831-1.216.053-.055.07-.056.054-.006a7.256 7.256 0 01-.672 1.081c-.06.088-.126.172-.199.25-.053.057-.11.11-.174.158l-.816.54a1.934 1.934 0 00-.354.414 3.479 3.479 0 00-.25.515zm-4.066-3.33c-.016-.124.019-.156.067-.165.047-.008.089.01.105.133.016.123.016.316-.031.325-.048.008-.124-.17-.14-.294zm.257.184c.02-.108.058-.125.1-.12.042.006.073.033.053.14-.02.108-.073.27-.115.265-.042-.006-.058-.177-.038-.285zm.233.237c.03-.153.086-.173.146-.16.06.012.103.053.072.206-.031.154-.11.38-.171.368-.06-.013-.078-.26-.047-.414zm.273.267c.038-.19.106-.214.18-.199.075.016.128.066.09.256-.039.189-.138.47-.212.454-.074-.015-.096-.322-.058-.51zm.325.346c.05-.219.116-.249.185-.232.07.016.116.073.066.292-.05.219-.162.544-.232.527-.069-.016-.069-.368-.02-.587zm.43.26c.054-.246.134-.295.2-.28.065.016.133.08.079.325-.056.246-.2.61-.266.596-.066-.016-.069-.395-.014-.64zm.531.288c.116-.21.193-.22.259-.183.066.038.097.11-.02.319-.116.209-.33.508-.395.47-.066-.037.04-.397.156-.606zm.426.362c.117-.174.192-.175.256-.133.064.042.092.11-.024.285-.117.174-.33.418-.394.376-.064-.042.045-.353.162-.528zm.394.543c.155-.133.227-.113.276-.055.05.058.059.131-.096.265-.156.133-.42.305-.47.248-.05-.058.135-.325.29-.458zm-.26.843c.031.044.054.067.068.069.014.002.02-.017.015-.057a1.778 1.778 0 00-.26-.578 1.513 1.513 0 00-.373-.427l-.82-.532a2.217 2.217 0 01-.211-.211c-.32-.366-.531-.79-.832-1.216-.052-.055-.07-.056-.053-.006.146.288.323.606.671 1.081.061.088.126.172.2.25.052.057.11.11.173.158l.817.54a1.858 1.858 0 01.354.414c.093.165.183.333.25.515zM15.34.564c-.313-.006-.478.123-.472.228.004.06.062.112.179.129a.795.795 0 01.359.127c.348.231.614.77.752 1.145.142.38.221.797.26 1.235l.082.99a.15.15 0 00.061.108c.064.05.182.083.365.092a72.648 72.648 0 004.727.03.253.253 0 00.045-.112c.039-.216.036-.61-.223-.902-.15-.17-.387-.305-.753-.352l-.916-.017a.964.964 0 01-.545-.136.786.786 0 01-.3-.382c-.235-.522-.466-1.015-.923-1.327-.61-.418-1.398-.804-2.315-.822-.052-.078-.29-.326-.407-.24-.07.053.044.123.024.206z" fill="#DB1D1D"/><path fill-rule="evenodd" clip-rule="evenodd" d="M40.924 1.298c-.024.103-.154.178-.115.278.022.059.18-.135.185-.156l.013.071-.092.18c-.03.093-.005.105.054.061l.108-.128.062.003-.014.082-.094.167c-.034.095-.01.108.04.083l.109-.145.064-.002-.03.074-.117.192c-.023.071-.006.092.052.064l.123-.13.087-.024-.065.077-.142.187c-.033.068-.02.09.039.067l.15-.137.053.003-.03.06-.142.222c-.011.057.003.082.054.061l.133-.15.089.002-.062.084-.148.225c-.013.062.004.083.049.062l.133-.163.094-.006-.08.062-.145.242c-.018.062 0 .083.051.062l.127-.155.075-.007-.057.094-.139.21c-.029.08-.007.095.046.075l.118-.142.071-.003-.06.075-.12.207c-.029.096-.01.118.054.068l.086-.129.084.003-.069.131-.128.194c-.023.068-.014.098.042.07l.1-.11.064.014-.057.082-.138.221c-.026.062.004.1.056.054l.095-.124.06.05-.053.038-.142.225c-.037.061-.003.12.047.07l.107-.148.067.045-.055.096-.138.205c-.018.058.013.093.062.055l.088-.11.119.198-.023.062-.288.302c-.066.095-.1.23-.096.412l-.087 1.16c-.024.305-.096.572-.256.773l-.41.452c-.01.026-.01.054.02.088a.32.32 0 00.119.084.282.282 0 00.243-.105c.208-.253.281-.605.37-.947l.005-.16a.802.802 0 01.218.323c-.027.187-.094.316-.25.317-.05.03-.057.053 0 .062.145-.009.242-.085.284-.242a.411.411 0 01.043.19c-.11.175-.244.287-.446.202-.046-.007-.054.009-.023.047.198.12.347.058.471-.096-.036.147-.089.285-.264.37-.114.055-.22.022-.323-.06-.04-.017-.064.013-.044.04.056.119.32.155.458.065a.463.463 0 01-.11.14c-.007.043.027.04.08.014a.796.796 0 00.254-.469 1.043 1.043 0 00-.072-.653.604.604 0 00-.271-.33l.049-.822c.07-.754.23-.737.667-1.08l.295-.142.192.159-.197.237a.516.516 0 00-.087.33l.109 1.665a1.216 1.216 0 01-.252.664l-.175.231c-.072.09-.074.152-.006.183.142.106.253.047.347-.095.131-.26.188-.553.205-.865l-.087-1.16.01-.525c.009-.173.1-.3.222-.409l.324-.297-2.096-3.297zm4.652 3.372c.11.146.249.28.422.398.164.117.31.242.388.394.076.109.108.24.047.417a2.32 2.32 0 01-.328.649 4.285 4.285 0 00-.371.6 1.293 1.293 0 00-.116.346l-.038.326c-.005.111.048.147.128.15.16 0 .232-.133.243-.356l.021-.54c-.01-.127.441-.803.598-1.237.03-.134.02-.255-.047-.355a3.34 3.34 0 00-.354-.488l-.363-.424-.23.12zm.75-.01c.603.271.878.642.969 1.067l.247 1.555a.552.552 0 00.17.295.91.91 0 00.483.231c.195-.002.227-.148.07-.272-.178-.092-.483-.196-.598-.37a.97.97 0 01-.1-.283l-.157-1.22a1.83 1.83 0 00-.333-.664l-.32-.349-.217-.156-.213.166zm-1-1.815a.098.098 0 100 .196.098.098 0 000-.196zm3.551 1.328a.087.087 0 100 .175.087.087 0 000-.175zm-1.334.16a.08.08 0 00-.08.08.08.08 0 10.16 0 .08.08 0 00-.08-.08zm-6.933-1.97a.094.094 0 00-.094.095.094.094 0 10.188 0 .094.094 0 00-.094-.094zm.17 1.809a.08.08 0 100 .16.08.08 0 000-.16zm6.493-2.114h-.068v.222h-.211v.07h.211v.221h.068v-.22h.21v-.07h-.21v-.223zm-2.92 4.4a.1.1 0 100 .2.1.1 0 000-.2zm.773-.774a.1.1 0 10.198 0 .1.1 0 10-.198 0zm-1.746 0a.1.1 0 10.199 0 .1.1 0 10-.199 0zm1.52.548a.1.1 0 10.14.14.1.1 0 00-.14-.14zm-1.068-.089l.068.068.4-.401v.545h.096v-.553l.393.393.068-.068-.39-.391h.555V5.64h-.552l.393-.393-.068-.068-.399.399V4.99H44.3v.579l-.406-.407-.068.068.409.41h-.575v.095h.578l-.406.407zm1.067-1.007a.1.1 0 100-.14.1.1 0 000 .14zm-1.234 1.237a.1.1 0 10.14-.141.1.1 0 00-.14.14zm0-1.377a.1.1 0 10.14.14.1.1 0 00-.14-.14zm.687-.286a.1.1 0 000 .2.1.1 0 100-.2zm-3.574-1.057a.03.03 0 00.041.01.03.03 0 00.011-.04.742.742 0 01-.059-.118.292.292 0 01-.018-.101.19.19 0 01.018-.081V3.32a.17.17 0 01.066-.07.193.193 0 01.096-.026.253.253 0 01.227.158c.02.052.022.11.01.168a.387.387 0 01-.082.163.33.33 0 01-.215.119.392.392 0 01-.117-.014.297.297 0 01-.097-.048.5.5 0 01-.169-.29.646.646 0 01.017-.37.413.413 0 01.076-.125l.002-.002a.333.333 0 01.197-.103.443.443 0 01.234.03c.059.024.116.06.166.106a.47.47 0 01.108.145.73.73 0 01.062.207 1.235 1.235 0 01-.277.88.03.03 0 10.047.037 1.302 1.302 0 00.29-.922V3.36a.779.779 0 00-.068-.226.542.542 0 00-.121-.163.621.621 0 00-.185-.117.51.51 0 00-.265-.034.394.394 0 00-.232.122l-.002.002a.464.464 0 00-.088.143.709.709 0 00-.02.406v.002a.56.56 0 00.192.324.358.358 0 00.117.057.443.443 0 00.135.016h.003a.389.389 0 00.256-.14.447.447 0 00.094-.189.351.351 0 00-.012-.203.31.31 0 00-.283-.197.252.252 0 00-.128.036.23.23 0 00-.112.204c0 .046.007.083.021.122a.8.8 0 00.064.127zm1.402 3.366l-.075.008a.275.275 0 01-.176-.166l-.072-.263c-.063-.101-.126-.168-.188-.18a.115.115 0 00-.097.025c-.039.014-.044 0-.036-.024a.146.146 0 01.125-.064c.082.002.17.064.216.13a.47.47 0 01.054.106c.026.129.03.247.152.324a.264.264 0 00.127.04c.054.017.044.039-.03.064zm-.036-.53l-.075.007a.274.274 0 01-.176-.166l-.073-.263c-.063-.101-.126-.168-.188-.181a.117.117 0 00-.097.025c-.038.015-.044.002-.036-.023a.147.147 0 01.126-.064c.082.002.17.064.215.13.024.033.04.069.054.106.026.129.03.247.152.324.04.024.082.037.127.04.054.017.044.039-.03.064zm.04-.433l-.074.007a.275.275 0 01-.176-.166l-.072-.263c-.064-.101-.127-.167-.189-.18a.115.115 0 00-.096.025c-.04.014-.045.001-.037-.024a.147.147 0 01.126-.063c.082.001.17.064.216.13a.45.45 0 01.053.106c.026.128.03.246.152.323.04.025.082.037.127.04.054.018.044.04-.03.065zm.021-.444l-.063.007a.235.235 0 01-.15-.142l-.062-.224c-.054-.086-.107-.142-.16-.153a.098.098 0 00-.082.02c-.033.014-.038.002-.031-.019a.126.126 0 01.107-.054c.07.002.144.054.183.11a.45.45 0 01.046.09c.022.11.025.21.13.276.033.021.07.032.108.035.046.014.037.032-.026.054zm1.313 2.358l-.065-.038a.276.276 0 01-.044-.238c.054-.14.176-.374.053-.512a.112.112 0 00-.093-.037c-.04-.012-.037-.026-.015-.041a.146.146 0 01.138.023c.066.05.1.152.097.233a.45.45 0 01-.02.117c-.054.119-.121.216-.068.35a.273.273 0 00.079.109c.033.046.013.057-.062.034zm.407 0l-.065-.038a.275.275 0 01-.043-.238c.053-.14.175-.374.052-.512a.114.114 0 00-.093-.037c-.04-.012-.037-.026-.016-.041a.147.147 0 01.14.023c.064.05.098.152.096.233a.473.473 0 01-.02.117c-.054.119-.121.216-.068.35a.273.273 0 00.079.109c.033.046.012.057-.062.034zm.41 0l-.065-.038a.276.276 0 01-.044-.238c.053-.14.176-.374.052-.512a.113.113 0 00-.092-.037c-.04-.012-.037-.026-.016-.041a.147.147 0 01.139.023c.065.05.099.152.097.233a.463.463 0 01-.02.117c-.055.119-.121.216-.068.35a.273.273 0 00.079.109c.033.046.012.057-.063.034zm.417 0l-.064-.038a.277.277 0 01-.044-.238c.054-.14.176-.374.053-.512a.114.114 0 00-.094-.037c-.04-.012-.036-.026-.015-.041a.147.147 0 01.139.023c.065.05.099.152.097.233a.45.45 0 01-.02.117c-.055.119-.122.216-.068.35a.271.271 0 00.079.109c.033.046.012.057-.063.034zm1.601-1.474l-.005-.066a.249.249 0 01.157-.152c.135-.032.377-.061.416-.22.008-.028.001-.056-.02-.085-.014-.034-.002-.04.022-.032a.127.127 0 01.056.112c-.003.072-.063.148-.125.187a.432.432 0 01-.1.045c-.119.02-.228.021-.302.127a.23.23 0 00-.04.111c-.017.047-.037.038-.059-.027zm-.18.542l-.005-.066a.242.242 0 01.149-.151c.128-.032.356-.062.394-.22a.103.103 0 00-.02-.086c-.012-.034-.001-.039.02-.031.041.031.056.07.054.111-.003.072-.06.148-.118.187a.408.408 0 01-.094.045c-.113.02-.216.021-.286.127a.243.243 0 00-.038.112c-.016.047-.035.037-.056-.028zm.368-1.039l-.006-.066a.249.249 0 01.158-.151c.135-.032.377-.062.416-.22a.098.098 0 00-.021-.086c-.013-.034 0-.04.022-.031.043.031.058.07.057.11-.004.073-.063.149-.125.188a.428.428 0 01-.1.045c-.12.02-.228.021-.302.127a.226.226 0 00-.04.111c-.017.047-.037.039-.06-.027zm.054-.418l-.004-.046a.173.173 0 01.11-.107c.095-.023.265-.043.293-.154.005-.02 0-.04-.015-.06-.009-.025 0-.028.016-.023.03.022.04.05.04.079-.003.05-.044.103-.088.131a.316.316 0 01-.07.031c-.084.015-.16.016-.213.09a.161.161 0 00-.028.078c-.012.033-.026.027-.041-.019zm.78.938c.025-.063-.001-.069-.05-.047-.384.253-.489 1.06-.067 1.428.049.022.069.01.06-.034a.723.723 0 01-.221-.36c.156.2.334.26.528.214.044-.024.043-.042-.002-.053-.256.046-.545-.179-.557-.465.096.192.233.277.408.25.05-.021.05-.042 0-.063-.269.007-.44-.297-.346-.516.028.225.146.33.327.353.044-.01.048-.03.013-.058-.333-.052-.316-.468-.092-.649zM33.518.036C33.509.014 33.5.002 33.488 0c-.011-.001-.024.008-.04.028-.084.306-.217.463-.392.483.073-.257.053-.393-.021-.462-.04-.02-.061-.01-.064.035.083.208.085.41-.336.58l-.061.012c-.03-.104 0-.186.079-.265.03-.026.004-.065-.062-.028-.086.077-.12.183-.109.314l-.04.01c-.108-.155-.133-.298-.01-.422.01-.048-.008-.063-.056-.045-.138.116-.127.277-.034.465L32.267.7c-.114-.157-.147-.298-.06-.413.043-.06.002-.099-.044-.081-.12.132-.133.292-.007.488-.299-.008-.653.062-1.043.18-.535.157-.99.37-1.472.564-.36.18-.725.326-1.096.442-.094.062-.107-.009-.071-.084.113-.182.324-.325.579-.45.048-.07.037-.096-.034-.08a1.84 1.84 0 00-.614.453.913.913 0 01.087-.331 1.95 1.95 0 01.578-.326c.049-.05.027-.073-.066-.07-.15.052-.296.122-.44.203a.636.636 0 01.373-.354l.244-.132c.028-.037-.007-.054-.062-.052a.99.99 0 00-.299.133l.103-.165c.02-.053-.018-.068-.068-.038-.377.363-.59.798-.55 1.344l-.295-.012c-.03-.138.004-.223.106-.28.017-.033.007-.05-.042-.046-.115.063-.164.168-.148.317l-.24-.056c-.006-.178.04-.31.196-.325.028-.026.017-.047-.034-.062-.162.022-.239.144-.233.364l-.2-.082c-.057-.22.005-.377.239-.439.014-.025.022-.069-.035-.068-.229.059-.327.208-.317.433l-.13-.12c.008-.306.496-.624.755-.3.047.014.06-.012.044-.072-.265-.243-.531-.178-.79.045.02-.062.026-.087.068-.136a.43.43 0 01.338-.135c.125.001.265.047.442.17.03.026.053.04.064.032.038-.029-.032-.087-.051-.102a.788.788 0 00-.14-.086c-.213-.102-.49-.123-.689.024a.463.463 0 00-.19.354.504.504 0 00.176.404c.085.07.183.131.301.18.115.046.248.081.405.101.146.023.288.024.423-.004.052.128.12.24.235.359.213.22.689.341 1.125.13.034-.045.018-.094-.027-.093a1.774 1.774 0 01-.65.045.517.517 0 01-.227-.105c.32 0 .577-.028.725-.107.03-.04.02-.056-.032-.045a3.486 3.486 0 01-.813.06.276.276 0 01-.17-.208c.226.119.488.14.794.04.071-.041.059-.06.008-.068-.329.063-.58.048-.766-.032.45-.14.905-.329 1.361-.554-.184.35-.176.678.021.982.032.028.077.003.06-.044-.183-.307-.147-.793.066-1.015a1.12 1.12 0 00.02.856l.072.09c.024.026.053.006.032-.037-.137-.226-.177-.501-.058-.854-.034.25.032.44.248.542.075.023.088-.01.049-.047-.252-.145-.245-.366-.167-.608l.075-.054c-.062.247-.036.432.147.508.05-.006.064-.029.04-.069-.176-.087-.166-.355-.057-.51-.023.216.029.356.164.412.045.005.056-.025.039-.06-.142-.057-.156-.192-.107-.366l.16-.062c-.035.137-.012.205.058.262.034.021.063.022.085.003-.093-.081-.101-.184-.055-.3.395-.124.803-.236 1.231-.239l.076.015 1.028-.254c.215-.105.355-.285.399-.567zm-.282 1.262c.025.103.154.178.115.278-.022.059-.18-.135-.185-.156l-.013.071.092.18c.029.093.006.105-.053.061l-.109-.128-.062.003.014.082.094.167c.035.095.01.108-.04.083l-.109-.145-.063-.002.028.074.118.192c.024.071.007.092-.051.064l-.123-.13-.088-.024.065.077.142.187c.033.068.02.09-.038.067l-.15-.137-.054.003.03.06.142.222c.011.057-.003.082-.053.061l-.134-.15-.088.002.062.084.148.225c.012.062-.004.083-.05.062l-.133-.163-.093-.006.08.062.144.242c.017.062 0 .083-.05.062l-.128-.155-.075-.007.057.094.14.21c.028.08.006.095-.047.075l-.118-.142L32.53 3l.059.075.12.207c.029.096.01.118-.054.068l-.086-.129-.084.003.07.131.127.194c.023.068.015.098-.042.07l-.1-.11-.064.014.057.082.138.221c.026.062-.004.1-.056.054l-.095-.124-.059.05.052.038.142.225c.037.061.003.12-.047.07L32.5 3.99l-.066.045.055.096.138.205c.018.058-.014.093-.062.055l-.089-.11-.118.198.022.062.288.302c.066.095.1.23.096.412l.087 1.16c.024.305.097.572.256.773l.41.452c.01.026.01.054-.019.088a.325.325 0 01-.12.084.282.282 0 01-.243-.105c-.208-.253-.281-.605-.369-.947l-.006-.16a.805.805 0 00-.218.323c.027.187.095.316.25.317.05.03.057.053 0 .062-.144-.009-.242-.085-.284-.242a.411.411 0 00-.043.19c.111.175.244.287.446.202.047-.007.054.009.024.047-.199.12-.347.058-.472-.096.037.147.089.285.265.37.114.055.22.022.322-.06.04-.017.064.013.045.04-.057.119-.32.155-.46.065a.465.465 0 00.112.14c.007.043-.028.04-.08.014a.797.797 0 01-.255-.469 1.043 1.043 0 01.073-.653.604.604 0 01.27-.33l-.048-.822c-.07-.754-.231-.737-.668-1.08l-.294-.142-.193.159.197.237c.057.088.096.19.087.33l-.109 1.665c.022.256.106.477.252.664l.175.231c.072.09.074.152.006.183-.142.106-.253.047-.347-.095a2.172 2.172 0 01-.205-.865l.087-1.16-.01-.525c-.008-.173-.1-.3-.222-.409l-.324-.297 2.097-3.297zM28.585 4.67c-.11.146-.25.28-.423.398-.164.117-.31.242-.388.394a.434.434 0 00-.047.417c.078.233.183.451.329.649.144.204.278.406.37.6.057.119.098.235.116.346l.038.326c.006.111-.048.147-.128.15-.16 0-.231-.133-.243-.356l-.021-.54c.01-.127-.44-.803-.597-1.237-.03-.134-.02-.255.046-.355.102-.176.225-.336.355-.488l.362-.424.23.12zm-.751-.01c-.603.271-.878.642-.969 1.067l-.247 1.555a.553.553 0 01-.17.295.908.908 0 01-.483.231c-.195-.002-.227-.148-.07-.272.178-.092.484-.196.598-.37a.965.965 0 00.1-.283l.157-1.22c.053-.227.172-.448.333-.664l.32-.349.217-.156.214.166zm1-1.815a.098.098 0 110 .196.098.098 0 010-.196zm-3.551 1.328a.087.087 0 110 .175.087.087 0 010-.175zm1.334.16a.08.08 0 110 .16.08.08 0 010-.16zm6.933-1.97c.052 0 .094.043.094.095a.094.094 0 11-.188 0c0-.052.042-.094.094-.094zm-.17 1.809a.08.08 0 110 .16.08.08 0 010-.16zm-6.493-2.114h.068v.222h.211v.07h-.21v.221h-.07v-.22h-.208v-.07h.209v-.223zm2.921 4.4a.1.1 0 110 .2.1.1 0 010-.2zm-.773-.774a.1.1 0 11-.2 0 .1.1 0 11.2 0zm1.745 0a.1.1 0 11-.199 0 .1.1 0 11.2 0zm-1.519.548a.1.1 0 11-.14.14.1.1 0 11.14-.14zm1.067-.089l-.067.068-.4-.401v.545h-.097v-.553l-.393.393-.068-.068.39-.391h-.555V5.64h.552l-.392-.393.067-.068.4.399V4.99h.095v.579l.406-.407.068.068-.408.41h.574v.095h-.578l.406.407zM29.26 5.136a.1.1 0 11-.14-.14.1.1 0 01.14.14zm1.234 1.237a.1.1 0 11-.14-.141.1.1 0 01.14.14zm0-1.377a.1.1 0 11-.14.14.1.1 0 01.14-.14zm-.687-.286a.1.1 0 110 .2.1.1 0 010-.2zm3.574-1.057a.03.03 0 01-.04.01.03.03 0 01-.012-.04.734.734 0 00.06-.118.292.292 0 00.017-.101.181.181 0 00-.018-.081V3.32a.17.17 0 00-.065-.07.193.193 0 00-.097-.026.253.253 0 00-.227.158.296.296 0 00-.01.168.383.383 0 00.082.163.33.33 0 00.216.119.392.392 0 00.116-.014.296.296 0 00.097-.048.5.5 0 00.17-.29.646.646 0 00-.018-.37.411.411 0 00-.076-.125l-.002-.002a.334.334 0 00-.197-.103.443.443 0 00-.234.03.555.555 0 00-.166.106.487.487 0 00-.107.145.723.723 0 00-.063.207 1.241 1.241 0 00.277.88.03.03 0 11-.047.037 1.3 1.3 0 01-.29-.922V3.36a.782.782 0 01.068-.226.545.545 0 01.122-.163.617.617 0 01.184-.117.51.51 0 01.266-.034.394.394 0 01.232.122l.001.002a.462.462 0 01.088.143.707.707 0 01.02.406v.002a.56.56 0 01-.192.324.356.356 0 01-.116.057.442.442 0 01-.135.016h-.004a.389.389 0 01-.256-.14.447.447 0 01-.094-.189.351.351 0 01.012-.203.308.308 0 01.283-.197c.046 0 .09.013.128.036a.229.229 0 01.112.204.348.348 0 01-.021.122.828.828 0 01-.064.127zM31.98 7.019l.075.008a.28.28 0 00.176-.166l.072-.263c.064-.101.126-.168.188-.18a.115.115 0 01.097.025c.039.014.044 0 .036-.024a.146.146 0 00-.125-.064c-.082.002-.17.064-.216.13a.47.47 0 00-.053.106c-.026.129-.03.247-.152.324a.265.265 0 01-.128.04c-.054.017-.044.039.03.064zm.037-.53l.074.007a.276.276 0 00.176-.166l.073-.263c.063-.101.126-.168.188-.181a.115.115 0 01.096.025c.04.015.045.002.037-.023a.147.147 0 00-.125-.064c-.083.002-.17.064-.216.13a.47.47 0 00-.054.106c-.026.129-.03.247-.152.324a.272.272 0 01-.127.04c-.054.017-.044.039.03.064zm-.041-.433l.074.007a.276.276 0 00.176-.166l.073-.263c.063-.101.126-.167.188-.18a.115.115 0 01.097.025c.038.014.044.001.036-.024a.147.147 0 00-.126-.063c-.082.001-.169.064-.215.13a.454.454 0 00-.054.106c-.026.128-.03.246-.152.323a.265.265 0 01-.127.04c-.054.018-.044.04.03.065zm-.021-.444l.063.007a.235.235 0 00.15-.142l.062-.224c.054-.086.107-.142.16-.153a.099.099 0 01.083.02c.032.014.037.002.03-.019a.126.126 0 00-.107-.054c-.07.002-.144.054-.183.11a.405.405 0 00-.046.09c-.022.11-.025.21-.13.276a.233.233 0 01-.108.035c-.046.014-.037.032.026.054zM30.641 7.97l.065-.038a.275.275 0 00.044-.238c-.054-.14-.176-.374-.053-.512a.113.113 0 01.093-.037c.04-.012.037-.026.015-.041a.146.146 0 00-.138.023c-.065.05-.099.152-.097.233 0 .04.009.079.02.117.054.119.121.216.068.35a.274.274 0 01-.079.109c-.033.046-.012.057.062.034zm-.407 0l.065-.038a.276.276 0 00.044-.238c-.054-.14-.176-.374-.053-.512a.114.114 0 01.094-.037c.04-.012.036-.026.015-.041a.147.147 0 00-.14.023c-.064.05-.098.152-.096.233.001.04.009.079.02.117.054.119.121.216.068.35a.272.272 0 01-.079.109c-.033.046-.012.057.062.034zm-.41 0l.065-.038a.275.275 0 00.044-.238c-.053-.14-.175-.374-.052-.512a.114.114 0 01.093-.037c.04-.012.036-.026.015-.041a.147.147 0 00-.139.023c-.065.05-.099.152-.097.233.001.04.01.079.02.117.055.119.122.216.068.35a.274.274 0 01-.078.109c-.033.046-.013.057.062.034zm-.417 0l.064-.038a.276.276 0 00.044-.238c-.053-.14-.175-.374-.052-.512a.114.114 0 01.093-.037c.04-.012.037-.026.015-.041a.147.147 0 00-.139.023c-.065.05-.098.152-.097.233a.46.46 0 00.02.117c.055.119.122.216.069.35a.274.274 0 01-.08.109c-.033.046-.012.057.063.034zm-1.6-1.474l.005-.066a.25.25 0 00-.158-.152c-.135-.032-.377-.061-.416-.22-.007-.028-.001-.056.021-.085.013-.034 0-.04-.022-.032a.127.127 0 00-.057.112c.004.072.063.148.125.187a.43.43 0 00.1.045c.119.02.228.021.302.127a.231.231 0 01.04.111c.017.047.037.038.06-.027zm.18.542l.004-.066a.242.242 0 00-.149-.151c-.127-.032-.356-.062-.394-.22a.103.103 0 01.02-.086c.013-.034 0-.039-.02-.031a.128.128 0 00-.054.111c.003.072.06.148.118.187.03.02.061.034.094.045.113.02.217.021.286.127a.242.242 0 01.038.112c.016.047.035.037.056-.028zm-.369-1.039l.006-.066a.25.25 0 00-.158-.151c-.135-.032-.376-.062-.416-.22a.097.097 0 01.021-.086c.013-.034 0-.04-.022-.031a.127.127 0 00-.056.11c.003.073.062.149.124.188.032.02.065.034.1.045.12.02.229.021.302.127a.229.229 0 01.04.111c.017.047.037.039.06-.027zm-.054-.418l.004-.046a.172.172 0 00-.11-.107c-.095-.023-.265-.043-.293-.154-.005-.02 0-.04.015-.06.01-.025 0-.028-.016-.023a.089.089 0 00-.04.079c.003.05.045.103.088.131a.317.317 0 00.07.031c.084.015.161.016.213.09a.16.16 0 01.028.078c.012.033.026.027.041-.019zm-.78.938c-.025-.063.001-.069.05-.047.385.253.489 1.06.067 1.428-.049.022-.068.01-.06-.034a.727.727 0 00.222-.36c-.157.2-.335.26-.53.214-.042-.024-.042-.042.003-.053.257.046.545-.179.556-.465-.095.192-.232.277-.407.25-.05-.021-.05-.042 0-.063.27.007.44-.297.346-.516-.027.225-.146.33-.326.353-.044-.01-.049-.03-.013-.058.332-.052.314-.468.091-.649zM37.373.975c.1-.127.232-.21.268-.17.036.041.056.172-.13.35-.185.178-.281.212-.317.172-.036-.04.081-.224.18-.352zm.192.335c.14-.144.228-.163.276-.1.047.061-.005.217-.136.365s-.37.303-.418.241c-.047-.062.138-.363.278-.506zm.1.462c.165-.177.249-.226.307-.15.06.077.04.208-.119.397-.16.19-.452.414-.511.337-.06-.076.16-.407.324-.584zm.222.499c.224-.176.297-.186.354-.132.058.055.033.24-.174.427s-.562.386-.617.314c-.056-.072.212-.433.437-.61zm.08.655c.272-.17.401-.147.446-.11.045.035.06.19-.223.398-.283.21-.736.308-.78.234-.045-.073.285-.353.557-.522zm-.157.751c.284-.133.374-.106.415-.015.041.09-.021.239-.304.372s-.704.235-.745.144c-.042-.09.352-.368.634-.5zm-.224.792c.255-.142.435-.142.475-.045.04.096-.073.298-.338.406-.265.108-.661.217-.702.12-.04-.095.308-.338.565-.48zm.043.62c.249-.078.34-.089.37.004.029.092-.119.283-.367.362-.248.077-.54.117-.57.025-.028-.093.32-.312.567-.39zM37.174.778c.041-.115.117-.206.153-.185.035.02.08.11-.01.281-.092.172-.153.22-.188.2-.036-.021.005-.181.045-.296zm3.316 4.256c.124-.026.245-.007.246.036.001.043-.054.13-.255.142-.202.011-.277-.018-.278-.06-.001-.043.163-.093.287-.118zm-.057.297c.157-.014.22.02.216.082-.003.061-.114.128-.268.149-.154.021-.376-.008-.373-.07.004-.061.268-.146.425-.16zm-.176.328c.189-.022.264-.007.26.068-.004.076-.082.145-.274.176-.193.032-.482.015-.478-.06.004-.077.304-.162.492-.184zm-.123.411c.224.01.273.042.28.104.005.062-.104.16-.324.165-.219.006-.532-.057-.528-.129.004-.07.348-.15.572-.14zm-.286.433c.248.038.314.118.322.163.01.044-.061.144-.337.124-.276-.02-.596-.194-.585-.26.01-.067.35-.065.6-.027zm-.478.368c.237.066.276.129.255.204-.022.075-.135.132-.371.066-.238-.066-.541-.22-.52-.296.022-.075.399-.04.636.026zm-.54.358c.226.046.333.139.308.217-.025.078-.196.14-.41.069-.213-.071-.506-.21-.48-.287.024-.078.356-.045.583 0zm-.29.393c.188.08.248.121.218.191s-.215.11-.403.029c-.189-.081-.384-.207-.354-.277.03-.07.35-.023.538.057zm1.931-2.809c.083-.047.175-.063.186-.032.01.03-.008.107-.15.162-.142.056-.203.054-.214.023-.01-.03.095-.105.178-.153zm-6.852.221c-.124-.026-.245-.007-.246.036-.001.043.054.13.255.142.202.011.277-.018.278-.06.001-.043-.163-.093-.287-.118zm.057.297c-.157-.014-.22.02-.216.082.003.061.114.128.268.149.154.021.376-.008.373-.07-.004-.061-.268-.146-.425-.16zm.176.328c-.189-.022-.264-.007-.26.068.004.076.082.145.274.176.193.032.482.015.478-.06-.004-.077-.304-.162-.492-.184zm.123.411c-.224.01-.273.042-.28.104-.005.062.105.16.324.165.219.006.532-.057.528-.129-.003-.07-.348-.15-.572-.14zm.286.433c-.248.038-.314.118-.322.163-.01.044.061.144.337.124.276-.02.596-.194.586-.26-.011-.067-.352-.065-.6-.027zm.478.368c-.237.066-.276.129-.255.204.021.075.135.132.371.066.238-.066.541-.22.52-.296-.022-.075-.399-.04-.636.026zm.54.358c-.226.046-.333.139-.308.217.025.078.196.14.41.069.213-.071.506-.21.48-.287-.024-.078-.356-.045-.582 0zm.29.393c-.188.08-.248.121-.218.191s.215.11.404.029c.188-.081.383-.207.353-.277-.03-.07-.35-.023-.538.057zm-1.931-2.809c-.083-.047-.175-.063-.186-.032-.01.03.008.107.15.162.142.056.203.054.214.023.01-.03-.095-.105-.178-.153zM40.642.036c.008-.022.018-.034.029-.036.011-.001.025.008.04.028.084.306.217.463.393.483-.074-.257-.054-.393.02-.462.04-.02.061-.01.064.035-.083.208-.084.41.336.58l.061.012c.03-.104 0-.186-.08-.265-.029-.026-.003-.065.063-.028.086.077.12.183.109.314l.04.01c.108-.155.133-.298.01-.422-.01-.048.008-.063.056-.045.138.116.128.277.035.465L41.892.7c.114-.157.147-.298.06-.413-.042-.06-.002-.099.045-.081.118.132.132.292.006.488.299-.008.653.062 1.043.18.535.157.99.37 1.473.564.359.18.724.326 1.095.442.094.062.107-.009.071-.084-.113-.182-.324-.325-.579-.45-.048-.07-.037-.096.035-.08.236.108.44.259.614.453a.913.913 0 00-.088-.331 1.945 1.945 0 00-.578-.326c-.049-.05-.027-.073.067-.07.15.052.295.122.439.203a.636.636 0 00-.373-.354L44.98.709c-.03-.037.007-.054.061-.052a.992.992 0 01.299.133l-.102-.165c-.02-.053.017-.068.068-.038.376.363.589.798.55 1.344l.294-.012c.03-.138-.004-.223-.106-.28-.017-.033-.007-.05.042-.046.115.063.164.168.148.317l.24-.056c.006-.178-.04-.31-.196-.325-.028-.026-.017-.047.034-.062.162.022.24.144.233.364l.2-.082c.057-.22-.005-.377-.239-.439-.014-.025-.022-.069.035-.068.229.059.327.208.318.433l.13-.12c-.009-.306-.497-.624-.755-.3-.047.014-.06-.012-.044-.072.264-.243.53-.178.79.045-.022-.062-.026-.087-.07-.136a.43.43 0 00-.337-.135c-.124.001-.264.047-.442.17-.03.026-.053.04-.063.032-.039-.029.031-.087.05-.102a.786.786 0 01.14-.086c.213-.102.49-.123.689.024a.46.46 0 01.19.354.504.504 0 01-.176.404c-.084.07-.183.131-.3.18a1.612 1.612 0 01-.406.101 1.168 1.168 0 01-.422-.004c-.052.128-.121.24-.236.359-.213.22-.688.341-1.125.13-.034-.045-.018-.094.028-.093.211.052.427.072.65.045a.515.515 0 00.226-.105c-.319 0-.577-.028-.725-.107-.03-.04-.02-.056.032-.045.262.054.534.068.813.06.094-.04.15-.11.17-.208-.226.119-.488.14-.793.04-.072-.041-.06-.06-.009-.068.329.063.58.048.766-.032a9.313 9.313 0 01-1.36-.554c.183.35.175.678-.022.982-.032.028-.077.003-.06-.044.183-.307.147-.793-.066-1.015.097.277.112.561-.02.856l-.072.09c-.024.026-.053.006-.032-.037.137-.226.177-.501.058-.854.035.25-.032.44-.247.542-.076.023-.09-.01-.05-.047.252-.145.245-.366.167-.608l-.075-.054c.062.247.036.432-.147.508-.05-.006-.064-.029-.04-.069.177-.087.166-.355.057-.51.023.216-.029.356-.164.412-.045.005-.056-.025-.039-.06.142-.057.156-.192.107-.366l-.16-.062c.035.137.013.205-.058.262-.033.021-.062.022-.085.003.094-.081.101-.184.056-.3-.396-.124-.804-.236-1.232-.239l-.076.015-1.028-.254c-.214-.105-.355-.285-.399-.567zm25.645 1.262c-.025.103-.154.178-.116.278.023.059.18-.135.186-.156l.013.071-.092.18c-.03.093-.006.105.053.061l.108-.128.063.003-.014.082-.094.167c-.035.095-.01.108.04.083l.109-.145.063-.002-.028.074-.118.192c-.024.071-.007.092.052.064l.122-.13.088-.024-.065.077-.142.187c-.033.068-.02.09.038.067l.15-.137.054.003-.03.06-.142.222c-.012.057.003.082.053.061l.134-.15.088.002-.061.084-.149.225c-.012.062.004.083.05.062l.132-.163.095-.006-.08.062-.145.242c-.018.062 0 .083.05.062l.128-.155.075-.007-.057.094-.14.21c-.028.08-.006.095.047.075l.118-.142.07-.003-.06.075-.12.207c-.028.096-.01.118.055.068l.086-.129.084.003-.07.131-.127.194c-.024.068-.014.098.041.07l.1-.11.065.014-.057.082-.138.221c-.026.062.004.1.056.054l.095-.124.059.05-.052.038-.142.225c-.037.061-.003.12.047.07l.107-.148.066.045-.055.096-.138.205c-.018.058.014.093.062.055l.089-.11.118.198-.022.062-.288.302c-.067.095-.1.23-.096.412l-.088 1.16c-.023.305-.096.572-.255.773l-.41.452c-.01.026-.01.054.019.088.03.035.071.063.12.084a.285.285 0 00.243-.105c.208-.253.281-.605.369-.947l.006-.16a.804.804 0 01.218.323c-.028.187-.095.316-.25.317-.05.03-.057.053 0 .062.144-.009.242-.085.284-.242a.411.411 0 01.042.19c-.11.175-.243.287-.445.202-.047-.007-.055.009-.024.047.198.12.347.058.472-.096-.037.147-.089.285-.265.37-.114.055-.22.022-.322-.06-.04-.017-.064.013-.045.04.057.119.32.155.46.065a.465.465 0 01-.112.14c-.007.043.028.04.08.014a.798.798 0 00.255-.469 1.042 1.042 0 00-.073-.653.603.603 0 00-.27-.33l.048-.822c.07-.754.231-.737.668-1.08l.294-.142.192.159-.196.237a.515.515 0 00-.087.33l.108 1.665a1.213 1.213 0 01-.251.664l-.175.231c-.072.09-.074.152-.006.183.142.106.253.047.347-.095.13-.26.188-.553.205-.865l-.088-1.16.011-.525c.008-.173.1-.3.222-.409l.324-.297-2.096-3.297zm4.651 3.372c.11.146.25.28.423.398.164.117.31.242.388.394.075.109.108.24.047.417a2.32 2.32 0 01-.329.649 4.247 4.247 0 00-.37.6 1.28 1.28 0 00-.116.346l-.038.326c-.006.111.048.147.128.15.16 0 .23-.133.243-.356l.021-.54c-.01-.127.44-.803.597-1.237.03-.134.02-.255-.047-.355a3.309 3.309 0 00-.354-.488l-.362-.424-.23.12zm.751-.01c.603.271.878.642.969 1.067l.247 1.555a.55.55 0 00.17.295.908.908 0 00.483.231c.195-.002.227-.148.07-.272-.178-.092-.484-.196-.598-.37a.975.975 0 01-.1-.283l-.157-1.22a1.83 1.83 0 00-.333-.664l-.32-.349-.218-.156-.213.166zm-1-1.815a.099.099 0 100 .197.099.099 0 000-.197zm3.551 1.328a.087.087 0 100 .175.087.087 0 000-.175zm-1.334.16a.08.08 0 100 .16.08.08 0 000-.16zm-6.933-1.97a.094.094 0 00-.094.095.094.094 0 10.188 0 .094.094 0 00-.094-.094zm.17 1.809a.08.08 0 00-.08.08.08.08 0 10.16 0 .08.08 0 00-.08-.08zm6.493-2.114h-.068v.222h-.211v.07h.21v.221h.07v-.22h.208v-.07h-.209v-.223zm-2.921 4.4a.1.1 0 000 .2.1.1 0 000-.2zm.773-.774a.1.1 0 10.2 0 .1.1 0 10-.199 0zm-1.745 0a.1.1 0 10.199 0 .1.1 0 10-.2 0zm1.519.548a.1.1 0 10.14.141.1.1 0 00-.14-.141zm-1.067-.089l.068.068.4-.401v.545h.096v-.553l.393.393.067-.068-.39-.391h.556V5.64h-.553l.394-.393-.068-.068-.4.399V4.99h-.095v.579l-.406-.407-.068.068.409.41h-.575v.095h.578l-.406.407zm1.067-1.007a.1.1 0 10.14-.14.1.1 0 00-.14.14zm-1.234 1.237a.1.1 0 10.14-.141.1.1 0 00-.14.14zm0-1.377a.1.1 0 10.14.14.1.1 0 00-.14-.14zm.687-.286a.1.1 0 000 .2.1.1 0 100-.2zM66.14 3.653a.03.03 0 00.04.01.03.03 0 00.012-.04.74.74 0 01-.06-.118.292.292 0 01-.017-.101.18.18 0 01.018-.081V3.32a.17.17 0 01.065-.07.193.193 0 01.097-.026.25.25 0 01.226.158.29.29 0 01.01.168.387.387 0 01-.081.163.33.33 0 01-.216.119.396.396 0 01-.117-.014.298.298 0 01-.096-.048.5.5 0 01-.17-.29.648.648 0 01.018-.37.413.413 0 01.076-.125l.002-.002a.334.334 0 01.196-.103.444.444 0 01.234.03.55.55 0 01.167.106.468.468 0 01.107.145.69.69 0 01.063.207 1.235 1.235 0 01-.277.88.03.03 0 10.047.037 1.3 1.3 0 00.29-.922V3.36a.785.785 0 00-.069-.226.54.54 0 00-.12-.163.618.618 0 00-.185-.117.51.51 0 00-.266-.034.395.395 0 00-.232.122l-.002.002a.464.464 0 00-.087.143.708.708 0 00-.02.406v.002a.56.56 0 00.192.324.357.357 0 00.116.057.45.45 0 00.135.016h.003a.388.388 0 00.257-.14.442.442 0 00.094-.189.351.351 0 00-.012-.203.308.308 0 00-.283-.197.251.251 0 00-.128.036.23.23 0 00-.112.204c0 .046.007.083.021.122a.81.81 0 00.064.127zm1.402 3.366l-.075.008a.275.275 0 01-.176-.166l-.072-.263c-.064-.101-.126-.168-.188-.18a.115.115 0 00-.097.025c-.039.014-.044 0-.036-.024a.146.146 0 01.125-.064c.082.002.17.064.216.13.023.034.04.07.053.106.026.129.03.247.152.324.04.025.082.037.128.04.054.017.044.039-.03.064zm-.037-.53l-.074.007a.276.276 0 01-.177-.166l-.072-.263c-.063-.101-.126-.168-.188-.181a.116.116 0 00-.097.025c-.038.015-.044.002-.036-.023a.147.147 0 01.125-.064c.083.002.17.064.216.13a.47.47 0 01.054.106c.026.129.03.247.152.324a.275.275 0 00.127.04c.054.017.044.039-.03.064zm.041-.433l-.075.007a.275.275 0 01-.175-.166l-.073-.263c-.063-.101-.126-.167-.188-.18a.115.115 0 00-.097.025c-.038.014-.044.001-.036-.024a.147.147 0 01.126-.063c.082.001.169.064.215.13.023.033.04.069.054.106.026.128.03.246.152.323.04.025.082.037.127.04.054.018.044.04-.03.065zm.021-.444l-.063.007a.234.234 0 01-.15-.142l-.062-.224c-.054-.086-.107-.142-.16-.153a.098.098 0 00-.083.02c-.032.014-.037.002-.03-.019a.126.126 0 01.107-.054c.07.002.144.054.183.11a.45.45 0 01.046.09c.022.11.025.21.129.276.034.021.07.032.109.035.045.014.037.032-.026.054zM68.88 7.97l-.065-.038a.276.276 0 01-.044-.238c.054-.14.176-.374.052-.512a.113.113 0 00-.092-.037c-.04-.012-.037-.026-.016-.041a.147.147 0 01.139.023c.065.05.099.152.097.233a.46.46 0 01-.02.117c-.055.119-.121.216-.068.35a.273.273 0 00.078.109c.034.046.013.057-.061.034zm.407 0l-.065-.038a.275.275 0 01-.044-.238c.054-.14.176-.374.053-.512a.114.114 0 00-.094-.037c-.04-.012-.036-.026-.015-.041a.147.147 0 01.14.023c.064.05.098.152.096.233a.468.468 0 01-.02.117c-.054.119-.121.216-.068.35a.272.272 0 00.079.109c.033.046.012.057-.062.034zm.41 0l-.066-.038a.275.275 0 01-.043-.238c.053-.14.175-.374.052-.512a.114.114 0 00-.093-.037c-.04-.012-.036-.026-.015-.041a.147.147 0 01.138.023c.066.05.1.152.097.233a.477.477 0 01-.019.117c-.055.119-.122.216-.069.35a.274.274 0 00.08.109c.032.046.012.057-.063.034zm.417 0l-.064-.038a.276.276 0 01-.044-.238c.053-.14.175-.374.052-.512a.114.114 0 00-.093-.037c-.04-.012-.036-.026-.015-.041a.147.147 0 01.139.023c.065.05.098.152.096.233 0 .04-.008.079-.02.117-.054.119-.12.216-.068.35a.274.274 0 00.08.109c.033.046.012.057-.063.034zm1.601-1.474l-.006-.066a.249.249 0 01.158-.152c.135-.032.377-.061.416-.22.007-.028.001-.056-.021-.085-.013-.034 0-.04.022-.032a.126.126 0 01.056.112c-.003.072-.062.148-.124.187a.435.435 0 01-.1.045c-.12.02-.229.021-.302.127a.23.23 0 00-.04.111c-.017.047-.037.038-.059-.027zm-.18.542l-.005-.066a.241.241 0 01.149-.151c.127-.032.356-.062.394-.22a.102.102 0 00-.02-.086c-.013-.034-.001-.039.02-.031.041.031.056.07.054.111-.003.072-.06.148-.118.187a.418.418 0 01-.094.045c-.113.02-.217.021-.287.127a.24.24 0 00-.037.112c-.016.047-.035.037-.056-.028zm.368-1.039l-.006-.066a.249.249 0 01.157-.151c.136-.032.377-.062.417-.22a.097.097 0 00-.021-.086c-.013-.034 0-.04.022-.031.043.031.058.07.056.11-.003.073-.062.149-.124.188a.425.425 0 01-.1.045c-.12.02-.229.021-.302.127a.227.227 0 00-.04.111c-.017.047-.037.039-.06-.027zm.053-.418l-.003-.046a.172.172 0 01.11-.107c.095-.023.265-.043.293-.154.005-.02 0-.04-.015-.06-.01-.025 0-.028.016-.023.03.022.04.05.04.079-.003.05-.045.103-.089.131a.306.306 0 01-.07.031c-.083.015-.16.016-.212.09a.163.163 0 00-.028.078c-.012.033-.026.027-.042-.019zm.782.938c.024-.063-.002-.069-.052-.047-.384.253-.488 1.06-.066 1.428.049.022.068.01.06-.034a.725.725 0 01-.222-.36c.157.2.335.26.53.214.042-.024.042-.042-.003-.053-.257.046-.546-.179-.557-.465.096.192.233.277.407.25.05-.021.05-.042 0-.063-.268.007-.438-.297-.345-.516.027.225.146.33.326.353.044-.01.049-.03.013-.058-.332-.052-.315-.468-.091-.649zM58.879.036c-.007-.022-.017-.034-.028-.036-.011-.001-.025.008-.04.028-.084.306-.217.463-.393.483.074-.257.054-.393-.02-.462-.04-.02-.062-.01-.065.035.084.208.085.41-.335.58l-.061.012c-.03-.104 0-.186.079-.265.03-.026.004-.065-.062-.028-.086.077-.12.183-.109.314l-.04.01c-.108-.155-.133-.298-.01-.422.01-.048-.008-.063-.056-.045-.138.116-.128.277-.034.465L57.63.7c-.114-.157-.147-.298-.06-.413.042-.06.002-.099-.045-.081-.118.132-.132.292-.006.488-.299-.008-.654.062-1.043.18-.536.157-.99.37-1.473.564-.359.18-.724.326-1.095.442-.094.062-.107-.009-.071-.084.113-.182.323-.325.579-.45.048-.07.037-.096-.035-.08a1.85 1.85 0 00-.614.453.917.917 0 01.087-.331c.18-.149.375-.252.579-.326.049-.05.027-.073-.067-.07a2.749 2.749 0 00-.439.203A.636.636 0 0154.3.84l.243-.132c.029-.037-.007-.054-.061-.052a.99.99 0 00-.299.133l.102-.165c.02-.053-.017-.068-.068-.038-.376.363-.589.798-.55 1.344l-.294-.012c-.03-.138.004-.223.106-.28.017-.033.007-.05-.042-.046-.115.063-.164.168-.148.317l-.24-.056c-.006-.178.04-.31.196-.325.028-.026.017-.047-.035-.062-.161.022-.239.144-.232.364l-.2-.082c-.057-.22.005-.377.238-.439.015-.025.022-.069-.034-.068-.229.059-.327.208-.318.433l-.13-.12c.009-.306.497-.624.755-.3.047.014.06-.012.045-.072-.265-.243-.532-.178-.791.045.022-.062.026-.087.07-.136a.43.43 0 01.337-.135c.124.001.264.047.442.17.03.026.053.04.063.032.039-.029-.031-.087-.05-.102a.778.778 0 00-.14-.086c-.213-.102-.49-.123-.689.024a.463.463 0 00-.19.354.504.504 0 00.176.404c.084.07.183.131.3.18.115.046.249.081.406.101.146.023.288.024.422-.004.052.128.121.24.236.359.213.22.688.341 1.125.13.033-.045.018-.094-.028-.093a1.776 1.776 0 01-.65.045.518.518 0 01-.226-.105c.319 0 .577-.028.725-.107.03-.04.02-.056-.032-.045a3.486 3.486 0 01-.813.06.276.276 0 01-.17-.208c.226.119.488.14.793.04.072-.041.06-.06.009-.068-.329.063-.58.048-.766-.032.45-.14.904-.329 1.36-.554-.183.35-.176.678.022.982.032.028.077.003.06-.044-.184-.307-.147-.793.066-1.015a1.12 1.12 0 00.02.856l.072.09c.024.026.052.006.032-.037-.138-.226-.177-.501-.058-.854-.035.25.032.44.247.542.076.023.089-.01.05-.047-.252-.145-.245-.366-.167-.608l.075-.054c-.062.247-.036.432.147.508.05-.006.064-.029.04-.069-.177-.087-.166-.355-.057-.51-.024.216.029.356.164.412.045.005.056-.025.038-.06-.14-.057-.155-.192-.106-.366l.16-.062c-.035.137-.013.205.057.262.035.021.063.022.086.003-.094-.081-.101-.184-.056-.3.396-.124.804-.236 1.232-.239l.076.015L58.48.603c.214-.105.355-.285.399-.567zm-.28 1.262c.023.103.153.178.114.278-.023.059-.18-.135-.185-.156l-.013.071.092.18c.029.093.005.105-.054.061l-.108-.128-.062.003.014.082.093.167c.035.095.011.108-.04.083l-.108-.145-.064-.002.03.074.116.192c.024.071.007.092-.05.064l-.124-.13-.087-.024.065.077.142.187c.033.068.02.09-.039.067l-.15-.137-.053.003.03.06.142.222c.011.057-.003.082-.054.061l-.133-.15-.089.002.062.084.148.225c.013.062-.004.083-.049.062l-.133-.163-.094-.006.08.062.145.242c.017.062 0 .083-.051.062l-.128-.155-.075-.007.058.094.139.21c.029.08.007.095-.046.075l-.118-.142L57.891 3l.06.075.12.207c.029.096.01.118-.054.068l-.086-.129-.085.003.07.131.127.194c.024.068.015.098-.041.07l-.1-.11-.064.014.056.082.139.221c.026.062-.004.1-.056.054l-.095-.124-.06.05.053.038.142.225c.037.061.003.12-.047.07l-.107-.148-.067.045.055.096.138.205c.018.058-.013.093-.062.055l-.088-.11-.119.198.023.062.288.302c.066.095.1.23.096.412l.087 1.16c.024.305.096.572.256.773l.41.452c.01.026.01.054-.02.088a.318.318 0 01-.12.084.281.281 0 01-.242-.105c-.208-.253-.281-.605-.37-.947l-.005-.16a.802.802 0 00-.218.323c.027.187.094.316.25.317.05.03.057.053 0 .062-.145-.009-.242-.085-.284-.242a.406.406 0 00-.043.19c.11.175.244.287.446.202.046-.007.054.009.023.047-.198.12-.347.058-.471-.096.036.147.088.285.264.37.114.055.22.022.323-.06.04-.017.063.013.044.04-.056.119-.32.155-.458.065a.463.463 0 00.11.14c.007.043-.027.04-.08.014a.798.798 0 01-.254-.469 1.044 1.044 0 01.072-.653.604.604 0 01.271-.33L58.07 5.7c-.07-.754-.23-.737-.668-1.08l-.294-.142-.192.159.197.237c.057.088.096.19.087.33l-.109 1.665c.021.256.105.477.252.664l.175.231c.072.09.074.152.006.183-.143.106-.253.047-.348-.095a2.176 2.176 0 01-.204-.865l.087-1.16-.01-.525c-.009-.173-.1-.3-.223-.409l-.324-.297 2.097-3.297zM53.945 4.67c-.11.146-.249.28-.422.398-.164.117-.31.242-.388.394a.435.435 0 00-.047.417c.077.233.183.451.328.649.145.204.279.406.37.6.058.119.099.235.117.346l.038.326c.005.111-.048.147-.128.15-.16 0-.231-.133-.243-.356l-.021-.54c.01-.127-.441-.803-.597-1.237-.03-.134-.02-.255.046-.355a3.31 3.31 0 01.354-.488l.363-.424.23.12zm-.75-.01c-.603.271-.878.642-.969 1.067l-.247 1.555a.552.552 0 01-.17.295.909.909 0 01-.483.231c-.195-.002-.227-.148-.07-.272.178-.092.483-.196.597-.37.039-.057.063-.137.1-.283l.158-1.22c.053-.227.172-.448.333-.664l.32-.349.217-.156.213.166zm1-1.815a.098.098 0 110 .196.098.098 0 010-.196zm-3.551 1.328a.087.087 0 110 .175.087.087 0 010-.175zm1.334.16a.08.08 0 110 .16.08.08 0 010-.16zm6.932-1.97c.053 0 .095.043.095.095a.094.094 0 11-.095-.094zm-.17 1.809a.08.08 0 010 .16.08.08 0 010-.16zm-6.492-2.114h.068v.222h.211v.07h-.211v.221h-.068v-.22h-.21v-.07h.21v-.223zm2.92 4.4a.1.1 0 110 .2.1.1 0 010-.2zm-.773-.774a.1.1 0 11-.198 0 .1.1 0 11.198 0zm1.746 0a.1.1 0 11-.199 0 .1.1 0 01.199 0zm-1.519.548a.1.1 0 11-.14 0 .1.1 0 01.14 0zm1.067-.089l-.068.068-.4-.401v.545h-.096v-.553l-.393.393-.068-.068.39-.391H54.5V5.64h.552l-.393-.393.068-.068.399.399V4.99h.096v.579l.406-.407.068.068-.409.41h.575v.095h-.578l.406.407zm-1.067-1.007a.1.1 0 11-.14-.14.1.1 0 01.14.14zm1.234 1.237a.1.1 0 11-.14-.141.1.1 0 01.14.14zm0-1.377a.1.1 0 11-.14.14.1.1 0 01.14-.14zm-.687-.286a.1.1 0 010 .2.1.1 0 110-.2zm3.574-1.057a.03.03 0 01-.041.01.03.03 0 01-.011-.04.769.769 0 00.059-.118.29.29 0 00.018-.101.181.181 0 00-.018-.081V3.32a.17.17 0 00-.066-.07.193.193 0 00-.097-.026.253.253 0 00-.226.158.293.293 0 00-.01.168.378.378 0 00.082.163.33.33 0 00.216.119.393.393 0 00.116-.014.297.297 0 00.097-.048.499.499 0 00.169-.29.647.647 0 00-.017-.37.413.413 0 00-.077-.125l-.001-.002a.334.334 0 00-.197-.103.443.443 0 00-.234.03.554.554 0 00-.166.106.489.489 0 00-.108.145.73.73 0 00-.062.207 1.243 1.243 0 00.277.88.03.03 0 01-.048.037 1.3 1.3 0 01-.29-.922V3.36a.785.785 0 01.069-.226.548.548 0 01.121-.163.619.619 0 01.185-.117.51.51 0 01.265-.034.395.395 0 01.232.122l.002.002a.462.462 0 01.088.143.706.706 0 01.02.406v.002a.56.56 0 01-.192.324.36.36 0 01-.117.057.443.443 0 01-.135.016h-.003a.39.39 0 01-.256-.14.442.442 0 01-.094-.189.351.351 0 01.012-.203.309.309 0 01.283-.197c.046 0 .09.013.128.036a.23.23 0 01.112.204.345.345 0 01-.021.122.835.835 0 01-.064.127zm-1.402 3.366l.075.008c.08-.027.14-.08.175-.166l.073-.263c.063-.101.126-.168.188-.18a.114.114 0 01.097.025c.038.014.044 0 .036-.024a.146.146 0 00-.125-.064c-.082.002-.17.064-.216.13a.47.47 0 00-.054.106c-.026.129-.03.247-.152.324a.265.265 0 01-.127.04c-.054.017-.044.039.03.064zm.036-.53l.075.007a.28.28 0 00.176-.166l.073-.263c.063-.101.126-.168.187-.181a.116.116 0 01.097.025c.039.015.045.002.037-.023a.147.147 0 00-.126-.064c-.082.002-.17.064-.215.13a.474.474 0 00-.054.106c-.026.129-.03.247-.152.324a.272.272 0 01-.127.04c-.054.017-.044.039.03.064zm-.04-.433l.074.007a.274.274 0 00.176-.166l.073-.263c.063-.101.125-.167.188-.18a.115.115 0 01.096.025c.04.014.045.001.036-.024a.146.146 0 00-.125-.063c-.082.001-.17.064-.216.13a.45.45 0 00-.053.106c-.026.128-.03.246-.152.323a.265.265 0 01-.128.04c-.053.018-.044.04.03.065zm-.022-.444l.064.007a.235.235 0 00.15-.142l.062-.224c.054-.086.107-.142.16-.153a.099.099 0 01.082.02c.033.014.038.002.031-.019a.126.126 0 00-.107-.054c-.07.002-.144.054-.183.11a.41.41 0 00-.046.09c-.022.11-.025.21-.13.276a.233.233 0 01-.108.035c-.046.014-.037.032.026.054zm-1.31 2.358l.065-.038a.276.276 0 00.043-.238c-.053-.14-.175-.374-.052-.512a.113.113 0 01.093-.037c.04-.012.037-.026.015-.041a.147.147 0 00-.139.023c-.065.05-.098.152-.097.233a.46.46 0 00.02.117c.055.119.122.216.069.35a.273.273 0 01-.079.109c-.034.046-.013.057.062.034zm-.407 0l.065-.038a.276.276 0 00.044-.238c-.054-.14-.176-.374-.053-.512a.113.113 0 01.093-.037c.04-.012.037-.026.015-.041a.147.147 0 00-.138.023c-.065.05-.099.152-.097.233 0 .04.008.079.02.117.054.119.121.216.068.35a.272.272 0 01-.079.109c-.033.046-.013.057.062.034zm-.41 0l.065-.038a.276.276 0 00.044-.238c-.054-.14-.176-.374-.052-.512a.113.113 0 01.092-.037c.04-.012.037-.026.016-.041a.146.146 0 00-.139.023c-.065.05-.099.152-.097.233.001.04.009.079.02.117.055.119.121.216.068.35a.273.273 0 01-.078.109c-.034.046-.013.057.062.034zm-.418 0l.065-.038a.275.275 0 00.044-.238c-.054-.14-.176-.374-.053-.512a.113.113 0 01.093-.037c.04-.012.037-.026.016-.041a.147.147 0 00-.139.023c-.065.05-.099.152-.097.233.001.04.009.079.02.117.054.119.121.216.068.35a.273.273 0 01-.079.109c-.033.046-.012.057.062.034zm-1.6-1.474l.005-.066a.249.249 0 00-.157-.152c-.135-.032-.377-.061-.417-.22-.007-.028 0-.056.022-.085.013-.034 0-.04-.023-.032a.127.127 0 00-.056.112c.003.072.063.148.125.187a.43.43 0 00.1.045c.119.02.228.021.302.127a.227.227 0 01.04.111c.017.047.037.038.059-.027zm.18.542l.005-.066a.242.242 0 00-.149-.151c-.128-.032-.356-.062-.394-.22a.102.102 0 01.02-.086c.012-.034 0-.039-.02-.031a.128.128 0 00-.054.111c.003.072.06.148.118.187.03.02.061.034.094.045.113.02.216.021.286.127a.241.241 0 01.038.112c.016.047.035.037.056-.028zm-.368-1.039l.005-.066a.248.248 0 00-.157-.151c-.135-.032-.377-.062-.416-.22a.098.098 0 01.021-.086c.013-.034 0-.04-.022-.031a.126.126 0 00-.057.11c.004.073.063.149.125.188a.43.43 0 00.1.045c.12.02.228.021.302.127a.23.23 0 01.04.111c.017.047.037.039.06-.027zm-.054-.418l.004-.046a.174.174 0 00-.11-.107c-.095-.023-.265-.043-.293-.154-.005-.02 0-.04.015-.06.009-.025 0-.028-.016-.023a.088.088 0 00-.04.079c.003.05.044.103.088.131a.316.316 0 00.07.031c.084.015.161.016.213.09a.16.16 0 01.028.078c.012.033.025.027.041-.019zm-.78.938c-.025-.063 0-.069.05-.047.384.253.488 1.06.067 1.428-.049.022-.069.01-.06-.034a.727.727 0 00.221-.36c-.156.2-.335.26-.528.214-.044-.024-.043-.042.002-.053.257.046.545-.179.556-.465-.095.192-.232.277-.407.25-.05-.021-.05-.042 0-.063.269.007.44-.297.346-.516-.028.225-.146.33-.327.353-.044-.01-.048-.03-.013-.058.333-.052.315-.468.092-.649zM62.736.975c.099-.127.232-.21.268-.17.036.041.056.172-.13.35-.185.178-.281.212-.317.172-.036-.04.08-.224.18-.352zm.191.335c.14-.144.229-.163.276-.1.048.061-.004.217-.136.365-.13.148-.37.303-.417.241-.048-.062.137-.363.277-.506zm.102.462c.163-.177.247-.226.306-.15.059.077.04.208-.119.397-.16.19-.453.414-.511.337-.06-.076.16-.407.323-.584zm.22.499c.224-.176.298-.186.355-.132.058.055.032.24-.175.427s-.561.386-.617.314c-.055-.072.213-.433.437-.61zm.08.655c.272-.17.402-.147.447-.11.045.035.06.19-.223.398-.284.21-.736.308-.78.234-.045-.073.285-.353.557-.522zm-.156.751c.283-.133.373-.106.415-.015.041.09-.022.239-.304.372-.284.133-.705.235-.746.144-.041-.09.352-.368.635-.5zm-.225.792c.256-.142.436-.142.476-.045.04.096-.073.298-.338.406-.265.108-.662.217-.702.12-.04-.095.308-.338.564-.48zm.044.62c.248-.078.34-.089.37.004.029.092-.119.283-.367.362-.249.077-.54.117-.57.025-.029-.093.319-.312.567-.39zM62.537.778c.041-.115.117-.206.153-.185.035.02.08.11-.011.281-.091.172-.152.22-.188.2-.035-.021.006-.181.046-.296zm3.316 4.256c.124-.026.245-.007.246.036 0 .043-.054.13-.256.142-.201.011-.277-.018-.277-.06-.001-.043.163-.093.287-.118zm-.057.297c.156-.014.22.02.216.082-.003.061-.114.128-.268.149-.154.021-.376-.008-.373-.07.003-.061.268-.146.425-.16zm-.176.328c.188-.022.264-.007.26.068-.005.076-.082.145-.275.176-.192.032-.481.015-.477-.06.004-.077.303-.162.492-.184zm-.123.411c.223.01.273.042.279.104.006.062-.104.16-.323.165-.219.006-.532-.057-.528-.129.003-.07.348-.15.572-.14zm-.287.433c.249.038.315.118.323.163.009.044-.061.144-.337.124-.276-.02-.597-.194-.586-.26.011-.067.351-.065.6-.027zm-.477.368c.236.066.276.129.255.204-.022.075-.135.132-.372.066s-.54-.22-.519-.296c.022-.075.399-.04.636.026zm-.54.358c.226.046.332.139.308.217-.025.078-.197.14-.41.069-.213-.071-.506-.21-.481-.287.025-.078.357-.045.583 0zm-.29.393c.187.08.248.121.218.191s-.216.11-.404.029c-.188-.081-.383-.207-.353-.277.03-.07.35-.023.538.057zm1.931-2.809c.083-.047.175-.063.186-.032.01.03-.008.107-.15.162-.143.056-.204.054-.214.023-.01-.03.095-.105.178-.153zm-6.852.221c-.124-.026-.246-.007-.247.036 0 .043.055.13.256.142.202.011.277-.018.278-.06 0-.043-.163-.093-.287-.118zm.057.297c-.157-.014-.22.02-.217.082.004.061.115.128.269.149.154.021.376-.008.372-.07-.003-.061-.267-.146-.424-.16zm.175.328c-.188-.022-.263-.007-.259.068.004.076.082.145.274.176.192.032.482.015.478-.06-.004-.077-.304-.162-.493-.184zm.124.411c-.224.01-.273.042-.28.104-.005.062.104.16.323.165.22.006.533-.057.529-.129-.004-.07-.348-.15-.572-.14zm.286.433c-.248.038-.314.118-.323.163-.008.044.062.144.338.124.276-.02.596-.194.585-.26-.01-.067-.35-.065-.6-.027zm.478.368c-.237.066-.277.129-.255.204.021.075.134.132.371.066s.54-.22.52-.296c-.022-.075-.399-.04-.636.026zm.54.358c-.226.046-.333.139-.308.217.025.078.196.14.41.069.213-.071.505-.21.48-.287-.024-.078-.357-.045-.583 0zm.29.393c-.188.08-.249.121-.219.191s.216.11.404.029c.189-.081.383-.207.353-.277-.03-.07-.35-.023-.538.057zM59 4.813c-.083-.047-.174-.063-.185-.032-.01.03.008.107.15.162.142.056.203.054.214.023.01-.03-.095-.105-.179-.153zM66.005.036c.008-.022.017-.034.029-.036.011-.001.024.008.04.028.084.306.217.463.392.483-.073-.257-.053-.393.02-.462.04-.02.062-.01.065.035-.083.208-.085.41.336.58l.061.012c.03-.104 0-.186-.08-.265-.029-.026-.003-.065.063-.028.086.077.119.183.108.314l.04.01c.109-.155.134-.298.012-.422-.012-.048.007-.063.055-.045.137.116.127.277.034.465L67.255.7c.114-.157.147-.298.06-.413-.043-.06-.002-.099.044-.081.119.132.133.292.007.488.299-.008.653.062 1.043.18.535.157.989.37 1.472.564.36.18.725.326 1.096.442.094.062.107-.009.07-.084-.112-.182-.323-.325-.578-.45-.048-.07-.037-.096.034-.08.237.108.44.259.614.453a.911.911 0 00-.087-.331 1.948 1.948 0 00-.578-.326c-.049-.05-.027-.073.066-.07.15.052.296.122.44.203a.636.636 0 00-.373-.354l-.244-.132c-.028-.037.007-.054.062-.052a.993.993 0 01.299.133l-.103-.165c-.02-.053.018-.068.068-.038.377.363.59.798.55 1.344l.295-.012c.03-.138-.004-.223-.106-.28-.017-.033-.007-.05.042-.046.115.063.164.168.147.317l.242-.056c.005-.178-.041-.31-.197-.325-.028-.026-.017-.047.034-.062.162.022.239.144.233.364l.2-.082c.057-.22-.005-.377-.239-.439-.014-.025-.022-.069.035-.068.228.059.327.208.317.433l.13-.12c-.008-.306-.497-.624-.755-.3-.046.014-.06-.012-.044-.072.265-.243.531-.178.79.045-.021-.062-.026-.087-.068-.136a.43.43 0 00-.338-.135c-.125.001-.265.047-.442.17-.03.026-.054.04-.064.032-.038-.029.032-.087.051-.102a.776.776 0 01.14-.086c.213-.102.49-.123.689.024.121.09.184.22.19.354a.503.503 0 01-.176.404c-.085.07-.183.131-.301.18a1.608 1.608 0 01-.405.101 1.168 1.168 0 01-.423-.004c-.052.128-.12.24-.236.359-.212.22-.688.341-1.124.13-.034-.045-.018-.094.027-.093.212.052.428.072.65.045a.516.516 0 00.227-.105c-.32 0-.577-.028-.725-.107-.03-.04-.02-.056.032-.045.261.054.534.068.812.06a.272.272 0 00.17-.208c-.225.119-.487.14-.793.04-.071-.041-.059-.06-.008-.068.329.063.58.048.766-.032a9.3 9.3 0 01-1.361-.554c.183.35.176.678-.021.982-.032.028-.077.003-.06-.044.183-.307.147-.793-.066-1.015.097.277.111.561-.02.856l-.072.09c-.024.026-.053.006-.032-.037.137-.226.176-.501.057-.854.035.25-.031.44-.247.542-.076.023-.089-.01-.049-.047.252-.145.245-.366.166-.608l-.074-.054c.062.247.036.432-.147.508-.05-.006-.064-.029-.04-.069.177-.087.166-.355.057-.51.023.216-.029.356-.164.412-.045.005-.056-.025-.039-.06.142-.057.156-.192.107-.366l-.16-.062c.035.137.012.205-.058.262-.034.021-.063.022-.085.003.093-.081.101-.184.055-.3-.395-.124-.803-.236-1.231-.239l-.076.015-1.028-.254c-.215-.105-.355-.285-.399-.567z" fill="#592829"/><path fill-rule="evenodd" clip-rule="evenodd" d="M33.625.564c.313-.006.478.123.471.228-.003.06-.061.112-.178.129a.794.794 0 00-.358.127c-.349.231-.615.77-.753 1.145-.142.38-.221.797-.26 1.235l-.082.99a.15.15 0 01-.061.108c-.065.05-.182.083-.365.092-.761.03-1.526.048-2.295.054a77.508 77.508 0 01-2.432-.024.258.258 0 01-.046-.112c-.038-.216-.035-.61.224-.902.15-.17.387-.305.752-.352l.917-.017a.966.966 0 00.545-.136c.13-.084.23-.21.3-.382.235-.522.466-1.015.923-1.327.61-.418 1.397-.804 2.315-.822.052-.078.29-.326.407-.24.07.053-.044.123-.024.206zm3.28.056c-.086-.133-.146-.134-.199-.103-.053.03-.078.082.008.215.086.132.246.318.299.288.053-.032-.021-.268-.107-.4zm-.094.391c-.109-.088-.16-.073-.196-.032-.036.04-.043.09.065.178s.293.2.33.16c.036-.04-.091-.218-.2-.306zm-.03.422c-.156-.122-.225-.096-.273-.034-.048.062-.055.136.101.259.157.122.422.275.47.213.047-.062-.14-.316-.297-.438zm-.043.483c-.193-.15-.28-.118-.338-.042-.06.077-.069.17.125.32.194.151.521.341.58.264.059-.076-.173-.39-.367-.542zm-.027.604c-.228-.17-.318-.144-.37-.071-.054.073-.052.166.176.337.23.17.607.39.66.317.054-.073-.237-.413-.466-.583zm-.2.607c-.256-.192-.373-.174-.424-.105-.05.07-.064.187.192.379s.698.424.748.355c.051-.07-.26-.437-.516-.629zm-.275.718c-.285-.105-.368-.052-.401.038-.033.091-.003.186.282.291.285.106.738.218.77.126.033-.09-.366-.35-.651-.455zm-.112.703c-.257-.072-.33-.01-.357.083-.027.093.002.183.259.254.257.072.663.131.69.038.027-.093-.335-.304-.592-.375zm.068.85c-.26 0-.312.078-.312.175 0 .097.052.176.312.176s.657-.052.657-.15c0-.096-.397-.202-.657-.202zm.948.597c.005.07.002.11-.01.124-.011.014-.031 0-.06-.043a2.265 2.265 0 01-.229-.773c-.046-.24-.035-.48.009-.721l.352-1.193a2.79 2.79 0 00.03-.379c.006-.617-.141-1.203-.203-1.862.006-.097.021-.113.047-.05.097.399.188.852.245 1.6.014.135.02.27.014.406a1.811 1.811 0 01-.037.296l-.341 1.2a2.45 2.45 0 000 .691c.045.238.098.474.183.705zm3.252-1.414c.016-.123-.02-.155-.067-.164-.047-.008-.089.01-.105.133-.017.123-.016.316.031.325.047.008.124-.17.14-.294zm-.257.185c-.02-.108-.058-.125-.1-.12-.042.006-.073.033-.053.14.02.108.073.27.115.265.042-.006.058-.177.038-.285zm-.233.237c-.031-.153-.086-.173-.146-.16-.06.012-.103.053-.072.206.031.154.11.38.171.368.06-.013.078-.26.047-.414zm-.273.267c-.039-.19-.106-.214-.181-.199-.074.016-.127.066-.089.256.039.189.137.47.212.454.074-.015.096-.322.058-.51zm-.325.346c-.05-.219-.116-.249-.185-.232-.07.016-.116.073-.066.292.05.219.162.544.231.527.07-.016.07-.368.02-.587zm-.43.26c-.055-.246-.134-.295-.2-.28-.065.016-.134.08-.078.325.054.246.2.61.265.596.066-.016.068-.395.013-.64zm-.531.288c-.117-.21-.193-.22-.26-.183-.065.038-.096.11.02.319.117.209.33.508.396.47.066-.037-.04-.397-.156-.606zm-.426.362c-.117-.174-.192-.175-.256-.133-.064.042-.092.11.024.285.117.174.33.418.394.376.064-.042-.046-.353-.162-.528zm-.394.543c-.156-.133-.227-.113-.276-.055-.05.058-.06.131.096.265.156.133.42.305.47.248.048-.058-.135-.325-.29-.458zm.26.843c-.032.044-.054.067-.069.069-.013.002-.018-.017-.014-.057.044-.2.138-.391.259-.578a1.51 1.51 0 01.374-.427l.82-.532c.068-.06.137-.126.211-.211.32-.366.531-.79.831-1.216.053-.055.07-.056.054-.006a7.27 7.27 0 01-.672 1.081 2.07 2.07 0 01-.198.25 1.43 1.43 0 01-.174.158l-.817.54a1.893 1.893 0 00-.354.414 3.54 3.54 0 00-.25.515zm-4.065-3.33c-.017-.124.018-.156.066-.165.047-.008.089.01.105.133.017.123.016.316-.031.325-.048.008-.124-.17-.14-.294zm.256.184c.02-.108.058-.125.1-.12.042.006.073.033.053.14-.02.108-.073.27-.115.265-.042-.006-.058-.177-.038-.285zm.233.237c.03-.153.086-.173.146-.16.06.012.103.053.072.206-.031.154-.11.38-.17.368-.061-.013-.079-.26-.048-.414zm.273.267c.039-.19.107-.214.18-.199.075.016.128.066.09.256-.039.189-.138.47-.212.454-.074-.015-.096-.322-.058-.51zm.325.346c.05-.219.116-.249.185-.232.07.016.116.073.066.292-.05.219-.162.544-.231.527-.07-.016-.07-.368-.02-.587zm.43.26c.055-.246.134-.295.2-.28.065.016.133.08.079.325-.056.246-.2.61-.266.596-.066-.016-.069-.395-.014-.64zm.531.288c.117-.21.193-.22.26-.183.065.038.096.11-.02.319-.117.209-.33.508-.396.47-.066-.037.04-.397.156-.606zm.426.362c.117-.174.192-.175.256-.133.064.042.092.11-.024.285-.117.174-.33.418-.394.376-.064-.042.046-.353.162-.528zm.394.543c.156-.133.227-.113.276-.055.05.058.059.131-.096.265-.156.133-.42.305-.469.248-.05-.058.134-.325.29-.458zm-.26.843c.032.044.054.067.069.069.013.002.018-.017.014-.057a1.776 1.776 0 00-.259-.578 1.52 1.52 0 00-.374-.427l-.82-.532a2.25 2.25 0 01-.211-.211c-.32-.366-.531-.79-.831-1.216-.053-.055-.071-.056-.054-.006.146.288.324.606.672 1.081.06.088.126.172.199.25.053.057.11.11.173.158l.817.54a1.943 1.943 0 01.354.414c.093.165.183.333.25.515zM40.533.564c-.313-.006-.478.123-.471.228.003.06.061.112.178.129a.793.793 0 01.359.127c.348.231.614.77.753 1.145.14.38.22.797.26 1.235l.08.99a.149.149 0 00.063.108c.064.05.181.083.364.092a72.72 72.72 0 004.727.03.258.258 0 00.046-.112c.038-.216.035-.61-.224-.902-.15-.17-.387-.305-.752-.352L45 3.265a.964.964 0 01-.545-.136.788.788 0 01-.3-.382c-.235-.522-.466-1.015-.922-1.327-.611-.418-1.398-.804-2.316-.822-.052-.078-.29-.326-.407-.24-.07.053.044.123.024.206zm18.455 0c.313-.006.478.123.471.228-.004.06-.061.112-.178.129a.793.793 0 00-.359.127c-.348.231-.614.77-.752 1.145-.142.38-.221.797-.26 1.235l-.082.99a.15.15 0 01-.062.108c-.064.05-.181.083-.365.092-.76.03-1.526.048-2.295.054a77.495 77.495 0 01-2.43-.024.258.258 0 01-.047-.112c-.038-.216-.035-.61.224-.902.15-.17.387-.305.752-.352l.917-.017a.966.966 0 00.545-.136c.13-.084.23-.21.3-.382.235-.522.466-1.015.922-1.327.611-.418 1.398-.804 2.316-.822.052-.078.29-.326.406-.24.072.053-.043.123-.023.206zm3.28.056c-.086-.133-.146-.134-.199-.103-.053.03-.078.082.008.215.086.132.246.318.299.288.053-.032-.021-.268-.108-.4zm-.095.391c-.108-.088-.159-.073-.195-.032-.036.04-.044.09.065.178.108.088.293.2.33.16.035-.04-.091-.218-.2-.306zm-.028.422c-.157-.122-.227-.096-.274-.034-.048.062-.055.136.101.259.157.122.422.275.47.213.047-.062-.14-.316-.297-.438zm-.044.483c-.193-.15-.28-.118-.338-.042-.06.077-.069.17.125.32.193.151.52.341.58.264.058-.076-.173-.39-.367-.542zm-.027.604c-.229-.17-.318-.144-.37-.071-.054.073-.053.166.176.337.23.17.607.39.66.317.054-.073-.238-.413-.466-.583zm-.2.607c-.256-.192-.373-.174-.424-.105-.05.07-.064.187.192.379s.698.424.748.355c.051-.07-.26-.437-.516-.629zm-.275.718c-.286-.105-.369-.052-.401.038-.033.091-.003.186.282.291.285.106.738.218.77.126.033-.09-.367-.35-.651-.455zm-.112.703c-.257-.072-.33-.01-.357.083-.027.093.002.183.259.254.256.072.663.131.69.038.027-.093-.336-.304-.592-.375zm.068.85c-.26 0-.312.078-.312.175 0 .097.052.176.312.176s.657-.052.657-.15c0-.096-.397-.202-.657-.202zm.948.597c.005.07.002.11-.01.124-.011.014-.032 0-.06-.043a2.267 2.267 0 01-.229-.773c-.047-.24-.035-.48.009-.721l.352-1.193a2.89 2.89 0 00.03-.379c.006-.617-.141-1.203-.203-1.862.006-.097.021-.113.047-.05.097.399.188.852.245 1.6.014.135.02.27.014.406a1.811 1.811 0 01-.037.296l-.342 1.2a2.45 2.45 0 000 .691c.046.238.098.474.184.705zm3.251-1.414c.017-.123-.019-.155-.066-.164-.047-.008-.089.01-.105.133-.017.123-.016.316.03.325.048.008.125-.17.141-.294zm-.256.185c-.02-.108-.058-.125-.1-.12-.043.006-.073.033-.053.14.02.108.073.27.115.265.042-.006.058-.177.038-.285zm-.233.237c-.031-.153-.086-.173-.146-.16-.06.012-.103.053-.072.206.03.154.11.38.17.368.06-.013.079-.26.048-.414zm-.273.267c-.039-.19-.107-.214-.181-.199-.074.016-.127.066-.089.256.039.189.137.47.211.454.075-.015.097-.322.059-.51zm-.326.346c-.049-.219-.115-.249-.184-.232-.07.016-.116.073-.066.292.049.219.162.544.231.527.07-.016.07-.368.02-.587zm-.429.26c-.055-.246-.134-.295-.2-.28-.065.016-.134.08-.079.325.055.246.2.61.266.596.066-.016.068-.395.013-.64zm-.531.288c-.117-.21-.194-.22-.26-.183-.066.038-.096.11.02.319.117.209.33.508.396.47.066-.037-.04-.397-.156-.606zm-.427.362c-.117-.174-.191-.175-.255-.133-.064.042-.092.11.024.285.117.174.33.418.393.376.064-.042-.045-.353-.162-.528zm-.393.543c-.156-.133-.227-.113-.276-.055-.05.058-.06.131.096.265.156.133.42.305.469.248.05-.058-.134-.325-.29-.458zm.26.843c-.032.044-.054.067-.069.069-.014.002-.018-.017-.014-.057.043-.2.138-.391.259-.578.095-.168.224-.306.374-.427l.82-.532a2.25 2.25 0 00.211-.211c.32-.366.531-.79.831-1.216.053-.055.07-.056.054-.006a7.256 7.256 0 01-.672 1.081c-.06.088-.126.172-.199.25-.053.057-.11.11-.174.158l-.816.54a1.925 1.925 0 00-.354.414 3.55 3.55 0 00-.25.515zm-4.066-3.33c-.016-.124.02-.156.067-.165.047-.008.089.01.105.133.017.123.016.316-.031.325-.048.008-.124-.17-.14-.294zm.257.184c.02-.108.058-.125.1-.12.042.006.072.033.053.14-.02.108-.073.27-.115.265-.042-.006-.058-.177-.038-.285zm.233.237c.03-.153.086-.173.146-.16.06.012.103.053.072.206-.031.154-.111.38-.171.368-.06-.013-.078-.26-.047-.414zm.273.267c.039-.19.106-.214.18-.199.075.016.128.066.09.256-.039.189-.138.47-.212.454-.074-.015-.096-.322-.058-.51zm.325.346c.05-.219.116-.249.185-.232.07.016.116.073.066.292-.05.219-.162.544-.232.527-.069-.016-.069-.368-.019-.587zm.43.26c.054-.246.134-.295.2-.28.065.016.133.08.078.325-.055.246-.2.61-.265.596-.066-.016-.069-.395-.014-.64zm.531.288c.116-.21.193-.22.259-.183.066.038.097.11-.02.319-.116.209-.33.508-.395.47-.066-.037.04-.397.156-.606zm.426.362c.117-.174.192-.175.256-.133.064.042.092.11-.025.285-.117.174-.33.418-.393.376-.064-.042.046-.353.162-.528zm.394.543c.156-.133.227-.113.276-.055.05.058.059.131-.097.265-.155.133-.419.305-.468.248-.05-.058.134-.325.29-.458zm-.26.843c.031.044.054.067.068.069.014.002.02-.017.015-.057a1.775 1.775 0 00-.259-.578 1.519 1.519 0 00-.374-.427l-.82-.532a2.225 2.225 0 01-.211-.211c-.32-.366-.531-.79-.831-1.216-.053-.055-.071-.056-.054-.006.146.288.324.606.671 1.081.061.088.126.172.2.25.053.057.11.11.173.158l.817.54a1.883 1.883 0 01.353.414c.094.165.184.333.251.515zM65.896.564c-.313-.006-.478.123-.471.228.003.06.061.112.178.129a.794.794 0 01.359.127c.348.231.614.77.752 1.145.142.38.221.797.26 1.235l.082.99a.15.15 0 00.061.108c.065.05.182.083.365.092a72.648 72.648 0 004.727.03.253.253 0 00.045-.112c.04-.216.036-.61-.223-.902-.15-.17-.387-.305-.752-.352l-.917-.017a.964.964 0 01-.545-.136.786.786 0 01-.3-.382c-.235-.522-.466-1.015-.923-1.327-.61-.418-1.397-.804-2.315-.822-.052-.078-.29-.326-.407-.24-.07.053.044.123.024.206z" fill="#DB1D1D"/></svg>