<svg width="164" height="34" fill="none" xmlns="http://www.w3.org/2000/svg"><rect x=".75" y=".75" width="162.5" height="32.5" rx="9.75" fill="#DB1D1D"/><path fill-rule="evenodd" clip-rule="evenodd" d="M32.381 15.438h10.015v2.927H32.38v1.06h10.015v2.925H32.38a2.933 2.933 0 01-2.925-2.925v-7.971h12.941v2.925H32.38v1.06zm19.412-1.059v7.97h-2.926v-7.97h-5.008v-2.925h12.942v2.925h-5.008zm9.398 3.986v3.985h-2.926V11.454h12.941v3.984a2.934 2.934 0 01-2.925 2.927h-7.09zm0-3.986v1.06h7.09v-1.06h-7.09zm14.404-2.925H85.61v2.925H75.595v5.046H85.61v2.925H75.595a2.934 2.934 0 01-2.925-2.925v-7.971h2.925zm10.015 0a2.935 2.935 0 012.927 2.925v5.046a2.935 2.935 0 01-2.927 2.925V11.454zm4.393 0h2.94c1.514 0 2.443 1.523 2.911 2.925l2.015 5.47 2.014-5.47c.468-1.402 1.396-2.925 2.91-2.925h2.942V22.35h-2.926v-7.97l-1.859 5.045c-1.402 3.802-4.77 3.79-6.163 0l-1.86-5.046v7.97h-2.924V11.455zm20.121 0h10.015v2.925h-10.015v5.046h10.015v2.925h-10.015a2.934 2.934 0 01-2.926-2.925v-7.971h2.926zm10.015 0a2.935 2.935 0 012.927 2.925v5.046a2.935 2.935 0 01-2.927 2.925V11.454zm7.317 0h10.015v2.925h-10.015v5.046h10.015v2.925h-10.015a2.935 2.935 0 01-2.927-2.925v-7.971h2.927zm19.412 2.925v7.97h-2.927v-7.97h-5.007v-2.925h12.941v2.925h-5.007zM12.125 11.454h12.941a2.934 2.934 0 012.926 2.925v7.97h-2.926v-7.97H15.051v7.97h-2.926V11.455z" fill="#FFFEFE"/></svg>