<svg width="120" height="120" viewBox="0 0 120 120" fill="none" xmlns="http://www.w3.org/2000/svg">
<path fill-rule="evenodd" clip-rule="evenodd" d="M0 108.259C9.34217 98.917 14.58 93.6792 23.9221 84.3371L35.6629 96.0779L11.7408 120L0 108.259Z" fill="#F5E6D6"/>
<path d="M92.5395 84.9643C85.2181 92.3116 75.0389 96.8543 63.7941 96.8543C52.564 96.8543 42.4004 92.2898 35.0532 84.9463C27.6911 77.6212 23.1457 67.4473 23.1457 56.2099C23.1457 44.9614 27.6908 34.7813 35.0232 27.46C42.4001 20.1127 52.564 15.5497 63.7941 15.5497C75.0389 15.5497 85.2181 20.0959 92.5395 27.4283C99.8867 34.8052 104.45 44.9836 104.45 56.2099C104.45 67.4362 99.8867 77.5986 92.5395 84.9643ZM63.7941 112.404C79.277 112.404 93.3498 106.107 103.514 95.9212C113.693 85.7831 120 71.7261 120 56.2099C120 40.69 113.693 26.6213 103.536 16.4647C93.3497 6.29696 79.277 0 63.7941 0C48.2741 0 34.2167 6.30807 24.0601 16.4647C13.8924 26.6509 7.59602 40.7233 7.59602 56.2099C7.59602 71.6854 13.892 85.7535 24.0782 95.9212C34.2163 106.096 48.2741 112.404 63.7941 112.404Z" fill="#F5E6D6"/>
</svg>
