<svg width="62" height="67" viewBox="0 0 62 67" fill="none" xmlns="http://www.w3.org/2000/svg">
<path fill-rule="evenodd" clip-rule="evenodd" d="M43.9103 1.72426C43.2826 1.1249 42.409 0.855821 41.5522 0.997969L8.88806 6.41729C8.03129 6.55944 7.29137 7.09622 6.89089 7.86616L0.529263 20.0968C0.253967 20.6261 0.157916 21.2302 0.255522 21.8185L6.57097 59.884C6.92989 62.0473 8.13446 63.9793 9.91968 65.2549C11.7049 66.5306 13.9246 67.0453 16.0903 66.686L54.1985 60.3635C56.3643 60.0042 58.2988 58.8002 59.5764 57.0164C60.8541 55.2326 61.3702 53.0151 61.0113 50.8518L54.6958 12.7863C54.5982 12.198 54.3122 11.6573 53.8808 11.2453L43.9103 1.72426ZM41.0934 6.66169L46.0787 11.4222L7.97046 17.7447L11.1513 11.6294L41.0934 6.66169ZM6.15065 23.6343L49.7029 16.4085L55.5672 51.755C55.6869 52.4761 55.5148 53.2153 55.089 53.8099C54.6631 54.4045 54.0183 54.8058 53.2963 54.9256L15.1881 61.2481C14.4662 61.3679 13.7263 61.1963 13.1312 60.7711C12.5362 60.3459 12.1346 59.7019 12.015 58.9808L6.15065 23.6343ZM39.717 23.6529C38.2137 23.9023 37.197 25.3218 37.4461 26.8234C37.8051 28.9868 37.2889 31.2043 36.0113 32.988C34.7337 34.7718 32.7992 35.9758 30.6334 36.3352C28.4676 36.6945 26.248 36.1797 24.4628 34.9041C22.6775 33.6284 21.473 31.6964 21.114 29.5331C20.8649 28.0315 19.4443 27.0163 17.9409 27.2658C16.4376 27.5152 15.4209 28.9347 15.67 30.4363C16.2682 34.0419 18.2758 37.2619 21.2512 39.3879C24.2266 41.514 27.926 42.3719 31.5356 41.7731C35.1452 41.1742 38.3694 39.1676 40.4988 36.1946C42.6281 33.2216 43.4884 29.5258 42.8902 25.9202C42.641 24.4186 41.2204 23.4035 39.717 23.6529Z" fill="#BE957D"/>
</svg>
