<svg width="18" height="16" viewBox="0 0 18 16" fill="none" xmlns="http://www.w3.org/2000/svg">
<path fill-rule="evenodd" clip-rule="evenodd" d="M5.16478 9.90532C5.17614 10.2767 4.42563 13.2953 4.29596 13.9228C3.82858 16.1703 6.39955 14.1924 6.95887 13.873C7.27168 13.6948 8.86538 12.691 9.0053 12.6951L12.0726 14.4965C12.3645 14.6739 12.8213 15.0138 13.2106 14.9996C14.1461 14.963 13.5677 13.5061 13.3934 12.639C13.2989 12.1692 13.2033 11.7718 13.0974 11.301C13.0143 10.9307 12.8274 10.2756 12.8055 9.90532C13.0102 9.67702 13.4172 9.35541 13.6457 9.15747C14.1212 8.74588 16.0573 7.0959 16.2163 6.8398C16.9276 5.69465 14.7274 5.79002 14.3113 5.74538C13.3589 5.64257 12.2564 5.61479 11.3323 5.46223L10.3334 3.15884C10.132 2.68505 9.63564 1.1553 9.14665 1.02249C8.63678 0.88456 8.4013 1.41263 8.25369 1.74667L6.7585 5.23736C6.63396 5.5403 6.59254 5.48422 6.23944 5.51203L2.44039 5.85458C1.95653 5.90104 1.48508 6.17898 1.69386 6.70179C1.82573 7.03253 3.0583 8.04269 3.38209 8.32477L4.72341 9.50069C4.84282 9.59728 5.0494 9.74654 5.16478 9.90532Z" stroke="#BE957D" stroke-width="1.4"/>
</svg>
