<svg width="21" height="20" viewBox="0 0 21 20" fill="none" xmlns="http://www.w3.org/2000/svg">
<path fill-rule="evenodd" clip-rule="evenodd" d="M14.7 4.70762C14.4918 4.70762 14.2922 4.79031 14.145 4.93751L5.53209 13.5504L5.16207 15.0305L6.64214 14.6605L15.255 6.04756C15.3279 5.97468 15.3857 5.88815 15.4252 5.79292C15.4646 5.69768 15.4849 5.59562 15.4849 5.49254C15.4849 5.38946 15.4646 5.28739 15.4252 5.19216C15.3857 5.09693 15.3279 5.0104 15.255 4.93751C15.1821 4.86463 15.0956 4.80681 15.0004 4.76736C14.9051 4.72792 14.8031 4.70762 14.7 4.70762ZM13.155 3.94757C13.5648 3.53781 14.1205 3.30762 14.7 3.30762C14.9869 3.30762 15.271 3.36413 15.5361 3.47393C15.8012 3.58374 16.0421 3.74468 16.245 3.94757C16.4479 4.15045 16.6088 4.39132 16.7186 4.65641C16.8284 4.92149 16.8849 5.20561 16.8849 5.49254C16.8849 5.77947 16.8284 6.06359 16.7186 6.32867C16.6088 6.59376 16.4479 6.83462 16.245 7.03751L7.49499 15.7875C7.40527 15.8772 7.29287 15.9409 7.16979 15.9716L4.36979 16.6716C4.13125 16.7313 3.87891 16.6614 3.70504 16.4875C3.53117 16.3136 3.46128 16.0613 3.52092 15.8228L4.22091 13.0228C4.25169 12.8997 4.31533 12.7873 4.40504 12.6976L13.155 3.94757ZM9.80001 15.9925C9.80001 15.6059 10.1134 15.2925 10.5 15.2925H16.8C17.1866 15.2925 17.5 15.6059 17.5 15.9925C17.5 16.3791 17.1866 16.6925 16.8 16.6925H10.5C10.1134 16.6925 9.80001 16.3791 9.80001 15.9925Z" fill="#BE957D"/>
</svg>
