<svg width="16" height="16" viewBox="0 0 16 16" fill="none" xmlns="http://www.w3.org/2000/svg">
<path fill-rule="evenodd" clip-rule="evenodd" d="M2.4 1.6C2.18783 1.6 1.98434 1.68429 1.83431 1.83431C1.68429 1.98434 1.6 2.18783 1.6 2.4V13.6C1.6 13.8122 1.68429 14.0157 1.83431 14.1657C1.98434 14.3157 2.18783 14.4 2.4 14.4H13.6C13.8122 14.4 14.0157 14.3157 14.1657 14.1657C14.3157 14.0157 14.4 13.8122 14.4 13.6V8C14.4 7.55817 14.7582 7.2 15.2 7.2C15.6418 7.2 16 7.55817 16 8V13.6C16 14.2365 15.7471 14.847 15.2971 15.2971C14.847 15.7471 14.2365 16 13.6 16H2.4C1.76348 16 1.15303 15.7471 0.702944 15.2971C0.252856 14.847 0 14.2365 0 13.6V2.4C0 1.76348 0.252856 1.15303 0.702944 0.702944C1.15303 0.252856 1.76348 0 2.4 0H11.2C11.6418 0 12 0.358172 12 0.8C12 1.24183 11.6418 1.6 11.2 1.6H2.4ZM14.6343 1.83431C14.9467 1.5219 15.4533 1.5219 15.7657 1.83431C16.0781 2.14673 16.0781 2.65327 15.7657 2.96569L8.56569 10.1657C8.25327 10.4781 7.74673 10.4781 7.43431 10.1657L5.03431 7.76569C4.7219 7.45327 4.7219 6.94673 5.03431 6.63432C5.34673 6.3219 5.85327 6.3219 6.16569 6.63432L8 8.46863L14.6343 1.83431Z" fill="#DB1D1D"/>
</svg>
