<svg width="16" height="16" viewBox="0 0 16 16" fill="none" xmlns="http://www.w3.org/2000/svg">
<path fill-rule="evenodd" clip-rule="evenodd" d="M6.54545 1.45455C6.35256 1.45455 6.16758 1.53117 6.03119 1.66756C5.8948 1.80395 5.81817 1.98893 5.81817 2.18182V2.90909H10.1818V2.18182C10.1818 1.98893 10.1052 1.80395 9.9688 1.66756C9.83241 1.53117 9.64742 1.45455 9.45454 1.45455H6.54545ZM11.6364 2.90909V2.18182C11.6364 1.60316 11.4065 1.04821 10.9973 0.63904C10.5881 0.229869 10.0332 0 9.45454 0H6.54545C5.96679 0 5.41184 0.229869 5.00267 0.63904C4.5935 1.04821 4.36363 1.60316 4.36363 2.18182V2.90909H1.45454C1.05288 2.90909 0.727264 3.2347 0.727264 3.63636C0.727264 4.03803 1.05288 4.36364 1.45454 4.36364H2.18181V13.8182C2.18181 14.3968 2.41168 14.9518 2.82085 15.361C3.23002 15.7701 3.78497 16 4.36363 16H11.6364C12.215 16 12.77 15.7701 13.1791 15.361C13.5883 14.9518 13.8182 14.3968 13.8182 13.8182V4.36364H14.5454C14.9471 4.36364 15.2727 4.03803 15.2727 3.63636C15.2727 3.2347 14.9471 2.90909 14.5454 2.90909H11.6364ZM3.63636 4.36364V13.8182C3.63636 14.0111 3.71298 14.1961 3.84937 14.3324C3.98576 14.4688 4.17074 14.5455 4.36363 14.5455H11.6364C11.8292 14.5455 12.0142 14.4688 12.1506 14.3324C12.287 14.1961 12.3636 14.0111 12.3636 13.8182V4.36364H3.63636ZM6.54545 6.54545C6.94711 6.54545 7.27272 6.87107 7.27272 7.27273V11.6364C7.27272 12.038 6.94711 12.3636 6.54545 12.3636C6.14378 12.3636 5.81817 12.038 5.81817 11.6364V7.27273C5.81817 6.87107 6.14378 6.54545 6.54545 6.54545ZM8.72726 7.27273C8.72726 6.87107 9.05288 6.54545 9.45454 6.54545C9.8562 6.54545 10.1818 6.87107 10.1818 7.27273V11.6364C10.1818 12.038 9.8562 12.3636 9.45454 12.3636C9.05288 12.3636 8.72726 12.038 8.72726 11.6364V7.27273Z" fill="#BE957D"/>
</svg>
