<svg width="7" height="6" viewBox="0 0 7 6" fill="none" xmlns="http://www.w3.org/2000/svg">
<path fill-rule="evenodd" clip-rule="evenodd" d="M0 4.94022C0 5.52369 0.476136 6 1.05967 6H4.94022C5.52376 6 5.99989 5.52369 5.99989 4.94022H5.57588C5.57588 5.28958 5.28951 5.57599 4.94022 5.57599H1.05967C0.710382 5.57599 0.424012 5.28958 0.424012 4.94022V1.05964C0.424012 0.710323 0.710335 0.424012 1.05967 0.424012H4.94022C5.28956 0.424012 5.57588 0.710323 5.57588 1.05964H5.99989C5.99989 0.476124 5.52371 0 4.94022 0H1.05967C0.476183 0 0 0.476124 0 1.05964V4.94022Z" fill="#BE957D"/>
<path fill-rule="evenodd" clip-rule="evenodd" d="M4.3378 4.56362L5.90131 3.0001L4.3378 1.43659L4.03797 1.73641L5.30167 3.0001L4.03797 4.26379L4.3378 4.56362Z" fill="#BE957D"/>
<path fill-rule="evenodd" clip-rule="evenodd" d="M1.70128 3.2121H5.60149V2.78809H1.70128V3.2121Z" fill="#BE957D"/>
</svg>
