<svg width="18" height="14" viewBox="0 0 18 14" fill="white" xmlns="http://www.w3.org/2000/svg">
<path fill-rule="evenodd" clip-rule="evenodd" d="M1.87935 7.00005C1.95829 7.13645 2.06293 7.31028 2.19256 7.51101C2.52553 8.02656 3.01861 8.71216 3.65878 9.395C4.95227 10.7747 6.76072 12.0556 8.99998 12.0556C11.2392 12.0556 13.0477 10.7747 14.3412 9.395C14.9813 8.71216 15.4744 8.02656 15.8074 7.51101C15.937 7.31028 16.0417 7.13645 16.1206 7.00005C16.0417 6.86364 15.937 6.68981 15.8074 6.48909C15.4744 5.97354 14.9813 5.28794 14.3412 4.6051C13.0477 3.22537 11.2392 1.94446 8.99998 1.94446C6.76072 1.94446 4.95227 3.22537 3.65878 4.6051C3.01861 5.28794 2.52553 5.97354 2.19256 6.48909C2.06293 6.68981 1.95829 6.86364 1.87935 7.00005ZM16.9445 7.00005C17.5905 6.67706 17.5902 6.67655 17.5902 6.67655L17.589 6.67423L17.5866 6.6693L17.5784 6.65325C17.5715 6.63985 17.5617 6.6211 17.5492 6.59736C17.524 6.54988 17.4876 6.48238 17.44 6.3977C17.3447 6.22845 17.2046 5.99002 17.0208 5.70544C16.6541 5.13765 16.109 4.37879 15.395 3.61718C13.9801 2.108 11.8163 0.5 8.99998 0.5C6.18365 0.5 4.01985 2.108 2.60499 3.61718C1.89098 4.37879 1.34586 5.13765 0.979166 5.70544C0.795369 5.99002 0.655215 6.22845 0.560011 6.3977C0.512381 6.48238 0.475921 6.54988 0.450797 6.59736C0.438233 6.6211 0.428496 6.63985 0.421608 6.65325L0.413412 6.6693L0.41092 6.67423L0.410075 6.67591C0.410075 6.67591 0.4095 6.67706 1.05548 7.00005L0.4095 6.67706C0.307836 6.88038 0.307836 7.11971 0.4095 7.32304L1.05548 7.00005C0.4095 7.32304 0.4095 7.32304 0.4095 7.32304L0.41092 7.32587L0.413412 7.3308L0.421608 7.34684C0.428496 7.36024 0.438233 7.37899 0.450797 7.40273C0.475921 7.45021 0.512381 7.51772 0.560011 7.60239C0.655215 7.77165 0.795369 8.01007 0.979166 8.29466C1.34586 8.86245 1.89098 9.6213 2.60499 10.3829C4.01985 11.8921 6.18365 13.5001 8.99998 13.5001C11.8163 13.5001 13.9801 11.8921 15.395 10.3829C16.109 9.6213 16.6541 8.86245 17.0208 8.29466C17.2046 8.01007 17.3447 7.77165 17.44 7.60239C17.4876 7.51772 17.524 7.45021 17.5492 7.40273C17.5617 7.37899 17.5715 7.36024 17.5784 7.34684L17.5866 7.3308L17.589 7.32587L17.5899 7.32419C17.5899 7.32419 17.5905 7.32304 16.9445 7.00005ZM16.9445 7.00005L17.5905 7.32304C17.6921 7.11971 17.6919 6.87988 17.5902 6.67655L16.9445 7.00005Z" fill="#F5E6D6"/>
<path fill-rule="evenodd" clip-rule="evenodd" d="M8.99998 5.55559C8.20223 5.55559 7.55553 6.2023 7.55553 7.00005C7.55553 7.7978 8.20223 8.4445 8.99998 8.4445C9.79773 8.4445 10.4444 7.7978 10.4444 7.00005C10.4444 6.2023 9.79773 5.55559 8.99998 5.55559ZM6.11107 7.00005C6.11107 5.40455 7.40448 4.11114 8.99998 4.11114C10.5955 4.11114 11.8889 5.40455 11.8889 7.00005C11.8889 8.59555 10.5955 9.88896 8.99998 9.88896C7.40448 9.88896 6.11107 8.59555 6.11107 7.00005Z" fill="#F5E6D6"/>
</svg>
