<svg width="16" height="16" viewBox="0 0 16 16" fill="none" xmlns="http://www.w3.org/2000/svg">
<path fill-rule="evenodd" clip-rule="evenodd" d="M7.67476 0.0770228C7.8795 -0.0253488 8.1205 -0.0253488 8.32524 0.0770228L15.5978 3.71331C15.8442 3.83651 15.9998 4.08833 15.9998 4.36379C15.9998 4.63926 15.8442 4.89108 15.5978 5.01427L8.32524 8.65056C8.1205 8.75294 7.8795 8.75294 7.67476 8.65056L0.402178 5.01427C0.155794 4.89108 0.000159305 4.63926 0.000159305 4.36379C0.000159305 4.08833 0.155794 3.83651 0.402178 3.71331L7.67476 0.0770228ZM2.35362 4.36379L8 7.18698L13.6464 4.36379L8 1.5406L2.35362 4.36379ZM0.076938 7.67484C0.256563 7.3156 0.693407 7.16998 1.05266 7.3496L8 10.8233L14.9473 7.3496C15.3066 7.16998 15.7434 7.3156 15.9231 7.67484C16.1027 8.03409 15.9571 8.47094 15.5978 8.65056L8.32524 12.2869C8.1205 12.3892 7.8795 12.3892 7.67476 12.2869L0.402178 8.65056C0.0429278 8.47094 -0.102687 8.03409 0.076938 7.67484ZM0.076938 11.3111C0.256563 10.9519 0.693407 10.8063 1.05266 10.9859L8 14.4596L14.9473 10.9859C15.3066 10.8063 15.7434 10.9519 15.9231 11.3111C16.1027 11.6704 15.9571 12.1072 15.5978 12.2869L8.32524 15.9231C8.1205 16.0255 7.8795 16.0255 7.67476 15.9231L0.402178 12.2869C0.0429278 12.1072 -0.102687 11.6704 0.076938 11.3111Z" fill="#240405"/>
</svg>
