<svg width="6" height="6" viewBox="0 0 6 6" fill="none" xmlns="http://www.w3.org/2000/svg">
<rect x="0.257143" y="0.257143" width="5.48571" height="5.48571" rx="1.02857" stroke="#BE957D" stroke-width="0.514286"/>
<path fill-rule="evenodd" clip-rule="evenodd" d="M2.0571 1.7143C2.0571 1.57228 2.17223 1.45715 2.31424 1.45715H4.4571C4.59912 1.45715 4.71424 1.57228 4.71424 1.7143C4.71424 1.85631 4.59912 1.97144 4.4571 1.97144H2.31424C2.17223 1.97144 2.0571 1.85631 2.0571 1.7143ZM2.0571 3.00001C2.0571 2.85799 2.17223 2.74287 2.31424 2.74287H4.4571C4.59912 2.74287 4.71424 2.85799 4.71424 3.00001C4.71424 3.14203 4.59912 3.25715 4.4571 3.25715H2.31424C2.17223 3.25715 2.0571 3.14203 2.0571 3.00001ZM2.0571 4.28572C2.0571 4.14371 2.17223 4.02858 2.31424 4.02858H4.4571C4.59912 4.02858 4.71424 4.14371 4.71424 4.28572C4.71424 4.42774 4.59912 4.54287 4.4571 4.54287H2.31424C2.17223 4.54287 2.0571 4.42774 2.0571 4.28572Z" fill="#BE957D"/>
<path d="M1.71425 1.7143C1.71425 1.85631 1.59913 1.97144 1.45711 1.97144C1.31509 1.97144 1.19997 1.85631 1.19997 1.7143C1.19997 1.57228 1.31509 1.45716 1.45711 1.45716C1.59913 1.45716 1.71425 1.57228 1.71425 1.7143Z" fill="#BE957D"/>
<path d="M1.71423 3C1.71423 3.14202 1.5991 3.25715 1.45709 3.25715C1.31507 3.25715 1.19994 3.14202 1.19994 3C1.19994 2.85799 1.31507 2.74286 1.45709 2.74286C1.5991 2.74286 1.71423 2.85799 1.71423 3Z" fill="#BE957D"/>
<path d="M1.71424 4.28575C1.71424 4.42776 1.59912 4.54289 1.4571 4.54289C1.31508 4.54289 1.19996 4.42776 1.19996 4.28575C1.19996 4.14373 1.31508 4.0286 1.4571 4.0286C1.59912 4.0286 1.71424 4.14373 1.71424 4.28575Z" fill="#BE957D"/>
</svg>
