<svg width="6" height="6" viewBox="0 0 6 6" fill="none" xmlns="http://www.w3.org/2000/svg">
<path fill-rule="evenodd" clip-rule="evenodd" d="M4.93149 2.22858H1.06855C0.849208 2.22858 0.686276 2.43169 0.733858 2.64581L1.21005 4.78867C1.24491 4.94554 1.38404 5.05715 1.54474 5.05715H4.4553C4.616 5.05715 4.75514 4.94554 4.79 4.78867L5.26619 2.64581C5.31377 2.43169 5.15084 2.22858 4.93149 2.22858ZM1.06855 1.71429C0.520195 1.71429 0.112864 2.22208 0.231819 2.75738L0.708009 4.90023C0.795159 5.29241 1.143 5.57144 1.54474 5.57144H4.4553C4.85705 5.57144 5.20489 5.29241 5.29204 4.90023L5.76823 2.75738C5.88718 2.22208 5.47985 1.71429 4.93149 1.71429C3.42292 1.71429 2.57712 1.71429 1.06855 1.71429Z" fill="#BE957D"/>
<path d="M1.20003 1.71429H1.71431V1.37145C1.71431 1.13475 1.90619 0.942875 2.14288 0.942875H3.85717C4.09386 0.942875 4.28574 1.13475 4.28574 1.37145V1.71429H4.80003V1.37145C4.80003 0.85072 4.3779 0.428589 3.85717 0.428589H2.14288C1.62216 0.428589 1.20003 0.85072 1.20003 1.37145V1.71429Z" fill="#BE957D"/>
</svg>
