<svg width="11" height="11" viewBox="0 0 11 11" fill="none" xmlns="http://www.w3.org/2000/svg">
<path d="M5.2 2.28813C4.8385 2.28813 4.54545 2.58118 4.54545 2.94268V5.44268C4.54545 5.6906 4.68553 5.91724 4.90728 6.02812L6.72546 6.93721C7.04879 7.09888 7.44196 6.96782 7.60363 6.64449C7.76529 6.32116 7.63423 5.92799 7.3109 5.76632L5.85455 5.03814V2.94268C5.85455 2.58118 5.5615 2.28813 5.2 2.28813Z" fill="#5EA636"/>
<path fill-rule="evenodd" clip-rule="evenodd" d="M5.2 0.242676C2.32812 0.242676 0 2.57079 0 5.44268C0 8.31456 2.32812 10.6427 5.2 10.6427C8.07188 10.6427 10.4 8.31456 10.4 5.44268C10.4 2.57079 8.07188 0.242676 5.2 0.242676ZM5.2 1.35178C2.94065 1.35178 1.10909 3.18334 1.10909 5.44269C1.10909 7.70203 2.94065 9.5336 5.2 9.5336C7.45935 9.5336 9.29091 7.70203 9.29091 5.44269C9.29091 3.18334 7.45935 1.35178 5.2 1.35178Z" fill="#5EA636"/>
</svg>
