<svg width="34" height="34" viewBox="0 0 34 34" fill="none" xmlns="http://www.w3.org/2000/svg">
<rect width="34" height="34" rx="10.4" fill="white"/>
<path fill-rule="evenodd" clip-rule="evenodd" d="M16.9979 10.7787C16.4385 10.7774 15.8809 10.8411 15.3362 10.9686C14.8582 11.0805 14.3801 10.7837 14.2683 10.3058C14.1564 9.82789 14.4531 9.34977 14.9311 9.2379C15.6095 9.07908 16.3042 8.99966 17.001 9.00121C20.4662 9.0016 23.1286 10.9801 24.8695 12.8371C25.7481 13.7743 26.4189 14.7082 26.8702 15.4069C27.0963 15.7571 27.2688 16.0505 27.386 16.2587C27.4446 16.3629 27.4894 16.446 27.5203 16.5044C27.5358 16.5336 27.5478 16.5567 27.5563 16.5732L27.5663 16.5929L27.5694 16.599C27.5694 16.599 27.5712 16.6025 26.7762 17L25.9924 16.581C25.9175 16.7212 25.8404 16.8602 25.7613 16.998C25.6643 16.8304 25.5359 16.6172 25.377 16.3712C24.9672 15.7368 24.3605 14.8931 23.5727 14.0528C21.981 12.355 19.7535 10.7787 16.9979 10.7787ZM25.7613 16.998C25.3014 17.7982 24.7711 18.5562 24.1765 19.2629C23.8605 19.6384 23.9088 20.1991 24.2843 20.5151C24.6599 20.8311 25.2205 20.7829 25.5366 20.4073C26.3132 19.4843 26.9914 18.4828 27.56 17.4189C27.6959 17.1647 27.7001 16.8603 27.5712 16.6025L26.7762 17C25.9813 17.3974 25.9816 17.3979 25.9816 17.3979L25.9754 17.3859C25.9701 17.3755 25.9613 17.3587 25.9493 17.3358C25.9251 17.2901 25.8875 17.2204 25.8367 17.1302C25.8141 17.09 25.789 17.0459 25.7613 16.998ZM11.1814 11.0144C11.5353 10.7442 12.0344 10.7775 12.3493 11.0923L15.7408 14.4839C15.7429 14.4859 15.7449 14.488 15.747 14.4901L19.5098 18.2529C19.5119 18.255 19.514 18.2571 19.5161 18.2592L22.9076 21.6507C23.0889 21.832 23.1831 22.0828 23.1659 22.3387C23.1487 22.5945 23.0219 22.8305 22.8179 22.986C21.1478 24.259 19.1142 24.9643 17.0145 24.9986L17 24.9987C13.5343 24.9987 10.8716 23.02 9.13052 21.1628C8.25188 20.2256 7.58108 19.2918 7.12983 18.5931C6.90366 18.2429 6.73119 17.9495 6.61403 17.7412C6.55542 17.637 6.51056 17.5539 6.47964 17.4955C6.46418 17.4663 6.4522 17.4432 6.44372 17.4267L6.43363 17.407L6.43057 17.4009C6.43057 17.4009 6.42882 17.3974 7.22374 17L6.42882 17.3974C6.29967 17.1391 6.30407 16.8342 6.44061 16.5797C7.60604 14.4079 9.22246 12.5103 11.1814 11.0144ZM8.2392 17.0028C8.33614 17.1702 8.46437 17.3831 8.623 17.6287C9.03273 18.2632 9.63951 19.1068 10.4273 19.9471C12.0176 21.6435 14.2405 23.2184 16.9927 23.2212C18.3663 23.1975 19.7051 22.8234 20.8851 22.1419L18.8217 20.0786C18.6806 20.167 18.5332 20.2456 18.3804 20.3137C17.9443 20.508 17.4735 20.6125 16.9962 20.6209C16.5189 20.6293 16.0447 20.5415 15.6021 20.3627C15.1594 20.1839 14.7573 19.9178 14.4197 19.5802C14.0821 19.2427 13.816 18.8405 13.6372 18.3979C13.4584 17.9552 13.3706 17.4811 13.379 17.0038C13.3875 16.5264 13.4919 16.0557 13.6862 15.6196C13.7543 15.4668 13.833 15.3193 13.9214 15.1783L11.656 12.9129C10.2902 14.0683 9.13397 15.4519 8.2392 17.0028ZM15.2473 16.5041C15.1902 16.6752 15.1595 16.8542 15.1563 17.0351C15.152 17.2738 15.196 17.5108 15.2854 17.7322C15.3748 17.9535 15.5078 18.1546 15.6766 18.3234C15.8454 18.4921 16.0464 18.6252 16.2678 18.7146C16.4891 18.804 16.7262 18.8479 16.9648 18.8437C17.1458 18.8405 17.3248 18.8097 17.4958 18.7527L15.2473 16.5041Z" fill="#DB1D1D"/>
<path fill-rule="evenodd" clip-rule="evenodd" d="M6.5953 6.59527C6.94238 6.24819 7.5051 6.24819 7.85218 6.59527L27.4047 26.1478C27.7518 26.4949 27.7518 27.0576 27.4047 27.4047C27.0576 27.7517 26.4949 27.7517 26.1478 27.4047L6.5953 7.85215C6.24822 7.50507 6.24822 6.94235 6.5953 6.59527Z" fill="#DB1D1D"/>
<path d="M26.7762 17L25.9924 16.581C25.9175 16.7212 25.8404 16.8602 25.7613 16.998C25.789 17.0459 25.8141 17.09 25.8367 17.1302C25.8875 17.2204 25.9251 17.2901 25.9493 17.3358C25.9613 17.3587 25.9701 17.3755 25.9754 17.3859L25.9816 17.3979C25.9816 17.3979 25.9813 17.3974 26.7762 17Z" fill="#DB1D1D"/>
</svg>
