<svg width="17" height="16" viewBox="0 0 17 16" fill="none" xmlns="http://www.w3.org/2000/svg">
<path d="M11.4414 1.47839C10.4411 1.416 9.41908 1.69808 8.50058 2.38529C7.58188 1.69807 6.55974 1.416 5.55935 1.47839C4.37082 1.55251 3.28537 2.10691 2.48594 2.90047C1.68667 3.69388 1.12543 4.77412 1.05049 5.96027C0.973915 7.17218 1.41166 8.41215 2.46572 9.45827C2.46576 9.45831 2.4658 9.45834 2.46583 9.45838L6.92197 13.8821C7.79239 14.7462 9.20865 14.7458 10.0791 13.8824L10.0793 13.8821L14.5356 9.45827C15.5895 8.41206 16.027 7.17201 15.9502 5.96013C15.8751 4.77404 15.3138 3.69385 14.5146 2.90047C13.7152 2.10694 12.6298 1.55252 11.4414 1.47839Z" fill="#DB1D1D" stroke="white" stroke-width="2"/>
</svg>
