<svg width="18" height="16" viewBox="0 0 18 16" fill="none" xmlns="http://www.w3.org/2000/svg">
<path d="M11.9409 1.47839C10.9406 1.416 9.91859 1.69808 9.00009 2.38529C8.08139 1.69807 7.05925 1.416 6.05886 1.47839C4.87033 1.55251 3.78488 2.10691 2.98546 2.90047C2.18618 3.69388 1.62494 4.77412 1.55 5.96027C1.47343 7.17218 1.91117 8.41215 2.96523 9.45827C2.96527 9.45831 2.96531 9.45834 2.96534 9.45838L7.42149 13.8821C8.2919 14.7462 9.70816 14.7458 10.5786 13.8824L10.5788 13.8821L15.0351 9.45827C16.089 8.41206 16.5265 7.17201 16.4497 5.96013C16.3746 4.77404 15.8133 3.69385 15.0141 2.90047C14.2147 2.10694 13.1293 1.55252 11.9409 1.47839Z" fill="#DB1D1D" stroke="white" stroke-width="2"/>
</svg>
