<svg width="21" height="21" viewBox="0 0 21 21" fill="none" xmlns="http://www.w3.org/2000/svg">
<path fill-rule="evenodd" clip-rule="evenodd" d="M3.61106 18.4429C3.61106 18.9455 3.20321 19.3532 2.70099 19.3532C2.19833 19.3532 1.79065 18.9455 1.79065 18.4429C1.79065 16.0406 2.76738 13.8587 4.34208 12.284C5.91677 10.7093 8.09537 9.73307 10.5007 9.73307C12.9031 9.73307 15.0836 10.7093 16.6583 12.284C18.233 13.8587 19.2092 16.0406 19.2092 18.4429C19.2092 18.9455 18.8014 19.3532 18.2992 19.3532C17.7965 19.3532 17.3888 18.9455 17.3888 18.4429C17.3888 16.5415 16.6162 14.8168 15.3709 13.5715C14.1255 12.3261 12.4022 11.5535 10.5007 11.5535C8.59802 11.5535 6.87484 12.3261 5.62903 13.5715C4.38367 14.8168 3.61106 16.5415 3.61106 18.4429Z" fill="#BE957D"/>
<path fill-rule="evenodd" clip-rule="evenodd" d="M10.5003 1.39648C7.80157 1.39648 5.59686 3.60115 5.59686 6.29728C5.59686 8.99731 7.80153 11.202 10.4977 11.202C13.1964 11.202 15.4011 8.99738 15.4011 6.30125C15.4011 3.60122 13.1964 1.39648 10.5003 1.39648ZM10.5003 3.21663C9.65403 3.21663 8.88133 3.56558 8.32364 4.12326C7.76596 4.68095 7.41727 5.4536 7.41727 6.29728C7.41727 7.14616 7.76596 7.91732 8.32364 8.475C8.88133 9.03269 9.65398 9.38164 10.4977 9.38164C11.3452 9.38164 12.1166 9.03269 12.6743 8.475C13.232 7.91732 13.581 7.14623 13.581 6.30125C13.581 5.45367 13.232 4.68095 12.6743 4.12326C12.1166 3.56558 11.3453 3.21663 10.5003 3.21663Z" fill="#BE957D"/>
</svg>
