<svg width="24" height="10" viewBox="0 0 24 10" fill="none" xmlns="http://www.w3.org/2000/svg">
<path fill-rule="evenodd" clip-rule="evenodd" d="M11.8364 0C16.5319 0 19.6222 0.889797 21.5084 2.40247C22.3374 3.06757 23.0135 3.82013 22.7316 4.99157C22.7298 5.10719 22.6958 5.23573 22.6194 5.37951C22.1324 4.47562 20.9264 4.32482 20.4979 4.34497C20.1748 4.36054 19.9449 4.38535 19.853 4.42151C19.6693 4.4937 19.0608 4.78824 18.8916 4.51135C18.6004 4.03569 19.381 3.8811 19.6517 3.85842C19.7806 3.84715 20.3374 3.85033 20.7752 3.87805C18.8054 2.88611 15.6525 2.28657 11.8364 2.28657C10.309 2.28657 8.85029 2.39374 7.51535 2.58866C7.49519 3.78901 7.58131 7.16094 7.25313 7.23535C6.95312 7.30339 6.59678 6.67193 6.48724 6.03914C6.36524 5.33372 6.28254 4.13277 6.29173 2.79782C6.09132 2.8374 5.89477 2.87901 5.70192 2.92258L5.69051 5.49333C5.67584 5.6752 5.67495 6.22069 5.41525 6.23655C5.25265 6.24663 5.10486 5.92231 5.00777 5.5971C4.77713 4.82275 4.68804 3.979 4.6581 3.18938C3.26401 3.58945 2.13452 4.10295 1.38286 4.68949C1.05764 4.9437 0.937867 4.98405 0.718638 5.33283C0.429444 5.00169 0.494221 4.55872 0.547138 4.19452C0.580786 3.96136 0.676991 3.74293 0.79676 3.52015C1.08373 2.98831 1.37573 2.73778 1.81108 2.40545C3.74338 0.930581 7.44687 0 11.8364 0Z" fill="#E31E24"/>
<path fill-rule="evenodd" clip-rule="evenodd" d="M8.97922 5.31259C8.99226 5.13486 9.06238 4.93108 9.26664 4.93523C9.52796 4.94071 9.52959 5.12474 9.52915 5.4083C9.66582 5.2537 9.78381 5.16166 9.7595 5.19027C9.93382 5.05672 9.99474 4.99332 10.2368 5.0495C10.3268 5.0701 10.3628 5.2576 10.3855 5.3495C10.4846 5.26086 10.6296 5.07188 10.7763 5.04416C10.9234 5.01555 11.0578 5.0398 11.1813 5.15453C11.2814 5.24732 11.2267 6.31597 11.2086 6.61094C11.201 6.7353 11.2007 6.80211 10.9931 6.80419C10.8826 6.80508 10.775 6.72308 10.775 6.58434L10.7738 5.6685C10.7738 5.57526 10.7246 5.53608 10.6754 5.50999C10.5657 5.4507 10.4548 5.58781 10.3767 5.67927C10.3724 5.98358 10.3692 6.3269 10.3607 6.58941C10.3557 6.74623 10.3065 6.80212 10.1511 6.80627C10.0007 6.81042 9.96494 6.72359 9.93797 6.6265L9.9187 5.69872C9.9187 5.63113 9.88178 5.57641 9.82842 5.54528C9.73711 5.49236 9.68642 5.58147 9.61201 5.64624L9.49521 5.79878C9.48884 5.98154 9.43503 6.46255 9.42791 6.64532C9.42332 6.77013 9.32163 6.87355 9.20942 6.86851C9.07083 6.86258 9.0351 6.71599 9.00531 6.55087C9.00442 6.52433 8.99523 6.36771 8.99004 6.16048C8.7468 6.58946 8.27751 6.91096 7.96905 6.74954C7.84469 6.68402 7.64176 6.46963 7.64013 6.02939C7.63835 5.6314 7.77916 5.36388 7.98639 5.16421C8.14514 5.01169 8.5922 4.8866 8.7766 5.09916C8.90022 5.24117 8.86657 5.44106 8.7809 5.59196C8.66024 5.79533 8.33547 5.95495 8.15478 6.04359C8.20695 6.28061 8.35814 6.36723 8.45775 6.3075C8.73598 6.1403 8.83218 5.98151 8.98426 5.76006C8.9767 5.43944 8.97581 5.31422 8.97922 5.31259ZM8.3829 5.61123C8.30182 5.67764 8.22756 5.71424 8.08674 5.77471C8.09519 5.63894 8.15686 5.46461 8.26329 5.40206C8.33844 5.35745 8.38631 5.35079 8.42336 5.38695C8.48592 5.44743 8.43374 5.56928 8.3829 5.61123Z" fill="#E31E24"/>
<path fill-rule="evenodd" clip-rule="evenodd" d="M11.4394 4.79414C11.4877 4.54452 11.5981 4.49576 11.804 4.47767C11.9123 4.46804 11.9922 4.50718 12.025 4.61139C12.0552 4.70803 12.0154 5.06556 12.0028 5.18281C12.0893 5.11136 12.2359 5.03946 12.4027 5.0442C12.5758 5.0488 12.7641 5.09915 12.838 5.3756C12.8944 5.7269 12.8603 6.1101 12.6083 6.38788C12.5305 6.55968 12.1036 6.80126 11.9503 6.83861C11.88 7.99672 11.7414 8.63029 11.6771 8.65889C11.4889 8.74338 11.4531 8.23446 11.4263 7.36895C11.4435 6.51975 11.3624 5.6967 11.4394 4.79414ZM11.9675 6.36427C11.973 6.14667 11.9767 5.78781 11.9914 5.57228C12.0813 5.37396 12.3696 5.46928 12.3926 5.69741C12.4498 6.27149 11.9322 6.684 11.9675 6.36427Z" fill="#E31E24"/>
<path fill-rule="evenodd" clip-rule="evenodd" d="M14.2647 4.92763C14.3311 5.1559 14.4486 5.3588 14.5175 5.62516C14.5272 5.66088 14.7701 5.24568 15.0832 5.30408C15.186 5.3235 15.3054 5.4836 15.3154 5.66162C15.3251 5.83979 15.2252 6.03652 15.2167 6.05327C15.2055 6.07565 15.1226 6.18992 15.0403 6.08349C14.9911 6.02005 15.0713 5.77182 14.8961 5.70215C14.7529 5.64494 14.5878 5.77221 14.5823 5.79697C14.5658 5.87256 14.6243 6.05003 14.7252 6.27267C14.7436 6.31343 14.7995 6.37022 14.8599 6.3597C14.9609 6.3425 15.0431 6.19998 15.1033 6.29736C15.1356 6.3491 14.9957 6.62902 14.8957 6.72774C14.8709 6.75205 14.7113 6.92563 14.4941 6.86263C14.3861 6.83106 14.3162 6.76712 14.2276 6.59918C14.163 6.47718 14.0819 6.53853 14.0764 6.5458C13.9344 6.72263 13.8369 6.88983 13.5641 6.88479C13.1319 6.87635 12.9196 6.34702 12.9902 5.90915C13.0456 5.56334 13.4386 5.23813 13.699 5.05492C13.6255 4.66212 13.6777 4.39785 13.7423 4.09991C13.8302 3.69613 14.2727 3.65241 14.3272 3.66293C14.9453 3.78388 14.7172 4.70084 14.2647 4.92763ZM14.1659 4.75999C13.9848 4.36125 14.0235 4.14709 14.0957 4.07476C14.2095 3.96092 14.3663 4.09619 14.3159 4.38227C14.2965 4.49151 14.3059 4.62851 14.1659 4.75999ZM13.5579 5.91123C13.5432 5.72684 13.5256 5.32814 13.7129 5.3314C13.8146 5.33363 14.0116 6.27768 13.9049 6.33609C13.7503 6.42102 13.5801 6.18605 13.5579 5.91123Z" fill="#E31E24"/>
<path fill-rule="evenodd" clip-rule="evenodd" d="M15.5302 6.12906C15.5263 5.7075 15.581 5.29457 15.9566 5.07905C16.1309 4.97899 16.2834 4.95337 16.5495 5.1345C16.6439 5.19884 16.6457 5.35344 16.613 5.43704C16.5672 5.55503 16.4557 5.66762 16.3423 5.61011C16.2603 5.5689 16.2575 5.53201 16.2347 5.42736C16.0599 5.34495 15.9831 5.63441 15.9676 5.73017C15.9104 6.0828 16.1112 6.51598 16.4705 6.35931C16.6297 6.29586 16.6579 6.24109 16.7978 6.14697L16.7836 5.61129C16.7894 5.50842 16.7671 5.39579 16.7797 5.29455C16.8621 5.08229 16.9251 5.03236 17.1163 5.03236C17.2263 5.11893 17.2549 5.17897 17.2226 5.28451C17.2226 5.32616 17.2045 5.4975 17.21 5.62097C17.3583 5.41434 17.5133 5.28312 17.6571 5.0719C17.7423 4.91596 17.852 4.88369 18.0054 4.91186C18.1692 4.94209 18.1087 5.07012 18.005 5.17522C17.8756 5.34123 17.6869 5.46339 17.5868 5.60125C17.6633 5.63148 17.7441 5.6475 17.8184 5.7185C18.0235 5.91342 17.8701 6.24038 18.0407 6.43693C18.0714 6.42774 18.1525 6.34078 18.1676 6.24088C18.1974 6.05011 18.1541 5.7622 18.2301 5.52977C18.3793 5.07442 18.6671 4.81678 18.8478 5.35915L18.9822 6.08997C18.9857 6.24294 19.0953 6.21594 19.1444 6.11811L19.3008 5.98159C19.2974 5.76977 19.2864 5.52902 19.2827 5.25791C19.2685 4.99288 19.7735 4.89952 19.8054 5.02684C19.8197 5.53067 19.8436 6.12106 19.8516 6.62222L19.6752 6.80081C19.5882 6.89834 19.4907 6.8572 19.4373 6.74336C19.3881 6.66346 19.3398 6.36979 19.3322 6.24839C19.3095 6.24839 19.0003 6.54961 18.9449 6.59245C18.8239 6.67398 18.7193 6.7227 18.6339 6.61805C18.5491 6.51385 18.5038 6.12937 18.4738 5.86597C18.4793 5.74753 18.3978 5.77392 18.389 5.85248L18.3066 6.78452C18.2869 6.94579 18.0386 7.05643 17.8983 7.05168C17.7469 7.04709 17.6738 6.78026 17.6171 6.67858C17.5394 6.4214 17.5025 6.27608 17.3553 6.05966C17.2948 6.03654 17.2666 6.04664 17.1965 6.09748C17.175 6.26765 17.2414 6.56887 17.1899 6.67026C17.1544 6.74037 17.096 6.78367 17.0243 6.79375C16.9272 6.80724 16.842 6.80425 16.81 6.68907L16.8003 6.35035C16.6029 6.51636 16.5452 6.60597 16.3558 6.71477C15.8927 6.98039 15.5826 6.5521 15.5302 6.12906Z" fill="#E31E24"/>
<path fill-rule="evenodd" clip-rule="evenodd" d="M23.2231 5.04485C23.3025 8.82348 15.207 9.98988 11.7023 9.99996C8.89636 10.0075 -0.0815232 8.9849 0.11903 5.15839C0.98068 7.28902 5.39343 8.8688 11.7023 8.8688C18.0112 8.8688 22.55 7.20127 23.2231 5.04485Z" fill="#FECC09"/>
</svg>
