<svg width="6" height="6" viewBox="0 0 6 6" fill="none" xmlns="http://www.w3.org/2000/svg">
<path fill-rule="evenodd" clip-rule="evenodd" d="M0.428589 1.28571C0.428589 0.575634 1.00422 0 1.7143 0H2.26287H3.74859H4.26287H4.28573C4.99581 0 5.57145 0.575634 5.57145 1.28571V4.71429C5.57145 5.42437 4.99581 6 4.28573 6H1.7143C1.00422 6 0.428589 5.42437 0.428589 4.71429V1.28571ZM1.7143 0.514286C1.28826 0.514286 0.942875 0.859666 0.942875 1.28571V4.71429C0.942875 5.14033 1.28825 5.48571 1.7143 5.48571H4.28573C4.71178 5.48571 5.05716 5.14033 5.05716 4.71429V1.28571C5.05716 0.859666 4.71178 0.514286 4.28573 0.514286H4.26287V0.857143C4.26287 1.23585 3.95587 1.54286 3.57716 1.54286H2.4343C2.05559 1.54286 1.74859 1.23585 1.74859 0.857143V0.514286H1.7143ZM2.26287 0.857143C2.26287 0.95182 2.33963 1.02857 2.4343 1.02857H3.57716C3.67184 1.02857 3.74859 0.951821 3.74859 0.857143V0.514286H2.26287V0.857143Z" fill="#BE957D"/>
<path fill-rule="evenodd" clip-rule="evenodd" d="M4.51044 2.38961C4.61086 2.49003 4.61086 2.65285 4.51044 2.75327L2.79615 4.46755C2.69573 4.56797 2.53292 4.56797 2.4325 4.46755L1.57535 3.61041C1.47493 3.50999 1.47493 3.34718 1.57535 3.24675C1.67577 3.14633 1.83859 3.14633 1.93901 3.24675L2.61432 3.92207L4.14678 2.38961C4.2472 2.28919 4.41002 2.28919 4.51044 2.38961Z" fill="#BE957D"/>
</svg>
