<svg width="6" height="6" viewBox="0 0 6 6" fill="none" xmlns="http://www.w3.org/2000/svg">
<path d="M3.00002 0.981787C3.70483 0.286421 4.74785 0.255399 5.46119 0.963029C6.06993 1.56645 6.27714 2.57467 5.47017 3.37355L3.43231 5.39473C3.31348 5.51252 3.15642 5.57144 3.00038 5.57144C2.84396 5.57144 2.68718 5.51253 2.56886 5.39511L0.529845 3.37393C-0.276377 2.57493 -0.0710777 1.56723 0.538457 0.963029C1.24879 0.258388 2.29935 0.281572 3.00002 0.981787ZM2.64554 1.32136C2.13581 0.816947 1.40273 0.797453 0.887104 1.30857C0.432638 1.75906 0.29708 2.45197 0.878878 3.02831C1.14793 3.29501 2.82093 5.05241 3.00038 5.08226L3.04595 5.07369L3.08328 5.04873L5.12191 3.02831C5.71021 2.44515 5.55292 1.74548 5.11215 1.30857L5.10899 1.30512C4.55609 0.751445 3.81979 0.861128 3.29817 1.37794C3.47496 1.6642 3.61922 2.04121 3.64251 2.52267L3.1582 2.54534C3.12884 1.94483 2.86979 1.5518 2.64554 1.32136Z" fill="#BE957D"/>
</svg>
