<svg width="6" height="6" viewBox="0 0 6 6" fill="none" xmlns="http://www.w3.org/2000/svg">
<path fill-rule="evenodd" clip-rule="evenodd" d="M0.529941 0.522273C0.681392 0.369917 0.887164 0.283965 1.10199 0.283326L1.91199 0.280916C2.0611 0.280472 2.18234 0.400995 2.18279 0.550111C2.18323 0.699227 2.06271 0.82047 1.91359 0.820913L1.1036 0.823324C1.03199 0.823537 0.963397 0.852187 0.912913 0.902972C0.862429 0.953758 0.834187 1.02252 0.8344 1.09413L0.83681 1.90412C0.837254 2.05324 0.716731 2.17448 0.567615 2.17492C0.418498 2.17537 0.297256 2.05485 0.296812 1.90573L0.294402 1.09573C0.293763 0.880908 0.378489 0.674628 0.529941 0.522273ZM3.80278 0.545291C3.80234 0.396175 3.92286 0.274932 4.07198 0.274489L4.88197 0.272079C5.0968 0.271439 5.30308 0.356165 5.45543 0.507617C5.60779 0.659069 5.69374 0.86484 5.69438 1.07966L5.69679 1.88966C5.69723 2.03878 5.57671 2.16002 5.42759 2.16046C5.27848 2.16091 5.15723 2.04038 5.15679 1.89127L5.15438 1.08127C5.15417 1.00966 5.12552 0.941073 5.07473 0.890589C5.02395 0.840105 4.95519 0.811863 4.88358 0.812076L4.07358 0.814486C3.92447 0.81493 3.80322 0.694407 3.80278 0.545291ZM0.572435 3.79492C0.721551 3.79447 0.842793 3.915 0.843237 4.06411L0.845647 4.87411C0.84586 4.94572 0.874511 5.01431 0.925296 5.06479C0.976082 5.11528 1.04484 5.14352 1.11645 5.1433L1.92645 5.14089C2.07556 5.14045 2.1968 5.26097 2.19725 5.41009C2.19769 5.55921 2.07717 5.68045 1.92805 5.68089L1.11806 5.6833C0.903232 5.68394 0.696952 5.59922 0.544596 5.44776C0.392241 5.29631 0.306289 5.09054 0.30565 4.87572L0.30324 4.06572C0.302796 3.9166 0.423319 3.79536 0.572435 3.79492ZM5.43241 3.78046C5.58153 3.78001 5.70277 3.90054 5.70322 4.04965L5.70563 4.85965C5.70626 5.07447 5.62154 5.28075 5.47009 5.43311C5.31864 5.58546 5.11286 5.67142 4.89804 5.67205L4.08804 5.67446C3.93893 5.67491 3.81768 5.55439 3.81724 5.40527C3.8168 5.25615 3.93732 5.13491 4.08644 5.13447L4.89643 5.13206C4.96804 5.13184 5.03663 5.10319 5.08712 5.05241C5.1376 5.00162 5.16584 4.93286 5.16563 4.86126L5.16322 4.05126C5.16277 3.90214 5.2833 3.7809 5.43241 3.78046Z" fill="#BE957D"/>
<path d="M2.09659 1.81984C2.09614 1.67073 1.9749 1.5502 1.82578 1.55065C1.67667 1.55109 1.55615 1.67233 1.55659 1.82145L1.56355 4.16144C1.564 4.31056 1.68524 4.43108 1.83435 4.43064C1.98347 4.43019 2.10399 4.30895 2.10355 4.15983L2.09659 1.81984Z" fill="#BE957D"/>
<path d="M3.2664 1.81636C3.26595 1.66725 3.14471 1.54672 2.9956 1.54717C2.84648 1.54761 2.72596 1.66885 2.7264 1.81797L2.73336 4.15796C2.73381 4.30707 2.85505 4.4276 3.00416 4.42715C3.15328 4.42671 3.2738 4.30547 3.27336 4.15635L3.2664 1.81636Z" fill="#BE957D"/>
<path d="M4.43655 1.81288C4.43611 1.66377 4.31487 1.54324 4.16575 1.54369C4.01664 1.54413 3.89611 1.66537 3.89656 1.81449L3.90352 4.15448C3.90396 4.30359 4.02521 4.42412 4.17432 4.42367C4.32344 4.42323 4.44396 4.30199 4.44352 4.15287L4.43655 1.81288Z" fill="#BE957D"/>
</svg>
