<svg width="6" height="6" viewBox="0 0 6 6" fill="none" xmlns="http://www.w3.org/2000/svg">
<path fill-rule="evenodd" clip-rule="evenodd" d="M3 5.48571C4.37282 5.48571 5.48571 4.37282 5.48571 3C5.48571 1.62718 4.37282 0.514286 3 0.514286C1.62718 0.514286 0.514286 1.62718 0.514286 3C0.514286 4.37282 1.62718 5.48571 3 5.48571ZM3 6C4.65685 6 6 4.65685 6 3C6 1.34315 4.65685 0 3 0C1.34315 0 0 1.34315 0 3C0 4.65685 1.34315 6 3 6Z" fill="#BE957D"/>
<path fill-rule="evenodd" clip-rule="evenodd" d="M2.99999 4.20001C3.66273 4.20001 4.19999 3.66275 4.19999 3.00001C4.19999 2.33726 3.66273 1.80001 2.99999 1.80001C2.33725 1.80001 1.79999 2.33726 1.79999 3.00001C1.79999 3.66275 2.33725 4.20001 2.99999 4.20001ZM2.99999 4.71429C3.94677 4.71429 4.71428 3.94678 4.71428 3.00001C4.71428 2.05323 3.94677 1.28572 2.99999 1.28572C2.05322 1.28572 1.28571 2.05323 1.28571 3.00001C1.28571 3.94678 2.05322 4.71429 2.99999 4.71429Z" fill="#BE957D"/>
<path d="M3.42855 3C3.42855 3.23669 3.23668 3.42857 2.99998 3.42857C2.76329 3.42857 2.57141 3.23669 2.57141 3C2.57141 2.7633 2.76329 2.57143 2.99998 2.57143C3.23668 2.57143 3.42855 2.7633 3.42855 3Z" fill="#BE957D"/>
<path fill-rule="evenodd" clip-rule="evenodd" d="M2.99998 2.91428C2.95264 2.91428 2.91427 2.95266 2.91427 3C2.91427 3.04734 2.95264 3.08571 2.99998 3.08571C3.04732 3.08571 3.0857 3.04734 3.0857 3C3.0857 2.95266 3.04732 2.91428 2.99998 2.91428ZM2.99998 3.42857C3.23668 3.42857 3.42855 3.23669 3.42855 3C3.42855 2.7633 3.23668 2.57143 2.99998 2.57143C2.76329 2.57143 2.57141 2.7633 2.57141 3C2.57141 3.23669 2.76329 3.42857 2.99998 3.42857Z" fill="#BE957D"/>
</svg>
