<svg width="14" height="14" viewBox="0 0 14 14" fill="none" xmlns="http://www.w3.org/2000/svg">
<path fill-rule="evenodd" clip-rule="evenodd" d="M7.12546 0.731656C10.4491 0.731656 13.1438 3.42623 13.1438 6.74985C13.1438 10.075 10.4491 12.7683 7.12546 12.7683C3.80185 12.7683 1.10666 10.075 1.10666 6.74985C1.10666 3.42623 3.80185 0.731656 7.12546 0.731656Z" fill="#FFFEFE"/>
<path fill-rule="evenodd" clip-rule="evenodd" d="M0.625 6.74985C0.625 10.3411 3.53595 13.25 7.12546 13.25C10.715 13.25 13.6255 10.3411 13.6255 6.74985C13.6255 3.1602 10.7151 0.25 7.12546 0.25C3.5359 0.25 0.625 3.16015 0.625 6.74985ZM7.12546 12.2867C4.06775 12.2867 1.58831 9.80886 1.58831 6.74985C1.58831 3.6923 4.06779 1.21331 7.12546 1.21331C10.1831 1.21331 12.6622 3.69226 12.6622 6.74985C12.6622 9.80891 10.1831 12.2867 7.12546 12.2867Z" fill="#BE957D"/>
<path d="M7.67642 9.79883C7.52415 9.95111 7.33979 10.0275 7.1256 10.0275C6.91089 10.0275 6.72673 9.95111 6.57446 9.79883C6.42066 9.64453 6.34397 9.46187 6.34397 9.24615C6.34397 9.03195 6.42066 8.8476 6.57446 8.69532C6.72673 8.54102 6.91089 8.46514 7.1256 8.46514C7.33979 8.46514 7.52415 8.54102 7.67642 8.69532C7.83072 8.8476 7.90676 9.03195 7.90676 9.24615C7.90676 9.46187 7.83072 9.64453 7.67642 9.79883ZM6.65609 7.74826L6.40903 5.31075V3.47239H7.83318V5.31075L7.59463 7.74826H6.65609Z" fill="#BE957D"/>
<path fill-rule="evenodd" clip-rule="evenodd" d="M7.12546 0.731656C10.4491 0.731656 13.1438 3.42623 13.1438 6.74985C13.1438 10.075 10.4491 12.7683 7.12546 12.7683C3.80185 12.7683 1.10666 10.075 1.10666 6.74985C1.10666 3.42623 3.80185 0.731656 7.12546 0.731656Z" stroke="#BE957D" stroke-width="0.325"/>
<path fill-rule="evenodd" clip-rule="evenodd" d="M0.625 6.74985C0.625 10.3411 3.53595 13.25 7.12546 13.25C10.715 13.25 13.6255 10.3411 13.6255 6.74985C13.6255 3.1602 10.7151 0.25 7.12546 0.25C3.5359 0.25 0.625 3.16015 0.625 6.74985ZM7.12546 12.2867C4.06775 12.2867 1.58831 9.80886 1.58831 6.74985C1.58831 3.6923 4.06779 1.21331 7.12546 1.21331C10.1831 1.21331 12.6622 3.69226 12.6622 6.74985C12.6622 9.80891 10.1831 12.2867 7.12546 12.2867Z" stroke="#BE957D" stroke-width="0.325"/>
<path d="M7.67642 9.79883C7.52415 9.95111 7.33979 10.0275 7.1256 10.0275C6.91089 10.0275 6.72673 9.95111 6.57446 9.79883C6.42066 9.64453 6.34397 9.46187 6.34397 9.24615C6.34397 9.03195 6.42066 8.8476 6.57446 8.69532C6.72673 8.54102 6.91089 8.46514 7.1256 8.46514C7.33979 8.46514 7.52415 8.54102 7.67642 8.69532C7.83072 8.8476 7.90676 9.03195 7.90676 9.24615C7.90676 9.46187 7.83072 9.64453 7.67642 9.79883ZM6.65609 7.74826L6.40903 5.31075V3.47239H7.83318V5.31075L7.59463 7.74826H6.65609Z" stroke="#BE957D" stroke-width="0.325"/>
</svg>
