<svg width="31" height="31" viewBox="0 0 31 31" fill="none" xmlns="http://www.w3.org/2000/svg">
<path fill-rule="evenodd" clip-rule="evenodd" d="M15.7496 0.798689C24.0763 0.798689 30.8262 7.54859 30.8262 15.8753C30.8262 24.202 24.0763 30.9514 15.7496 30.9514C7.42284 30.9514 0.673462 24.202 0.673462 15.8753C0.673462 7.54859 7.42284 0.798689 15.7496 0.798689Z" fill="#DE1C23"/>
<path d="M17.1313 23.5105C16.7482 23.8949 16.2875 24.0863 15.7494 24.0863C15.2116 24.0863 14.7511 23.8949 14.3676 23.5105C13.9832 23.127 13.7917 22.6664 13.7917 22.1286C13.7917 21.5917 13.9832 21.1311 14.3676 20.7467C14.7511 20.3624 15.2116 20.1717 15.7494 20.1717C16.2875 20.1717 16.7482 20.3624 17.1313 20.7467C17.5156 21.1311 17.7076 21.5917 17.7076 22.1286C17.7076 22.6664 17.5156 23.127 17.1313 23.5105ZM14.5738 18.3733L13.9537 12.2712V7.66374H17.523V12.2712L16.925 18.3733H14.5738Z" fill="#FFFEFE"/>
</svg>
