<svg width="8" height="8" viewBox="0 0 8 8" fill="none" xmlns="http://www.w3.org/2000/svg">
<path fill-rule="evenodd" clip-rule="evenodd" d="M0 3.99993C0 6.20905 1.79078 8 4.00002 8C6.20926 8 8 6.20905 8 3.99993C8 1.79079 6.20922 0 4.00002 0C1.79082 0 0 1.79078 0 3.99993ZM4.00002 6.70191C2.50778 6.70191 1.29812 5.4922 1.29812 3.99993C1.29812 2.5077 2.50775 1.29809 4.00002 1.29809C5.49227 1.29809 6.70188 2.50769 6.70188 3.99993C6.70188 5.49221 5.49224 6.70191 4.00002 6.70191Z" fill="#FFFAF5"/>
<path fill-rule="evenodd" clip-rule="evenodd" d="M4.00001 0.649047C5.85075 0.649047 7.35094 2.14924 7.35094 3.99993C7.35094 5.85063 5.85075 7.35095 4.00001 7.35095C2.14928 7.35095 0.649058 5.85063 0.649058 3.99993C0.649058 2.14924 2.14928 0.649047 4.00001 0.649047Z" fill="#DE1C23"/>
<path d="M4.30703 5.697C4.22211 5.78257 4.11967 5.82483 4.00002 5.82483C3.88048 5.82483 3.778 5.78257 3.69308 5.697C3.6075 5.61175 3.56488 5.50931 3.56488 5.39009C3.56488 5.27044 3.6075 5.16797 3.69308 5.08272C3.778 4.99726 3.88048 4.95482 4.00002 4.95482C4.11967 4.95482 4.22211 4.99726 4.30703 5.08272C4.39261 5.16797 4.43523 5.27044 4.43523 5.39009C4.43523 5.50931 4.39261 5.61175 4.30703 5.697ZM3.73874 4.55534L3.6008 3.19895V2.17496H4.39413V3.19895L4.26127 4.55534H3.73874Z" fill="#FFFEFE"/>
</svg>
