<svg width="20" height="20" viewBox="0 0 20 20" fill="none" xmlns="http://www.w3.org/2000/svg">
<rect x="1" y="1" width="18" height="18" rx="9" stroke="#DB1D1D" stroke-width="2"/>
<path fill-rule="evenodd" clip-rule="evenodd" d="M14.3117 5.68829C14.5628 5.93934 14.5628 6.34637 14.3117 6.59743L6.59743 14.3117C6.34637 14.5628 5.93934 14.5628 5.68829 14.3117C5.43724 14.0607 5.43724 13.6536 5.68829 13.4026L13.4026 5.68829C13.6536 5.43724 14.0607 5.43724 14.3117 5.68829Z" fill="#DB1D1D"/>
<path fill-rule="evenodd" clip-rule="evenodd" d="M5.68829 5.68829C5.93934 5.43724 6.34637 5.43724 6.59743 5.68829L14.3117 13.4026C14.5628 13.6536 14.5628 14.0607 14.3117 14.3117C14.0607 14.5628 13.6536 14.5628 13.4026 14.3117L5.68829 6.59743C5.43724 6.34637 5.43724 5.93934 5.68829 5.68829Z" fill="#DB1D1D"/>
<path fill-rule="evenodd" clip-rule="evenodd" d="M14.3117 5.68829C14.5628 5.93934 14.5628 6.34637 14.3117 6.59743L6.59743 14.3117C6.34637 14.5628 5.93934 14.5628 5.68829 14.3117C5.43724 14.0607 5.43724 13.6536 5.68829 13.4026L13.4026 5.68829C13.6536 5.43724 14.0607 5.43724 14.3117 5.68829Z" stroke="#DB1D1D" stroke-linecap="round" stroke-linejoin="round"/>
<path fill-rule="evenodd" clip-rule="evenodd" d="M5.68829 5.68829C5.93934 5.43724 6.34637 5.43724 6.59743 5.68829L14.3117 13.4026C14.5628 13.6536 14.5628 14.0607 14.3117 14.3117C14.0607 14.5628 13.6536 14.5628 13.4026 14.3117L5.68829 6.59743C5.43724 6.34637 5.43724 5.93934 5.68829 5.68829Z" stroke="#DB1D1D" stroke-linecap="round" stroke-linejoin="round"/>
</svg>
