<svg width="52" height="52" viewBox="0 0 52 52" fill="none" xmlns="http://www.w3.org/2000/svg">
<path fill-rule="evenodd" clip-rule="evenodd" d="M32.5392 19.4606C32.92 19.8414 32.92 20.4587 32.5392 20.8395L20.8392 32.5395C20.4585 32.9202 19.8411 32.9202 19.4604 32.5395C19.0796 32.1587 19.0796 31.5414 19.4604 31.1606L31.1604 19.4606C31.5411 19.0799 32.1585 19.0799 32.5392 19.4606Z" fill="#DB1D1D"/>
<path fill-rule="evenodd" clip-rule="evenodd" d="M19.4604 19.4606C19.8411 19.0799 20.4585 19.0799 20.8392 19.4606L32.5392 31.1606C32.92 31.5414 32.92 32.1587 32.5392 32.5395C32.1585 32.9202 31.5411 32.9202 31.1604 32.5395L19.4604 20.8395C19.0796 20.4587 19.0796 19.8414 19.4604 19.4606Z" fill="#DB1D1D"/>
</svg>
