<svg width="14" height="14" viewBox="0 0 14 14" fill="none" xmlns="http://www.w3.org/2000/svg">
<path d="M12.4248 7C12.4248 3.90721 9.9176 1.4 6.82481 1.4C5.06287 1.4 3.51464 2.21445 2.49723 3.49524L3.67275 3.4918C4.05935 3.49067 4.37367 3.80315 4.3748 4.18975C4.37593 4.57634 4.06345 4.89066 3.67686 4.89179L1.26685 4.89885C1.23997 4.9005 1.2129 4.90059 1.1858 4.89909L0.876855 4.9C0.690849 4.90054 0.512275 4.82703 0.380555 4.6957C0.248836 4.56436 0.174805 4.38601 0.174805 4.2L0.174807 1.4C0.174807 1.0134 0.488208 0.7 0.874807 0.7C1.26141 0.7 1.57481 1.0134 1.57481 1.4L1.57481 2.41463C2.84359 0.938264 4.70872 0 6.82481 0C10.6908 0 13.8248 3.13401 13.8248 7C13.8248 10.866 10.6908 14 6.82481 14C4.06964 14 1.73991 12.4094 0.597945 10.1115C0.425896 9.76532 0.567077 9.34519 0.913282 9.17314C1.25949 9.00109 1.67961 9.14227 1.85166 9.48848C2.77149 11.3394 4.63276 12.6 6.82481 12.6C9.9176 12.6 12.4248 10.0928 12.4248 7Z" fill="#BE957D"/>
</svg>
