<svg width="20" height="20" viewBox="0 0 20 20" fill="none" xmlns="http://www.w3.org/2000/svg">
<path fill-rule="evenodd" clip-rule="evenodd" d="M11.2711 0.075231C11.6413 0.235929 11.8613 0.621444 11.8112 1.0219L11.0299 7.27274H18.1818C18.5346 7.27274 18.8555 7.4768 19.0051 7.79623C19.1547 8.11567 19.106 8.49283 18.8802 8.76381L9.78935 19.6728C9.53099 19.9829 9.09917 20.0855 8.72897 19.9248C8.35878 19.7641 8.13884 19.3786 8.1889 18.9781L8.97026 12.7273H1.81828C1.46554 12.7273 1.14464 12.5232 0.995018 12.2038C0.845401 11.8843 0.894078 11.5072 1.1199 11.2362L10.2108 0.327154C10.4691 0.0171248 10.9009 -0.0854671 11.2711 0.075231ZM3.75921 10.9091H10.0001C10.2608 10.9091 10.509 11.0211 10.6816 11.2165C10.8541 11.412 10.9345 11.6722 10.9021 11.9309L10.3776 16.1268L16.2409 9.09091H10.0001C9.7393 9.09091 9.4911 8.97895 9.31853 8.78346C9.14596 8.58798 9.06564 8.32781 9.09799 8.06907L9.62247 3.87317L3.75921 10.9091Z" fill="#F5E6D6"/>
</svg>
