<svg width="42" height="18" viewBox="0 0 42 18" fill="none" xmlns="http://www.w3.org/2000/svg">
<rect x="1" y="1" width="40" height="16" rx="6" fill="#FFFAF5"/>
<rect x="1" y="1" width="40" height="16" rx="6" stroke="#F5E6D6"/>
<path fill-rule="evenodd" clip-rule="evenodd" d="M8.33333 7C8.33333 6.64638 8.19286 6.30724 7.94281 6.05719C7.69276 5.80714 7.35362 5.66667 7 5.66667C6.64638 5.66667 6.30724 5.80714 6.05719 6.05719C5.93338 6.181 5.83517 6.32799 5.76816 6.48976C5.70115 6.65152 5.66667 6.8249 5.66667 7L5.66667 8C5.66667 8.18409 5.51743 8.33333 5.33333 8.33333C5.14924 8.33333 5 8.18409 5 8L5 7C5 6.73736 5.05173 6.47728 5.15224 6.23463C5.25275 5.99198 5.40007 5.7715 5.58579 5.58579C5.96086 5.21071 6.46957 5 7 5C7.53043 5 8.03914 5.21071 8.41421 5.58579C8.78929 5.96086 9 6.46957 9 7L9 8C9 8.1841 8.85076 8.33333 8.66667 8.33333C8.48257 8.33333 8.33333 8.1841 8.33333 8L8.33333 7ZM8.66667 9.66667C8.85076 9.66667 9 9.81591 9 10L9 11C9 11.2626 8.94827 11.5227 8.84776 11.7654C8.74725 12.008 8.59993 12.2285 8.41421 12.4142C8.2285 12.5999 8.00802 12.7472 7.76537 12.8478C7.52272 12.9483 7.26264 13 7 13C6.73736 13 6.47728 12.9483 6.23463 12.8478C5.99198 12.7472 5.7715 12.5999 5.58579 12.4142C5.40007 12.2285 5.25275 12.008 5.15224 11.7654C5.05173 11.5227 5 11.2626 5 11L5 10C5 9.8159 5.14924 9.66667 5.33333 9.66667C5.51743 9.66667 5.66667 9.8159 5.66667 10L5.66667 11C5.66667 11.1751 5.70115 11.3485 5.76816 11.5102C5.83517 11.672 5.93338 11.819 6.05719 11.9428C6.181 12.0666 6.32799 12.1648 6.48976 12.2318C6.65152 12.2988 6.8249 12.3333 7 12.3333C7.1751 12.3333 7.34848 12.2988 7.51024 12.2318C7.67201 12.1648 7.819 12.0666 7.94281 11.9428C8.06662 11.819 8.16483 11.672 8.23184 11.5102C8.29885 11.3485 8.33333 11.1751 8.33333 11L8.33333 10C8.33333 9.81591 8.48257 9.66667 8.66667 9.66667ZM7 7.33333C7.18409 7.33333 7.33333 7.48257 7.33333 7.66667L7.33333 10.3333C7.33333 10.5174 7.18409 10.6667 7 10.6667C6.8159 10.6667 6.66667 10.5174 6.66667 10.3333L6.66667 7.66667C6.66667 7.48257 6.8159 7.33333 7 7.33333Z" fill="#BE957D"/>
<path d="M12.7161 4.5H15.3311V8H14.6411V5.16H13.4061V8H12.7161V4.5ZM18.9277 7.545C18.5744 7.895 18.1444 8.07 17.6377 8.07C17.131 8.07 16.701 7.895 16.3477 7.545C15.9977 7.18833 15.8227 6.75667 15.8227 6.25C15.8227 5.74 15.9977 5.31 16.3477 4.96C16.701 4.60667 17.131 4.43 17.6377 4.43C18.1444 4.43 18.5744 4.60667 18.9277 4.96C19.281 5.31 19.4577 5.74 19.4577 6.25C19.4577 6.76 19.281 7.19167 18.9277 7.545ZM16.8327 7.075C17.046 7.28833 17.3144 7.395 17.6377 7.395C17.961 7.395 18.2294 7.28833 18.4427 7.075C18.6594 6.85833 18.7677 6.58333 18.7677 6.25C18.7677 5.91667 18.6594 5.64167 18.4427 5.425C18.226 5.20833 17.9577 5.1 17.6377 5.1C17.3177 5.1 17.0494 5.20833 16.8327 5.425C16.616 5.64167 16.5077 5.91667 16.5077 6.25C16.5077 6.58333 16.616 6.85833 16.8327 7.075ZM22.5827 6.2L23.9277 8H23.1327L21.8827 6.36V8H21.1927V4.5H21.8827V6.045L23.0827 4.5H23.8777L22.5827 6.2ZM27.3567 8H26.6067L26.3967 7.37H25.0017L24.7917 8H24.0467L25.2717 4.5H26.1267L27.3567 8ZM25.7017 5.295L25.2217 6.725H26.1817L25.7017 5.295ZM27.6966 4.5H29.0016C29.3349 4.5 29.6182 4.61333 29.8516 4.84C30.0816 5.06667 30.1966 5.345 30.1966 5.675C30.1966 6.005 30.0816 6.28333 29.8516 6.51C29.6182 6.73667 29.3349 6.85 29.0016 6.85H28.3866V8H27.6966V4.5ZM28.3866 6.205H29.0016C29.1482 6.205 29.2699 6.155 29.3666 6.055C29.4632 5.95167 29.5116 5.825 29.5116 5.675C29.5116 5.52167 29.4632 5.395 29.3666 5.295C29.2699 5.195 29.1482 5.145 29.0016 5.145H28.3866V6.205ZM30.3223 4.5H32.8973V5.16H31.9523V8H31.2623V5.16H30.3223V4.5ZM33.9725 6.555V7.34H35.4475V8H33.2825V4.5H35.4225V5.16H33.9725V5.905H35.2975V6.555H33.9725ZM15.1769 14.07C14.6536 14.07 14.2186 13.895 13.8719 13.545C13.5286 13.1983 13.3569 12.7667 13.3569 12.25C13.3569 11.73 13.5286 11.2983 13.8719 10.955C14.2186 10.605 14.6536 10.43 15.1769 10.43C15.4936 10.43 15.7852 10.505 16.0519 10.655C16.3219 10.8017 16.5319 11.0017 16.6819 11.255L16.0869 11.6C16.0002 11.4433 15.8769 11.3217 15.7169 11.235C15.5569 11.145 15.3769 11.1 15.1769 11.1C14.8369 11.1 14.5619 11.2067 14.3519 11.42C14.1452 11.6367 14.0419 11.9133 14.0419 12.25C14.0419 12.5833 14.1452 12.8583 14.3519 13.075C14.5619 13.2883 14.8369 13.395 15.1769 13.395C15.3769 13.395 15.5569 13.3517 15.7169 13.265C15.8802 13.175 16.0036 13.0533 16.0869 12.9L16.6819 13.245C16.5319 13.4983 16.3219 13.7 16.0519 13.85C15.7852 13.9967 15.4936 14.07 15.1769 14.07ZM19.0958 11.89V10.5H19.7808V14H19.0958V12.55H17.7958V14H17.1058V10.5H17.7958V11.89H19.0958ZM21.121 12.555V13.34H22.596V14H20.431V10.5H22.571V11.16H21.121V11.905H22.446V12.555H21.121ZM23.0823 10.5H25.0723V11.16H23.7723V14H23.0823V10.5ZM28.1704 14H27.4804V11.865L25.9804 14H25.4554V10.5H26.1454V12.64L27.6454 10.5H28.1704V14ZM28.8196 10.5H30.1246C30.458 10.5 30.7413 10.6133 30.9746 10.84C31.2046 11.0667 31.3196 11.345 31.3196 11.675C31.3196 12.005 31.2046 12.2833 30.9746 12.51C30.7413 12.7367 30.458 12.85 30.1246 12.85H29.5096V14H28.8196V10.5ZM29.5096 12.205H30.1246C30.2713 12.205 30.393 12.155 30.4896 12.055C30.5863 11.9517 30.6346 11.825 30.6346 11.675C30.6346 11.5217 30.5863 11.395 30.4896 11.295C30.393 11.195 30.2713 11.145 30.1246 11.145H29.5096V12.205ZM34.4838 14H33.7938V11.865L32.2938 14H31.7688V10.5H32.4588V12.64L33.9588 10.5H34.4838V14Z" fill="#BE957D"/>
</svg>
