<svg width="14" height="14" viewBox="0 0 14 14" fill="none" xmlns="http://www.w3.org/2000/svg">
<path fill-rule="evenodd" clip-rule="evenodd" d="M0.249878 12.228C1.26195 11.2159 1.82937 10.6485 2.84144 9.63645L4.11336 10.9084L1.5218 13.4999L0.249878 12.228Z" fill="#BE967D"/>
<path d="M10.275 9.70441C9.48184 10.5004 8.37909 10.9925 7.1609 10.9925C5.94431 10.9925 4.84325 10.498 4.0473 9.70245C3.24974 8.9089 2.75733 7.80673 2.75733 6.58934C2.75733 5.37075 3.24971 4.26791 4.04406 3.47477C4.84322 2.67881 5.94431 2.18449 7.1609 2.18449C8.37909 2.18449 9.48184 2.67699 10.275 3.47134C11.0709 4.2705 11.5653 5.37316 11.5653 6.58934C11.5653 7.80553 11.0709 8.90645 10.275 9.70441ZM7.1609 12.677C8.83821 12.677 10.3628 11.9949 11.4639 10.8914C12.5666 9.79311 13.2499 8.27027 13.2499 6.58934C13.2499 4.90802 12.5666 3.38391 11.4663 2.28361C10.3628 1.18211 8.83821 0.499939 7.1609 0.499939C5.47957 0.499939 3.95669 1.18331 2.85639 2.28361C1.75489 3.38712 1.07278 4.91163 1.07278 6.58934C1.07278 8.26586 1.75484 9.7899 2.85835 10.8914C3.95664 11.9937 5.47957 12.677 7.1609 12.677Z" fill="#BE967D"/>
</svg>
