<svg width="46" height="10" viewBox="0 0 46 10" fill="none" xmlns="http://www.w3.org/2000/svg">
<rect x="0.5" y="0.5" width="45" height="9" rx="4.5" fill="white"/>
<rect x="0.5" y="0.5" width="45" height="9" rx="4.5" stroke="#F6E9DB"/>
<path d="M10.2962 3.68848L10.0141 3.4584C9.9116 3.38951 9.80311 3.33042 9.69462 3.28704L9.35097 3.18329L8.9842 3.14845L8.61744 3.18329L8.27379 3.28704L7.95558 3.4571L7.67216 3.68848L7.44081 3.97039L7.27061 4.29014L7.16687 4.63369L7.13195 4.99983L7.16687 5.36636L7.27061 5.70991L7.44081 6.02803L7.67216 6.31248L7.9522 6.54295L8.27379 6.71391L8.62004 6.81766L8.9842 6.85251L9.34837 6.81766L9.69462 6.71391L10.0167 6.54295L10.2962 6.31248L10.5276 6.02927L10.6991 5.71121C10.7438 5.6049 10.7799 5.48671 10.8028 5.36382L10.8378 4.99983L10.8028 4.63583L10.6991 4.29014L10.5268 3.97039L10.2962 3.68848ZM8.63445 3.51965H9.33136C9.36029 3.51965 9.38706 3.54513 9.38706 3.57532L9.35564 4.54656L9.27865 5.47224C9.2761 5.50116 9.25178 5.52285 9.22413 5.52285L8.74766 5.52415C8.71788 5.52415 8.69235 5.49776 8.69235 5.46757L8.61536 4.56356L8.57927 3.57532C8.57927 3.54513 8.60424 3.51965 8.63445 3.51965ZM8.98291 5.78563C9.19902 5.78563 9.37395 5.96041 9.37395 6.17642C9.37395 6.39328 9.19902 6.56806 8.98291 6.56806C8.76594 6.56806 8.59238 6.39328 8.59238 6.17642C8.59238 5.96041 8.76594 5.78563 8.98291 5.78563ZM8.9842 2.40002C9.1565 2.40002 9.32664 2.41789 9.4917 2.45063C9.65591 2.48295 9.82104 2.53396 9.97674 2.59902C10.1358 2.66536 10.2876 2.74577 10.4263 2.83889C10.5735 2.93882 10.7063 3.04722 10.8208 3.16415C10.9416 3.28364 11.0522 3.41972 11.1475 3.55962C11.2394 3.69824 11.3223 3.85005 11.3839 4.00653C11.4503 4.16089 11.501 4.32627 11.5338 4.48998C11.5661 4.65411 11.5844 4.82762 11.5844 4.99983C11.5844 5.17332 11.5661 5.34597 11.5338 5.50968C11.501 5.67594 11.4503 5.84135 11.3839 5.99442C11.3163 6.15601 11.2355 6.30652 11.1453 6.44387C11.0513 6.58504 10.9403 6.71772 10.8208 6.83551C10.7025 6.95499 10.5701 7.06597 10.4276 7.16122C10.2864 7.25392 10.1346 7.33469 9.97804 7.40103C9.82233 7.46609 9.65721 7.51667 9.493 7.54942C9.32794 7.58173 9.1565 7.60002 8.9842 7.60002C8.81191 7.60002 8.64179 7.58173 8.47801 7.54942C8.31379 7.51667 8.14867 7.46609 7.99297 7.40103C7.83386 7.33469 7.68206 7.25394 7.54337 7.16252C7.40341 7.06727 7.26722 6.95627 7.14896 6.83551C7.02941 6.71772 6.91838 6.58502 6.82309 6.44257C6.73035 6.30183 6.64955 6.14961 6.58446 5.99313C6.5181 5.8375 6.46736 5.67252 6.43503 5.50838C6.40227 5.3434 6.3844 5.17247 6.3844 4.99983C6.3844 4.82762 6.40227 4.65626 6.43503 4.49128C6.46736 4.32757 6.5181 4.16212 6.58446 4.00777C6.65211 3.84533 6.73422 3.69443 6.82568 3.55709C6.91715 3.41719 7.02811 3.28366 7.14766 3.16545C7.2672 3.04469 7.40086 2.93414 7.54337 2.83889C7.68206 2.74705 7.83386 2.66536 7.99297 2.59902C8.14867 2.53396 8.31379 2.48295 8.47801 2.45063C8.64179 2.41789 8.81191 2.40002 8.9842 2.40002Z" fill="#BE957D"/>
<path d="M15.4819 7.27498C14.8236 7.27498 14.2798 7.05623 13.8507 6.61873C13.4215 6.18123 13.2069 5.64164 13.2069 4.99998C13.2069 4.35414 13.4215 3.81456 13.8507 3.38123C14.2798 2.94373 14.8236 2.72498 15.4819 2.72498C15.8777 2.72498 16.2423 2.81873 16.5757 3.00623C16.9132 3.18956 17.1757 3.43956 17.3632 3.75623L16.6194 4.18748C16.5111 3.99164 16.3569 3.83956 16.1569 3.73123C15.9569 3.61873 15.7319 3.56248 15.4819 3.56248C15.0569 3.56248 14.7132 3.69581 14.4507 3.96248C14.1923 4.22914 14.0632 4.57498 14.0632 4.99998C14.0632 5.42081 14.1923 5.76456 14.4507 6.03123C14.7132 6.29789 15.0569 6.43123 15.4819 6.43123C15.7319 6.43123 15.9569 6.37706 16.1569 6.26873C16.3611 6.15623 16.5152 6.00414 16.6194 5.81248L17.3632 6.24373C17.1757 6.56039 16.9152 6.81248 16.5819 6.99998C16.2486 7.18331 15.8819 7.27498 15.4819 7.27498Z" fill="#BE957D"/>
<path d="M20.3805 2.81248H21.2367V7.18748H20.3805V5.37498H18.7555V7.18748H17.893V2.81248H18.7555V4.54998H20.3805V2.81248Z" fill="#BE957D"/>
<path d="M22.912 6.36247H24.7557V7.18748H22.0495V2.81248H24.7245V3.63748H22.912V4.56873H24.5682V5.38123H22.912V6.36247Z" fill="#BE957D"/>
<path d="M27.8512 2.81248V3.63748H26.2262V7.18748H25.3637V2.81248H27.8512Z" fill="#BE957D"/>
<path d="M30.8613 7.18748V4.51873L28.9863 7.18748H28.33V2.81248H29.1925V5.48748L31.0675 2.81248H31.7238V7.18748H30.8613Z" fill="#BE957D"/>
<path d="M34.1666 2.81248C34.5874 2.81248 34.9416 2.95414 35.2291 3.23748C35.5166 3.52081 35.6603 3.86873 35.6603 4.28123C35.6603 4.69373 35.5166 5.04164 35.2291 5.32498C34.9416 5.60831 34.5874 5.74998 34.1666 5.74998H33.3978V7.18748H32.5353V2.81248H34.1666ZM34.1666 4.94373C34.3499 4.94373 34.502 4.88123 34.6228 4.75623C34.7437 4.62706 34.8041 4.46873 34.8041 4.28123C34.8041 4.08956 34.7437 3.93123 34.6228 3.80623C34.502 3.68123 34.3499 3.61873 34.1666 3.61873H33.3978V4.94373H34.1666Z" fill="#BE957D"/>
<path d="M38.7531 7.18748V4.51873L36.8781 7.18748H36.2218V2.81248H37.0843V5.48748L38.9593 2.81248H39.6156V7.18748H38.7531Z" fill="#BE957D"/>
</svg>
