<svg width="41" height="41" viewBox="0 0 41 41" fill="none" xmlns="http://www.w3.org/2000/svg">
<path d="M0.5 20.5C0.5 11.7254 0.5 7.33815 2.92341 4.38521C3.36706 3.84462 3.86275 3.34894 4.40334 2.90529C7.35628 0.481873 11.7436 0.481873 20.5181 0.481873C29.2927 0.481873 33.68 0.481873 36.6329 2.90529C37.1735 3.34894 37.6692 3.84462 38.1128 4.38521C40.5362 7.33815 40.5362 11.7254 40.5362 20.5C40.5362 29.2745 40.5362 33.6618 38.1128 36.6148C37.6692 37.1554 37.1735 37.651 36.6329 38.0947C33.68 40.5181 29.2927 40.5181 20.5181 40.5181C11.7436 40.5181 7.35628 40.5181 4.40334 38.0947C3.86275 37.651 3.36706 37.1554 2.92341 36.6148C0.5 33.6618 0.5 29.2745 0.5 20.5Z" fill="#0077FF"/>
<path d="M21.71 28.5073C12.5908 28.5073 7.38943 22.4958 7.1727 12.4928H11.7406C11.8907 19.8348 15.2582 22.9447 17.9256 23.5859V12.4928H22.227V18.8249C24.8611 18.5523 27.6282 15.6668 28.5618 12.4928H32.8631C32.1462 16.4042 29.1454 19.2897 27.0114 20.476C29.1454 21.4378 32.5632 23.9546 33.8635 28.5073H29.1287C28.1117 25.4615 25.5779 23.105 22.227 22.7844V28.5073H21.71Z" fill="white"/>
<path fill-rule="evenodd" clip-rule="evenodd" d="M21.71 28.5073C12.5908 28.5073 7.38943 22.4958 7.1727 12.4928H11.7406C11.8907 19.8348 15.2582 22.9447 17.9256 23.5859V12.4928H22.227V18.8249C24.8611 18.5523 27.6282 15.6668 28.5618 12.4928H32.8631C32.1462 16.4042 29.1454 19.2897 27.0114 20.476C29.1454 21.4378 32.5632 23.9546 33.8635 28.5073H29.1287C28.1117 25.4615 25.5779 23.105 22.227 22.7844V28.5073H21.71Z" fill="white"/>
</svg>
