<svg width="41" height="41" viewBox="0 0 41 41" fill="none" xmlns="http://www.w3.org/2000/svg">
<path d="M0.57251 20.5C0.57251 11.7254 0.57251 7.33815 2.99592 4.38521C3.43957 3.84462 3.93526 3.34894 4.47585 2.90529C7.42879 0.481873 11.8161 0.481873 20.5906 0.481873C29.3652 0.481873 33.7525 0.481873 36.7054 2.90529C37.246 3.34894 37.7417 3.84462 38.1853 4.38521C40.6087 7.33815 40.6087 11.7254 40.6087 20.5C40.6087 29.2745 40.6087 33.6618 38.1853 36.6148C37.7417 37.1554 37.246 37.651 36.7054 38.0947C33.7525 40.5181 29.3652 40.5181 20.5906 40.5181C11.8161 40.5181 7.42879 40.5181 4.47585 38.0947C3.93526 37.651 3.43957 37.1554 2.99592 36.6148C0.57251 33.6618 0.57251 29.2745 0.57251 20.5Z" fill="#FF0302"/>
<path d="M33.378 14.0753C33.2271 13.5111 32.9297 12.9962 32.5155 12.5821C32.1014 12.168 31.5851 11.8692 31.0182 11.7157C28.9315 11.1582 20.5906 11.1582 20.5906 11.1582C20.5906 11.1582 12.2497 11.1582 10.163 11.7157C9.59616 11.8692 9.07983 12.168 8.66571 12.5821C8.25159 12.9962 7.9542 13.5111 7.8033 14.0753C7.24522 16.1576 7.24522 20.5 7.24522 20.5C7.24522 20.5 7.24522 24.8424 7.8033 26.9247C7.9542 27.4889 8.25159 28.0038 8.66571 28.4179C9.07983 28.832 9.59616 29.1307 10.163 29.2843C12.2497 29.8418 20.5906 29.8418 20.5906 29.8418C20.5906 29.8418 28.9315 29.8418 31.0182 29.2843C31.5851 29.1307 32.1014 28.832 32.5155 28.4179C32.9297 28.0038 33.2271 27.4889 33.378 26.9247C33.936 24.8424 33.936 20.5 33.936 20.5C33.936 20.5 33.936 16.1576 33.378 14.0753Z" fill="white"/>
<path d="M17.8609 24.4432V16.5569L24.8369 20.5L17.8609 24.4432Z" fill="#FF0302"/>
</svg>
