<svg width="41" height="41" viewBox="0 0 41 41" fill="none" xmlns="http://www.w3.org/2000/svg">
<path d="M0.0362549 20.5C0.0362549 11.7254 0.0362549 7.33815 2.45967 4.38521C2.90332 3.84462 3.39901 3.34894 3.93959 2.90529C6.89253 0.481873 11.2798 0.481873 20.0544 0.481873C28.8289 0.481873 33.2162 0.481873 36.1691 2.90529C36.7097 3.34894 37.2054 3.84462 37.6491 4.38521C40.0725 7.33815 40.0725 11.7254 40.0725 20.5C40.0725 29.2745 40.0725 33.6618 37.6491 36.6148C37.2054 37.1554 36.7097 37.651 36.1691 38.0947C33.2162 40.5181 28.8289 40.5181 20.0544 40.5181C11.2798 40.5181 6.89253 40.5181 3.93959 38.0947C3.39901 37.651 2.90332 37.1554 2.45967 36.6148C0.0362549 33.6618 0.0362549 29.2745 0.0362549 20.5Z" fill="#0077FF"/>
<path fill-rule="evenodd" clip-rule="evenodd" d="M7.20928 18.8302C14.374 15.4402 19.1516 13.2053 21.5421 12.1255C28.3675 9.04244 29.7857 8.50689 30.7101 8.4892C30.9134 8.48531 31.368 8.54003 31.6625 8.79952C31.9111 9.01862 31.9795 9.3146 32.0123 9.52234C32.045 9.73008 32.0858 10.2033 32.0534 10.5731C31.6835 14.7935 30.0831 25.0354 29.2689 29.7624C28.9244 31.7626 28.246 32.4332 27.5893 32.4988C26.162 32.6415 25.0783 31.4745 23.6959 30.4904C21.5328 28.9505 20.3108 27.992 18.2111 26.4893C15.7846 24.7527 17.3576 23.7983 18.7405 22.2384C19.1024 21.8302 25.3908 15.6185 25.5125 15.055C25.5278 14.9845 25.5419 14.7218 25.3982 14.5831C25.2545 14.4444 25.0424 14.4918 24.8893 14.5295C24.6724 14.583 21.2168 17.0635 14.5225 21.9709C13.5417 22.7023 12.6532 23.0587 11.8572 23.0401C10.9797 23.0195 9.29167 22.5012 8.0368 22.0582C6.49765 21.5149 5.27437 21.2276 5.38089 20.3048C5.43637 19.8242 6.04584 19.3327 7.20928 18.8302Z" fill="white"/>
</svg>
