<svg width="41" height="41" viewBox="0 0 41 41" fill="none" xmlns="http://www.w3.org/2000/svg">
<path d="M0.108719 20.5C0.108719 11.7254 0.108719 7.33815 2.53213 4.38521C2.97578 3.84462 3.47147 3.34894 4.01206 2.90529C6.965 0.481873 11.3523 0.481873 20.1268 0.481873C28.9014 0.481873 33.2887 0.481873 36.2416 2.90529C36.7822 3.34894 37.2779 3.84462 37.7215 4.38521C40.145 7.33815 40.145 11.7254 40.145 20.5C40.145 29.2745 40.145 33.6618 37.7215 36.6148C37.2779 37.1554 36.7822 37.651 36.2416 38.0947C33.2887 40.5181 28.9014 40.5181 20.1268 40.5181C11.3523 40.5181 6.965 40.5181 4.01206 38.0947C3.47147 37.651 2.97578 37.1554 2.53213 36.6148C0.108719 33.6618 0.108719 29.2745 0.108719 20.5Z" fill="#E1BBA6"/>
<path fill-rule="evenodd" clip-rule="evenodd" d="M14.4249 8.43415C17.1481 7.14722 20.2266 6.81936 23.1598 7.50388C26.093 8.1884 28.7084 9.84505 30.5807 12.2044C32.453 14.5638 33.4721 17.4872 33.4723 20.4992V21.7125C33.4723 22.9996 32.961 24.2339 32.0509 25.144C31.1408 26.0541 29.9065 26.5654 28.6194 26.5654C27.3324 26.5654 26.098 26.0541 25.1879 25.144C24.9953 24.9514 24.8205 24.7442 24.6647 24.5251C23.5534 25.7767 21.9323 26.5654 20.1269 26.5654C16.7767 26.5654 14.0608 23.8495 14.0608 20.4993C14.0608 17.1491 16.7767 14.4332 20.1269 14.4332C21.4925 14.4332 22.7527 14.8845 23.7665 15.646C23.7668 14.9762 24.3099 14.4332 24.9798 14.4332C25.6498 14.4332 26.193 14.9764 26.193 15.6464V21.7125C26.193 22.3561 26.4486 22.9732 26.9037 23.4283C27.3587 23.8833 27.9759 24.139 28.6194 24.139C29.263 24.139 29.8801 23.8833 30.3352 23.4283C30.7902 22.9732 31.0459 22.3561 31.0459 21.7125V20.4994C31.0457 18.035 30.2119 15.6431 28.68 13.7127C27.1481 11.7823 25.0083 10.4269 22.6084 9.86683C20.2085 9.30676 17.6897 9.57501 15.4616 10.628C13.2335 11.6809 11.4271 13.4566 10.3361 15.6664C9.24517 17.8761 8.93382 20.3899 9.45269 22.7991C9.97156 25.2082 11.2901 27.371 13.194 28.9357C15.0979 30.5004 17.4751 31.3751 19.9392 31.4174C22.4032 31.4598 24.8091 30.6674 26.7656 29.1691C27.2976 28.7617 28.0591 28.8627 28.4665 29.3946C28.8739 29.9266 28.7729 30.6881 28.2409 31.0955C25.8495 32.9268 22.909 33.8953 19.8974 33.8435C16.8859 33.7917 13.9804 32.7227 11.6534 30.8103C9.32642 28.8978 7.71482 26.2544 7.08064 23.3099C6.44647 20.3654 6.82702 17.293 8.16041 14.5922C9.4938 11.8914 11.7016 9.72108 14.4249 8.43415ZM23.7665 20.4993C23.7665 18.4892 22.137 16.8597 20.1269 16.8597C18.1168 16.8597 16.4872 18.4892 16.4872 20.4993C16.4872 22.5094 18.1168 24.139 20.1269 24.139C22.137 24.139 23.7665 22.5094 23.7665 20.4993Z" fill="white"/>
</svg>
