<svg width="19" height="18" viewBox="0 0 19 18" fill="none" xmlns="http://www.w3.org/2000/svg">
<path fill-rule="evenodd" clip-rule="evenodd" d="M4.98586 11.3921C4.99931 11.8318 4.11076 15.4057 3.95724 16.1485C3.4039 18.8094 6.44774 16.4677 7.10994 16.0896C7.48028 15.8786 9.36711 14.6902 9.53277 14.695L13.1642 16.8277C13.5098 17.0378 14.0506 17.4403 14.5116 17.4234C15.6191 17.38 14.9344 15.6552 14.7279 14.6286C14.6161 14.0725 14.5029 13.602 14.3776 13.0445C14.2791 12.6061 14.0579 11.8305 14.0319 11.3921C14.2743 11.1219 14.7561 10.7411 15.0267 10.5067C15.5896 10.0194 17.8819 8.06599 18.0701 7.76278C18.9122 6.407 16.3073 6.51991 15.8147 6.46707C14.6872 6.34535 13.3819 6.31246 12.2878 6.13184L11.1052 3.40479C10.8667 2.84386 10.279 1.03274 9.70011 0.875504C9.09647 0.712204 8.81767 1.33741 8.64291 1.73288L6.87271 5.86561C6.72527 6.22426 6.67623 6.15787 6.25819 6.19079L1.76039 6.59635C1.18753 6.65136 0.629363 6.98041 0.876547 7.59939C1.03266 7.99097 2.49194 9.18692 2.87529 9.52088L4.46332 10.9131C4.60469 11.0274 4.84926 11.2042 4.98586 11.3921Z" fill="#FFCC00" stroke="#FFCC00" stroke-width="0.935977"/>
</svg>
