<svg width="14" height="14" viewBox="0 0 14 14" fill="none" xmlns="http://www.w3.org/2000/svg">
<path fill-rule="evenodd" clip-rule="evenodd" d="M2.33333 0H3.88889C5.17755 0 6.22222 1.04467 6.22222 2.33333V3.88889C6.22222 5.17755 5.17755 6.22222 3.88889 6.22222H2.33333C1.04467 6.22222 0 5.17755 0 3.88889V2.33333C0 1.04467 1.04467 0 2.33333 0ZM3.88889 14H2.33333C1.04467 14 0 12.9553 0 11.6667V10.1111C0 8.82245 1.04467 7.77778 2.33333 7.77778H3.88889C5.17755 7.77778 6.22222 8.82245 6.22222 10.1111V11.6667C6.22222 12.9553 5.17755 14 3.88889 14ZM10.1111 0H11.6667C12.9553 0 14 1.04467 14 2.33333V3.88889C14 5.17755 12.9553 6.22222 11.6667 6.22222H10.1111C8.82245 6.22222 7.77778 5.17755 7.77778 3.88889V2.33333C7.77778 1.04467 8.82245 0 10.1111 0ZM10.1111 7.77778H11.6667C12.9553 7.77778 14 8.82245 14 10.1111V11.6667C14 12.9553 12.9553 14 11.6667 14H10.1111C8.82245 14 7.77778 12.9553 7.77778 11.6667V10.1111C7.77778 8.82245 8.82245 7.77778 10.1111 7.77778ZM2.33333 1.55556C1.90378 1.55556 1.55556 1.90378 1.55556 2.33333V3.88889C1.55556 4.31844 1.90378 4.66667 2.33333 4.66667H3.88889C4.31844 4.66667 4.66667 4.31844 4.66667 3.88889V2.33333C4.66667 1.90378 4.31844 1.55556 3.88889 1.55556H2.33333ZM2.33333 9.33333C1.90378 9.33333 1.55556 9.68156 1.55556 10.1111V11.6667C1.55556 12.0962 1.90378 12.4444 2.33333 12.4444H3.88889C4.31844 12.4444 4.66667 12.0962 4.66667 11.6667V10.1111C4.66667 9.68156 4.31844 9.33333 3.88889 9.33333H2.33333ZM9.33333 2.33333C9.33333 1.90378 9.68156 1.55556 10.1111 1.55556H11.6667C12.0962 1.55556 12.4444 1.90378 12.4444 2.33333V3.88889C12.4444 4.31844 12.0962 4.66667 11.6667 4.66667H10.1111C9.68156 4.66667 9.33333 4.31844 9.33333 3.88889V2.33333ZM10.1111 9.33333C9.68156 9.33333 9.33333 9.68156 9.33333 10.1111V11.6667C9.33333 12.0962 9.68156 12.4444 10.1111 12.4444H11.6667C12.0962 12.4444 12.4444 12.0962 12.4444 11.6667V10.1111C12.4444 9.68156 12.0962 9.33333 11.6667 9.33333H10.1111Z" fill="#240405"/>
</svg>
