<svg width="34" height="34" viewBox="0 0 34 34" fill="none" xmlns="http://www.w3.org/2000/svg">
<rect width="34" height="34" rx="10.4" fill="white"/>
<path fill-rule="evenodd" clip-rule="evenodd" d="M8.23632 17C8.33346 17.1679 8.46226 17.3818 8.6218 17.6289C9.0316 18.2634 9.63847 19.1072 10.4264 19.9476C12.0183 21.6457 14.2441 23.2222 17.0001 23.2222C19.7561 23.2222 21.9819 21.6457 23.5738 19.9476C24.3617 19.1072 24.9686 18.2634 25.3784 17.6289C25.5379 17.3818 25.6667 17.1679 25.7639 17C25.6667 16.8321 25.5379 16.6182 25.3784 16.3711C24.9686 15.7366 24.3617 14.8928 23.5738 14.0524C21.9819 12.3543 19.7561 10.7778 17.0001 10.7778C14.2441 10.7778 12.0183 12.3543 10.4264 14.0524C9.63847 14.8928 9.0316 15.7366 8.6218 16.3711C8.46226 16.6182 8.33346 16.8321 8.23632 17ZM26.7779 17C27.5729 16.6025 27.5726 16.6019 27.5726 16.6019L27.5712 16.599L27.5681 16.5929L27.558 16.5732C27.5495 16.5567 27.5376 16.5336 27.5221 16.5044C27.4912 16.446 27.4463 16.3629 27.3877 16.2587C27.2705 16.0503 27.098 15.7569 26.8718 15.4066C26.4205 14.7078 25.7496 13.7739 24.8708 12.8365C23.1295 10.9791 20.4663 9 17.0001 9C13.5339 9 10.8708 10.9791 9.1294 12.8365C8.25062 13.7739 7.57972 14.7078 7.1284 15.4066C6.90219 15.7569 6.72969 16.0503 6.61252 16.2587C6.5539 16.3629 6.50903 16.446 6.4781 16.5044C6.46264 16.5336 6.45066 16.5567 6.44218 16.5732L6.43209 16.5929L6.42903 16.599L6.42799 16.6011C6.42799 16.6011 6.42728 16.6025 7.22232 17L6.42728 16.6025C6.30215 16.8527 6.30215 17.1473 6.42728 17.3975L7.22232 17C6.42728 17.3975 6.42728 17.3975 6.42728 17.3975L6.42903 17.401L6.43209 17.4071L6.44218 17.4268C6.45066 17.4433 6.46264 17.4664 6.4781 17.4956C6.50903 17.554 6.5539 17.6371 6.61252 17.7413C6.72969 17.9497 6.90219 18.2431 7.1284 18.5934C7.57972 19.2922 8.25062 20.2261 9.1294 21.1635C10.8708 23.0209 13.5339 25 17.0001 25C20.4663 25 23.1295 23.0209 24.8708 21.1635C25.7496 20.2261 26.4205 19.2922 26.8718 18.5934C27.098 18.2431 27.2705 17.9497 27.3877 17.7413C27.4463 17.6371 27.4912 17.554 27.5221 17.4956C27.5376 17.4664 27.5495 17.4433 27.558 17.4268L27.5681 17.4071L27.5712 17.401L27.5722 17.3989C27.5722 17.3989 27.5729 17.3975 26.7779 17ZM26.7779 17L27.5729 17.3975C27.698 17.1473 27.6977 16.8521 27.5726 16.6019L26.7779 17Z" fill="#BE957D"/>
<path fill-rule="evenodd" clip-rule="evenodd" d="M17.0001 15.2222C16.0183 15.2222 15.2223 16.0182 15.2223 17C15.2223 17.9818 16.0183 18.7778 17.0001 18.7778C17.9819 18.7778 18.7779 17.9818 18.7779 17C18.7779 16.0182 17.9819 15.2222 17.0001 15.2222ZM13.4445 17C13.4445 15.0363 15.0364 13.4444 17.0001 13.4444C18.9638 13.4444 20.5557 15.0363 20.5557 17C20.5557 18.9637 18.9638 20.5556 17.0001 20.5556C15.0364 20.5556 13.4445 18.9637 13.4445 17Z" fill="#BE957D"/>
</svg>
