<svg width="27" height="26" viewBox="0 0 27 26" fill="none" xmlns="http://www.w3.org/2000/svg">
<path d="M0.5 13C0.5 7.3017 0.5 4.45255 2.07379 2.53487C2.3619 2.18381 2.68381 1.8619 3.03487 1.57379C4.95255 0 7.8017 0 13.5 0C19.1983 0 22.0475 0 23.9651 1.57379C24.3162 1.8619 24.6381 2.18381 24.9262 2.53487C26.5 4.45255 26.5 7.3017 26.5 13C26.5 18.6983 26.5 21.5475 24.9262 23.4651C24.6381 23.8162 24.3162 24.1381 23.9651 24.4262C22.0475 26 19.1983 26 13.5 26C7.8017 26 4.95255 26 3.03487 24.4262C2.68381 24.1381 2.3619 23.8162 2.07379 23.4651C0.5 21.5475 0.5 18.6983 0.5 13Z" fill="#0077FF"/>
<path d="M14.2741 18.1998C8.35196 18.1998 4.97412 14.2959 4.83337 7.7998H7.79985C7.89729 12.5678 10.0842 14.5874 11.8165 15.0038V7.7998H14.6098V11.9119C16.3204 11.7349 18.1174 9.86107 18.7237 7.7998H21.517C21.0515 10.3399 19.1027 12.2138 17.7169 12.9842C19.1027 13.6088 21.3222 15.2432 22.1667 18.1998H19.0919C18.4314 16.2218 16.786 14.6915 14.6098 14.4833V18.1998H14.2741Z" fill="white"/>
<path fill-rule="evenodd" clip-rule="evenodd" d="M14.2741 18.1998C8.35196 18.1998 4.97412 14.2959 4.83337 7.7998H7.79985C7.89729 12.5678 10.0842 14.5874 11.8165 15.0038V7.7998H14.6098V11.9119C16.3204 11.7349 18.1174 9.86107 18.7237 7.7998H21.517C21.0515 10.3399 19.1027 12.2138 17.7169 12.9842C19.1027 13.6088 21.3222 15.2432 22.1667 18.1998H19.0919C18.4314 16.2218 16.786 14.6915 14.6098 14.4833V18.1998H14.2741Z" fill="white"/>
</svg>
