<svg width="20" height="20" viewBox="0 0 20 20" fill="none" xmlns="http://www.w3.org/2000/svg">
<path d="M10.0917 2.31148C10.7905 1.55303 12.0265 2.29911 11.6809 3.27076L10.1224 7.65271C10.0193 7.94274 10.0635 8.26482 10.241 8.51633C10.4185 8.76784 10.7071 8.91742 11.0149 8.91742H15.828C16.6534 8.91742 17.0839 9.89952 16.5247 10.5065L9.90822 17.6885C9.20948 18.447 7.97344 17.7009 8.31902 16.7292L9.87755 12.3473C9.98071 12.0573 9.9365 11.7352 9.759 11.4837C9.58151 11.2322 9.29288 11.0826 8.98504 11.0826H4.17193C3.34657 11.0826 2.91601 10.1005 3.47523 9.49352L10.0917 2.31148Z" fill="#FFA800"/>
</svg>
