<svg width="6" height="6" fill="none" xmlns="http://www.w3.org/2000/svg"><path fill-rule="evenodd" clip-rule="evenodd" d="M4.457.49c.486.334.865.971 1.12 1.603C5.84 2.74 6 3.456 6 4c0 .184-.15.333-.333.333H.333A.333.333 0 010 4c0-.544.161-1.26.423-1.907C.678 1.46 1.057.824 1.543.49c.805-.653 2.109-.653 2.914 0zm-.412.525c-.562-.464-1.528-.464-2.09 0a.336.336 0 01-.026.02c-.324.217-.645.706-.888 1.307-.184.454-.306.93-.353 1.325h4.624a5.388 5.388 0 00-.353-1.325c-.243-.601-.564-1.09-.888-1.308a.337.337 0 01-.026-.02zM1.764 5.098c.13-.13.341-.13.471 0a.757.757 0 00.293.163c.139.046.302.072.472.072.17 0 .333-.026.472-.072a.757.757 0 00.293-.164.333.333 0 11.47.472 1.413 1.413 0 01-.553.325C3.47 5.964 3.235 6 3 6c-.235 0-.47-.036-.682-.106a1.413 1.413 0 01-.553-.325.333.333 0 01-.001-.471z" fill="#BE957D"/></svg>