<svg width="6" height="6" fill="none" xmlns="http://www.w3.org/2000/svg"><path fill-rule="evenodd" clip-rule="evenodd" d="M.9.6a.3.3 0 00-.3.3v4.2a.3.3 0 00.3.3h1.2a.3.3 0 010 .6H.9a.9.9 0 01-.9-.9V.9A.9.9 0 01.9 0h1.2a.3.3 0 110 .6H.9zm3.088.688a.3.3 0 01.424 0l1.5 1.5a.3.3 0 010 .424l-1.5 1.5a.3.3 0 11-.424-.424L5.276 3 3.988 1.712a.3.3 0 010-.424z" fill="#BE957D"/><path fill-rule="evenodd" clip-rule="evenodd" d="M1.8 3a.3.3 0 01.3-.3h3.6a.3.3 0 110 .6H2.1a.3.3 0 01-.3-.3z" fill="#BE957D"/></svg>