<svg width="31" height="45" fill="none" xmlns="http://www.w3.org/2000/svg"><g clip-path="url(#clip0_130_112)"><path fill-rule="evenodd" clip-rule="evenodd" d="M26.2 40.155a2.993 2.993 0 01-2.2.916c-.856 0-1.59-.304-2.2-.916a2.995 2.995 0 01-.916-2.2c0-.856.304-1.589.916-2.2a2.994 2.994 0 012.2-.916c.856 0 1.59.305 2.2.916.612.611.916 1.344.916 2.2 0 .856-.304 1.59-.916 2.2zm-4.07-8.177l-.99-9.715v-7.334h5.683v7.334l-.952 9.715h-3.742zM24 4c13.255 0 24 10.745 24 24S37.255 52 24 52 0 41.255 0 28 10.745 4 24 4z" fill="#F5E6D6"/><path fill-rule="evenodd" clip-rule="evenodd" d="M20 4a4 4 0 108 0 4 4 0 00-8 0zm4 2.702a2.702 2.702 0 110-5.404 2.702 2.702 0 010 5.404z" fill="#FFFAF5"/><path fill-rule="evenodd" clip-rule="evenodd" d="M24 .649a3.35 3.35 0 110 6.702 3.35 3.35 0 010-6.702z" fill="#DE1C23"/><path d="M24.307 5.697a.416.416 0 01-.307.128.416.416 0 01-.307-.128.418.418 0 01-.128-.307c0-.12.043-.222.128-.307A.417.417 0 0124 4.955c.12 0 .222.042.307.128a.418.418 0 01.128.307c0 .12-.042.222-.128.307zm-.568-1.142L23.6 3.2V2.175h.793v1.024l-.133 1.356h-.522z" fill="#FFFEFE"/></g><defs><clipPath id="clip0_130_112"><path fill="#fff" d="M0 0h31v45H0z"/></clipPath></defs></svg>