<svg width="6" height="6" fill="none" xmlns="http://www.w3.org/2000/svg"><path d="M0 3C0 1.685 0 1.028.363.585A1.6 1.6 0 01.585.363C1.028 0 1.685 0 3 0s1.972 0 2.415.363a1.6 1.6 0 01.222.222C6 1.028 6 1.685 6 3s0 1.972-.363 2.415a1.6 1.6 0 01-.222.222C4.972 6 4.315 6 3 6S1.028 6 .585 5.637a1.6 1.6 0 01-.222-.222C0 4.972 0 4.315 0 3z" fill="#BE957D"/><path d="M3.179 4.2C1.812 4.2 1.032 3.3 1 1.8h.685c.022 1.1.527 1.566.926 1.662V1.8h.645v.949c.395-.04.81-.473.95-.949h.644c-.107.586-.557 1.019-.877 1.196.32.145.832.522 1.027 1.204h-.71c-.152-.456-.532-.81-1.034-.858V4.2H3.18z" fill="#FFFEFE"/><path fill-rule="evenodd" clip-rule="evenodd" d="M3.179 4.2C1.812 4.2 1.032 3.3 1 1.8h.685c.022 1.1.527 1.566.926 1.662V1.8h.645v.949c.395-.04.81-.473.95-.949h.644c-.107.586-.557 1.019-.877 1.196.32.145.832.522 1.027 1.204h-.71c-.152-.456-.532-.81-1.034-.858V4.2H3.18z" fill="#fff"/></svg>