<svg width="14" height="14" viewBox="0 0 14 14" fill="none" xmlns="http://www.w3.org/2000/svg">
<path fill-rule="evenodd" clip-rule="evenodd" d="M7.00025 0C10.8667 0 14 3.13369 14 7C14 10.8668 10.8666 14 7.00025 14C3.13363 14 0 10.8669 0 7C0 3.13358 3.13355 0 7.00025 0ZM10.7747 7.00002C10.7747 4.91478 9.08496 3.2253 7.00018 3.2253C4.915 3.2253 3.22518 4.91478 3.22518 7.00002C3.22518 9.08525 4.915 10.7751 7.00018 10.7751C9.08496 10.7751 10.7747 9.08525 10.7747 7.00002ZM12.3846 7.00002C12.3846 4.02578 9.97436 1.6154 7.00018 1.6154C4.0256 1.6154 1.61532 4.02578 1.61532 7.00002C1.61532 9.97467 4.0256 12.3846 7.00018 12.3846C9.97436 12.3846 12.3846 9.97467 12.3846 7.00002Z" fill="#240405"/>
</svg>
