<svg width="20" height="20" viewBox="0 0 20 20" fill="none" xmlns="http://www.w3.org/2000/svg">
<path fill-rule="evenodd" clip-rule="evenodd" d="M10.0002 0.196289C15.4152 0.196289 19.8034 4.58506 19.8034 9.99986C19.8034 15.4154 15.415 19.8034 10.0002 19.8034C4.58497 19.8034 0.196289 15.4155 0.196289 9.99986C0.196289 4.58489 4.58485 0.196289 10.0002 0.196289ZM15.2864 9.99988C15.2864 7.07949 12.9199 4.71335 10.0001 4.71335C7.0798 4.71335 4.71318 7.07949 4.71318 9.99988C4.71318 12.9203 7.0798 15.2869 10.0001 15.2869C12.9199 15.2869 15.2864 12.9203 15.2864 9.99988ZM17.541 9.99988C17.541 5.83443 14.1655 2.45868 10.0001 2.45868C5.83419 2.45868 2.45856 5.83443 2.45856 9.99988C2.45856 14.1659 5.83419 17.5411 10.0001 17.5411C14.1655 17.5411 17.541 14.1659 17.541 9.99988Z" fill="#5EA636"/>
</svg>
