<svg width="20" height="20" viewBox="0 0 20 20" fill="none" xmlns="http://www.w3.org/2000/svg">
<path fill-rule="evenodd" clip-rule="evenodd" d="M10.0003 0.25C15.3857 0.25 19.75 4.61478 19.75 10C19.75 15.3859 15.3856 19.75 10.0003 19.75C4.6147 19.75 0.25 15.3861 0.25 10C0.25 4.61462 4.61458 0.25 10.0003 0.25ZM15.2576 10C15.2576 7.09559 12.9041 4.74238 10.0003 4.74238C7.09589 4.74238 4.74221 7.09559 4.74221 10C4.74221 12.9045 7.09589 15.2582 10.0003 15.2582C12.9041 15.2582 15.2576 12.9045 15.2576 10ZM17.4999 10C17.4999 5.85733 14.1429 2.50002 10.0003 2.50002C5.85709 2.50002 2.49991 5.85733 2.49991 10C2.49991 14.1433 5.85709 17.5 10.0003 17.5C14.1429 17.5 17.4999 14.1433 17.4999 10Z" fill="#FF6C00"/>
</svg>
