<svg width="6" height="6" viewBox="0 0 6 6" fill="none" xmlns="http://www.w3.org/2000/svg">
<path fill-rule="evenodd" clip-rule="evenodd" d="M3.00011 0C4.65714 0 6 1.34301 6 3C6 4.6572 4.6571 6 3.00011 6C1.34298 6 0 4.65725 0 3C0 1.34296 1.34295 0 3.00011 0ZM4.61773 3.00001C4.61773 2.10634 3.89355 1.38227 3.00008 1.38227C2.10643 1.38227 1.38222 2.10634 1.38222 3.00001C1.38222 3.89368 2.10643 4.61791 3.00008 4.61791C3.89355 4.61791 4.61773 3.89368 4.61773 3.00001ZM5.30766 3.00001C5.30766 1.72533 4.27472 0.692315 3.00008 0.692315C1.72526 0.692315 0.69228 1.72533 0.69228 3.00001C0.69228 4.27486 1.72526 5.3077 3.00008 5.3077C4.27472 5.3077 5.30766 4.27486 5.30766 3.00001Z" fill="#DB1D1D"/>
</svg>
