<svg width="164" height="34" viewBox="0 0 164 34" fill="none" xmlns="http://www.w3.org/2000/svg">
<rect x="0.75" y="0.749939" width="162.5" height="32.5" rx="9.75" fill="#DB1D1D"/>
<path fill-rule="evenodd" clip-rule="evenodd" d="M32.381 15.4384H42.3956V18.3648H32.381V19.4246H42.3956V22.3498H32.381C30.7711 22.3498 29.4557 21.0333 29.4557 19.4246V11.4539H32.381H42.3956V14.3791H32.381V15.4384ZM51.7934 14.3791V22.3498H48.8669V14.3791H43.8595V11.4539H48.8669H51.7934H56.8007V14.3791H51.7934ZM61.1912 18.3648V22.3498H58.2646V18.3648V15.4384V14.3791V11.4539H61.1912H68.2805H71.2058V15.4384C71.2058 17.0483 69.8892 18.3648 68.2805 18.3648H61.1912ZM61.1912 14.3791V15.4384H68.2805V14.3791H61.1912ZM75.595 11.4539H85.6096V14.3791H75.595V19.4246H85.6096V22.3498H75.595C73.9867 22.3498 72.6697 21.0333 72.6697 19.4246V11.4539H75.595ZM85.6096 11.4539C87.2196 11.4539 88.5375 12.7704 88.5375 14.3791V19.4246C88.5375 21.0333 87.2196 22.3498 85.6096 22.3498V11.4539ZM90.0026 11.4539H90.4165H91.8511H92.9279H92.9434C94.4571 11.4539 95.3861 12.9767 95.8544 14.3791L97.8691 19.8481L99.8833 14.3791C100.351 12.9767 101.279 11.4539 102.793 11.4539H102.809H103.886H105.32H105.735V22.3498H102.809V14.3791L100.95 19.4246C99.5477 23.2266 96.1809 23.2158 94.7869 19.4246L92.9279 14.3791V22.3498H90.0026V11.4539ZM110.124 11.4539H120.139V14.3791H110.124V19.4246H120.139V22.3498H110.124C108.515 22.3498 107.198 21.0333 107.198 19.4246V11.4539H110.124ZM120.139 11.4539C121.749 11.4539 123.066 12.7704 123.066 14.3791V19.4246C123.066 21.0333 121.749 22.3498 120.139 22.3498V11.4539ZM127.456 11.4539H137.471V14.3791H127.456V19.4246H137.471V22.3498H127.456C125.846 22.3498 124.529 21.0333 124.529 19.4246V11.4539H127.456ZM146.868 14.3791V22.3498H143.941V14.3791H138.934V11.4539H143.941H146.868H151.875V14.3791H146.868ZM12.1249 11.4539H15.0507H25.0661C26.6748 11.4539 27.9918 12.7704 27.9918 14.3791V22.3498H25.0661V14.3791H15.0507V22.3498H12.1249V14.3791V11.4539Z" fill="#FFFEFE"/>
</svg>
