<svg width="467" height="53" viewBox="0 0 467 53" fill="none" xmlns="http://www.w3.org/2000/svg">
<path d="M16.4142 52.4142C15.6332 53.1953 14.3668 53.1953 13.5858 52.4142L0.857861 39.6863C0.0768122 38.9052 0.0768122 37.6389 0.857861 36.8579C1.63891 36.0768 2.90524 36.0768 3.68629 36.8579L15 48.1716L26.3137 36.8579C27.0948 36.0768 28.3611 36.0768 29.1421 36.8579C29.9232 37.6389 29.9232 38.9052 29.1421 39.6863L16.4142 52.4142ZM467 4H35V0H467V4ZM17 22V51H13V22H17ZM35 4C25.0589 4 17 12.0589 17 22H13C13 9.84974 22.8497 0 35 0V4Z" fill="#F5E6D6"/>
</svg>
