<svg width="5" height="6" fill="none" xmlns="http://www.w3.org/2000/svg"><path fill-rule="evenodd" clip-rule="evenodd" d="M2.5 1.542c-.132 0-.262.014-.39.044a.208.208 0 11-.095-.406c.16-.037.322-.055.485-.055.813 0 1.437.464 1.845.9a4.307 4.307 0 01.63.875l.002.005v.001L4.793 3l-.184-.098A3.618 3.618 0 014.554 3a3.89 3.89 0 00-.513-.69c-.373-.399-.896-.768-1.541-.768zM4.554 3a3.646 3.646 0 01-.372.53.208.208 0 10.32.269c.181-.217.34-.451.473-.7a.208.208 0 00.003-.192L4.792 3l-.187.093-.001-.003a1.178 1.178 0 00-.05-.09zM1.136 1.597a.208.208 0 01.274.018l.795.795.001.002.882.882.002.001.795.795a.208.208 0 01-.021.313 2.306 2.306 0 01-1.36.472H2.5c-.812 0-1.437-.464-1.845-.9a4.307 4.307 0 01-.63-.875l-.002-.005v-.001L.207 3l-.186.093a.208.208 0 01.003-.192 4.054 4.054 0 011.111-1.304zM.446 3a3.891 3.891 0 00.513.69c.373.397.894.767 1.54.767a1.89 1.89 0 00.912-.253l-.484-.483a.833.833 0 01-1.149-1.149l-.53-.531c-.32.27-.592.595-.802.959zm1.643-.117a.417.417 0 00.527.527l-.527-.527z" fill="#F5E6D6"/><path fill-rule="evenodd" clip-rule="evenodd" d="M.061.561a.208.208 0 01.295 0l4.583 4.583a.208.208 0 11-.295.295L.061.856a.208.208 0 010-.295z" fill="#F5E6D6"/><path d="M4.792 3l-.184-.098A3.618 3.618 0 014.554 3a2.763 2.763 0 01.05.09l.001.003L4.792 3z" fill="#F5E6D6"/></svg>