<svg width="18" height="18" fill="none" xmlns="http://www.w3.org/2000/svg"><path fill-rule="evenodd" clip-rule="evenodd" d="M8.168 2.344a5.824 5.824 0 100 11.648 5.824 5.824 0 000-11.648zM.68 8.168a7.488 7.488 0 1114.976 0 7.488 7.488 0 01-14.976 0z" fill="#FFFAF5"/><path fill-rule="evenodd" clip-rule="evenodd" d="M12.28 12.28a.832.832 0 011.177 0l3.62 3.62a.832.832 0 01-1.177 1.176l-3.62-3.619a.832.832 0 010-1.177zM8.168 4.84c.46 0 .832.373.832.832v4.992a.832.832 0 01-1.664 0V5.672c0-.46.372-.832.832-.832z" fill="#FFFAF5"/><path fill-rule="evenodd" clip-rule="evenodd" d="M4.84 8.168c0-.46.372-.832.832-.832h4.992a.832.832 0 010 1.664H5.672a.832.832 0 01-.832-.832z" fill="#FFFAF5"/></svg>