<svg width="99" height="28" fill="none" xmlns="http://www.w3.org/2000/svg"><path d="M.967.133h3.466v27.734H.967V.133zm6.933 0h1.733v27.734H7.9V.133zm6.933 0H18.3v27.734h-3.467V.133zm19.067 0h1.733v27.734H33.9V.133zm26 0h1.733v27.734H59.9V.133zm13.867 0H75.5v27.734h-1.733V.133zm13.866 0h1.734v27.734h-1.734V.133zm-65.866 0h8.666v27.734h-8.666V.133zm17.333 0h6.933v27.734H39.1V.133zm27.733 0H70.3v27.734h-3.467V.133zm27.734 0h3.466v27.734h-3.466V.133zM80.7.133h3.467v27.734H80.7V.133zm-31.2 0h6.933v27.734H49.5V.133z" fill="#240405"/></svg>