<svg width="7" height="6" fill="none" xmlns="http://www.w3.org/2000/svg"><path fill-rule="evenodd" clip-rule="evenodd" d="M3.948 5.239v-1.15c-.027.039-.094.297-.284.55-.094.125-.297.34-.541.206-.242-.132-.406-.479-.503-.744a2.232 2.232 0 01-.095-.324h1.422l.001-.443c-.12-.006-.256-.001-.376-.001-.118 0-1.109.005-1.135-.003-.06-.354-.06-.975.005-1.329.033-.007 1.417 0 1.625-.001l.052.004c.016.028.04.342.043.401.008.152.007.284.003.436.016-.007.027-.021.044-.034a.665.665 0 01.328-.136c.023-.003.055-.001.075-.007.014-.05-.012-.408-.02-.501-.003-.044-.017-.125-.015-.163h.824a2.162 2.162 0 01.096.84l-.039.277.287.205c.022.016.08.06.102.069.006-.034.02-.074.028-.11A2.638 2.638 0 005.328.957 2.683 2.683 0 004.66.384 2.669 2.669 0 00.655 2.202a2.676 2.676 0 00.319 1.8 2.655 2.655 0 002.92 1.257c.02-.005.046-.005.054-.02zM2.062 1.554h-.701c.013-.05.161-.246.2-.292a2.19 2.19 0 01.76-.599c.02-.01.066-.028.081-.038-.002.012-.043.083-.052.1a2.563 2.563 0 00-.146.334 3.72 3.72 0 00-.142.495zm2.1-.927c.104.026.365.196.464.27.093.072.18.149.26.232l.06.065c.057.075.094.11.161.206.018.026.089.128.095.155H4.5a3.535 3.535 0 00-.233-.718l-.106-.21zm-.128.928H2.528c.008-.069.082-.284.11-.358.094-.255.329-.753.643-.754.31 0 .551.497.644.753.026.072.102.291.11.359zM1.986 3.333h-.825c-.027-.12-.049-.159-.074-.312A2.218 2.218 0 011.161 2h.824c.004.03-.011.121-.014.158a5.69 5.69 0 000 1.011c.004.049.016.119.015.164zm3.6 1.441c.142-.03.297-.054.442-.08.057-.01.17-.024.216-.043.149-.063.19-.21.108-.33a.625.625 0 00-.138-.118l-.302-.215-.603-.43-.529-.378c-.028-.02-.039-.035-.076-.053-.145-.066-.292.041-.31.172-.006.042-.001.437-.001.516 0 .048-.006 1.484.002 1.551.015.126.166.236.308.17.083-.038.188-.19.254-.263l.178-.21c.014-.018.044-.06.062-.069.047.09.1.202.15.3l.223.447c.024.048.049.102.075.147.138.239.526.064.383-.225-.045-.093-.44-.871-.442-.889zm-4.224-.997h.7a3.209 3.209 0 00.285.823c.014.028.047.079.055.105a1.854 1.854 0 01-.323-.17c-.087-.063-.129-.09-.212-.156a2.303 2.303 0 01-.411-.448 1.015 1.015 0 01-.094-.154z" fill="#BE957D"/></svg>