<svg width="22" height="16" fill="none" xmlns="http://www.w3.org/2000/svg"><path fill-rule="evenodd" clip-rule="evenodd" d="M2.236 8a16.6 16.6 0 002.19 2.948c1.592 1.698 3.818 3.274 6.574 3.274s4.982-1.576 6.574-3.274A16.6 16.6 0 0019.764 8a16.6 16.6 0 00-2.19-2.948C15.982 3.354 13.756 1.778 11 1.778S6.018 3.354 4.426 5.052A16.6 16.6 0 002.236 8zm18.542 0l.795-.398-.002-.003-.003-.006-.01-.02a8.653 8.653 0 00-.17-.314 18.39 18.39 0 00-2.517-3.422C17.13 1.978 14.466 0 11 0 7.533 0 4.87 1.98 3.128 3.837A18.378 18.378 0 00.613 7.258a10.985 10.985 0 00-.17.314l-.01.02-.004.006-.001.002.794.399-.795-.398a.889.889 0 000 .796L1.222 8l-.795.398.002.003.003.006.01.02a6.552 6.552 0 00.17.314 18.378 18.378 0 002.517 3.422C4.871 14.022 7.534 16 11 16s6.13-1.98 7.87-3.836a18.39 18.39 0 002.518-3.423 11.055 11.055 0 00.17-.314l.01-.02.003-.006.001-.002s.001-.001-.794-.399zm0 0l.795.398a.89.89 0 000-.796L20.778 8z" fill="#BE957D"/><path fill-rule="evenodd" clip-rule="evenodd" d="M11 6.222a1.778 1.778 0 100 3.556 1.778 1.778 0 000-3.556zM7.445 8a3.556 3.556 0 117.11 0 3.556 3.556 0 01-7.11 0z" fill="#BE957D"/></svg>