<svg width="19" height="14" fill="none" xmlns="http://www.w3.org/2000/svg"><path fill-rule="evenodd" clip-rule="evenodd" d="M2.53 7a13.488 13.488 0 001.78 2.395c1.293 1.38 3.102 2.66 5.341 2.66 2.24 0 4.048-1.28 5.341-2.66A13.48 13.48 0 0016.772 7a13.48 13.48 0 00-1.78-2.395c-1.293-1.38-3.102-2.66-5.34-2.66-2.24 0-4.049 1.28-5.342 2.66A13.488 13.488 0 002.53 7zm15.066 0l.645-.323v-.003l-.003-.005-.008-.016a4.922 4.922 0 00-.139-.255 14.932 14.932 0 00-2.045-2.78C14.631 2.107 12.467.5 9.651.5c-2.816 0-4.98 1.608-6.395 3.117a14.932 14.932 0 00-2.045 2.78 8.914 8.914 0 00-.138.256l-.008.016-.003.005v.002s-.001.001.645.324l-.646-.323a.722.722 0 000 .646L1.707 7l-.646.323.001.003.003.005.008.016a5.435 5.435 0 00.138.255 14.931 14.931 0 002.045 2.78c1.415 1.51 3.579 3.118 6.395 3.118 2.816 0 4.98-1.608 6.395-3.117a14.932 14.932 0 002.045-2.78 8.924 8.924 0 00.139-.256l.008-.016.002-.005.001-.002L17.596 7zm0 0l.646.323a.723.723 0 000-.646L17.595 7z" fill="#FFFAF5"/><path fill-rule="evenodd" clip-rule="evenodd" d="M9.651 5.556a1.444 1.444 0 100 2.889 1.444 1.444 0 000-2.89zM6.762 7a2.889 2.889 0 115.778 0 2.889 2.889 0 01-5.778 0z" fill="#FFFAF5"/></svg>