<svg width="120" height="120" fill="none" xmlns="http://www.w3.org/2000/svg"><path fill-rule="evenodd" clip-rule="evenodd" d="M0 108.259l23.922-23.922 11.74 11.74L11.742 120 0 108.259z" fill="#F5E6D6"/><path d="M92.54 84.964c-7.322 7.348-17.501 11.89-28.746 11.89-11.23 0-21.394-4.564-28.74-11.908-7.363-7.325-11.908-17.499-11.908-28.736 0-11.249 4.545-21.429 11.877-28.75 7.377-7.347 17.541-11.91 28.771-11.91 11.245 0 21.424 4.546 28.746 11.878 7.347 7.377 11.91 17.556 11.91 28.782 0 11.226-4.563 21.389-11.91 28.754zm-28.746 27.44c15.483 0 29.556-6.297 39.72-16.483C113.693 85.783 120 71.726 120 56.21c0-15.52-6.307-29.589-16.464-39.745C93.35 6.297 79.277 0 63.794 0 48.274 0 34.217 6.308 24.06 16.465 13.892 26.65 7.596 40.723 7.596 56.21c0 15.475 6.296 29.544 16.482 39.711 10.138 10.175 24.196 16.483 39.716 16.483z" fill="#F5E6D6"/></svg>