<svg width="62" height="67" fill="none" xmlns="http://www.w3.org/2000/svg"><path fill-rule="evenodd" clip-rule="evenodd" d="M43.91 1.724a2.76 2.76 0 00-2.358-.726L8.888 6.418a2.76 2.76 0 00-1.997 1.448L.529 20.096a2.754 2.754 0 00-.273 1.723L6.57 59.883a8.264 8.264 0 003.349 5.37 8.282 8.282 0 006.17 1.432L54.2 60.363a8.282 8.282 0 005.377-3.347 8.264 8.264 0 001.435-6.164l-6.315-38.066a2.754 2.754 0 00-.815-1.54l-9.97-9.522zm-2.817 4.938l4.986 4.76L7.97 17.745l3.181-6.116 29.942-4.967zM6.151 23.634l43.552-7.226 5.864 35.347a2.755 2.755 0 01-2.27 3.17l-38.109 6.323a2.76 2.76 0 01-3.173-2.267L6.151 23.634zm33.566.019a2.758 2.758 0 00-2.27 3.17 8.263 8.263 0 01-1.436 6.165 8.283 8.283 0 01-11.548 1.916 8.264 8.264 0 01-3.349-5.37 2.758 2.758 0 00-3.173-2.268 2.758 2.758 0 00-2.271 3.17 13.772 13.772 0 005.581 8.952A13.804 13.804 0 0040.5 36.195a13.773 13.773 0 002.39-10.275 2.758 2.758 0 00-3.173-2.267z" fill="#BE957D"/></svg>