<svg width="16" height="16" fill="none" xmlns="http://www.w3.org/2000/svg"><path fill-rule="evenodd" clip-rule="evenodd" d="M6.545 1.455a.727.727 0 00-.727.727v.727h4.364v-.727a.727.727 0 00-.727-.727h-2.91zm5.091 1.454v-.727A2.182 2.182 0 009.455 0h-2.91a2.182 2.182 0 00-2.181 2.182v.727h-2.91a.727.727 0 100 1.455h.728v9.454A2.182 2.182 0 004.364 16h7.272a2.182 2.182 0 002.182-2.182V4.364h.727a.727.727 0 100-1.455h-2.909zm-8 1.455v9.454a.727.727 0 00.728.728h7.272a.727.727 0 00.728-.728V4.364H3.636zm2.91 2.181c.401 0 .727.326.727.728v4.363a.727.727 0 01-1.455 0V7.273c0-.402.326-.728.727-.728zm2.181.728a.727.727 0 011.455 0v4.363a.727.727 0 01-1.455 0V7.273z" fill="#BE957D"/></svg>