<svg width="19" height="18" fill="none" xmlns="http://www.w3.org/2000/svg"><path fill-rule="evenodd" clip-rule="evenodd" d="M4.986 11.392c.013.44-.875 4.014-1.029 4.756-.553 2.661 2.49.32 3.153-.058.37-.211 2.257-1.4 2.423-1.395l3.631 2.133c.346.21.887.612 1.348.595 1.107-.043.422-1.768.216-2.794-.112-.556-.225-1.027-.35-1.585-.099-.438-.32-1.213-.346-1.652.242-.27.724-.65.995-.885.563-.488 2.855-2.441 3.043-2.744.842-1.356-1.763-1.243-2.255-1.296-1.128-.122-2.433-.155-3.527-.335l-1.183-2.727c-.238-.561-.826-2.372-1.405-2.53-.604-.163-.882.462-1.057.858l-1.77 4.133c-.148.358-.197.292-.615.325l-4.498.405C1.188 6.651.63 6.98.877 7.6c.156.392 1.615 1.588 1.998 1.922l1.588 1.392c.142.114.386.291.523.48z" fill="#FFFAF5" stroke="#F6E9DB" stroke-width=".936"/></svg>