<svg width="7" height="6" fill="none" xmlns="http://www.w3.org/2000/svg"><path fill-rule="evenodd" clip-rule="evenodd" d="M0 4.94C0 5.524.476 6 1.06 6h3.88C5.524 6 6 5.524 6 4.94h-.424c0 .35-.286.636-.636.636H1.06a.638.638 0 01-.636-.636V1.06c0-.35.286-.636.636-.636h3.88c.35 0 .636.286.636.636H6C6 .476 5.524 0 4.94 0H1.06C.476 0 0 .476 0 1.06v3.88z" fill="#BE957D"/><path fill-rule="evenodd" clip-rule="evenodd" d="M4.338 4.564L5.9 3 4.338 1.437l-.3.3L5.302 3 4.038 4.264l.3.3z" fill="#BE957D"/><path fill-rule="evenodd" clip-rule="evenodd" d="M1.701 3.212h3.9v-.424h-3.9v.424z" fill="#BE957D"/></svg>