<svg width="18" height="14" fill="none" xmlns="http://www.w3.org/2000/svg"><path fill-rule="evenodd" clip-rule="evenodd" d="M1.88 7a13.489 13.489 0 001.78 2.395c1.292 1.38 3.1 2.66 5.34 2.66 2.24 0 4.048-1.28 5.341-2.66A13.496 13.496 0 0016.121 7a13.496 13.496 0 00-1.78-2.395C13.048 3.225 11.24 1.945 9 1.945s-4.048 1.28-5.341 2.66A13.489 13.489 0 001.879 7zm15.065 0l.645-.323-.001-.003-.002-.005-.009-.016a7.412 7.412 0 00-.138-.255 14.932 14.932 0 00-2.045-2.78C13.98 2.107 11.816.5 9 .5 6.184.5 4.02 2.108 2.605 3.617A14.932 14.932 0 00.56 6.397a8.934 8.934 0 00-.138.256l-.009.016-.002.005v.002s-.002.001.644.324L.41 6.677a.722.722 0 000 .646L1.054 7l-.645.323v.003l.003.005.009.016a5.313 5.313 0 00.138.255 14.931 14.931 0 002.045 2.78C4.02 11.893 6.184 13.5 9 13.5s4.98-1.608 6.395-3.117a14.932 14.932 0 002.045-2.78 9.358 9.358 0 00.138-.256l.009-.016.002-.005v-.002s.002-.001-.644-.324zm0 0l.645.323a.723.723 0 000-.646L16.945 7z" fill="#F5E6D6"/><path fill-rule="evenodd" clip-rule="evenodd" d="M9 5.556a1.444 1.444 0 100 2.889 1.444 1.444 0 000-2.89zM6.111 7a2.889 2.889 0 115.778 0A2.889 2.889 0 016.11 7z" fill="#F5E6D6"/></svg>