<svg width="16" height="16" fill="none" xmlns="http://www.w3.org/2000/svg"><path fill-rule="evenodd" clip-rule="evenodd" d="M7.675.077a.727.727 0 01.65 0l7.273 3.636a.727.727 0 010 1.301L8.325 8.651a.727.727 0 01-.65 0L.402 5.014a.727.727 0 010-1.3L7.675.076zM2.354 4.364L8 7.187l5.646-2.823L8 1.54 2.354 4.364zM.077 7.674a.727.727 0 01.976-.324L8 10.823l6.947-3.473a.727.727 0 01.65 1.3l-7.272 3.637a.728.728 0 01-.65 0L.402 8.65a.727.727 0 01-.325-.976zm0 3.637a.727.727 0 01.976-.325L8 14.46l6.947-3.474a.727.727 0 01.65 1.3l-7.272 3.637a.727.727 0 01-.65 0L.402 12.287a.727.727 0 01-.325-.976z" fill="#240405"/></svg>