<svg width="6" height="6" fill="none" xmlns="http://www.w3.org/2000/svg"><path fill-rule="evenodd" clip-rule="evenodd" d="M.429 1.286C.429.576 1.004 0 1.714 0h2.572c.71 0 1.285.576 1.285 1.286v3.428C5.571 5.424 4.996 6 4.286 6H1.714C1.004 6 .43 5.424.43 4.714V1.286zM1.714.514a.771.771 0 00-.771.772v3.428c0 .426.345.772.771.772h2.572a.771.771 0 00.771-.772V1.286a.771.771 0 00-.771-.772h-.023v.343a.686.686 0 01-.686.686H2.434A.686.686 0 011.75.857V.514h-.035zm.549.343c0 .095.077.172.171.172h1.143A.171.171 0 003.75.857V.514H2.263v.343z" fill="#BE957D"/><path fill-rule="evenodd" clip-rule="evenodd" d="M4.51 2.39c.1.1.1.263 0 .363L2.796 4.468c-.1.1-.263.1-.363 0l-.858-.858a.257.257 0 01.364-.363l.675.675L4.147 2.39c.1-.1.263-.1.363 0z" fill="#BE957D"/></svg>