<svg width="10" height="10" fill="none" xmlns="http://www.w3.org/2000/svg"><path fill-rule="evenodd" clip-rule="evenodd" d="M2.5 0h5C8.875 0 10 1.125 10 2.5v5C10 8.875 8.875 10 7.5 10h-5A2.507 2.507 0 010 7.5v-5C0 1.125 1.125 0 2.5 0z" fill="#DB1D1D"/><path fill-rule="evenodd" clip-rule="evenodd" d="M4.284 3.643l.005-.215a.446.446 0 01.056-.215c.166 0 .332.004.499 0 .166-.006.331-.028.497-.04.032.08.062.16.092.239-.072.003-.124.04-.112.108.01.054.06.117.109.116h.06c.008.07.013.14.015.21a.478.478 0 01-.097.274 1.044 1.044 0 01-.192.024c-.06.002-.118 0-.173 0-.236-.002-.427.007-.556-.05-.136-.06-.209-.202-.203-.45zm.481 0a.105.105 0 00-.103.109v.014c0 .059.032.099.091.093.056-.003.123-.044.123-.09v-.015c-.003-.061-.052-.114-.11-.112zm.477.103v.015c.002.034.043.073.079.072h.046c.036-.001.076-.041.074-.077 0-.01 0-.02-.002-.03-.004-.042-.072-.088-.115-.087-.058.003-.086.048-.082.107zm-.823-.107h-.015c-.035.002-.076.044-.077.08v.062c-.002.059.041.105.09.1h.014c.037-.004.093-.064.094-.1v-.046c0-.07-.036-.102-.106-.096zm.52-.214c.006.054.054.098.1.096.05-.003.1-.032.092-.079a1.586 1.586 0 00-.008-.043c-.006-.034-.051-.07-.085-.067l-.042.003c-.04.003-.063.053-.058.09zm-.395.498c.021-.003.039-.022.039-.042 0-.02-.016-.034-.037-.031a.044.044 0 00-.038.041c0 .02.016.035.036.032zm.058-.304a.067.067 0 00.063-.068.064.064 0 00-.067-.06.068.068 0 00-.063.068.06.06 0 00.067.06zm.666-.317c-.033.002-.054.033-.047.067.008.035.041.062.075.06.035-.002.056-.032.048-.067-.009-.037-.043-.063-.076-.06zm.959-1.038c.192.03.19-.031 0 0zm.104 1.07l-.048.029c-.035-.08-.127-.148-.19-.128.06.09.043.165.103.222-.043.077-.01.156-.06.278.088-.053.164-.161.155-.236a.681.681 0 00.307-.432c.02-.073.08-.123.04-.13l.026-.042-.044.005.061-.05h-.046l.052-.019-.012-.022-.058-.001.074-.026-.008-.015-.055.006.07-.031-.008-.011-.082-.002.088-.021-.01-.024-.067.01.081-.035-.007-.013-.09.013.095-.032.005-.024c-.066 0-.103.009-.125-.009-.01-.007-.01-.02-.018-.039l.116-.029c-.1-.063-.267-.122-.32-.174l.069-.036-.005-.009-.082-.004.088-.016c-.027-.048-.048-.065-.128-.053-.088.013-.14-.029-.178-.017a.22.22 0 01-.085.23l-.029.017c-.052.032-.114.036-.147.02.042-.015.06 0 .097-.025l.068-.041c.057-.036.093-.151.07-.208-.01-.026-.07-.023-.094-.024.028.07.067.158-.002.2l-.01.006c-.064.04-.115.049-.157.027.043-.014.066.007.112-.022l.048-.03c.03-.019.033-.063.02-.095l-.03-.074c-.023-.054-.242-.005-.293.014l.061.21c.053.208.835.65.582.911zm-.462-1.056c-.022.013-.031.011-.04-.01-.009-.022 0-.048.023-.062.011-.007.036.002.044.02.009.022.005.032-.017.046l-.01.006zM3.23 4.862l.216.002c.01 0 .018.01.018.022v.038c0 .011-.008.02-.018.02l-.217-.002c-.01 0-.018-.01-.018-.02v-.039c0-.011.009-.02.018-.02zm.245.348c0-.016.052.035.052.051l-.002.81a.028.028 0 01-.027.028H3.47l.005-.889zm.113.116v.742c-.001.04-.033.073-.071.072l-.363-.003a.073.073 0 01-.07-.074l.001-.74c0-.179.154-.139.155-.367l.195.001c0 .23.154.192.153.37zm.636.237a.1.1 0 01-.028.015c-.069.023-.147-.03-.175-.121a.205.205 0 01-.001-.118c-.04-.017-.07-.067-.077-.13-.007-.082.032-.152.086-.157h.003c.001-.003.001-.007.003-.01.02-.06.073-.096.118-.08a.041.041 0 01.01.006c.012-.04.044-.067.073-.06.03.009.047.05.036.092-.01.038-.037.064-.064.063a.157.157 0 01-.017.063c.021.01.039.039.042.072a.093.093 0 01-.026.078.194.194 0 01.072.129.116.116 0 01.048.032c.038.042.043.102.01.133-.028.029-.076.024-.113-.007zm-.064-.567l-.005-.005c-.021-.016-.055-.007-.076.021a.146.146 0 00-.006.01c.021-.027.058-.034.083-.014l.005.005c.005.005.008.01.01.015a.046.046 0 00-.01-.032zm-.063.094c-.02-.015-.045-.016-.07-.006a.11.11 0 00-.057.055.104.104 0 01.058-.038.081.081 0 01.095.045.071.071 0 00-.026-.056zm.1.063a.036.036 0 00-.019-.007.046.046 0 00-.041.016l-.004.006a.06.06 0 00-.006.008.057.057 0 01.01-.01.048.048 0 01.032-.01c.01.001.02.005.029.012a.055.055 0 01.014.018.048.048 0 00-.016-.033zm-.056.157a.104.104 0 01.049-.004.086.086 0 00-.066-.015l-.01.002a.088.088 0 00-.051.05.144.144 0 00.005.124c-.018-.067.013-.137.073-.157zm.086.135a.052.052 0 01.02-.01.04.04 0 00-.033.008c-.02.016-.02.046-.003.068a.057.057 0 00.007.007.054.054 0 01.01-.073zm.056-.054a.273.273 0 01.157-.15.36.36 0 01-.194-.02.107.107 0 000-.024.139.139 0 00-.006-.03c.044.003.087.005.133.006a.282.282 0 01-.134-.104.082.082 0 00.026-.022c.08.11.233.125.295.094l.017.185a.338.338 0 00-.247.094.122.122 0 00-.047-.029zm1.225-2.699s-.011-.13-.03-.163c-.018-.033-.049-.057-.084-.088-.038-.032-.074-.057-.074-.057.058.033.115.064.154.111.038.047.042.12.034.197zm.017-.236c.098.179.001.328-.034.328-.037 0 .016-.136-.07-.25-.09-.12-.18-.137-.156-.175.024-.038.169-.068.26.097zm-1.421.473a.042.042 0 00-.004-.015.291.291 0 01.062.017l-.058-.002zm-.011-.05l-.004-.017a.3.3 0 01.075.02c-.018 0-.044-.003-.071-.003zm-.01-.05l-.003-.018c.03.003.058.009.087.02l-.084-.002zm.027-.468a.28.28 0 00-.105-.094l.012-.029a.32.32 0 01.105.087.25.25 0 00-.041-.115l.023-.02c.028.035.04.083.048.13a.776.776 0 01.029-.148l.028.01a.742.742 0 00-.029.162h.006a.365.365 0 01.068-.138l.022.022a.327.327 0 00-.06.118l.017-.025a.2.2 0 01.098-.08l.007.031a.17.17 0 00-.08.068.242.242 0 00-.022.034c.026.03.043.08.043.155 0 .133-.051.517-.115.517-.04 0-.076-.164-.096-.315.037-.002.078.002.105.002a.325.325 0 00-.107-.022l-.006-.046.002.017c.04-.003.085.002.114.001a.34.34 0 00-.116-.022c0-.01-.002-.019-.003-.028.041-.004.09 0 .12 0a.35.35 0 00-.122-.022l.002.022a1.43 1.43 0 01-.003-.049c.042-.005.095 0 .127 0a.363.363 0 00-.128-.023l-.001-.026c.042-.006.098 0 .131 0a.355.355 0 00-.13-.023l-.001.017c0-.015 0-.03.002-.043.043-.007.099 0 .132-.001a.347.347 0 00-.129-.022.345.345 0 00-.003.023c.006-.064.027-.105.056-.125zm-.035.419l-.003-.019a.334.334 0 01.098.02c-.024.001-.06-.002-.095-.001zM3.27 1.756c.009-.034-.014-.071-.014-.071s-.039.018-.049.052c-.01.034.014.072.014.072s.039-.018.048-.053zm-.02-.088c.021.032.059.06.088.072a.162.162 0 00.018-.034.113.113 0 01-.092-.043.105.105 0 00.096-.031c.03-.036.014-.093-.004-.132-.027-.057-.088-.092-.148-.071a.077.077 0 00-.036.026.077.077 0 00-.043.01c-.057.03-.075.1-.055.161.014.04.042.093.088.094a.106.106 0 00.088-.052zm.064-.151c.01.016.021.031.023.051.001.017-.002.05-.015.067.034-.03.052-.127-.008-.118zm.534 2.943l-.012-.005.002.032v.023l-.015-.017s-.018-.021-.03-.04a.29.29 0 01-.033.022l-.012.007v-.015s0-.024.002-.044a.627.627 0 01-.047-.008l-.022-.005.02-.012.026-.014-.007-.007c-.046-.004-.09.015-.111.054-.032.058-.038.203.03.244.068.042.184-.036.216-.094.02-.037.016-.082-.007-.122zm-.128.002c.003.001.002.008-.001.014-.004.006-.009.01-.011.008-.003-.002-.002-.008.001-.014.004-.006.009-.01.011-.008zm-.057.103c.003.002.002.008-.001.014s-.009.01-.011.009c-.003-.002-.002-.008.002-.014.003-.006.007-.01.01-.009zm-.002-.071c.002.001.002.007-.002.014-.003.006-.008.01-.01.008-.003-.002-.002-.008 0-.014.004-.006.01-.01.012-.008zm-.044.062c-.005 0-.01-.004-.012-.012-.01-.029.006-.078.02-.103.013-.024.022-.026.048-.038-.028.022-.037.067-.039.101 0 .013.003.035-.006.046-.004.004-.008.006-.011.006zm.033.099c-.003-.002-.002-.008.001-.014s.008-.01.01-.009c.003.002.003.008 0 .014-.004.006-.009.01-.011.009zm.057-.104c-.003-.001-.002-.008 0-.014.004-.006.009-.01.012-.008.002.001.002.008-.002.014-.003.006-.008.01-.01.008zm.002.072c-.003-.002-.002-.008.001-.014.004-.006.008-.01.011-.008.003.001.002.007-.001.014-.004.006-.009.01-.011.008zm.057-.104c-.003-.001-.002-.008.001-.014.004-.006.008-.01.01-.008.004.002.003.008 0 .014-.004.006-.009.01-.011.008zm-.002.067c-.002-.001-.002-.008.002-.014.003-.006.008-.01.01-.008.003.002.003.008 0 .014-.005.006-.01.01-.012.008zm.061-.145c.025.01.06.02.06.02l-.051-.042c.018-.006.039-.017.039-.017s-.031-.008-.053-.01c.004-.014.005-.036.005-.036s-.022.008-.034.017c-.012-.02-.038-.049-.038-.049s0 .025.006.044a.69.69 0 00-.06-.025s.025.027.046.044c-.018.006-.04.019-.04.019a.5.5 0 00.055.01c-.005.02-.004.051-.004.051s.024-.013.038-.026c.013.019.035.046.035.046s0-.027-.004-.046zm-.001.113c-.003-.001-.002-.008.001-.013.004-.007.008-.01.01-.009.003.002.003.008 0 .014-.004.006-.009.01-.011.008z" fill="#FEFEFE"/><path fill-rule="evenodd" clip-rule="evenodd" d="M6.59 2.334c-.06.009-.103-.025-.131-.094 0 0 .002.04.042.077.04.038.09.017.09.017zm-.107-.192c-.029.02-.036.05-.026.087 0 0-.01-.016-.004-.046.005-.03.03-.04.03-.04zm.122.014a.183.183 0 00-.008-.022c-.014-.036-.02-.044-.058-.049a.134.134 0 00.016-.083c-.04.01-.094.025-.07.087l-.02-.018-.01.01c.016.01.025.01.04.03l.034-.002.024.01-.024-.004h-.034c.02.052.065.048.11.04zm-.117-.038c-.003.004-.005.008-.01.008-.03.005-.052.039-.047.072-.005.012.003.057.011.078.033.084.098.109.15.07.031-.002.052-.031.058-.068a.16.16 0 00-.041-.132l.002.008.001.007-.007.002c-.047.007-.094.01-.116-.045h-.001zM6.064 3.3c-.06.044-.084.06-.084.062-.001.004.005.01.01.014.039.02.067.04.113.033.047-.007.03-.005.005-.038-.011-.014-.02-.032-.03-.045a.49.49 0 01-.014-.026zm-.012-.066l.012-.003.074-.08a.48.48 0 00-.054-.136l-.036-.041c-.019-.022-.083.02-.103.039-.024.023-.074.088-.053.111l.018.02c.05.06.099.061.142.09zm-.001.052V3.25l-.01-.004a.352.352 0 01-.154-.102c-.022.036.017.135.053.176l.028.032.083-.066zm.106-.138l.035.008.07-.086c-.05-.057-.147-.139-.195-.1.046.054.06.1.09.178zm.046.018c.047-.06.064-.083.067-.084.004 0 .009.007.011.013.017.042.033.073.022.12-.011.049-.007.032-.036.003-.012-.013-.028-.024-.04-.036l-.024-.016zm.141-1.377a.636.636 0 01-.043.01.533.533 0 01.025.046l.012.026-.025-.01s-.034-.014-.06-.028c-.01.028-.024.056-.024.056l-.01.02-.01-.02s-.016-.033-.025-.062c-.026.014-.06.027-.06.027l-.025.01.012-.025s.011-.025.025-.046c-.03-.006-.06-.016-.065-.017a.21.21 0 00-.11.181c0 .119.106.215.237.215.13 0 .237-.096.237-.215a.209.209 0 00-.09-.168zm-.317.058c.016-.025.041-.041.05-.041.01 0 .002.016-.01.038-.015.023-.03.044-.042.046-.012.002-.014-.018.002-.043zm.255-.055a.75.75 0 00.082-.021s-.05-.013-.086-.016c.018-.022.035-.055.035-.055s-.041.015-.069.03a.25.25 0 00-.016-.052s-.02.028-.028.05a.51.51 0 00-.076-.035s.017.033.035.055c-.036.004-.085.017-.085.017s.046.014.081.02a.363.363 0 00-.034.058s.043-.017.07-.033a.423.423 0 00.028.074s.02-.037.027-.067c.027.016.07.033.07.033s-.016-.036-.034-.058zm-.243.29a.179.179 0 01-.047-.15c.003-.014.017-.025.029-.024.012.001.016.016.013.033a.175.175 0 00.032.136c.037.05.023.058-.027.005zm-2.234.053l-.322-.07c-.02-.088-.056-.217-.054-.289.004-.133.72-.144.376.36zm-.214-.694l.344.075c.018.004.036-.008.04-.028l.001-.005c.004-.02-.008-.039-.026-.043l-.345-.075c-.018-.004-.036.008-.04.028v.005a.036.036 0 00.026.043zm.363.395c.11-.312-.146.408 0 0zm-.134.34l-.365-.08s-.066-.272-.064-.373c.003-.1.083-.17.175-.19l.015-.08.355.079-.015.078c.077.057.121.155.088.248s-.19.318-.19.318zm2.103-.562s-.28-.058-.374-.071a1.584 1.584 0 00-.295-.014c-.105.006-.193.017-.193.017a1.55 1.55 0 01.417-.041c.148.011.296.058.445.11zm-.415-.218c.412.054.622.237.588.282-.043.056-.27-.054-.634-.064-.377-.01-.548.05-.52-.03.03-.083.228-.233.566-.188zM3.11 2.409c.002.183-.051 1.428.124 1.492.207-.014.124-.802.119-1.003-.008-.28.018-.972-.142-1.053-.12.073-.106.373-.1.564zm.05-.165c.057.01.092.059.1.119l-.1-.12zm.127.324a.276.276 0 01-.119-.146c.048.031.1.081.119.146zm-.115.252c.059.007.094.057.104.117l-.104-.117zm.01.176c.042.027.11.084.12.146-.071-.046-.08-.071-.12-.146zm.005.196c.063.015.09.078.118.131-.057-.013-.091-.081-.118-.131zm-.022-.573c.04.075.048.1.119.146-.008-.062-.077-.12-.119-.146zm.123 1.017c-.01-.06-.045-.11-.104-.117l.104.117zm-.102-.257c.06.007.094.057.104.117l-.104-.117zm3.208.375a.075.075 0 01.03.066 7.194 7.194 0 01-.163.36 1.293 1.293 0 01-.23.326s.053.016.14-.006a.413.413 0 00.212-.142c.013.103.034.193.04.233v.002l.004-.004a.507.507 0 00.033-.061.053.053 0 01-.033-.061.05.05 0 01.07-.031l.007-.02h-.015a.068.068 0 01-.053-.074.065.065 0 01.07-.055.1.1 0 01.029.01.42.42 0 00.003-.027.06.06 0 01-.03.005.066.066 0 01-.06-.067.065.065 0 01.093-.056.818.818 0 00-.003-.026.059.059 0 01-.026.007c-.035 0-.066-.025-.068-.059a.068.068 0 01.056-.07h.012l-.007-.024-.008.003a.05.05 0 01-.058-.038.05.05 0 01.032-.058.664.664 0 00-.027-.06l.001-.012.003-.013c.018.026.12.248.107.412.008.164-.118.411-.132.399v.002c.003.016.219-.132.226-.401a.49.49 0 00-.204-.416V3.8a.089.089 0 00-.038-.066c-.046-.03-.122-.023-.143.043.001.035.046.056.067.03a.074.074 0 00.022-.07c-.047-.093-.131-.05-.122-.053-.008 0 .077-.028.111.056.013.04-.05.09-.059.037.01-.033.08-.05.111-.023zm-2.697 1.04l-.001-.006-.002-.01a.088.088 0 00-.107-.065.093.093 0 00-.06.122l.002.006c.016.042.018.047-.002.127a.152.152 0 000 .075.142.142 0 00.107.105.134.134 0 01-.012-.058c.001-.054.031-.09.06-.124l.02-.024a.105.105 0 00.018-.048.285.285 0 01.006-.028c-.023-.027-.024-.04-.03-.072zm.22.247c-.026-.078-.024-.083-.01-.126v-.006c.002-.003.002-.006.003-.01a.092.092 0 00-.069-.108.088.088 0 00-.103.072l-.001.01v.006c-.004.045-.005.05-.056.113a.15.15 0 00-.031.067.145.145 0 00.108.17.139.139 0 00.162-.113.153.153 0 00-.004-.075zm-.016.07a.118.118 0 01-.14.098.124.124 0 01-.092-.146.129.129 0 01.027-.057c.058-.07.057-.078.061-.131v-.008a.068.068 0 01.08-.056.072.072 0 01.051.092c-.015.05-.019.057.01.145a.13.13 0 01.003.064zm-.091-.13c-.043-.009-.085.027-.096.08-.01.054.017.104.059.113.042.009.085-.027.095-.08.01-.053-.016-.104-.058-.113zm-.059.065a.11.11 0 00-.013.06c.001.017-.005.016-.009-.005a.093.093 0 010-.038.087.087 0 01.01-.027c.006-.014.02-.023.026-.022.005.001-.005.015-.014.032zm.074-.04a.057.057 0 00-.02 0c-.011 0-.023.003-.028.002-.005-.002 0-.009.01-.01a.05.05 0 01.02 0l.01.003.008.005zm-.258.055a.236.236 0 00.005.018c.004.01-.003.007-.013-.01a.129.129 0 01-.013-.096c.023-.09.018-.096 0-.145l-.002-.008a.07.07 0 01.004-.047c.01-.024.02-.02.015 0a.09.09 0 00.004.047c.02.057.025.064 0 .168a.147.147 0 000 .073zm3.159-.783s.03.1.04.152c.008.052.009.204.009.204l-.049-.356zm-.048.151c-.048-.32.091-.278.14.04.048.32-.092.28-.14-.04zm-2.035.954c.114.033.19.144.173.21-.016.064-.104.046-.218.013-.114-.032-.21-.065-.193-.13.016-.065.124-.125.238-.093zm-.014.248c.012.075.071.154.011.189-.123.072-.147-.084-.121-.167a.283.283 0 01.019-.048l.056.017.035.01zm.095-.151c.026.035.038.073.03.101a.05.05 0 01-.009.02c-.008.01 0 .016.018.006a.04.04 0 00.022-.028c.013-.05-.048-.14-.138-.165h-.003s.044.018.08.066zm-.695-2.22c.014.004.024.02.02.038-.001.018-.015.03-.029.028-.014-.003-.023-.02-.02-.038.002-.016.014-.028.027-.027h.002zm-.104.094c.002-.021.017-.037.03-.034.015.003.024.023.021.045-.002.021-.017.036-.03.033-.015-.002-.025-.022-.021-.044zm.058.012c.003-.022.017-.037.032-.034.014.003.023.023.02.044-.003.022-.017.037-.031.034-.014-.003-.023-.022-.02-.044zm-.05.116c-.013-.003-.023-.023-.02-.045.003-.021.017-.037.031-.034.015.003.024.023.02.045-.002.021-.016.037-.03.034zM4 3.479c-.014-.003-.023-.02-.02-.038.002-.017.015-.03.03-.027.013.003.022.02.02.037-.002.018-.016.03-.03.028zm.058 0c-.01-.002-.016-.015-.014-.03s.011-.025.02-.023c.01.002.016.015.014.03-.002.014-.011.025-.02.023zm.05-.004c-.007-.001-.013-.013-.011-.025.002-.014.01-.022.018-.02.009.001.014.013.012.025-.002.013-.01.022-.018.02zm.054-.026c0 .01-.007.016-.013.015-.006-.001-.01-.01-.01-.02.002-.01.008-.016.015-.015.006.002.01.01.008.02zm.059-.036c-.002.009-.008.016-.014.015-.006-.002-.01-.01-.009-.02.001-.01.008-.016.013-.015.007.001.01.01.01.02zm-.031-.005c-.002.015-.012.026-.022.024-.01-.002-.016-.016-.014-.032.002-.015.011-.026.022-.024.01.002.016.017.014.032zm-.044-.009c-.002.019-.014.032-.027.03-.012-.002-.02-.02-.018-.038.003-.02.015-.033.027-.03.013.002.02.02.018.038zm-.051-.011c-.003.022-.017.037-.031.034-.014-.003-.024-.023-.02-.045.002-.021.016-.036.03-.033.015.002.024.022.021.044zm.058-.04c.001-.01.007-.016.014-.015.006.001.01.01.009.02-.001.009-.008.015-.014.014-.006 0-.01-.01-.009-.02zm-.055-.035c-.002.015-.011.025-.021.023-.01-.002-.016-.015-.014-.03.002-.014.012-.025.021-.023.01.002.016.015.014.03zm.04-.004a.028.028 0 01.006.023c-.002.013-.01.022-.018.02-.009-.001-.014-.013-.012-.026.001-.012.01-.021.018-.02l.005.003zm-.246.171v.003a.29.29 0 01.004.028c.026.018.049.04.06.071a.256.256 0 00-.004-.095c.128.004.265-.019.273-.074.004-.032-.033-.069-.088-.104a.785.785 0 00-.104-.054.606.606 0 00.05-.085.157.157 0 01-.085.034.263.263 0 01-.015.03l-.001.002-.002.003a.045.045 0 01.01.038c-.004.022-.018.037-.032.034-.008-.002-.015-.01-.019-.02l-.004.005a.154.154 0 01-.025.02.05.05 0 01.009.037c-.004.021-.018.037-.032.034-.014-.003-.023-.023-.02-.045v-.005l-.007.003c-.002.016-.01.029-.02.033a.283.283 0 01.024.034c.006-.008.014-.012.022-.01.014.002.023.022.02.044a.046.046 0 01-.016.03l.002.01zm-.089.002c.05.027.07.062.083.116.008-.082 0-.156-.054-.22a.469.469 0 00-.035-.036c.056-.006.1-.02.13-.053.049-.05.079-.098.092-.215-.077.177-.31.028-.394.158a.122.122 0 00-.014.029l-.072-.015-.01.069.074.014.001.008c.016.074.122.102.2.145zm-.167-.225a.083.083 0 01.007-.012c.033-.051.094-.051.165-.052h.05c.029-.001.046-.01.044-.008l-.005.004c-.045.033-.094.025-.147.036-.07.014-.118.04-.114.032z" fill="#FEFEFE"/><path fill-rule="evenodd" clip-rule="evenodd" d="M3.825 2.462a.342.342 0 00-.116-.144.303.303 0 00-.04.047.19.19 0 01.131.097c-.076.006-.136.064-.136.134v.015l.002.009c.008.066.009.074-.057.18a.204.204 0 00-.032.106c0 .118.104.215.234.215.129 0 .234-.095.235-.213a.202.202 0 00-.031-.107c-.065-.105-.064-.114-.056-.18v-.008c.002-.005.002-.01.002-.015 0-.072-.06-.13-.136-.136zm-.002-.145c-.026.05-.002.117-.002.117s.067-.014.094-.065c.026-.05.002-.118.002-.118s-.067.015-.094.066zm-.039.194a.104.104 0 00-.046.085v.01l.002.01c.01.09.007.108-.072.233a.184.184 0 00-.025.13c.003.018-.008.013-.02-.017a.16.16 0 01.015-.142c.07-.11.073-.126.063-.205v-.008l-.001-.01a.09.09 0 01.026-.063.11.11 0 01.035-.024c.022-.01.033-.006.023 0zM5.81 4.535a.034.034 0 01.042-.021.034.034 0 01.023.042c-.005.017-.024.026-.043.02a.034.034 0 01-.023-.041zm.041-.077a.026.026 0 01.033-.016.026.026 0 01.017.032.025.025 0 01-.033.015.026.026 0 01-.017-.031zm-.127.081c.007-.012.026-.013.041-.003.016.01.023.028.016.04-.007.012-.026.013-.042.003-.015-.01-.023-.029-.015-.04zm-.133-.446a.038.038 0 01.05-.024.039.039 0 01.026.048.039.039 0 01-.05.024.04.04 0 01-.026-.048zm.108.042a.025.025 0 01.032-.016.026.026 0 01.018.032.025.025 0 01-.033.016.026.026 0 01-.017-.032zm.008.287c-.006-.026.006-.052.028-.058.02-.006.044.01.05.036.007.026-.006.053-.027.059-.022.006-.044-.01-.05-.037zm-.092.03a.02.02 0 01.025-.012.02.02 0 01.013.024c-.003.01-.015.015-.025.011a.019.019 0 01-.013-.023zm.223-.117a.038.038 0 01.05-.024.04.04 0 01.026.049.039.039 0 01-.05.024.04.04 0 01-.026-.049zm-.079-.058a.026.026 0 01.035-.016c.014.004.022.02.018.033a.027.027 0 01-.034.017.027.027 0 01-.019-.034zm-.059.017c.024-.02.03-.055.014-.076-.017-.02-.05-.02-.074 0-.024.021-.03.055-.013.076.016.02.05.02.073 0zm-.079.057a.025.025 0 01.033-.016.026.026 0 01.017.032.026.026 0 01-.033.016.028.028 0 01-.017-.032zm.16-.155a.034.034 0 01.044-.02.034.034 0 01.023.042.033.033 0 01-.043.02.033.033 0 01-.023-.042zm-.245.128c.004-.013.019-.02.032-.016.014.005.022.019.018.032a.025.025 0 01-.033.016.026.026 0 01-.017-.032zm.005-.158c.013-.002.025.013.027.032.002.02-.007.036-.02.038-.013.001-.026-.013-.028-.032-.002-.02.007-.037.02-.038zm-.036-.117c.104-.329.16-.614.435-.53.226.067.22.447.102.826a1.179 1.179 0 01-.076.19c.065-.143-.027-.333-.169-.43-.142-.099-.251-.108-.31.015a.073.073 0 00-.004.009c.007-.027.013-.053.022-.08zm.357-.548c-.011-.033-.018-.058-.027-.09-.011-.035.038.006.042.009.015.013.035-.028.045-.012.026.039.02.044.054.024.016-.01.024.026.036.034.003.003.015-.001.023.001.026.009-.046.063-.063.058-.018-.006-.076-.03-.11-.024zm-.364.625a.268.268 0 00.002.202c.028.078.08.15.14.202.058.05.154.113.234.083a.147.147 0 00.08-.084.216.216 0 00.015-.042.299.299 0 00-.02-.173.455.455 0 00-.16-.198c-.056-.04-.15-.094-.221-.065a.146.146 0 00-.07.075zm-1.43.141h.04v.055h.052v.056h.052l.003.046.05-.032.003-.136.023-.03c.09 0 .138.008.158-.07h-.053c.02-.045.018-.05-.039-.054V4.06h-.053v-.042c-.1.01-.045.098-.09.155-.038.051-.123.007-.146.094zm.184-.041l-.026.096-.04-.013c-.004-.042-.006-.035-.025-.053l.09-.03.032-.095.021-.002v.028h.053c-.02.03-.074.047-.105.069zm1.178 1.55c.043-.05.045-.141.108-.15l.032-.003c.098-.012.003.1 0 .201l.133-.168.02.018c.044.024.125.091.132.157.02.191-.142.293-.31.313l-.26.031c-.136.017-.347-.023-.362-.164l-.01-.085c-.009-.09.063-.161.12-.184l.072.127c-.02-.18-.03-.204.142-.223l.036.163.04-.191.127-.016-.02.174zm.884-1.277c.026.11.106.459.054.486l-.097.049-.089-.466.132-.07zm.036-.04l-.04.02-.214.112.002.004-.05.263-.02.11.175.19c.07-.045.054-.063.173-.124.098-.051.063-.06.043-.17-.023-.13-.042-.285-.07-.405z" fill="#FEFEFE"/><path fill-rule="evenodd" clip-rule="evenodd" d="M5.504 3.467c.067.093.38-.035.327-.162l-.125-.3c-.03-.072-.114-.07-.185-.038l-.063.029c-.192.089.006.341.046.471zM5.4 3.135c-.017-.042.03-.103.067-.12l.071-.033c.183-.062.201.094.023.157-.045.021-.142.04-.16-.004zm.035-.02c.03.073.223-.03.219-.086-.06-.084-.22-.012-.22.087zm-.717 2.163l.01.004a.255.255 0 00-.007-.05l-.003.046zm.035.013l.012.004a.262.262 0 00-.008-.062l-.004.058zm.036.012c.004 0 .009.003.013.004a.296.296 0 00-.008-.072l-.005.068zm.345.015a.23.23 0 01.06.093l.022-.008a.273.273 0 00-.055-.092.18.18 0 01.08.043l.017-.017a.203.203 0 00-.091-.05.548.548 0 00.11-.01l-.004-.025a.497.497 0 01-.121.01v-.004a.259.259 0 00.107-.044l-.015-.02a.227.227 0 01-.091.04.369.369 0 00.02-.012.154.154 0 00.065-.073l-.021-.009a.136.136 0 01-.056.061.188.188 0 01-.027.014c-.02-.023-.055-.041-.11-.047-.097-.01-.382 0-.388.051-.003.034.115.075.224.104.004-.03.004-.064.007-.085.007.03.009.059.007.088l.034.008c-.005 0-.008-.002-.013-.003.005-.031.006-.068.008-.091a.299.299 0 01.007.095l.02.004c.007-.032.007-.073.01-.098a.315.315 0 01.006.102.225.225 0 01-.016-.004l.036.007c.007-.033.007-.077.01-.103.009.036.01.07.006.106a.279.279 0 00.02.002c.008-.033.007-.079.01-.106a.328.328 0 01.006.108l-.012-.001a.232.232 0 00.031.002c.009-.034.009-.08.012-.107.009.036.01.07.006.106h-.018c.048 0 .08-.013.097-.035zm-.31-.005l.014.004c0-.027 0-.054-.007-.08-.003.019-.003.048-.007.076zm-.819-3.767l-.002.072c-.002.032.007.05.017.072l.355.013.011-.08c-.024-.003-.043-.015-.042-.038 0-.019.015-.04.03-.04h.02l.002-.071a.257.257 0 00-.016-.092.437.437 0 00-.116-.015c-.155-.006-.253.014-.26.18zm.156-.004a.034.034 0 01-.033-.037V1.5c.001-.02.012-.036.03-.035.018 0 .04.016.038.032v.005c0 .022-.016.04-.035.04zm.152-.035v-.005c0-.012.014-.025.025-.025h.015c.011 0 .023.015.023.027v.01c0 .015-.022.03-.036.03-.018-.001-.028-.017-.027-.037zm-.264.04h-.005c-.011 0-.024-.014-.023-.026v-.02c0-.02.015-.036.03-.035h.006c.011 0 .028.02.028.032v.015c-.002.024-.014.036-.036.035zm.172.074c0-.02.015-.035.03-.035.017 0 .034.01.034.027v.015c-.001.012-.015.025-.026.025h-.015c-.013-.001-.023-.02-.023-.032zm-.128-.172c.007 0 .012.006.012.013 0 .006-.006.012-.013.012-.006 0-.011-.006-.011-.013 0-.007.006-.013.012-.012zm.015.103c.012 0 .021.01.02.023 0 .012-.01.022-.021.021-.012 0-.021-.01-.021-.023a.02.02 0 01.022-.021zm.23.108c-.011 0-.02-.01-.02-.023.001-.012.01-.021.022-.02.011 0 .02.01.02.022a.02.02 0 01-.022.02zm1.736 3.991l.027.03.117-.128.067-.072.04-.046.108-.11c-.022-.033-.054-.054-.108-.051-.018.072 0 .133-.07.212.007-.052.078-.15.037-.192l-.014-.015c-.017-.018-.042-.015-.062.006-.02.02-.016.116-.04.176-.028.067-.134.157-.102.19zm.284.149l.173-.185c.025-.027-.06-.253-.087-.287l-.073.084-.05.054-.052.052-.049.056-.067.071-.045.048c.056.065.142.097.25.107zm-.294-.213l.041-.045c.049-.053.104-.211.08-.238-.017-.016-.032-.012-.046-.012-.002-.015-.001-.06-.029-.03-.06.065-.017.101-.034.16-.02.066-.065.107-.012.165zm-1.996-.944l-.01-.013a.48.48 0 01-.05-.088l-.006-.014a.206.206 0 00-.046.063.217.217 0 00-.012.078.435.435 0 01.108-.025l.016-.001zm-.082-.24a.022.022 0 01.027.017v.004l.005.013.006.023a.223.223 0 01.18.005l.005.001a.132.132 0 01.07.08.147.147 0 01-.004.1.106.106 0 01-.045.05.092.092 0 01-.027.01.111.111 0 01.005.098.136.136 0 01-.065.069.114.114 0 01-.1 0c-.004 0-.006-.002-.01-.004a.259.259 0 01-.119-.13l-.003-.008a.475.475 0 00-.037.019.022.022 0 01-.03-.01.027.027 0 01-.001-.02.026.026 0 01.01-.011l.048-.023a.25.25 0 01.012-.109l.002-.005.003-.006a.019.019 0 01.005-.008.248.248 0 01.062-.075.616.616 0 01-.015-.052.024.024 0 01.001-.015.022.022 0 01.015-.013zm.25.158a.085.085 0 00-.045-.052l-.003-.002a.18.18 0 00-.14-.008l-.008.004a.45.45 0 00.053.098.161.161 0 00.057.052c.005.003.01.005.016.006.02.005.033.002.044-.004a.058.058 0 00.024-.029.099.099 0 00.003-.065zm-.069.224a.063.063 0 00.005-.04.065.065 0 00-.027-.036.11.11 0 00-.015-.009.152.152 0 00-.072-.01.366.366 0 00-.083.017l-.022.008.002.007a.212.212 0 00.105.11c.023.01.044.008.064-.001a.09.09 0 00.043-.046zm1.579.089a.486.486 0 01-.082-.095l-.009-.014a.234.234 0 00-.037.076.222.222 0 00.001.086.472.472 0 01.11-.049l.017-.004zm-.131-.239a.023.023 0 01.031.013l.002.004a.172.172 0 00.007.014l.011.022.008-.005a.242.242 0 01.185-.027l.004.001a.14.14 0 01.089.071.161.161 0 01.015.106.117.117 0 01-.039.064.093.093 0 01-.027.015.11.11 0 01.017.028.117.117 0 01.006.076.15.15 0 01-.056.086.124.124 0 01-.107.022l-.01-.003a.274.274 0 01-.15-.114L5.596 5a.976.976 0 00-.037.027.023.023 0 01-.033-.003c-.005-.007-.006-.015-.005-.022a.024.024 0 01.008-.014l.048-.035a.271.271 0 01-.008-.117l.002-.006.001-.007.004-.01a.284.284 0 01.053-.092.82.82 0 01-.026-.053.025.025 0 01-.001-.016.023.023 0 01.013-.017zm.295.118a.09.09 0 00-.058-.047H5.85a.195.195 0 00-.158.025c.02.032.045.067.073.094a.174.174 0 00.071.043.086.086 0 00.018.003.062.062 0 00.046-.013.063.063 0 00.021-.036.107.107 0 00-.01-.07zm-.032.252a.069.069 0 00-.003-.043.067.067 0 00-.035-.034.077.077 0 00-.017-.006.156.156 0 00-.079.004.41.41 0 00-.085.035l-.022.013a.227.227 0 00.13.1l.006.002a.08.08 0 00.068-.014.102.102 0 00.037-.057zM4.293 3.146a.05.05 0 00-.008-.002l.001.02v.015l-.009-.011-.02-.025a.27.27 0 01-.02.014l-.008.004v-.038l-.03-.005-.013-.003.012-.008.017-.009-.004-.005c-.03-.002-.058.01-.072.035-.021.038-.025.131.02.158.043.026.118-.023.139-.061.013-.024.01-.053-.005-.079zm-.082.002l-.001.01c-.003.003-.007.004-.007.004s-.002-.004 0-.009c.003-.004.008-.005.008-.005zm-.037.067s.001.005-.001.009c-.002.004-.007.005-.007.005V3.22c.003-.004.008-.005.008-.005zm-.002-.047s.002.006 0 .01a.013.013 0 01-.008.005l.001-.009a.022.022 0 01.007-.006zm-.028.041c-.003 0-.006-.003-.008-.008-.006-.018.004-.05.013-.066.008-.016.014-.017.031-.025-.018.014-.023.043-.025.066 0 .008.002.022-.004.029a.018.018 0 01-.007.004zm.02.063s0-.005.002-.009c.002-.004.007-.005.007-.005s.001.005-.001.01c-.002.003-.007.004-.007.004zm.038-.066v-.01c.003-.004.008-.005.008-.005l-.001.01c-.002.003-.007.005-.007.005zm.001.046s-.001-.005.001-.01c.002-.003.007-.004.007-.004v.009c-.003.004-.008.005-.008.005zm.037-.067v-.01a.018.018 0 01.008-.004v.009c-.003.004-.008.005-.008.005zm0 .043s-.002-.005 0-.009c.002-.004.007-.005.007-.005s.001.005-.001.009c-.002.004-.007.005-.007.005zm.038-.093a.358.358 0 00.038.013s-.018-.018-.032-.028c.012-.003.025-.01.025-.01s-.02-.006-.034-.007l.003-.023s-.014.005-.021.01c-.008-.012-.025-.031-.025-.031s0 .016.003.028c-.015-.007-.039-.015-.039-.015l.03.028c-.011.003-.025.012-.025.012s.021.005.035.006c-.003.013-.002.034-.002.034l.025-.018a.32.32 0 00.022.03s0-.017-.003-.03zm0 .073s-.002-.005 0-.01l.007-.005v.01l-.008.005zm1.666-.277c-.072.051-.146.037-.222-.031 0 0 .027.048.1.069.072.021.122-.038.122-.038zm-.25-.17c-.024.044-.016.086.02.126 0 0-.022-.013-.033-.054-.012-.041.013-.072.013-.072zm.161-.063a.218.218 0 00-.022-.023c-.04-.036-.052-.041-.102-.022a.19.19 0 00-.03-.117c-.045.04-.103.094-.036.156l-.037-.007-.004.018c.024.002.035-.006.066.012l.043-.026.035-.003v.002l-.032.009-.042.023c.055.05.109.017.161-.022zm-.169.03c0 .006-.002.013-.007.016-.036.026-.043.083-.016.122-.001.018.037.069.06.09.091.083.187.072.23-.01.038-.024.047-.074.031-.124a.21.21 0 00-.13-.138l.008.008.007.008-.008.006c-.055.04-.114.076-.173.02l-.002.002zM6.26 4.05c-.04.146-.11.232-.142.238-.03.006-.008-.078.056-.242.057-.146.077-.208.094-.202.015.007.03.075-.007.206zM4.301 1.74a.109.109 0 01.02-.018c.05-.033.123-.006.16.06.019.03.026.063.024.093.035.006.069.04.086.088.02.063.003.127-.04.143H4.55v.009c-.005.052-.04.09-.08.087L4.46 2.2c0 .035-.02.062-.046.062-.025 0-.045-.03-.045-.065 0-.032.017-.059.04-.063a.126.126 0 01-.003-.033.13.13 0 01.004-.021c-.02-.004-.038-.023-.047-.049a.078.078 0 01.006-.066.157.157 0 01-.08-.089.093.093 0 01-.046-.015c-.037-.026-.051-.072-.032-.104.017-.028.057-.035.091-.018zm.156.437l.005.002c.02.01.045-.005.057-.032l.003-.01c-.012.027-.04.04-.063.03l-.006-.004a.034.034 0 01-.01-.01.04.04 0 00.014.024zm.033-.088c.018.008.039.004.057-.01a.093.093 0 00.03-.04.073.073 0 00.005-.015.087.087 0 01-.04.043.069.069 0 01-.058.003.068.068 0 01-.025-.02.056.056 0 00.031.04zm-.09-.03l.015.003a.04.04 0 00.03-.022l.003-.005a.038.038 0 00.002-.008.046.046 0 01-.006.01.039.039 0 01-.048.011.041.041 0 01-.015-.012c.003.01.01.019.019.023zm.015-.136a.082.082 0 01-.039.013.07.07 0 00.056-.001l.007-.004a.075.075 0 00.031-.05.12.12 0 00-.026-.097c.026.05.014.111-.03.14zm-.094-.09a.051.051 0 01-.014.013c.01 0 .019-.005.025-.013.012-.017.007-.041-.01-.055l-.008-.004a.044.044 0 01.007.06zm-.034.055a.23.23 0 01-.098.151.3.3 0 01.159-.023.102.102 0 00.015.041c-.036.007-.07.014-.107.023.042 0 .088.025.125.055a.076.076 0 00-.016.023c-.084-.071-.209-.051-.252-.014L4.065 2a.286.286 0 00.179-.125.106.106 0 00.043.013zM3.64 5.9l.639.002c0-.142-.157-.173-.286-.173h-.09c-.127-.001-.262.035-.263.17zm-.016.077c0 .02.005.026.024.026l.622.003c.019 0 .024-.006.025-.026v-.052l-.671-.003v.052zm.016.098c0 .027.054.086.08.086l.46.002c.049 0 .098-.05.098-.102v-.026l-.638-.003v.043zM3.42 2.51l.026-.028.035.036.034-.037.036.036.034-.038.031.029.012-.057-.085-.09-.004-.036c.059-.063.096-.092.06-.157l-.035.038c-.016-.044-.02-.046-.061-.009l-.026-.027-.035.038-.026-.028c-.06.076.033.096.04.164.007.061-.077.093-.036.165zm.094-.157l.044.08-.034.02c-.03-.024-.026-.019-.05-.017l.04-.083-.04-.084.012-.017.018.018.034-.037c.006.035-.018.084-.024.12zm.942 3.591c-.043-.002-.094.042-.112.099-.019.057.001.104.044.106.044.002.095-.043.113-.1.019-.056-.001-.103-.045-.105zm-.014.106c-.015 0-.022-.017-.015-.037.006-.02.024-.036.04-.035.014 0 .021.018.015.037-.006.02-.024.036-.04.035zm1.504-.522a.65.65 0 00-.038-.01c.012-.018.022-.04.022-.04l.01-.023-.022.01s-.03.011-.053.024a.45.45 0 00-.021-.05l-.009-.017-.008.017s-.015.03-.023.055c-.023-.012-.052-.024-.052-.024l-.023-.009.01.023s.01.022.023.04a.622.622 0 00-.057.016.186.186 0 01-.098-.16c0-.106.094-.19.21-.19.115 0 .209.084.209.19a.18.18 0 01-.08.148zm-.28-.051c.013.022.036.036.044.036.009 0 .002-.014-.01-.034-.012-.02-.027-.038-.037-.04-.01-.002-.012.015.002.038zm.225.049a.605.605 0 01.072.018s-.044.011-.076.014c.016.02.031.05.031.05s-.036-.014-.06-.028c-.003.02-.015.046-.015.046s-.017-.025-.025-.044a.39.39 0 01-.066.03s.015-.029.03-.048c-.032-.003-.076-.014-.076-.014s.042-.013.073-.018a.28.28 0 01-.03-.052s.038.015.061.03c.007-.028.025-.066.025-.066s.017.033.024.06c.024-.015.062-.03.062-.03s-.015.032-.03.052zm-.215-.257a.156.156 0 00-.041.132c.002.013.014.023.025.022.01 0 .014-.014.011-.03a.154.154 0 01.029-.12c.033-.044.02-.051-.024-.004zM3.922 3.853l-.006-.009a.305.305 0 01-.032-.057l-.004-.01a.137.137 0 00-.03.042.139.139 0 00-.008.05.283.283 0 01.08-.016zm-.053-.157a.015.015 0 01.018.011v.003a.07.07 0 00.003.009c0 .004.002.009.004.014l.006-.002a.144.144 0 01.112.006h.002a.086.086 0 01.045.053.092.092 0 01-.002.064.067.067 0 01-.029.033.057.057 0 01-.018.007.072.072 0 01.003.064.085.085 0 01-.042.044.074.074 0 01-.065.001L3.9 4a.168.168 0 01-.078-.084L3.82 3.91a.723.723 0 00-.024.012.014.014 0 01-.02-.006.016.016 0 010-.013.014.014 0 01.006-.007l.032-.016a.163.163 0 01.007-.07l.002-.003.002-.005.003-.005a.156.156 0 01.04-.049l-.01-.033.001-.01a.014.014 0 01.01-.009zm.163.103a.054.054 0 00-.03-.034.117.117 0 00-.092-.006l-.006.002a.31.31 0 00.034.065.106.106 0 00.038.033.052.052 0 00.01.004c.013.003.022.002.029-.002a.036.036 0 00.016-.02.062.062 0 00.001-.042zm-.045.146a.042.042 0 00.003-.025.041.041 0 00-.017-.024.072.072 0 00-.01-.006.101.101 0 00-.047-.007.259.259 0 00-.054.011l-.015.005.002.005a.14.14 0 00.065.07l.003.002c.015.006.03.005.042 0a.062.062 0 00.028-.03zm-.427.247c.056-.086.077-.12.08-.12.007-.002.014.007.018.015.027.056.053.096.043.162-.01.067-.006.044-.05.007-.017-.016-.04-.028-.058-.043-.004-.004-.032-.023-.034-.02zm-.086-.017l-.004.016-.104.107a.594.594 0 01-.178-.079l-.053-.052c-.029-.027.025-.119.05-.148.031-.035.116-.106.147-.076l.027.026c.076.074.077.143.115.206zm.067-.002h-.036l-.01.001-.006-.016a.513.513 0 00-.132-.222c.047-.03.176.026.229.077l.041.041-.086.12zm-.18.152l.01.052-.112.099c-.074-.073-.18-.212-.128-.282.069.068.128.087.23.131zm.022.068c-.078.067-.108.092-.108.095-.001.006.008.013.017.017.054.024.095.048.156.032.063-.015.042-.01.003-.052-.016-.018-.03-.041-.046-.059a.147.147 0 01-.022-.033zm.131-.152c-.04-.002-.072.037-.074.086-.002.05.028.092.067.093.038.002.071-.037.073-.087.002-.05-.028-.09-.066-.092zm.014.093c-.013 0-.024-.015-.023-.033 0-.017.012-.03.026-.03.013 0 .024.015.023.032 0 .018-.012.032-.026.03zm2.118-2.257c.029.093.309.08.3-.035l-.023-.273c-.005-.065-.073-.088-.137-.082l-.057.005c-.174.016-.081.271-.083.385zm.001-.292c-.003-.037.05-.073.084-.075l.065-.007c.16.003.134.131-.022.131-.042.004-.123-.008-.127-.049zm.033-.005c.005.066.184.039.195-.006-.026-.084-.17-.072-.195.006zm-.24.05l-.008-.01a.368.368 0 01-.038-.068l-.004-.01a.161.161 0 00-.036.048.167.167 0 00-.01.06.34.34 0 01.096-.02zm-.063-.184a.017.017 0 01.02.013l.001.003.003.01.006.018a.17.17 0 01.138.004h.003a.099.099 0 01.053.062.11.11 0 01-.003.076.078.078 0 01-.034.039.074.074 0 01-.021.007.074.074 0 01.009.022.088.088 0 01-.005.053.104.104 0 01-.05.053.088.088 0 01-.084-.003.198.198 0 01-.09-.1l-.003-.005a.292.292 0 00-.029.014.017.017 0 01-.023-.007.02.02 0 010-.016.016.016 0 01.007-.008s.015-.009.037-.018a.196.196 0 01.007-.076l.002-.007.002-.004.002-.005a.192.192 0 01.052-.063l-.012-.04a.02.02 0 010-.012.016.016 0 01.012-.01zm.192.121a.066.066 0 00-.035-.04h-.002a.138.138 0 00-.107-.007l-.007.003a.36.36 0 00.04.075.122.122 0 00.045.04.044.044 0 00.012.004.045.045 0 00.033-.003.045.045 0 00.02-.022.075.075 0 000-.05zm-.053.172a.05.05 0 00.003-.03.049.049 0 00-.02-.029.06.06 0 00-.011-.006.114.114 0 00-.056-.008.27.27 0 00-.08.019l.001.006c.013.031.038.06.076.081l.005.002a.055.055 0 00.049 0 .069.069 0 00.033-.035zM3.125 4.58c.016-.005.132-.065.215-.003.081.062.092.156.1.179a.186.186 0 01-.104-.064c-.065-.072-.142-.068-.142-.068s.068.017.132.087a.144.144 0 00.11.053c-.072.031-.153.04-.212-.008-.045-.035-.046-.14-.1-.175z" fill="#FEFEFE"/><path fill-rule="evenodd" clip-rule="evenodd" d="M5.018 1.663c-.133.037-.222.168-.203.243.02.076.122.055.255.017.133-.037.245-.077.226-.152-.02-.075-.146-.145-.278-.108zm.016.289c-.014.088-.083.18-.013.22.143.084.171-.098.141-.195a.47.47 0 00-.021-.056l-.067.02-.04.01zm-.11-.176c-.03.04-.045.085-.037.118.003.01.006.017.011.023.01.01 0 .018-.02.007a.047.047 0 01-.026-.032c-.015-.06.056-.164.161-.193l.003-.001s-.051.022-.092.078zm-.274-.103a.17.17 0 00-.024-.02c.015-.01.029-.022.029-.022l.015-.012-.019-.002-.046-.002c.002-.02.001-.043.001-.043v-.015l-.012.01s-.02.015-.034.03c-.012-.017-.03-.036-.03-.036l-.014-.015v.021s0 .019.004.036a.426.426 0 00-.046-.009.154.154 0 01-.018-.15c.034-.076.129-.103.212-.061.083.042.123.137.088.212a.136.136 0 01-.106.078zm-.184-.138c.002.02.014.04.02.042.006.002.006-.01.004-.028-.002-.02-.007-.037-.013-.042-.007-.006-.014.006-.011.028zm.146.116c.02.015.045.04.045.04s-.035-.008-.058-.018c.004.02.006.046.006.046s-.022-.023-.035-.04c-.009.012-.025.027-.025.027s-.004-.024-.004-.04a.336.336 0 01-.058-.003s.02-.015.038-.024a.576.576 0 01-.05-.037s.034.005.058.013a.267.267 0 01-.005-.048s.023.025.035.044c.014-.018.04-.039.04-.039s.001.03-.003.052c.022-.002.054.001.054.001s-.02.017-.038.026zm-.07-.262a.118.118 0 00-.074.08c-.002.01.003.022.011.025.009.003.015-.005.019-.017a.118.118 0 01.06-.076c.037-.02.03-.03-.016-.012zm2.054 3.736l-.004-.01c.015 0 .03 0 .045.004l-.041.006zm-.014-.035l-.004-.012a.25.25 0 01.056.005l-.052.007zm-.012-.035l-.004-.012a.23.23 0 01.065.003c-.016.003-.039.005-.061.01zm-.032-.342a.204.204 0 00-.085-.055l.005-.023a.23.23 0 01.085.05.175.175 0 00-.042-.077l.015-.018a.207.207 0 01.048.088.597.597 0 01.005-.11l.022.003a.573.573 0 00-.004.122h.005a.268.268 0 01.034-.11l.018.014a.247.247 0 00-.03.092.225.225 0 01.009-.02.145.145 0 01.063-.069l.008.022c-.018.007-.038.031-.052.058a.188.188 0 00-.01.028c.021.018.039.052.047.107.014.096.019.38-.027.387-.03.005-.073-.11-.104-.216.027-.006.057-.008.076-.012a.233.233 0 00-.08-.002 2.18 2.18 0 01-.009-.033l.004.012c.028-.007.061-.01.082-.013a.238.238 0 00-.086-.002.47.47 0 01-.005-.02c.029-.008.065-.01.087-.014a.25.25 0 00-.09-.001l.003.015-.008-.034c.03-.01.069-.012.092-.016a.25.25 0 00-.095 0l-.004-.02c.03-.01.071-.012.096-.016a.265.265 0 00-.098 0l.001.012a.474.474 0 01-.003-.031c.03-.01.072-.013.096-.017a.258.258 0 00-.096-.001v.018c-.002-.047.009-.08.027-.098zm.02.307a.168.168 0 01-.003-.013.253.253 0 01.072.003c-.017.004-.044.006-.068.01zM4.915 2.114c-.027-.07-.083-.094-.164-.084 0 0 .038-.02.097 0 .059.02.067.084.067.084zm-.243-.003c.003-.041.027-.065.068-.076 0 0-.02-.001-.046.021-.025.023-.022.055-.022.055zm.083.12a.2.2 0 01-.025.005c-.042.005-.053.004-.078-.033-.007.02-.047.06-.07.065-.014-.05-.03-.113.042-.123l-.029-.013.005-.014c.018.01.022.02.05.023l.018.038.023.019.001-.002-.018-.02-.02-.037c.06-.008.083.04.101.092zm-.102-.1c.002-.005.004-.01.002-.015a.072.072 0 01.041-.09c.007-.013.055-.03.08-.033.097-.014.158.039.152.116.015.033 0 .072-.032.098-.048.04-.094.043-.147.033l.008-.002.008-.002-.003-.008c-.02-.054-.044-.105-.108-.096V2.13zM3.735 3.53a.626.626 0 01-.035.01c.011.016.02.036.02.036l.01.021-.02-.008s-.028-.011-.049-.022c-.008.022-.02.045-.02.045l-.007.015-.008-.015s-.014-.027-.021-.05l-.048.022-.02.008.009-.021s.009-.02.02-.037a.505.505 0 01-.052-.014.172.172 0 00-.09.147c0 .097.086.175.192.175.107 0 .193-.078.193-.175a.169.169 0 00-.074-.137zm-.258.047c.013-.02.034-.033.042-.033s.001.013-.01.032c-.011.018-.024.035-.033.037-.01.002-.012-.015.001-.036zm.208-.044c.028-.005.066-.017.066-.017s-.04-.01-.07-.013a.3.3 0 00.029-.045s-.034.012-.056.025a.217.217 0 00-.013-.042s-.016.022-.023.04c-.02-.013-.061-.028-.061-.028s.013.026.028.045a.596.596 0 00-.07.013s.038.012.066.016c-.014.019-.027.048-.027.048s.035-.014.057-.027c.005.025.023.06.023.06s.016-.03.022-.055a.426.426 0 00.056.027s-.013-.029-.027-.047zm-.198.236a.146.146 0 01-.038-.122c.002-.012.013-.021.023-.02.01.001.014.013.011.027a.141.141 0 00.026.111c.03.04.02.047-.022.004zm.294.321s-.056-.081-.08-.103a.412.412 0 00-.078-.058.541.541 0 00-.058-.03c.044.017.09.034.127.064a.388.388 0 01.09.127zm-.054-.151c.103.1.103.205.08.211-.026.007-.051-.085-.146-.158-.1-.078-.16-.086-.137-.106.024-.019.115-.033.203.053zm1.883-.378s-.012.056-.02.083c-.01.028-.05.105-.05.105l.07-.188zm-.067.067c.059-.17.123-.124.064.046-.06.169-.124.124-.064-.046zM5.44 5.053c-.074.02-.124.093-.113.135.01.042.068.03.142.01.074-.021.137-.043.126-.085-.01-.042-.08-.081-.155-.06zm.01.16c-.009.05-.047.1-.008.123.08.047.096-.054.079-.108a.237.237 0 00-.012-.032.58.58 0 01-.06.017zm-.062-.098c-.017.023-.025.048-.02.066 0 .006.003.01.006.013.005.006 0 .01-.012.004a.024.024 0 01-.014-.018c-.009-.034.03-.091.09-.108h.001s-.028.012-.051.043zm-1.704.42l.02.025.087-.079.05-.045.03-.029.08-.068a.104.104 0 00-.08-.052c-.014.05 0 .1-.052.149.006-.038.058-.101.028-.139l-.01-.013c-.013-.016-.032-.017-.047-.004-.014.013-.012.085-.03.126-.02.047-.1.1-.076.129zm.212.149l.129-.115c.018-.017-.045-.197-.065-.226l-.055.053-.037.033-.039.032-.036.035-.05.045-.034.029a.328.328 0 00.187.114zm-.22-.199l.031-.028c.037-.033.078-.143.06-.166-.013-.015-.024-.014-.035-.015-.001-.012 0-.045-.021-.027-.044.04-.013.073-.026.114-.014.047-.049.072-.01.122zm1.014.409c.017.022.011.057.011.057s-.034 0-.051-.023c-.017-.022-.011-.057-.011-.057s.034 0 .051.023zm.012.071a.17.17 0 01.044-.082.182.182 0 01.024.02.097.097 0 00-.056.062.085.085 0 01.08-.009c.034.016.039.064.037.1-.003.05-.037.097-.089.101a.058.058 0 01-.034-.007.059.059 0 01-.035.007c-.051-.004-.086-.05-.089-.102-.002-.035.004-.083.037-.099a.085.085 0 01.081.01zm.092.092a.08.08 0 00.002-.046c-.003-.013-.016-.037-.03-.045.034.011.076.078.028.09zm.144-.65v-.003l-.001-.006c-.008-.03-.036-.047-.064-.039a.055.055 0 00-.037.067l.002.006.001.003c.01.025.01.028-.001.076a.093.093 0 000 .044.084.084 0 00.063.063.078.078 0 01-.007-.035c0-.032.019-.053.036-.073l.012-.015a.067.067 0 00.01-.028.267.267 0 01.004-.017.07.07 0 01-.018-.043zm.131.147c-.015-.046-.014-.05-.006-.075l.001-.003.002-.006a.055.055 0 00-.041-.064.052.052 0 00-.062.042v.01c-.003.027-.003.03-.034.067a.089.089 0 00-.018.04.087.087 0 00.064.102.082.082 0 00.097-.068.093.093 0 00-.003-.045zm-.009.042a.07.07 0 01-.082.058.073.073 0 01-.056-.087.07.07 0 01.016-.034c.034-.041.034-.046.036-.078l.001-.004a.04.04 0 01.047-.033.043.043 0 01.032.05l-.001.004c-.01.03-.012.034.005.087a.08.08 0 01.002.037zm-.054-.077c-.025-.006-.05.016-.057.048-.006.031.01.061.035.066.025.006.05-.016.057-.047.005-.032-.01-.062-.035-.067zm-.035.038a.07.07 0 00-.008.036c.001.01-.002.01-.005-.003a.057.057 0 01.005-.038c.005-.009.013-.014.016-.014.003.001-.003.01-.008.02zm.043-.024a.028.028 0 00-.011 0c-.007 0-.014.002-.016.001-.004 0-.001-.005.005-.006h.012l.006.002.004.003zm-.153.034l.004.01c.002.006-.002.004-.008-.006a.092.092 0 01-.008-.019.081.081 0 010-.038c.014-.053.011-.057 0-.087l-.001-.004a.043.043 0 01.002-.028c.006-.015.012-.012.009 0a.049.049 0 000 .023l.002.005c.013.034.016.038 0 .1a.087.087 0 000 .044zm-.752-3.816c-.035-.001-.065.034-.066.078-.002.044.025.082.06.083.034.001.063-.033.065-.078.002-.044-.025-.081-.06-.083zm.013.084c-.012 0-.022-.014-.021-.03 0-.015.01-.028.023-.027.012 0 .021.014.02.03 0 .015-.01.027-.022.027zm-.575.762s-.053.103-.064.14a.539.539 0 00-.018.115c-.003.043-.002.08-.002.08-.004-.058-.01-.116.002-.173a.43.43 0 01.082-.162zm-.125.136c.05-.165.154-.216.172-.194.02.025-.06.098-.085.24-.028.15-.006.22-.037.203-.031-.016-.091-.11-.05-.25zm1.116-.988c.013-.003.114-.036.173.025.058.06.056.137.06.156a.151.151 0 01-.076-.065c-.044-.065-.107-.072-.107-.072s.053.022.096.086c.025.04.059.054.083.057-.062.016-.128.013-.17-.033-.032-.035-.02-.12-.06-.154zm1.439 3.394a.104.104 0 00.036.049c.013.01.008.013-.01.004a.09.09 0 01-.041-.05c-.006-.014-.003-.031 0-.035.005-.004.01.014.015.032zm.017-.086a.07.07 0 00-.013.016.076.076 0 01-.016.024c-.004.003-.006-.004 0-.015a.058.058 0 01.02-.021.033.033 0 01.01-.004zm-.027-.003c-.034.028-.034.086-.002.128.033.042.087.054.12.025.033-.029.034-.087.002-.129-.033-.042-.086-.053-.12-.024zm-.453.344l.06.03c.003 0 .004-.006.003-.01 0-.03.002-.053-.017-.077-.018-.026-.012-.017-.022.008l-.014.033-.01.016zm-.032.028l-.005-.006-.066-.02a.295.295 0 00-.057.076l-.01.034c-.007.018.036.043.052.05.02.006.071.016.078-.004l.005-.017c.015-.05.001-.078.003-.113zm.029-.016l-.016.009-.004.002.001.008a.25.25 0 01-.007.124c.027.001.068-.053.079-.087l.008-.027-.061-.029zm-.108-.02l-.007-.023-.068-.015c-.015.048-.029.131.008.148.014-.044.034-.067.067-.11zm-.005-.033l-.066-.014c-.002-.002 0-.007.003-.01.018-.023.03-.043.058-.051.03-.009.02-.006.013.02l-.007.036-.001.019zm1.012-.07c.028.05.19.007.172-.059l-.045-.157c-.01-.037-.052-.042-.09-.03l-.032.01c-.1.031-.017.17-.005.236zm-.033-.171c-.006-.022.021-.05.04-.055l.038-.012c.094-.019.094.06.002.08-.024.007-.073.01-.08-.013zm.019-.007c.01.037.112-.001.113-.029-.024-.046-.107-.02-.113.029zm-2.124.518c.013 0 .021.007.026.016.005.027.019.1.028.17a.574.574 0 01-.004.174s.022-.008.048-.039a.197.197 0 00.041-.106c.029.034.057.06.07.072v-.002c0-.006 0-.017-.003-.03a.021.021 0 01-.026-.013.023.023 0 01.012-.028h.006l-.003-.01a.027.027 0 01-.041-.009.03.03 0 01.012-.036.028.028 0 01.012-.005.839.839 0 00-.005-.01.032.032 0 01-.01.01c-.013.007-.03.004-.037-.008a.03.03 0 01.008-.04.027.027 0 01.012-.004.115.115 0 01-.007-.009.033.033 0 01-.008.01c-.012.009-.03.008-.038-.004-.009-.01-.008-.028.003-.039l.004-.003c-.002-.003-.005-.004-.008-.006l-.002.003c-.009.008-.021.01-.029.002a.022.022 0 01-.003-.03.316.316 0 00-.023-.013l-.003-.005-.003-.005a.364.364 0 01.137.116c.041.056.055.176.047.176.005.005.046-.103-.015-.2a.192.192 0 00-.17-.092.036.036 0 00-.029-.013c-.023.001-.048.023-.04.052.01.012.03.008.031-.007.002-.011 0-.023-.009-.03-.039-.02-.058.016-.055.013-.003.002.02-.03.052-.01.014.012.004.046-.012.03-.004-.015.016-.04.034-.038zM5.212 2l.03.04-.05.043.04.054-.051.042.04.053-.04.039.067.025.127-.1h.046c.068.09.098.147.184.107l-.04-.053c.056-.015.06-.02.02-.082l.039-.032-.04-.054.037-.031c-.084-.095-.123.028-.21.027-.077-.001-.102-.122-.2-.077zm.179.156l-.108.047-.019-.05c.035-.036.028-.033.03-.067l.097.07.11-.041.019.02-.026.022.04.053c-.043.002-.1-.04-.143-.054zM6.82 4.938c-.003.141-.046.237-.073.25-.026.014-.025-.067-.006-.23.016-.146.02-.207.036-.206.015.002.044.06.042.186zm-1.54.554l-.005.006a.222.222 0 00-.007-.017l-.007-.013-.003.014-.006.03c-.01-.003-.023-.003-.023-.003h-.008l.003.008.013.023a.343.343 0 00-.023.018l-.01.009h.032l-.003.006c-.024.016-.052.018-.073.004-.033-.022-.073-.097-.048-.14.025-.04.108-.034.14-.012.02.014.03.04.028.067zm-.069.036s0-.005-.004-.007-.008-.001-.008-.001.001.004.004.007c.004.002.008 0 .008 0zm-.058-.039s0-.004-.004-.007c-.003-.002-.008 0-.008 0s.001.004.005.006c.003.003.007.001.007.001zm.018.04s-.001-.005-.004-.008c-.004-.002-.008-.001-.008-.001s0 .005.004.007.008.001.008.001zm-.04-.021s-.004.005-.003.01c.003.018.024.04.037.049.014.009.02.007.037.006-.021-.003-.038-.025-.048-.043-.004-.006-.007-.019-.015-.022H5.13zm-.008-.062s0 .004.004.007c.004.002.008 0 .008 0s0-.004-.004-.006-.008-.001-.008-.001zm.057.039s.001.004.005.006c.003.003.008.002.008.002s-.001-.005-.005-.007c-.003-.002-.008-.001-.008-.001zm-.017-.04s0 .005.004.007c.004.003.008.001.008.001s-.001-.004-.004-.006c-.004-.003-.008-.002-.008-.002zm.057.04s.002.004.005.006.008.001.008.001-.001-.004-.005-.007c-.003-.002-.008 0-.008 0zm-.018-.036s.001.004.005.007c.003.002.007.001.007.001s0-.005-.004-.007c-.003-.002-.008-.001-.008-.001zm.07.06c.011-.013.027-.028.027-.028s-.008.022-.016.037c.011-.003.026-.002.026-.002s-.015.013-.026.02a.105.105 0 01.012.018s-.014.002-.023 0c0 .014-.007.038-.007.038l-.009-.025-.025.03s.006-.021.013-.036c-.011.002-.026.001-.026.001s.015-.014.027-.02a.168.168 0 01-.016-.027s.016 0 .027.003l.007-.035s.007.014.01.026zm-.03-.06s.001.004.004.007c.004.002.008 0 .008 0s0-.004-.004-.006l-.008-.002zm-.497.338a.115.115 0 00.039.052c.014.01.008.015-.01.005a.1.1 0 01-.045-.052c-.006-.016-.003-.035 0-.039.005-.004.01.015.016.034zm.019-.09a.061.061 0 00-.014.016c-.006.01-.012.022-.017.025-.005.003-.007-.005-.002-.015a.063.063 0 01.024-.023.023.023 0 01.009-.004zm-.03-.004c-.035.03-.036.091-.001.136.034.045.092.057.127.026.036-.03.037-.092.002-.137-.035-.044-.092-.056-.127-.025z" fill="#FEFEFE"/><path fill-rule="evenodd" clip-rule="evenodd" d="M4.009 5.652s.059-.002.09.001c.03.003.117.03.117.03l-.207-.031zm.085.058c-.187-.024-.157-.108.03-.084.185.024.156.108-.03.084zm-.022-1.964c.015.061.197.067.196-.008l-.001-.178c0-.043-.043-.061-.086-.06h-.037c-.114.001-.066.172-.072.246zm.015-.19c0-.025.036-.045.057-.045h.043c.104.01.081.091-.02.083-.028 0-.08-.011-.08-.038zm.021-.002c0 .043.118.035.127.006-.013-.056-.107-.056-.127-.006zm2.109 2.342c-.05.023-.212.094-.229.069l-.032-.048.217-.086.044.065zm.022.015l-.013-.02-.071-.104-.002.002-.13-.005-.055-.002-.077.11c.027.033.035.023.074.081.033.048.034.029.085.009.06-.023.134-.047.19-.071zm.372-.619c-.06.004-.11.053-.108.087.003.035.05.035.11.03.061-.003.113-.01.11-.045-.001-.035-.05-.077-.112-.072zm-.016.127c-.013.037-.05.071-.023.095.055.05.083-.027.077-.072a.197.197 0 00-.005-.027l-.03.003-.019.001zm-.034-.087c-.016.015-.026.034-.025.049 0 .004.001.008.003.01.003.006-.001.009-.01.002a.022.022 0 01-.008-.016c-.002-.028.037-.067.086-.07 0 0-.023.005-.046.025zM3.956 4.045a.03.03 0 00-.013.027c.01.024.034.089.062.148a.53.53 0 00.088.136s-.021.005-.056-.005a.167.167 0 01-.084-.06c-.007.04-.016.077-.02.093h-.001a.186.186 0 01-.012-.026.021.021 0 00.014-.024.02.02 0 00-.024-.016l-.005.002-.002-.008h.006a.027.027 0 00.022-.029.027.027 0 00-.028-.023.025.025 0 00-.01.004l-.002-.012a.027.027 0 00.012.003.027.027 0 00.025-.026.027.027 0 00-.025-.027.02.02 0 00-.011.003l.001-.011a.028.028 0 00.01.003.026.026 0 00.028-.023.026.026 0 00-.021-.029h-.005l.003-.01.004.002a.02.02 0 00.023-.015.02.02 0 00-.012-.024.231.231 0 01.012-.024V4.07l-.001-.005a.362.362 0 00-.05.164c-.005.067.044.169.05.164-.002.007-.088-.056-.087-.165a.2.2 0 01.088-.165.035.035 0 01.017-.026c.018-.011.049-.008.057.02-.001.014-.02.022-.028.011a.03.03 0 01-.008-.029c.02-.037.054-.019.05-.02.004 0-.03-.012-.045.022-.006.016.019.037.023.015-.004-.013-.032-.021-.045-.01zm-.495-1.007c-.028.026-.026.075.003.111.03.036.076.045.104.019.028-.025.027-.075-.003-.111-.03-.036-.076-.044-.104-.019zm.068.055c-.01.009-.026.006-.036-.007-.01-.012-.01-.03 0-.039.009-.009.025-.006.036.007.01.012.01.03 0 .039zm2.063-.725c-.03.01-.044.05-.031.09.012.038.046.06.076.05.03-.012.044-.051.032-.09-.013-.038-.047-.06-.077-.05zm.037.067c-.01.003-.022-.005-.026-.018-.005-.014 0-.028.01-.031.011-.004.023.004.028.017.004.013 0 .028-.012.032zm-.062.345l.004.005-.014.006-.01.005.01.004.024.006-.002.02v.007l.006-.003.02-.01c.005.01.013.02.013.02l.007.01v-.028l.006.002c.012.022.013.047 0 .066-.018.028-.08.062-.113.039-.033-.024-.024-.097-.006-.126.012-.018.032-.026.055-.023zm.027.063s-.004 0-.006.003-.002.007-.002.007.004 0 .006-.003l.002-.008zm-.033.05s-.004 0-.006.003c-.002.004-.001.007-.001.007s.004 0 .006-.003 0-.007 0-.007zm.032-.015s-.004.001-.006.004-.001.007-.001.007.004 0 .006-.004c.002-.003 0-.007 0-.007zm-.018.035s.004.004.008.004c.015-.002.033-.02.04-.032.008-.013.007-.017.007-.033-.004.019-.021.033-.036.042-.006.003-.016.006-.019.013v.006zm-.05.006s.004 0 .006-.004c.002-.002.001-.007.001-.007s-.004.001-.006.004 0 .007 0 .007zm.033-.05s.004-.001.006-.004 0-.007 0-.007-.003 0-.005.004c-.002.003-.001.007-.001.007zm-.032.014s.004 0 .006-.004c.002-.002.001-.006.001-.006s-.004 0-.006.003-.001.007-.001.007zm.033-.05s.003 0 .005-.004c.002-.003.002-.007.002-.007s-.004.001-.006.004-.001.007-.001.007zm-.03.015s.004 0 .006-.003.001-.007.001-.007-.003 0-.005.003-.001.007-.001.007zm.05-.06a.468.468 0 01-.021-.025l.03.015c-.002-.01-.002-.022-.002-.022l.017.023c.004-.005.014-.01.014-.01v.02c.01.001.03.007.03.007s-.011.005-.02.007l.023.024-.03-.013c.002.01.001.024.001.024l-.016-.025a.082.082 0 01-.022.013l.003-.024a.225.225 0 01-.027-.007s.011-.006.02-.008zm-.048.025s.003 0 .005-.004c.002-.003.002-.007.002-.007s-.004 0-.006.004c-.002.003-.001.007-.001.007zM4.15 4.124c-.045-.005-.07-.037-.079-.092 0 0-.005.029.017.063.023.035.062.03.062.03zm-.045-.159c-.024.01-.034.03-.033.059 0 0-.005-.014.004-.035a.044.044 0 01.029-.024zm.086.033c0-.006 0-.012-.002-.017-.004-.03-.007-.035-.034-.046a.098.098 0 00.026-.058c-.031 0-.072 0-.065.05l-.013-.016-.007.005c.009.01.016.011.023.03l.025.004.015.012-.016-.007-.025-.006c.006.04.04.046.073.05zm-.078-.049c-.002.002-.005.004-.008.004-.023-.003-.044.018-.047.043-.006.007-.007.042-.005.059.01.066.052.096.097.079.022.004.042-.013.052-.039a.113.113 0 00-.007-.102v.011h-.004c-.036-.004-.072-.012-.078-.055zm-.166-1.871a.116.116 0 00-.012.033.101.101 0 00-.002.03c.001.016-.005.015-.01-.007a.097.097 0 01.011-.066c.008-.014.022-.023.028-.022.005.001-.005.016-.015.032zm.076-.04a.057.057 0 00-.02 0c-.011.001-.024.003-.028.001-.005-.002-.001-.008.01-.01h.02l.01.004a.028.028 0 01.008.006zm-.015-.025c-.043-.01-.087.026-.098.08-.012.055.014.107.057.117.044.01.088-.026.1-.08.01-.055-.015-.107-.059-.117zm-.677-.188s.021.053.029.08c.007.028.015.111.015.111l-.044-.191zm-.019.084c-.042-.17.036-.156.078.015.041.17-.036.157-.078-.015zm2.624 3.776v-.007a.2.2 0 01.006-.039l.002-.005a.071.071 0 00-.029.007.084.084 0 00-.021.02.169.169 0 01.037.02c.002 0 .005.004.005.004zm.031-.093a.009.009 0 01.004.012v.002l-.002.005-.003.008.003.001c.02.007.037.023.05.046v.002a.05.05 0 01.002.041.055.055 0 01-.023.029.037.037 0 01-.036 0 .05.05 0 01-.003.011.04.04 0 01-.018.02.047.047 0 01-.065-.021l-.002-.005a.105.105 0 01-.005-.069v-.003l-.015-.004c-.004 0-.008-.006-.006-.01 0-.003.002-.005.004-.007h.005s.009.001.02.005a.094.094 0 01.026-.027l.002-.002.002-.001.002-.002h.004a.083.083 0 01.036-.007l.007-.02.004-.004a.009.009 0 01.007 0zm.039.111a.037.037 0 00-.002-.027v-.001a.072.072 0 00-.04-.038l-.004-.001a.193.193 0 00-.007.042c0 .012.002.022.006.03a.136.136 0 00.003.006c.005.006.01.01.014.01.005.001.01 0 .014-.002a.037.037 0 00.016-.019zm-.073.05a.023.023 0 00.011-.011.027.027 0 000-.018.02.02 0 00-.002-.006.06.06 0 00-.02-.022.139.139 0 00-.028-.016l-.008-.003-.001.003a.086.086 0 00.005.057v.002a.03.03 0 00.02.016.032.032 0 00.023-.003zm-2.289-.174a.016.016 0 00-.002.016l.057.067c.03.032.07.055.07.055s-.01.007-.03.008a.09.09 0 01-.055-.016c.004.023.004.044.006.053a.123.123 0 01-.012-.01.012.012 0 00.003-.017c-.003-.005-.01-.006-.015-.003l-.002.002-.003-.004.003-.001a.016.016 0 00.007-.02.014.014 0 00-.018-.007l-.006.004-.002-.006a.02.02 0 00.006 0c.008-.004.012-.012.01-.019a.014.014 0 00-.018-.01l-.006.004V5.67h.005a.015.015 0 00.011-.017c-.001-.008-.009-.013-.017-.012l-.002.001v-.006h.002c.006 0 .01-.006.01-.011 0-.006-.005-.01-.01-.011a.13.13 0 01.002-.015l-.002-.002v-.003a.206.206 0 00.002.097c.008.036.05.08.053.077 0 .003-.055-.013-.074-.07-.019-.06.019-.104.019-.104a.024.024 0 01.004-.018c.008-.01.025-.013.034 0 .002.008-.007.015-.013.011a.016.016 0 01-.01-.014c.005-.023.024-.02.024-.02s-.018 0-.02.02c0 .01.016.017.015.004-.005-.006-.02-.005-.026.003zm-.196-2.335s.021.053.029.08c.007.028.015.111.015.111l-.044-.191zm-.019.084c-.042-.17.036-.156.078.015.042.17-.036.157-.078-.015zm1.289-1.609l.022-.006.008.031.03-.008.008.031.03-.008.008.026.024-.027-.019-.077.01-.021c.05-.014.079-.017.079-.065l-.03.008c.005-.028.003-.03-.03-.024l-.006-.024-.03.008-.006-.023c-.055.021-.012.062-.029.102-.015.035-.07.024-.07.077zm.098-.053v.059l-.025-.001c-.009-.023-.009-.02-.023-.026l.048-.032.004-.059.012-.004.004.015.03-.008c-.008.02-.036.039-.05.056z" fill="#FEFEFE"/><path d="M7.324 8.08v-.158c0-.021.004-.06.054-.06h.173c.037 0 .073 0 .099.024.025.022.028.054.028.08 0 .042-.01.07-.025.088-.026.03-.065.026-.104.026h-.225zm0 .545v-.292h.41a.268.268 0 00.17-.056c.082-.073.087-.247.087-.318 0-.147-.026-.227-.072-.277-.054-.061-.126-.071-.204-.071H7.18a.164.164 0 00-.13.052c-.033.039-.038.097-.038.139v.823h.313zm-1.236-.507c0-.084.001-.139.036-.193.041-.066.096-.074.176-.074.082 0 .133.008.176.074.038.057.036.105.036.193 0 .082 0 .138-.036.193-.043.067-.094.074-.176.074-.08 0-.135-.007-.176-.074-.032-.05-.036-.113-.036-.193zM6.3 7.6c-.147 0-.32.004-.424.104-.106.102-.11.279-.11.415 0 .134.004.312.11.415.102.1.28.104.424.104.144 0 .322-.004.424-.104.106-.103.11-.281.11-.415 0-.136-.004-.313-.11-.415-.104-.1-.277-.104-.424-.104zm-1.346.618h.251c.018 0 .048 0 .07.017.02.016.02.035.02.058 0 .017 0 .045-.018.063-.02.019-.054.019-.072.019H5.02c-.044 0-.066.004-.066-.067v-.09zm.606-.606h-.768c-.035 0-.151.008-.151.162v.71c0 .083.055.142.136.142h.628c.095 0 .145-.06.158-.077.047-.065.054-.159.054-.246 0-.068-.004-.176-.056-.24a.208.208 0 00-.16-.066h-.447v-.072c0-.038.001-.061.06-.061h.546V7.61zM4.436 8.625V7.611h-.314v1.014h.314zm-1.07-.418h.228c.038 0 .061-.002.08.006.035.014.038.044.038.07 0 .049-.016.073-.032.082-.018.011-.043.009-.092.009h-.162c-.018 0-.04 0-.05-.017-.01-.01-.01-.03-.01-.044v-.106zm-.313-.596v.823c0 .047.006.1.04.142.021.025.057.05.1.05h.601a.23.23 0 00.194-.099.432.432 0 00.046-.22.492.492 0 00-.038-.213c-.05-.11-.137-.116-.194-.116h-.435V7.61h-.314zm-.827.61h.244c.026 0 .06 0 .08.029a.076.076 0 01.013.044c0 .02-.008.047-.018.06-.006.006-.023.02-.083.02h-.166c-.016 0-.046 0-.059-.015-.007-.009-.011-.026-.011-.061v-.077zm0-.22v-.083c0-.016-.001-.03.012-.044.013-.011.025-.011.04-.011h.18c.02 0 .051 0 .07.02.009.01.016.025.016.044a.11.11 0 01-.01.046c-.017.028-.049.028-.075.028h-.233zm-.314.464c0 .039.013.084.037.113.043.05.101.047.144.047H2.6c.084 0 .156 0 .218-.07.06-.067.058-.148.058-.214 0-.062 0-.127-.052-.18a.188.188 0 00-.115-.052v-.006a.132.132 0 00.097-.05c.044-.05.048-.103.048-.158 0-.067-.007-.16-.06-.218-.056-.06-.142-.066-.211-.066h-.528a.149.149 0 00-.11.05.178.178 0 00-.033.113v.69z" fill="#FEFEFE"/><path fill-rule="evenodd" clip-rule="evenodd" d="M4.671 6.815c-.125 0-.153.097-.153.213 0 .116.024.227.153.227.127 0 .155-.103.155-.22s-.028-.22-.155-.22zm-.927.02v.145h.145c.052 0 .097-.01.097-.073 0-.022-.004-.046-.024-.059a.182.182 0 00-.082-.014h-.136zm-.709-.02c-.125 0-.154.097-.154.213 0 .116.025.227.154.227.127 0 .154-.103.154-.22s-.027-.22-.154-.22zm4.575.625c-.125 0-.21-.017-.283-.107-.043-.054-.048-.154-.048-.222v-.444c0-.02.015-.037.035-.037h.146c.019 0 .034.016.034.037v.44c0 .034.004.09.024.117.023.027.068.032.1.032s.077-.005.099-.033c.02-.027.024-.082.024-.115v-.441c0-.02.015-.037.034-.037h.147c.02 0 .035.016.035.037v.736c0 .02-.016.037-.035.037H7.61zm-3.323-.412c0-.267.129-.412.384-.412.26 0 .384.151.384.419s-.124.42-.384.42c-.107 0-.22-.025-.294-.113-.072-.084-.09-.205-.09-.314zm-.543.154v.221c0 .02-.016.037-.035.037h-.147a.035.035 0 01-.034-.037v-.736c0-.02.015-.037.034-.037h.32c.066 0 .167.004.225.043.079.053.112.136.112.234 0 .15-.072.245-.214.268a.726.726 0 01-.117.007h-.144zM2.65 7.028c0-.267.128-.412.384-.412.259 0 .383.151.383.419s-.124.42-.383.42c-.108 0-.22-.025-.295-.113-.071-.084-.089-.205-.089-.314zm-.51.007l-.224-.348a.036.036 0 01-.003-.038.033.033 0 01.03-.02h.173c.012 0 .023.007.03.017l.115.187.115-.187a.034.034 0 01.029-.016h.17c.012 0 .024.007.03.02a.037.037 0 01-.002.037l-.212.337.228.359a.037.037 0 01.002.037.034.034 0 01-.03.02h-.177a.034.034 0 01-.03-.018l-.118-.206-.126.207a.033.033 0 01-.03.017h-.174a.034.034 0 01-.03-.02.037.037 0 01.002-.037l.232-.348zm4.642.405c-.125 0-.21-.017-.283-.107-.043-.054-.048-.154-.048-.222v-.444c0-.02.016-.037.035-.037h.146c.02 0 .035.016.035.037v.44c0 .034.003.09.024.117.022.027.067.032.1.032.031 0 .076-.005.098-.033.02-.027.024-.082.024-.115v-.441c0-.02.015-.037.034-.037h.148c.018 0 .034.016.034.037v.736c0 .02-.016.037-.034.037h-.313zm-.737 0h-.544c-.107 0-.219-.017-.291-.107-.043-.054-.048-.154-.048-.222v-.444c0-.02.015-.037.035-.037h.146c.018 0 .034.016.034.037v.44c0 .034.003.09.024.117.022.027.068.032.1.032s.077-.005.098-.033c.021-.027.024-.082.024-.115v-.441c0-.02.016-.037.035-.037h.147c.02 0 .035.016.035.037v.443c0 .032.003.088.023.114.022.028.068.032.1.032.031 0 .076-.005.098-.033.02-.027.023-.082.023-.115v-.441c0-.02.016-.037.035-.037h.147c.02 0 .035.016.035.037v.736c0 .02-.016.037-.035.037h-.221zm1.482-.809c-.007-.037-.037-.042-.044-.035.01-.23.141-.357.303-.391a.377.377 0 01-.26.426z" fill="#FEFEFE"/></svg>