<svg width="34" height="34" fill="none" xmlns="http://www.w3.org/2000/svg"><rect width="34" height="34" rx="10.4" fill="#fff"/><path fill-rule="evenodd" clip-rule="evenodd" d="M16.998 10.779a7.217 7.217 0 00-1.662.19.889.889 0 11-.405-1.731A8.993 8.993 0 0117.001 9c3.465 0 6.128 1.98 7.868 3.836a18.381 18.381 0 012.517 3.422 10.945 10.945 0 01.17.314l.01.02.003.006s.002.003-.793.401l-.784-.419c-.075.14-.152.28-.23.417a16.603 16.603 0 00-2.189-2.945c-1.592-1.698-3.82-3.274-6.575-3.274zm8.763 6.219c-.46.8-.99 1.558-1.584 2.265a.889.889 0 001.36 1.144 17.328 17.328 0 002.023-2.988.889.889 0 00.011-.817l-.795.398c-.795.397-.794.398-.794.398l-.007-.012a6.153 6.153 0 00-.138-.256l-.076-.132zm-14.58-5.984a.889.889 0 011.168.078l3.392 3.392.006.006 3.763 3.763.006.006 3.392 3.392a.889.889 0 01-.09 1.335 9.838 9.838 0 01-5.803 2.013H17c-3.466 0-6.128-1.979-7.87-3.836a18.374 18.374 0 01-2.516-3.422 11.06 11.06 0 01-.17-.314l-.01-.02-.003-.006s-.002-.004.793-.401l-.795.397a.889.889 0 01.012-.817 17.287 17.287 0 014.74-5.566zM8.24 17.003a16.593 16.593 0 002.188 2.944c1.59 1.696 3.814 3.271 6.566 3.274a8.06 8.06 0 003.892-1.08l-2.063-2.062a3.563 3.563 0 01-1.826.542 3.555 3.555 0 01-3.075-5.443l-2.265-2.265a15.508 15.508 0 00-3.417 4.09zm7.008-.499a1.776 1.776 0 002.249 2.249l-2.249-2.249z" fill="#DB1D1D"/><path fill-rule="evenodd" clip-rule="evenodd" d="M6.595 6.595a.889.889 0 011.257 0l19.553 19.553a.889.889 0 11-1.257 1.257L6.595 7.852a.889.889 0 010-1.257z" fill="#DB1D1D"/><path d="M26.776 17l-.784-.419c-.075.14-.152.28-.23.417a12.522 12.522 0 01.213.388l.007.012.794-.398z" fill="#DB1D1D"/></svg>