<svg width="34" height="34" fill="none" xmlns="http://www.w3.org/2000/svg"><rect width="34" height="34" rx="10.4" fill="#fff"/><path fill-rule="evenodd" clip-rule="evenodd" d="M8.236 17a16.599 16.599 0 002.19 2.948c1.592 1.698 3.818 3.274 6.574 3.274s4.982-1.576 6.574-3.274A16.601 16.601 0 0025.764 17a16.601 16.601 0 00-2.19-2.948c-1.592-1.698-3.818-3.274-6.574-3.274s-4.982 1.576-6.574 3.274A16.599 16.599 0 008.236 17zm18.542 0l.795-.398-.002-.003-.003-.006-.01-.02-.036-.069a16.45 16.45 0 00-.65-1.098 18.378 18.378 0 00-2.001-2.57C23.13 10.98 20.466 9 17 9c-3.467 0-6.13 1.98-7.872 3.836a18.38 18.38 0 00-2.516 3.423 11.086 11.086 0 00-.17.314l-.01.02-.004.006-.001.002s0 .002.794.399l-.795-.398a.889.889 0 000 .796L7.222 17l-.795.398.002.003.003.006.01.02a6.355 6.355 0 00.17.314 18.38 18.38 0 002.517 3.422C10.871 23.021 13.534 25 17 25s6.13-1.98 7.87-3.837a18.378 18.378 0 002.518-3.422l.134-.245.036-.07.01-.019.003-.006.001-.002s0-.002-.794-.399zm0 0l.795.398a.89.89 0 000-.796l-.795.398z" fill="#BE957D"/><path fill-rule="evenodd" clip-rule="evenodd" d="M17 15.222a1.778 1.778 0 100 3.556 1.778 1.778 0 000-3.556zM13.444 17a3.556 3.556 0 117.112 0 3.556 3.556 0 01-7.112 0z" fill="#BE957D"/></svg>