<svg width="21" height="21" fill="none" xmlns="http://www.w3.org/2000/svg"><path fill-rule="evenodd" clip-rule="evenodd" d="M3.611 18.443a.91.91 0 01-1.82 0c0-2.402.976-4.584 2.551-6.159a8.685 8.685 0 016.159-2.55c2.402 0 4.583.975 6.157 2.55a8.691 8.691 0 012.551 6.159.91.91 0 01-1.82 0 6.873 6.873 0 00-2.018-4.872 6.87 6.87 0 00-4.87-2.018 6.872 6.872 0 00-4.872 2.018 6.873 6.873 0 00-2.018 4.872z" fill="#BE957D"/><path fill-rule="evenodd" clip-rule="evenodd" d="M10.5 1.396a4.915 4.915 0 00-4.903 4.901c0 2.7 2.205 4.905 4.9 4.905a4.915 4.915 0 004.904-4.9c0-2.7-2.205-4.906-4.9-4.906zm0 1.82a3.08 3.08 0 00-2.176.907 3.076 3.076 0 00-.907 2.174c0 .85.349 1.62.907 2.178.557.558 1.33.907 2.174.907.847 0 1.619-.35 2.176-.907a3.074 3.074 0 00.907-2.174 3.08 3.08 0 00-.907-2.178 3.074 3.074 0 00-2.174-.906z" fill="#BE957D"/></svg>