<svg width="24" height="10" fill="none" xmlns="http://www.w3.org/2000/svg"><path fill-rule="evenodd" clip-rule="evenodd" d="M11.836 0c4.696 0 7.786.89 9.672 2.402.83.666 1.506 1.418 1.224 2.59a.857.857 0 01-.113.388c-.487-.904-1.693-1.055-2.121-1.035-.323.016-.553.04-.645.077-.184.072-.792.366-.961.09-.292-.476.489-.63.76-.654.129-.01.685-.008 1.123.02-1.97-.992-5.122-1.591-8.939-1.591-1.527 0-2.986.107-4.32.302-.02 1.2.065 4.572-.263 4.646-.3.068-.656-.563-.766-1.196-.122-.705-.204-1.906-.195-3.241-.2.04-.397.081-.59.125l-.011 2.57c-.015.182-.016.728-.276.744-.162.01-.31-.315-.407-.64-.23-.774-.32-1.618-.35-2.408-1.394.4-2.523.914-3.275 1.5-.325.255-.445.295-.664.644-.29-.331-.225-.774-.172-1.138.034-.234.13-.452.25-.675.287-.532.579-.782 1.014-1.115C3.743.931 7.447 0 11.836 0z" fill="#E31E24"/><path fill-rule="evenodd" clip-rule="evenodd" d="M8.98 5.313c.012-.178.082-.382.287-.378.261.006.263.19.262.473.137-.154.255-.246.23-.218.175-.133.236-.197.478-.14.09.02.126.208.149.3.099-.09.244-.278.39-.306a.433.433 0 01.405.11c.1.093.046 1.162.028 1.457-.008.124-.008.191-.216.193a.214.214 0 01-.218-.22l-.001-.915c0-.094-.05-.133-.099-.159-.11-.06-.22.078-.298.17-.005.304-.008.647-.016.91-.005.156-.055.212-.21.216-.15.004-.186-.082-.213-.18l-.02-.927a.176.176 0 00-.09-.154c-.09-.053-.142.036-.216.101l-.117.153c-.006.183-.06.664-.067.846-.005.125-.106.229-.219.224-.138-.006-.174-.153-.204-.318 0-.027-.01-.183-.015-.39-.243.428-.712.75-1.021.589-.124-.066-.327-.28-.329-.72-.002-.399.14-.666.346-.866.16-.152.606-.277.79-.065.124.142.09.342.005.493-.12.203-.446.363-.626.452.052.237.203.323.303.264.278-.168.374-.326.526-.548a6.463 6.463 0 01-.005-.447zm-.597.298a1.113 1.113 0 01-.296.164c.008-.136.07-.31.176-.373.075-.045.123-.051.16-.015.063.06.01.182-.04.224zm3.057-.817c.048-.25.158-.298.364-.316.108-.01.188.03.221.133.03.097-.01.455-.022.572a.621.621 0 01.4-.139c.173.005.361.055.435.332.056.35.022.734-.23 1.012-.078.172-.504.413-.658.45-.07 1.159-.209 1.792-.273 1.82-.188.085-.224-.424-.25-1.289.017-.85-.065-1.672.012-2.575zm.527 1.57c.006-.217.01-.576.024-.792.09-.198.379-.103.402.125.057.574-.46.987-.426.667zm2.298-1.436c.066.228.184.43.252.697.01.036.253-.38.566-.32.103.019.222.179.232.357.01.178-.09.375-.098.391-.011.023-.094.137-.177.03-.049-.063.031-.311-.144-.38-.143-.058-.308.07-.314.094-.016.076.042.253.143.476.019.04.075.097.135.087.1-.018.183-.16.243-.063.033.052-.107.332-.207.43-.025.025-.185.199-.402.136-.108-.032-.178-.096-.266-.264-.065-.122-.146-.06-.152-.053-.142.177-.24.344-.512.339-.432-.009-.644-.538-.574-.976.056-.346.449-.67.709-.854-.073-.393-.021-.657.043-.955.088-.404.53-.448.585-.437.618.12.39 1.038-.062 1.265zm-.1-.168c-.18-.399-.141-.613-.07-.685.114-.114.271.021.22.307-.018.11-.01.247-.15.378zm-.607 1.151c-.015-.184-.032-.583.155-.58.102.003.299.947.192 1.005-.155.085-.325-.15-.347-.425zm1.972.219c-.004-.423.051-.835.427-1.051.174-.1.326-.126.592.056.095.064.097.218.064.302-.046.118-.157.23-.27.173-.083-.041-.085-.078-.108-.183-.175-.082-.252.207-.267.303-.058.353.143.786.503.63.159-.064.187-.119.327-.213l-.014-.536c.005-.103-.017-.215-.004-.316.082-.213.145-.263.336-.263.11.087.139.147.107.253 0 .041-.018.212-.013.336.148-.207.303-.338.447-.55.085-.155.195-.187.348-.16.164.031.104.16 0 .264-.13.166-.318.288-.418.426.076.03.157.046.231.117.205.195.052.522.223.719.03-.01.111-.096.127-.196.03-.19-.014-.479.062-.711.15-.456.437-.713.618-.17l.134.73c.004.153.113.126.162.028l.157-.136c-.004-.212-.015-.453-.018-.724-.015-.265.49-.358.522-.231.015.504.039 1.094.047 1.595l-.177.179c-.087.097-.184.056-.238-.058-.049-.08-.097-.373-.105-.495-.023 0-.332.302-.387.344-.121.082-.226.13-.311.026-.085-.104-.13-.489-.16-.752.005-.118-.076-.092-.085-.014l-.082.933c-.02.16-.268.271-.409.267-.151-.005-.224-.272-.28-.373-.079-.258-.115-.403-.263-.62-.06-.022-.088-.012-.159.038-.021.17.045.472-.006.573a.217.217 0 01-.166.124c-.097.013-.182.01-.214-.105l-.01-.339c-.197.166-.255.256-.444.365-.463.265-.773-.163-.826-.586z" fill="#E31E24"/><path fill-rule="evenodd" clip-rule="evenodd" d="M23.223 5.045c.08 3.778-8.016 4.945-11.52 4.955C8.895 10.008-.083 8.985.118 5.158c.862 2.131 5.274 3.71 11.583 3.71 6.31 0 10.848-1.667 11.521-3.823z" fill="#FECC09"/></svg>