<svg width="6" height="6" fill="none" xmlns="http://www.w3.org/2000/svg"><path fill-rule="evenodd" clip-rule="evenodd" d="M.53.522a.81.81 0 01.572-.239l.81-.002a.27.27 0 01.002.54l-.81.002a.27.27 0 00-.27.271l.003.81a.27.27 0 11-.54.002l-.003-.81A.81.81 0 01.53.522zm3.273.023c0-.149.12-.27.269-.27l.81-.003a.81.81 0 01.812.808l.003.81a.27.27 0 01-.54.001l-.003-.81a.27.27 0 00-.27-.269l-.81.002a.27.27 0 01-.271-.269zm-3.23 3.25c.149 0 .27.12.27.27l.003.81a.27.27 0 00.27.268l.81-.002a.27.27 0 01.002.54l-.81.002a.81.81 0 01-.812-.807l-.003-.81c0-.15.12-.27.27-.271zm4.86-.015c.149 0 .27.12.27.27l.003.81a.81.81 0 01-.808.812l-.81.002a.27.27 0 11-.002-.54l.81-.002a.27.27 0 00.27-.27l-.003-.81c0-.15.12-.271.27-.272z" fill="#BE957D"/><path d="M2.097 1.82a.27.27 0 00-.54.001l.007 2.34a.27.27 0 00.54-.001l-.007-2.34zm1.169-.004a.27.27 0 00-.54.002l.007 2.34a.27.27 0 00.54-.002l-.007-2.34zm1.171-.003a.27.27 0 10-.54.001l.007 2.34a.27.27 0 10.54-.001l-.007-2.34z" fill="#BE957D"/></svg>