<svg width="6" height="6" fill="none" xmlns="http://www.w3.org/2000/svg"><path fill-rule="evenodd" clip-rule="evenodd" d="M3 5.486A2.486 2.486 0 103 .514a2.486 2.486 0 000 4.972zM3 6a3 3 0 100-6 3 3 0 000 6z" fill="#BE957D"/><path fill-rule="evenodd" clip-rule="evenodd" d="M3 4.2a1.2 1.2 0 100-2.4 1.2 1.2 0 000 2.4zm0 .514a1.714 1.714 0 100-3.428 1.714 1.714 0 000 3.428z" fill="#BE957D"/><path d="M3.429 3a.429.429 0 11-.858 0 .429.429 0 01.858 0z" fill="#BE957D"/><path fill-rule="evenodd" clip-rule="evenodd" d="M3 2.914a.086.086 0 100 .172.086.086 0 000-.172zm0 .515a.429.429 0 100-.858.429.429 0 000 .858z" fill="#BE957D"/></svg>