<svg width="6" height="6" fill="none" xmlns="http://www.w3.org/2000/svg"><path fill-rule="evenodd" clip-rule="evenodd" d="M4.931 2.229H1.07a.343.343 0 00-.335.417l.476 2.143a.343.343 0 00.335.268h2.91c.161 0 .3-.111.335-.268l.476-2.143a.343.343 0 00-.335-.417zM1.07 1.714a.857.857 0 00-.837 1.043L.708 4.9a.857.857 0 00.837.671h2.91c.402 0 .75-.279.837-.67l.476-2.144a.857.857 0 00-.837-1.043H1.07z" fill="#BE957D"/><path d="M1.2 1.714h.514v-.343c0-.236.192-.428.429-.428h1.714c.237 0 .429.192.429.428v.343H4.8v-.343A.943.943 0 003.857.43H2.143a.943.943 0 00-.943.942v.343z" fill="#BE957D"/></svg>