<svg width="6" height="6" fill="none" xmlns="http://www.w3.org/2000/svg"><rect x=".257" y=".257" width="5.486" height="5.486" rx="1.029" stroke="#BE957D" stroke-width=".514"/><path fill-rule="evenodd" clip-rule="evenodd" d="M2.057 1.714c0-.142.115-.257.257-.257h2.143a.257.257 0 010 .514H2.314a.257.257 0 01-.257-.257zm0 1.286c0-.142.115-.257.257-.257h2.143a.257.257 0 110 .514H2.314A.257.257 0 012.057 3zm0 1.286c0-.142.115-.257.257-.257h2.143a.257.257 0 110 .514H2.314a.257.257 0 01-.257-.257z" fill="#BE957D"/><path d="M1.714 1.714a.257.257 0 11-.514 0 .257.257 0 01.514 0zm0 1.286A.257.257 0 111.2 3a.257.257 0 01.514 0zm0 1.286a.257.257 0 11-.514 0 .257.257 0 01.514 0z" fill="#BE957D"/></svg>