<svg width="6" height="6" fill="none" xmlns="http://www.w3.org/2000/svg"><path d="M3 .982C3.705.286 4.748.255 5.461.963c.609.603.816 1.612.01 2.41l-2.04 2.023a.613.613 0 01-.863 0L.529 3.374c-.805-.8-.6-1.807.01-2.411C1.248.258 2.298.282 3 .982zm-.354.34C2.136.816 1.403.796.887 1.308c-.454.45-.59 1.143-.008 1.72C1.148 3.294 2.82 5.051 3 5.081l.046-.008.037-.025 2.039-2.02c.588-.584.43-1.284-.01-1.72l-.003-.004c-.553-.554-1.29-.444-1.81.073.176.286.32.663.344 1.145l-.485.022a1.84 1.84 0 00-.512-1.224z" fill="#BE957D"/></svg>