<svg width="14" height="14" fill="none" xmlns="http://www.w3.org/2000/svg"><path fill-rule="evenodd" clip-rule="evenodd" d="M7.125.732a6.018 6.018 0 110 12.037 6.018 6.018 0 010-12.037z" fill="#FFFEFE"/><path fill-rule="evenodd" clip-rule="evenodd" d="M.625 6.75a6.5 6.5 0 006.5 6.5 6.5 6.5 0 100-13 6.5 6.5 0 00-6.5 6.5zm6.5 5.537a5.537 5.537 0 110-11.073 5.537 5.537 0 010 11.073z" fill="#BE957D"/><path d="M7.676 9.799a.752.752 0 01-.55.229.752.752 0 01-.552-.23.753.753 0 01-.23-.552c0-.214.077-.398.23-.55a.746.746 0 01.552-.23c.214 0 .398.075.55.23.155.152.23.336.23.55a.75.75 0 01-.23.553zm-1.02-2.05L6.41 5.31V3.472h1.424v1.839l-.238 2.437h-.939z" fill="#BE957D"/><path clip-rule="evenodd" d="M7.125.732a6.018 6.018 0 110 12.037 6.018 6.018 0 010-12.037z" stroke="#BE957D" stroke-width=".325"/><path clip-rule="evenodd" d="M.625 6.75a6.5 6.5 0 006.5 6.5 6.5 6.5 0 100-13 6.5 6.5 0 00-6.5 6.5zm6.5 5.537a5.537 5.537 0 110-11.073 5.537 5.537 0 010 11.073z" stroke="#BE957D" stroke-width=".325"/><path d="M7.676 9.799a.752.752 0 01-.55.229.752.752 0 01-.552-.23.753.753 0 01-.23-.552c0-.214.077-.398.23-.55a.746.746 0 01.552-.23c.214 0 .398.075.55.23.155.152.23.336.23.55a.75.75 0 01-.23.553zm-1.02-2.05L6.41 5.31V3.472h1.424v1.839l-.238 2.437h-.939z" stroke="#BE957D" stroke-width=".325"/></svg>