<svg width="31" height="31" fill="none" xmlns="http://www.w3.org/2000/svg"><path fill-rule="evenodd" clip-rule="evenodd" d="M15.75.799c8.326 0 15.076 6.75 15.076 15.076 0 8.327-6.75 15.076-15.076 15.076-8.327 0-15.077-6.749-15.077-15.076C.673 7.55 7.423.8 15.75.8z" fill="#DE1C23"/><path d="M17.131 23.51a1.88 1.88 0 01-1.382.576 1.88 1.88 0 01-1.381-.575 1.881 1.881 0 01-.576-1.382c0-.537.191-.998.576-1.382a1.88 1.88 0 011.381-.575c.539 0 1 .19 1.382.575.385.384.577.845.577 1.382 0 .537-.192.998-.577 1.381zm-2.557-5.137l-.62-6.102V7.664h3.569v4.607l-.598 6.102h-2.351z" fill="#FFFEFE"/></svg>