<svg width="8" height="8" fill="none" xmlns="http://www.w3.org/2000/svg"><path fill-rule="evenodd" clip-rule="evenodd" d="M0 4a4 4 0 108 0 4 4 0 00-8 0zm4 2.702a2.702 2.702 0 110-5.404 2.702 2.702 0 010 5.404z" fill="#FFFAF5"/><path fill-rule="evenodd" clip-rule="evenodd" d="M4 .649a3.35 3.35 0 110 6.702A3.35 3.35 0 014 .649z" fill="#DE1C23"/><path d="M4.307 5.697A.417.417 0 014 5.825a.417.417 0 01-.307-.128.418.418 0 01-.128-.307c0-.12.042-.222.128-.307A.417.417 0 014 4.955c.12 0 .222.042.307.128a.418.418 0 01.128.307c0 .12-.042.222-.128.307zm-.568-1.142L3.6 3.2V2.175h.793v1.024L4.26 4.555h-.52z" fill="#FFFEFE"/></svg>