<svg width="20" height="20" fill="none" xmlns="http://www.w3.org/2000/svg"><rect x="1" y="1" width="18" height="18" rx="9" stroke="#DB1D1D" stroke-width="2"/><path fill-rule="evenodd" clip-rule="evenodd" d="M14.312 5.688a.643.643 0 010 .91l-7.715 7.714a.643.643 0 11-.909-.91l7.715-7.714a.643.643 0 01.909 0z" fill="#DB1D1D"/><path fill-rule="evenodd" clip-rule="evenodd" d="M5.688 5.688a.643.643 0 01.91 0l7.714 7.715a.643.643 0 11-.91.909L5.689 6.597a.643.643 0 010-.909z" fill="#DB1D1D"/><path clip-rule="evenodd" d="M14.312 5.688a.643.643 0 010 .91l-7.715 7.714a.643.643 0 11-.909-.91l7.715-7.714a.643.643 0 01.909 0z" stroke="#DB1D1D" stroke-linecap="round" stroke-linejoin="round"/><path clip-rule="evenodd" d="M5.688 5.688a.643.643 0 01.91 0l7.714 7.715a.643.643 0 11-.91.909L5.689 6.597a.643.643 0 010-.909z" stroke="#DB1D1D" stroke-linecap="round" stroke-linejoin="round"/></svg>