<svg width="24" height="24" fill="none" xmlns="http://www.w3.org/2000/svg"><path fill-rule="evenodd" clip-rule="evenodd" d="M.293.293a1 1 0 011.414 0L8.7 7.286l.016.016 7.984 7.984.016.016 6.991 6.99a1 1 0 01-1.414 1.415l-6.226-6.226-4.299 5.16a1 1 0 01-1.76-.765l.86-6.876H3a1 1 0 01-.768-1.64l4.415-5.3L.293 1.707a1 1 0 010-1.414zM8.067 9.48L5.135 13h6.45L8.068 9.481zm4.894 4.894l-.546 4.364 2.232-2.678-1.686-1.686zm.437-13.293a1 1 0 01.594 1.041l-.59 4.75a1 1 0 01-1.984-.246l.17-1.366-.25.299a1 1 0 01-1.537-1.28l2.43-2.92a1 1 0 011.167-.278zM14.66 10a1 1 0 011-1H21a1 1 0 01.768 1.641l-2.43 2.91a1 1 0 01-1.536-1.282L18.862 11H15.66a1 1 0 01-1-1z" fill="#F5E6D6"/></svg>