<svg width="14" height="14" fill="none" xmlns="http://www.w3.org/2000/svg"><path fill-rule="evenodd" clip-rule="evenodd" d="M.25 12.228l2.59-2.592 1.272 1.272-2.59 2.592L.25 12.228z" fill="#BE967D"/><path d="M10.275 9.704a4.382 4.382 0 01-3.114 1.288 4.392 4.392 0 01-3.114-1.29 4.377 4.377 0 01-1.29-3.113 4.39 4.39 0 011.287-3.114c.8-.796 1.9-1.29 3.117-1.29a4.39 4.39 0 013.114 1.286 4.408 4.408 0 010 6.233zm-3.114 2.973a6.065 6.065 0 004.303-1.786A6.055 6.055 0 0013.25 6.59a6.074 6.074 0 00-1.784-4.305A6.081 6.081 0 007.161.5a6.072 6.072 0 00-4.305 1.784 6.082 6.082 0 00.002 8.607 6.057 6.057 0 004.303 1.786z" fill="#BE967D"/></svg>