<svg width="42" height="18" fill="none" xmlns="http://www.w3.org/2000/svg"><rect x="1" y="1" width="40" height="16" rx="6" fill="#FFFAF5"/><rect x="1" y="1" width="40" height="16" rx="6" stroke="#F5E6D6"/><path fill-rule="evenodd" clip-rule="evenodd" d="M8.333 7a1.333 1.333 0 10-2.666 0v1A.333.333 0 015 8V7a2 2 0 114 0v1a.333.333 0 11-.667 0V7zm.334 2.667c.184 0 .333.149.333.333v1a2 2 0 01-4 0v-1a.333.333 0 11.667 0v1a1.333 1.333 0 102.666 0v-1c0-.184.15-.333.334-.333zM7 7.333c.184 0 .333.15.333.334v2.666a.333.333 0 11-.666 0V7.667c0-.184.149-.334.333-.334z" fill="#BE957D"/><path d="M12.716 4.5h2.615V8h-.69V5.16h-1.235V8h-.69V4.5zm6.212 3.045c-.354.35-.784.525-1.29.525-.507 0-.937-.175-1.29-.525a1.781 1.781 0 01-.525-1.295c0-.51.175-.94.525-1.29.353-.353.783-.53 1.29-.53.506 0 .936.177 1.29.53.353.35.53.78.53 1.29s-.177.942-.53 1.295zm-2.095-.47c.213.213.481.32.805.32.323 0 .591-.107.805-.32.216-.217.325-.492.325-.825 0-.333-.109-.608-.325-.825a1.093 1.093 0 00-.805-.325c-.32 0-.589.108-.805.325a1.118 1.118 0 00-.325.825c0 .333.108.608.325.825zm5.75-.875L23.928 8h-.795l-1.25-1.64V8h-.69V4.5h.69v1.545l1.2-1.545h.795l-1.295 1.7zM27.357 8h-.75l-.21-.63h-1.395l-.21.63h-.745l1.225-3.5h.855l1.23 3.5zm-1.655-2.705l-.48 1.43h.96l-.48-1.43zm1.995-.795h1.305c.333 0 .616.113.85.34.23.227.345.505.345.835 0 .33-.115.608-.345.835-.234.227-.517.34-.85.34h-.615V8h-.69V4.5zm.69 1.705h.615c.146 0 .268-.05.365-.15a.536.536 0 00.145-.38.525.525 0 00-.145-.38.487.487 0 00-.365-.15h-.615v1.06zM30.322 4.5h2.575v.66h-.945V8h-.69V5.16h-.94V4.5zm3.65 2.055v.785h1.475V8h-2.165V4.5h2.14v.66h-1.45v.745h1.325v.65h-1.325zM15.177 14.07c-.523 0-.958-.175-1.305-.525-.343-.347-.515-.778-.515-1.295 0-.52.172-.952.515-1.295.347-.35.782-.525 1.305-.525.317 0 .608.075.875.225.27.147.48.347.63.6l-.595.345a.908.908 0 00-.37-.365c-.16-.09-.34-.135-.54-.135-.34 0-.615.107-.825.32-.207.217-.31.493-.31.83 0 .333.103.608.31.825.21.213.485.32.825.32.2 0 .38-.043.54-.13a.908.908 0 00.37-.365l.595.345c-.15.253-.36.455-.63.605-.267.147-.558.22-.875.22zm3.919-2.18V10.5h.685V14h-.685v-1.45h-1.3V14h-.69v-3.5h.69v1.39h1.3zm2.025.665v.785h1.475V14h-2.165v-3.5h2.14v.66h-1.45v.745h1.325v.65h-1.325zm1.961-2.055h1.99v.66h-1.3V14h-.69v-3.5zM28.17 14h-.69v-2.135L25.98 14h-.525v-3.5h.69v2.14l1.5-2.14h.525V14zm.65-3.5h1.305c.333 0 .616.113.85.34.23.227.345.505.345.835 0 .33-.115.608-.345.835-.234.227-.517.34-.85.34h-.615V14h-.69v-3.5zm.69 1.705h.615c.146 0 .268-.05.365-.15a.535.535 0 00.145-.38.524.524 0 00-.145-.38.486.486 0 00-.365-.15h-.615v1.06zM34.484 14h-.69v-2.135L32.294 14h-.525v-3.5h.69v2.14l1.5-2.14h.525V14z" fill="#BE957D"/></svg>