<svg width="46" height="10" fill="none" xmlns="http://www.w3.org/2000/svg"><rect x=".5" y=".5" width="45" height="9" rx="4.5" fill="#fff"/><rect x=".5" y=".5" width="45" height="9" rx="4.5" stroke="#F6E9DB"/><path d="M10.296 3.688l-.282-.23a1.735 1.735 0 00-.32-.171l-.343-.104-.367-.035-.367.035-.343.104-.318.17-.284.231-.231.282-.17.32-.104.344L7.132 5l.035.366.104.344.17.318.231.284.28.23.322.172.346.104.364.035.364-.035.347-.104.322-.171.28-.23.23-.284.172-.318c.045-.106.08-.224.104-.347L10.838 5l-.035-.364-.104-.346-.172-.32-.23-.282zM8.634 3.52h.697c.03 0 .056.025.056.055l-.031.972-.077.925a.055.055 0 01-.055.05l-.476.002a.057.057 0 01-.056-.056l-.077-.904-.036-.989c0-.03.025-.055.055-.055zm.349 2.266a.39.39 0 110 .781.39.39 0 010-.781zM8.984 2.4a2.61 2.61 0 011.442.439 2.692 2.692 0 01.721.72c.092.14.175.291.237.448a2.5 2.5 0 01.15.483 2.649 2.649 0 010 1.02 2.76 2.76 0 01-.388.934 2.502 2.502 0 01-.325.392 2.555 2.555 0 01-1.328.713 2.62 2.62 0 01-1.95-.387 2.62 2.62 0 01-.394-.326 2.53 2.53 0 01-.565-.843 2.616 2.616 0 01-.15-1.502 2.658 2.658 0 01.713-1.326 2.565 2.565 0 01.846-.566 2.544 2.544 0 01.991-.199zm6.498 4.875c-.658 0-1.202-.219-1.631-.656-.43-.438-.644-.977-.644-1.619 0-.646.214-1.185.644-1.619.429-.437.973-.656 1.63-.656.397 0 .761.094 1.095.281.337.184.6.434.787.75l-.744.431a1.134 1.134 0 00-.462-.456 1.353 1.353 0 00-.675-.169c-.425 0-.769.134-1.031.4-.259.267-.388.613-.388 1.038 0 .42.13.765.388 1.031.262.267.606.4 1.03.4.25 0 .476-.054.676-.162.204-.113.358-.265.462-.457l.744.432a2.066 2.066 0 01-.781.756c-.333.183-.7.275-1.1.275zm4.898-4.463h.857v4.375h-.856V5.375h-1.625v1.812h-.863V2.812h.863V4.55h1.625V2.812zm2.532 3.55h1.844v.825h-2.707V2.812h2.675v.825h-1.812v.932h1.656v.812h-1.656v.981zm4.939-3.55v.825h-1.625v3.55h-.862V2.812h2.487zm3.01 4.375V4.52l-1.875 2.668h-.656V2.812h.863v2.675l1.874-2.675h.657v4.375h-.863zm3.306-4.375c.42 0 .775.142 1.062.425.288.284.431.632.431 1.044 0 .413-.143.76-.43 1.044a1.455 1.455 0 01-1.063.425h-.77v1.437h-.862V2.812h1.632zm0 2.132a.608.608 0 00.456-.188.67.67 0 00.181-.475c0-.191-.06-.35-.181-.475a.608.608 0 00-.456-.187h-.77v1.325h.77zm4.586 2.243V4.52l-1.875 2.668h-.656V2.812h.862v2.675l1.875-2.675h.657v4.375h-.863z" fill="#BE957D"/></svg>