<svg width="41" height="41" fill="none" xmlns="http://www.w3.org/2000/svg"><path d="M.036 20.5c0-8.775 0-13.162 2.424-16.115a10.67 10.67 0 011.48-1.48C6.893.482 11.28.482 20.054.482c8.775 0 13.162 0 16.115 2.423.54.444 1.036.94 1.48 1.48 2.423 2.953 2.423 7.34 2.423 16.115 0 8.774 0 13.162-2.423 16.115-.444.54-.94 1.036-1.48 1.48-2.953 2.423-7.34 2.423-16.115 2.423-8.774 0-13.161 0-16.114-2.423a10.67 10.67 0 01-1.48-1.48C.036 33.662.036 29.275.036 20.5z" fill="#07F"/><path fill-rule="evenodd" clip-rule="evenodd" d="M7.21 18.83c7.164-3.39 11.942-5.625 14.332-6.704 6.825-3.084 8.244-3.62 9.168-3.637.203-.004.658.051.953.31.248.22.317.516.35.723.032.208.073.681.04 1.051-.37 4.22-1.97 14.462-2.784 19.19-.345 2-1.023 2.67-1.68 2.736-1.427.142-2.51-1.025-3.893-2.009-2.163-1.54-3.385-2.498-5.485-4-2.426-1.737-.853-2.692.53-4.252.361-.408 6.65-6.62 6.771-7.183.016-.07.03-.333-.114-.472-.143-.139-.356-.091-.509-.053-.217.053-3.672 2.534-10.366 7.44-.981.732-1.87 1.089-2.666 1.07-.877-.02-2.565-.539-3.82-.982-1.54-.543-2.763-.83-2.656-1.753.055-.48.665-.972 1.828-1.475z" fill="#fff"/></svg>