<svg width="41" height="41" fill="none" xmlns="http://www.w3.org/2000/svg"><path d="M.573 20.5c0-8.775 0-13.162 2.423-16.115.444-.54.94-1.036 1.48-1.48C7.429.482 11.816.482 20.59.482c8.774 0 13.161 0 16.114 2.423.541.444 1.037.94 1.48 1.48 2.424 2.953 2.424 7.34 2.424 16.115 0 8.774 0 13.162-2.424 16.115a10.67 10.67 0 01-1.48 1.48c-2.953 2.423-7.34 2.423-16.114 2.423-8.775 0-13.162 0-16.115-2.423-.54-.444-1.036-.94-1.48-1.48C.573 33.662.573 29.275.573 20.5z" fill="#FF0302"/><path d="M33.378 14.075a3.327 3.327 0 00-.862-1.493 3.359 3.359 0 00-1.498-.866c-2.087-.558-10.427-.558-10.427-.558s-8.341 0-10.428.558a3.36 3.36 0 00-1.497.866 3.328 3.328 0 00-.863 1.493c-.558 2.083-.558 6.425-.558 6.425s0 4.342.558 6.425a3.352 3.352 0 002.36 2.359c2.087.558 10.428.558 10.428.558s8.34 0 10.427-.558a3.36 3.36 0 001.498-.866c.414-.414.711-.93.862-1.493.558-2.083.558-6.425.558-6.425s0-4.342-.558-6.425z" fill="#fff"/><path d="M17.86 24.443v-7.886l6.977 3.943-6.976 3.943z" fill="#FF0302"/></svg>