<svg width="41" height="41" fill="none" xmlns="http://www.w3.org/2000/svg"><path d="M.109 20.5c0-8.775 0-13.162 2.423-16.115.444-.54.94-1.036 1.48-1.48C6.965.482 11.352.482 20.127.482c8.774 0 13.162 0 16.115 2.423.54.444 1.036.94 1.48 1.48 2.423 2.953 2.423 7.34 2.423 16.115 0 8.774 0 13.162-2.424 16.115a10.67 10.67 0 01-1.48 1.48c-2.952 2.423-7.34 2.423-16.114 2.423-8.775 0-13.162 0-16.115-2.423-.54-.444-1.036-.94-1.48-1.48C.11 33.662.11 29.275.11 20.5z" fill="#E1BBA6"/><path fill-rule="evenodd" clip-rule="evenodd" d="M14.425 8.434A13.345 13.345 0 0133.472 20.5v1.213a4.853 4.853 0 01-8.807 2.813 6.066 6.066 0 11-.898-8.88 1.213 1.213 0 012.426.001v6.066a2.426 2.426 0 104.853 0V20.5a10.92 10.92 0 10-4.28 8.67 1.213 1.213 0 011.475 1.927A13.346 13.346 0 1114.425 8.434zM23.766 20.5a3.64 3.64 0 10-7.279 0 3.64 3.64 0 007.28 0z" fill="#fff"/></svg>