<svg width="41" height="41" fill="none" xmlns="http://www.w3.org/2000/svg"><path d="M.5 20.5c0-8.775 0-13.162 2.423-16.115.444-.54.94-1.036 1.48-1.48C7.356.482 11.743.482 20.518.482c8.775 0 13.162 0 16.115 2.423.54.444 1.036.94 1.48 1.48 2.423 2.953 2.423 7.34 2.423 16.115 0 8.774 0 13.162-2.423 16.115-.444.54-.94 1.036-1.48 1.48-2.953 2.423-7.34 2.423-16.115 2.423-8.774 0-13.162 0-16.115-2.423-.54-.444-1.036-.94-1.48-1.48C.5 33.662.5 29.275.5 20.5z" fill="#07F"/><path d="M21.71 28.507c-9.12 0-14.32-6.011-14.537-16.014h4.568c.15 7.342 3.517 10.452 6.185 11.093V12.493h4.301v6.332c2.634-.273 5.401-3.158 6.335-6.332h4.301c-.717 3.911-3.718 6.797-5.852 7.983 2.134.962 5.552 3.479 6.853 8.031h-4.735c-1.017-3.046-3.551-5.402-6.902-5.723v5.723h-.517z" fill="#fff"/><path fill-rule="evenodd" clip-rule="evenodd" d="M21.71 28.507c-9.12 0-14.32-6.011-14.537-16.014h4.568c.15 7.342 3.517 10.452 6.185 11.093V12.493h4.301v6.332c2.634-.273 5.401-3.158 6.335-6.332h4.301c-.717 3.911-3.718 6.797-5.852 7.983 2.134.962 5.552 3.479 6.853 8.031h-4.735c-1.017-3.046-3.551-5.402-6.902-5.723v5.723h-.517z" fill="#fff"/></svg>