<svg width="14" height="14" fill="none" xmlns="http://www.w3.org/2000/svg"><path fill-rule="evenodd" clip-rule="evenodd" d="M2.333 0H3.89a2.333 2.333 0 012.333 2.333V3.89A2.333 2.333 0 013.89 6.222H2.333A2.333 2.333 0 010 3.89V2.333A2.333 2.333 0 012.333 0zM3.89 14H2.333A2.333 2.333 0 010 11.667V10.11a2.333 2.333 0 012.333-2.333H3.89a2.333 2.333 0 012.333 2.333v1.556A2.333 2.333 0 013.89 14zm6.22-14h1.556A2.333 2.333 0 0114 2.333V3.89a2.333 2.333 0 01-2.333 2.333H10.11A2.333 2.333 0 017.778 3.89V2.333A2.333 2.333 0 0110.11 0zm0 7.778h1.556A2.333 2.333 0 0114 10.11v1.556A2.333 2.333 0 0111.667 14H10.11a2.333 2.333 0 01-2.333-2.333V10.11a2.333 2.333 0 012.333-2.333zM2.333 1.556a.778.778 0 00-.777.777V3.89c0 .43.348.778.777.778H3.89c.43 0 .778-.349.778-.778V2.333a.778.778 0 00-.778-.777H2.333zm0 7.777a.778.778 0 00-.777.778v1.556c0 .43.348.777.777.777H3.89c.43 0 .778-.348.778-.777V10.11a.778.778 0 00-.778-.778H2.333zm7-7c0-.43.349-.777.778-.777h1.556c.43 0 .777.348.777.777V3.89c0 .43-.348.778-.777.778H10.11a.778.778 0 01-.778-.778V2.333zm.778 7a.778.778 0 00-.778.778v1.556c0 .43.349.777.778.777h1.556c.43 0 .777-.348.777-.777V10.11a.778.778 0 00-.777-.778H10.11z" fill="#240405"/></svg>