<svg width="14" height="14" fill="none" xmlns="http://www.w3.org/2000/svg"><path fill-rule="evenodd" clip-rule="evenodd" d="M2.333 0h9.334A2.333 2.333 0 0114 2.333V3.89a2.333 2.333 0 01-2.333 2.333H2.333A2.333 2.333 0 010 3.89V2.333A2.333 2.333 0 012.333 0zm0 7.778h9.334A2.333 2.333 0 0114 10.11v1.556A2.333 2.333 0 0111.667 14H2.333A2.333 2.333 0 010 11.667V10.11a2.333 2.333 0 012.333-2.333zm0-6.222a.778.778 0 00-.777.777V3.89c0 .43.348.778.777.778h9.334c.43 0 .777-.349.777-.778V2.333a.778.778 0 00-.777-.777H2.333zm0 7.777a.778.778 0 00-.777.778v1.556c0 .43.348.777.777.777h9.334c.43 0 .777-.348.777-.777V10.11a.778.778 0 00-.777-.778H2.333z" fill="#240405"/></svg>