<svg width="27" height="26" fill="none" xmlns="http://www.w3.org/2000/svg"><path d="M.5 13c0-5.698 0-8.547 1.574-10.465.288-.351.61-.673.96-.961C4.954 0 7.803 0 13.5 0c5.698 0 8.547 0 10.465 1.574.351.288.673.61.961.96C26.5 4.454 26.5 7.303 26.5 13c0 5.698 0 8.547-1.574 10.465-.288.351-.61.673-.96.961C22.046 26 19.197 26 13.5 26c-5.698 0-8.547 0-10.465-1.574a6.931 6.931 0 01-.961-.96C.5 21.546.5 18.697.5 13z" fill="#07F"/><path d="M14.274 18.2c-5.922 0-9.3-3.904-9.44-10.4H7.8c.097 4.768 2.284 6.787 4.016 7.204V7.8h2.794v4.112c1.71-.177 3.507-2.05 4.114-4.112h2.793c-.465 2.54-2.414 4.414-3.8 5.184 1.386.625 3.605 2.26 4.45 5.216h-3.075c-.66-1.978-2.306-3.508-4.482-3.717V18.2h-.336z" fill="#fff"/><path fill-rule="evenodd" clip-rule="evenodd" d="M14.274 18.2c-5.922 0-9.3-3.904-9.44-10.4H7.8c.097 4.768 2.284 6.787 4.016 7.204V7.8h2.794v4.112c1.71-.177 3.507-2.05 4.114-4.112h2.793c-.465 2.54-2.414 4.414-3.8 5.184 1.386.625 3.605 2.26 4.45 5.216h-3.075c-.66-1.978-2.306-3.508-4.482-3.717V18.2h-.336z" fill="#fff"/></svg>