<svg width="18" height="16" fill="none" xmlns="http://www.w3.org/2000/svg"><path clip-rule="evenodd" d="M5.165 9.905c.011.372-.74 3.39-.869 4.018-.467 2.247 2.104.27 2.663-.05.313-.178 1.906-1.182 2.046-1.178l3.068 1.801c.291.178.748.518 1.138.504.935-.037.357-1.494.182-2.361-.094-.47-.19-.867-.296-1.338-.083-.37-.27-1.025-.291-1.396.204-.228.611-.55.84-.748.475-.411 2.411-2.061 2.57-2.317.712-1.145-1.489-1.05-1.905-1.095-.952-.102-2.055-.13-2.979-.283l-.999-2.303c-.201-.474-.697-2.004-1.186-2.137-.51-.137-.746.39-.893.725l-1.495 3.49c-.125.303-.166.247-.52.275l-3.799.343c-.483.046-.955.324-.746.847.132.33 1.364 1.34 1.688 1.623L4.723 9.5c.12.096.326.246.442.404z" stroke="#fff" stroke-width="1.4"/></svg>