<svg width="6" height="8" viewBox="0 0 6 8" fill="none" xmlns="http://www.w3.org/2000/svg">
<path fill-rule="evenodd" clip-rule="evenodd" d="M3 1.00003C2.36348 1.00003 1.75303 1.25288 1.30294 1.70297C0.852856 2.15306 0.6 2.76351 0.6 3.40003C0.6 4.32945 1.20472 5.2313 1.86779 5.9312C2.19318 6.27468 2.5196 6.55587 2.765 6.75128C2.85633 6.82401 2.93611 6.88459 3 6.9318C3.06389 6.88459 3.14367 6.82401 3.235 6.75128C3.4804 6.55587 3.80682 6.27468 4.13221 5.9312C4.79528 5.2313 5.4 4.32945 5.4 3.40003C5.4 2.76351 5.14714 2.15306 4.69706 1.70297C4.24697 1.25288 3.63652 1.00003 3 1.00003ZM3 7.30003C2.83359 7.54964 2.83343 7.54953 2.83343 7.54953L2.83257 7.54896L2.83057 7.54762L2.8237 7.54297C2.81785 7.539 2.80952 7.5333 2.79887 7.52593C2.77756 7.51117 2.74694 7.48967 2.70834 7.46179C2.63116 7.40605 2.52191 7.32469 2.39125 7.22065C2.1304 7.01294 1.78182 6.71288 1.43221 6.34385C0.745279 5.61875 0 4.57061 0 3.40003C1.78814e-08 2.60438 0.31607 1.84132 0.87868 1.27871C1.44129 0.716099 2.20435 0.400028 3 0.400028C3.79565 0.400028 4.55871 0.716099 5.12132 1.27871C5.68393 1.84132 6 2.60438 6 3.40003C6 4.57061 5.25472 5.61875 4.56779 6.34385C4.21818 6.71288 3.8696 7.01294 3.60875 7.22065C3.47809 7.32469 3.36884 7.40605 3.29166 7.46179C3.25306 7.48967 3.22244 7.51117 3.20113 7.52593C3.19048 7.5333 3.18215 7.539 3.1763 7.54297L3.16943 7.54762L3.16743 7.54896L3.1668 7.54939C3.1668 7.54939 3.16641 7.54964 3 7.30003ZM3 7.30003L3.16641 7.54964C3.06564 7.61682 2.9342 7.61671 2.83343 7.54953L3 7.30003Z" fill="#BE957D"/>
<path fill-rule="evenodd" clip-rule="evenodd" d="M3 2.80003C2.66863 2.80003 2.4 3.06866 2.4 3.40003C2.4 3.7314 2.66863 4.00003 3 4.00003C3.33137 4.00003 3.6 3.7314 3.6 3.40003C3.6 3.06866 3.33137 2.80003 3 2.80003ZM1.8 3.40003C1.8 2.73729 2.33726 2.20003 3 2.20003C3.66274 2.20003 4.2 2.73729 4.2 3.40003C4.2 4.06277 3.66274 4.60003 3 4.60003C2.33726 4.60003 1.8 4.06277 1.8 3.40003Z" fill="#BE957D"/>
</svg>
