<svg width="8" height="8" viewBox="0 0 8 8" fill="none" xmlns="http://www.w3.org/2000/svg">
<path fill-rule="evenodd" clip-rule="evenodd" d="M1.08191 2.76886C0.93372 2.80856 0.845781 2.96088 0.885487 3.10906L1.74822 6.32882C1.78792 6.477 1.94024 6.56494 2.08842 6.52524L6.91805 5.23114C7.06624 5.19143 7.15418 5.03912 7.11447 4.89093L6.25174 1.67118C6.21204 1.523 6.05972 1.43506 5.91153 1.47476L1.08191 2.76886ZM0.348861 3.25285C0.229743 2.8083 0.493562 2.35135 0.938117 2.23223L5.76775 0.938136C6.2123 0.819018 6.66925 1.08284 6.78837 1.52739L7.6511 4.74714C7.77022 5.1917 7.5064 5.64865 7.06184 5.76777L2.23221 7.06186C1.78766 7.18098 1.33071 6.91716 1.21159 6.47261L0.348861 3.25285Z" fill="#BE957D"/>
<path fill-rule="evenodd" clip-rule="evenodd" d="M0.636438 4.3261C0.596732 4.17792 0.684672 4.0256 0.832857 3.9859L6.73574 2.40422C6.88392 2.36452 7.03624 2.45246 7.07594 2.60064C7.11565 2.74883 7.02771 2.90114 6.87953 2.94085L0.976645 4.52252C0.82846 4.56223 0.676144 4.47429 0.636438 4.3261Z" fill="#BE957D"/>
</svg>
