<svg width="6" height="6" viewBox="0 0 6 6" fill="none" xmlns="http://www.w3.org/2000/svg">
<path fill-rule="evenodd" clip-rule="evenodd" d="M1.50001 0.6C1.42044 0.6 1.34413 0.631607 1.28787 0.687868C1.23161 0.744129 1.20001 0.820435 1.20001 0.9V5.11704L2.82563 3.95588C2.92994 3.88137 3.07007 3.88137 3.17438 3.95588L4.80001 5.11704V0.9C4.80001 0.820435 4.7684 0.744129 4.71214 0.687868C4.65588 0.631607 4.57957 0.6 4.50001 0.6H1.50001ZM0.86361 0.263604C1.03239 0.0948211 1.26131 0 1.50001 0H4.50001C4.7387 0 4.96762 0.0948211 5.1364 0.263604C5.30518 0.432386 5.40001 0.661305 5.40001 0.9V5.7C5.40001 5.81238 5.3372 5.91533 5.23728 5.96675C5.13736 6.01817 5.01708 6.00944 4.92563 5.94412L3.00001 4.56867L1.07438 5.94412C0.982933 6.00944 0.862653 6.01817 0.762732 5.96675C0.66281 5.91533 0.600006 5.81238 0.600006 5.7V0.9C0.600006 0.661305 0.694827 0.432387 0.86361 0.263604Z" fill="#BE957D"/>
</svg>
