<svg width="6" height="6" viewBox="0 0 6 6" fill="none" xmlns="http://www.w3.org/2000/svg">
<path fill-rule="evenodd" clip-rule="evenodd" d="M5.1534 0.542463C5.07273 0.542463 4.99537 0.574506 4.93834 0.631543L2.41476 3.15512L2.27139 3.7286L2.84488 3.58523L5.36845 1.06166C5.42549 1.00462 5.45753 0.927262 5.45753 0.8466C5.45753 0.765938 5.42549 0.688579 5.36845 0.631543C5.31142 0.574506 5.23406 0.542463 5.1534 0.542463ZM4.55476 0.247963C4.71353 0.0891958 4.92886 0 5.1534 0C5.37793 0 5.59326 0.0891958 5.75203 0.247963C5.9108 0.406731 6 0.622068 6 0.8466C6 1.07113 5.9108 1.28647 5.75203 1.44524L3.17533 4.02193C3.14057 4.05669 3.09702 4.08136 3.04933 4.09328L1.9644 4.36451C1.87197 4.38762 1.7742 4.36053 1.70683 4.29317C1.63946 4.2258 1.61238 4.12802 1.63549 4.03559L1.90672 2.95067C1.91864 2.90298 1.9433 2.85942 1.97806 2.82466L4.55476 0.247963ZM0.238325 0.813699C0.390923 0.661102 0.597889 0.575373 0.813694 0.575373H2.71231C2.86211 0.575373 2.98354 0.696808 2.98354 0.846605C2.98354 0.996401 2.86211 1.11784 2.71231 1.11784H0.813694C0.741759 1.11784 0.67277 1.14641 0.621904 1.19728C0.571039 1.24814 0.542463 1.31713 0.542463 1.38907V5.18631C0.542463 5.25824 0.571039 5.32723 0.621904 5.3781C0.67277 5.42896 0.741759 5.45754 0.813694 5.45754H4.61093C4.68287 5.45754 4.75186 5.42896 4.80272 5.3781C4.85359 5.32723 4.88216 5.25824 4.88216 5.18631V3.28769C4.88216 3.13789 5.0036 3.01646 5.1534 3.01646C5.30319 3.01646 5.42463 3.13789 5.42463 3.28769V5.18631C5.42463 5.40211 5.3389 5.60908 5.1863 5.76167C5.0337 5.91427 4.82674 6 4.61093 6H0.813694C0.597889 6 0.390923 5.91427 0.238325 5.76167C0.0857282 5.60908 0 5.40211 0 5.18631V1.38907C0 1.17326 0.0857282 0.966295 0.238325 0.813699Z" fill="#BE957D"/>
</svg>
