<svg width="8" height="8" viewBox="0 0 8 8" fill="none" xmlns="http://www.w3.org/2000/svg">
<path fill-rule="evenodd" clip-rule="evenodd" d="M3.99999 1.46364C2.5992 1.46364 1.46363 2.59921 1.46363 4C1.46363 5.4008 2.5992 6.53637 3.99999 6.53637C5.40079 6.53637 6.53636 5.4008 6.53636 4C6.53636 2.59921 5.40079 1.46364 3.99999 1.46364ZM0.899994 4C0.899994 2.28792 2.28791 0.900002 3.99999 0.900002C5.71208 0.900002 7.09999 2.28792 7.09999 4C7.09999 5.71208 5.71208 7.1 3.99999 7.1C2.28791 7.1 0.899994 5.71208 0.899994 4Z" fill="#BE957D"/>
<path fill-rule="evenodd" clip-rule="evenodd" d="M3.99999 2.02727C4.15564 2.02727 4.28181 2.15345 4.28181 2.30909V3.82583L5.2533 4.31157C5.39251 4.38118 5.44894 4.55046 5.37933 4.68967C5.30973 4.82888 5.14045 4.88531 5.00123 4.8157L3.87396 4.25207C3.77849 4.20433 3.71818 4.10675 3.71818 4V2.30909C3.71818 2.15345 3.84435 2.02727 3.99999 2.02727Z" fill="#BE957D"/>
</svg>
