<svg width="5" height="6" viewBox="0 0 5 6" fill="none" xmlns="http://www.w3.org/2000/svg">
<path fill-rule="evenodd" clip-rule="evenodd" d="M2.49951 1.54167C2.36838 1.54136 2.23766 1.5563 2.10998 1.58618C1.99795 1.61241 1.88587 1.54285 1.85965 1.43082C1.83343 1.31878 1.90299 1.20671 2.01502 1.18048C2.17406 1.14325 2.3369 1.12464 2.50024 1.125C3.31252 1.12509 3.93661 1.58888 4.3447 2.02418C4.55066 2.24387 4.7079 2.46277 4.81368 2.62656C4.8667 2.70865 4.90713 2.77743 4.93459 2.82625C4.94833 2.85067 4.95885 2.87015 4.96609 2.88384C4.96972 2.89069 4.97253 2.8961 4.97451 2.89996L4.97688 2.90459L4.9776 2.90601C4.9776 2.90601 4.97801 2.90683 4.79167 3L4.60793 2.90179C4.59037 2.93466 4.5723 2.96724 4.55374 2.99954C4.53101 2.96026 4.50091 2.91028 4.46366 2.85261C4.36762 2.70389 4.22538 2.50613 4.04072 2.30915C3.6676 1.91116 3.14545 1.54167 2.49951 1.54167ZM4.55374 2.99954C4.44595 3.18712 4.32165 3.3648 4.18226 3.53045C4.10818 3.61849 4.11949 3.74991 4.20753 3.82399C4.29557 3.89807 4.42699 3.88676 4.50107 3.79872C4.68313 3.58236 4.8421 3.34758 4.9754 3.09821C5.00725 3.03862 5.00823 2.96727 4.97801 2.90683L4.79167 3C4.60533 3.09317 4.60538 3.09328 4.60538 3.09328L4.60395 3.09047C4.60269 3.08803 4.60065 3.08408 4.59781 3.07872C4.59214 3.06801 4.58333 3.05167 4.57143 3.03052C4.56614 3.02111 4.56024 3.01076 4.55374 2.99954ZM1.13606 1.59692C1.21901 1.53358 1.33602 1.54139 1.40981 1.61519L2.20483 2.4102C2.20531 2.41068 2.2058 2.41116 2.20628 2.41165L3.08834 3.29371C3.08883 3.2942 3.08932 3.29469 3.08981 3.29518L3.88481 4.09019C3.92732 4.13269 3.94939 4.19148 3.94537 4.25146C3.94134 4.31143 3.9116 4.36675 3.8638 4.40319C3.4723 4.7016 2.9956 4.86693 2.50341 4.87497L2.5 4.875C1.6876 4.875 1.06343 4.41116 0.655305 3.97582C0.44934 3.75613 0.292097 3.53723 0.18632 3.37344C0.133302 3.29135 0.0928733 3.22257 0.0654107 3.17375C0.0516716 3.14933 0.0411542 3.12985 0.033907 3.11616C0.0302827 3.10931 0.027474 3.1039 0.0254871 3.10004L0.0231229 3.09541L0.022404 3.09399C0.022404 3.09399 0.0219944 3.09317 0.208333 3L0.0219944 3.09317C-0.00827889 3.03262 -0.00724781 2.96114 0.0247593 2.90149C0.297949 2.39238 0.676856 1.94758 1.13606 1.59692ZM0.446369 3.00066C0.469093 3.03991 0.499151 3.08981 0.536336 3.14739C0.632382 3.29611 0.774618 3.49387 0.959279 3.69085C1.33207 4.08849 1.85315 4.45769 2.4983 4.45833C2.82027 4.45278 3.1341 4.36508 3.41071 4.20534L2.92703 3.72166C2.89396 3.74239 2.85939 3.76082 2.82357 3.77678C2.72135 3.82233 2.611 3.84682 2.49911 3.84879C2.38722 3.85077 2.27608 3.83019 2.17231 3.78827C2.06855 3.74636 1.97429 3.68398 1.89515 3.60485C1.81602 3.52571 1.75364 3.43145 1.71173 3.32769C1.66981 3.22392 1.64923 3.11278 1.65121 3.00089C1.65318 2.889 1.67767 2.77865 1.72322 2.67643C1.73918 2.64061 1.75761 2.60604 1.77834 2.57297L1.24731 2.04194C0.927148 2.31279 0.656114 2.63712 0.446369 3.00066ZM2.08914 2.88377C2.07577 2.92386 2.06856 2.96583 2.06781 3.00824C2.06682 3.06419 2.07711 3.11976 2.09807 3.17164C2.11902 3.22352 2.15022 3.27065 2.18978 3.31022C2.22935 3.34978 2.27648 3.38098 2.32836 3.40193C2.38024 3.42289 2.43581 3.43318 2.49176 3.43219C2.53417 3.43144 2.57614 3.42423 2.61623 3.41086L2.08914 2.88377Z" fill="#F5E6D6"/>
<path fill-rule="evenodd" clip-rule="evenodd" d="M0.0610194 0.561019C0.142379 0.47966 0.274288 0.47966 0.355647 0.561019L4.93898 5.14435C5.02034 5.22571 5.02034 5.35762 4.93898 5.43898C4.85762 5.52034 4.72571 5.52034 4.64435 5.43898L0.0610194 0.855647C-0.0203398 0.774288 -0.0203398 0.642379 0.0610194 0.561019Z" fill="#F5E6D6"/>
<path d="M4.79167 3L4.60793 2.90179C4.59037 2.93466 4.5723 2.96724 4.55374 2.99954C4.56024 3.01076 4.56614 3.02111 4.57143 3.03052C4.58333 3.05167 4.59214 3.06801 4.59781 3.07872C4.60065 3.08408 4.60269 3.08803 4.60395 3.09047L4.60538 3.09328C4.60538 3.09328 4.60533 3.09317 4.79167 3Z" fill="#F5E6D6"/>
</svg>
