<svg width="22" height="16" viewBox="0 0 22 16" fill="none" xmlns="http://www.w3.org/2000/svg">
<path fill-rule="evenodd" clip-rule="evenodd" d="M2.23638 8C2.33353 8.16788 2.46232 8.38182 2.62186 8.62887C3.03166 9.26339 3.63853 10.1072 4.42642 10.9476C6.0184 12.6457 8.24417 14.2222 11.0002 14.2222C13.7562 14.2222 15.9819 12.6457 17.5739 10.9476C18.3618 10.1072 18.9687 9.26339 19.3785 8.62887C19.538 8.38182 19.6668 8.16788 19.7639 8C19.6668 7.83212 19.538 7.61818 19.3785 7.37113C18.9687 6.73661 18.3618 5.8928 17.5739 5.05239C15.9819 3.35428 13.7562 1.77778 11.0002 1.77778C8.24417 1.77778 6.0184 3.35428 4.42642 5.05239C3.63853 5.8928 3.03166 6.73661 2.62186 7.37113C2.46232 7.61818 2.33353 7.83212 2.23638 8ZM20.7779 8C21.573 7.60248 21.5727 7.60185 21.5727 7.60185L21.5712 7.59899L21.5682 7.59292L21.5581 7.57318C21.5496 7.55669 21.5376 7.53361 21.5222 7.50439C21.4912 7.44596 21.4464 7.36287 21.3877 7.25866C21.2706 7.05035 21.0981 6.7569 20.8719 6.40664C20.4205 5.70783 19.7496 4.77386 18.8709 3.8365C17.1295 1.97906 14.4664 0 11.0002 0C7.53393 0 4.87081 1.97906 3.12946 3.8365C2.25068 4.77386 1.57978 5.70783 1.12846 6.40664C0.902252 6.7569 0.729756 7.05035 0.612582 7.25866C0.553961 7.36287 0.509087 7.44596 0.478166 7.50439C0.462702 7.53361 0.450718 7.55669 0.442241 7.57318L0.432154 7.59292L0.429086 7.59899L0.428047 7.60106C0.428047 7.60106 0.427339 7.60248 1.22238 8L0.427339 7.60248C0.302215 7.85272 0.302215 8.14728 0.427339 8.39752L1.22238 8C0.427339 8.39752 0.427339 8.39752 0.427339 8.39752L0.429086 8.40101L0.432154 8.40708L0.442241 8.42682C0.450718 8.44331 0.462702 8.46639 0.478166 8.49561C0.509087 8.55404 0.553961 8.63713 0.612582 8.74134C0.729756 8.94965 0.902252 9.2431 1.12846 9.59336C1.57978 10.2922 2.25068 11.2261 3.12946 12.1635C4.87081 14.0209 7.53393 16 11.0002 16C14.4664 16 17.1295 14.0209 18.8709 12.1635C19.7496 11.2261 20.4205 10.2922 20.8719 9.59336C21.0981 9.2431 21.2706 8.94965 21.3877 8.74134C21.4464 8.63713 21.4912 8.55404 21.5222 8.49561C21.5376 8.46639 21.5496 8.44331 21.5581 8.42682L21.5682 8.40708L21.5712 8.40101L21.5723 8.39894C21.5723 8.39894 21.573 8.39752 20.7779 8ZM20.7779 8L21.573 8.39752C21.6981 8.14728 21.6978 7.8521 21.5727 7.60185L20.7779 8Z" fill="#BE957D"/>
<path fill-rule="evenodd" clip-rule="evenodd" d="M11.0002 6.22222C10.0183 6.22222 9.22239 7.01816 9.22239 8C9.22239 8.98184 10.0183 9.77778 11.0002 9.77778C11.982 9.77778 12.7779 8.98184 12.7779 8C12.7779 7.01816 11.982 6.22222 11.0002 6.22222ZM7.44461 8C7.44461 6.03632 9.03648 4.44444 11.0002 4.44444C12.9638 4.44444 14.5557 6.03632 14.5557 8C14.5557 9.96368 12.9638 11.5556 11.0002 11.5556C9.03648 11.5556 7.44461 9.96368 7.44461 8Z" fill="#BE957D"/>
</svg>
