<svg width="18" height="18" viewBox="0 0 18 18" fill="none" xmlns="http://www.w3.org/2000/svg">
<path fill-rule="evenodd" clip-rule="evenodd" d="M8.16799 2.34405C4.95149 2.34405 2.34399 4.95155 2.34399 8.16805C2.34399 11.3846 4.95149 13.9921 8.16799 13.9921C11.3845 13.9921 13.992 11.3846 13.992 8.16805C13.992 4.95155 11.3845 2.34405 8.16799 2.34405ZM0.679993 8.16805C0.679993 4.03255 4.03248 0.680054 8.16799 0.680054C12.3035 0.680054 15.656 4.03255 15.656 8.16805C15.656 12.3036 12.3035 15.6561 8.16799 15.6561C4.03248 15.6561 0.679993 12.3036 0.679993 8.16805Z" fill="#FFFAF5"/>
<path fill-rule="evenodd" clip-rule="evenodd" d="M12.2805 12.2805C12.6054 11.9556 13.1322 11.9556 13.4571 12.2805L17.0763 15.8997C17.4012 16.2247 17.4012 16.7515 17.0763 17.0764C16.7514 17.4013 16.2246 17.4013 15.8997 17.0764L12.2805 13.4572C11.9556 13.1323 11.9556 12.6055 12.2805 12.2805Z" fill="#FFFAF5"/>
<path fill-rule="evenodd" clip-rule="evenodd" d="M8.16799 4.84005C8.62749 4.84005 8.99999 5.21255 8.99999 5.67205V10.6641C8.99999 11.1236 8.62749 11.4961 8.16799 11.4961C7.70849 11.4961 7.33599 11.1236 7.33599 10.6641V5.67205C7.33599 5.21255 7.70849 4.84005 8.16799 4.84005Z" fill="#FFFAF5"/>
<path fill-rule="evenodd" clip-rule="evenodd" d="M4.83999 8.16805C4.83999 7.70855 5.21249 7.33605 5.67199 7.33605H10.664C11.1235 7.33605 11.496 7.70855 11.496 8.16805C11.496 8.62756 11.1235 9.00005 10.664 9.00005H5.67199C5.21249 9.00005 4.83999 8.62756 4.83999 8.16805Z" fill="#FFFAF5"/>
</svg>
