<svg width="99" height="28" viewBox="0 0 99 28" fill="none" xmlns="http://www.w3.org/2000/svg">
<path d="M0.966675 0.133301H4.43334V27.8666H0.966675V0.133301Z" fill="#240405"/>
<path d="M7.90001 0.133301H9.63334V27.8666H7.90001V0.133301Z" fill="#240405"/>
<path d="M14.8333 0.133301H18.3V27.8666H14.8333V0.133301Z" fill="#240405"/>
<path d="M33.9 0.133301H35.6333V27.8666H33.9V0.133301Z" fill="#240405"/>
<path d="M59.9 0.133301H61.6333V27.8666H59.9V0.133301Z" fill="#240405"/>
<path d="M73.7667 0.133301H75.5V27.8666H73.7667V0.133301Z" fill="#240405"/>
<path d="M87.6333 0.133301H89.3667V27.8666H87.6333V0.133301Z" fill="#240405"/>
<path d="M21.7667 0.133301H30.4333V27.8666H21.7667V0.133301Z" fill="#240405"/>
<path d="M39.1 0.133301H46.0333V27.8666H39.1V0.133301Z" fill="#240405"/>
<path d="M66.8333 0.133301H70.3V27.8666H66.8333V0.133301Z" fill="#240405"/>
<path d="M94.5667 0.133301H98.0333V27.8666H94.5667V0.133301Z" fill="#240405"/>
<path d="M80.7 0.133301H84.1667V27.8666H80.7V0.133301Z" fill="#240405"/>
<path d="M49.5 0.133301H56.4333V27.8666H49.5V0.133301Z" fill="#240405"/>
</svg>
