<svg width="7" height="6" viewBox="0 0 7 6" fill="none" xmlns="http://www.w3.org/2000/svg">
<path fill-rule="evenodd" clip-rule="evenodd" d="M3.94826 5.23876V4.08982C3.9211 4.12788 3.85415 4.38558 3.66406 4.63896C3.57033 4.76394 3.36717 4.97914 3.123 4.84541C2.88054 4.71304 2.71657 4.36649 2.61988 4.10084C2.60056 4.04733 2.52596 3.82894 2.52494 3.77747H3.94721L3.94826 3.33367C3.8277 3.32754 3.69247 3.33298 3.57169 3.33298C3.45375 3.33298 2.46307 3.3381 2.43728 3.33003C2.37638 2.97644 2.37675 2.35518 2.44186 2.00148C2.47469 1.99409 3.85895 2.00022 4.06733 1.99954L4.11892 2.00352C4.13506 2.03216 4.15945 2.34643 4.1624 2.40505C4.17013 2.55651 4.16876 2.68911 4.1649 2.84091C4.18104 2.83409 4.19198 2.81953 4.2088 2.80703C4.30731 2.73227 4.41168 2.68693 4.53724 2.6708C4.55951 2.66784 4.59234 2.6698 4.61234 2.664C4.62609 2.6131 4.60044 2.25631 4.59237 2.16258C4.58851 2.11906 4.57464 2.03794 4.57725 1.99954H5.40111C5.41975 2.03442 5.4561 2.20154 5.46485 2.25051C5.50155 2.4573 5.51383 2.62888 5.49668 2.84022L5.4584 3.11723L5.74509 3.32174C5.76736 3.33776 5.82461 3.38288 5.84745 3.39061C5.85301 3.35652 5.86654 3.31719 5.87484 3.28083C6.01527 2.67591 5.95376 2.10168 5.69959 1.54187C5.61358 1.35189 5.50927 1.19147 5.38849 1.03274C5.36884 1.00661 5.34828 0.981505 5.3276 0.956736C5.2291 0.839138 5.10219 0.710274 4.98266 0.613355C4.88063 0.530638 4.78462 0.460065 4.66123 0.384052C3.89736 -0.0858852 2.89847 -0.137099 2.05177 0.300002C1.78828 0.435552 1.58992 0.595977 1.41279 0.763114C1.342 0.83015 1.21793 0.973758 1.15703 1.05466C0.90945 1.38439 0.731632 1.76389 0.654597 2.2019C0.535749 2.88078 0.691644 3.51753 0.973879 4.00292C1.56357 5.01813 2.73555 5.53283 3.89437 5.25866C3.91312 5.25445 3.93951 5.25387 3.94826 5.23876ZM2.06245 1.55449L1.36064 1.55484C1.37416 1.50359 1.52235 1.30813 1.56064 1.26166C1.70982 1.08101 1.88147 0.922297 2.08235 0.79595C2.16552 0.743457 2.23242 0.705844 2.3207 0.663009C2.34161 0.652669 2.38708 0.635281 2.40219 0.625283C2.40026 0.636872 2.35935 0.707783 2.34969 0.725735C2.33106 0.762207 2.31425 0.796966 2.29789 0.831734C2.26312 0.905816 2.23219 0.980929 2.20413 1.05944C2.14811 1.21567 2.09881 1.38054 2.06245 1.55449ZM4.16109 0.627225C4.26641 0.653357 4.52724 0.822765 4.62586 0.897755C4.71949 0.968995 4.80653 1.04557 4.88606 1.12896L4.94508 1.19408C5.00336 1.26919 5.04004 1.30485 5.10708 1.39984C5.12503 1.42563 5.1956 1.52779 5.20174 1.55484H4.5002C4.45453 1.33805 4.36307 1.03363 4.2674 0.837178L4.16109 0.627225ZM4.03418 1.55484H2.5284C2.53647 1.48621 2.6097 1.27111 2.63742 1.19703C2.73241 0.941609 2.9668 0.443617 3.28119 0.443276C3.59194 0.443049 3.83224 0.939666 3.9253 1.19634C3.95143 1.26815 4.02747 1.48746 4.03418 1.55484ZM1.98644 3.33332L1.16064 3.33298C1.13416 3.21379 1.11224 3.17449 1.08747 3.02122C1.06918 2.90851 1.05763 2.78387 1.05786 2.6657C1.0582 2.4563 1.09752 2.17293 1.16161 1.99988L1.98547 1.99954C1.98877 2.03055 1.97382 2.12134 1.97098 2.15838C1.9403 2.51583 1.94036 2.81182 1.9707 3.16938C1.97456 3.21801 1.98701 3.28788 1.98644 3.33332ZM5.58635 4.77429C5.72803 4.74373 5.88319 4.72019 6.02817 4.6944C6.08487 4.6844 6.19763 4.67019 6.24433 4.65054C6.39272 4.58816 6.43391 4.44124 6.35244 4.32137C6.32574 4.28183 6.25816 4.23379 6.2143 4.20289C6.1125 4.13108 6.01402 4.05961 5.91222 3.9878C5.71156 3.84635 5.50574 3.69728 5.3086 3.55718L4.7801 3.17972C4.75214 3.15938 4.74141 3.14462 4.70437 3.12746C4.55882 3.06088 4.41169 3.16814 4.39396 3.29948C4.38817 3.34141 4.39299 3.7359 4.39299 3.81544C4.39299 3.86316 4.38714 5.29922 4.39486 5.36625C4.40997 5.49249 4.56075 5.60234 4.70312 5.53633C4.78617 5.49793 4.89121 5.34659 4.95666 5.27319L5.13502 5.06254C5.14889 5.04516 5.17887 5.00358 5.19716 4.99427C5.2442 5.0838 5.29702 5.19559 5.34633 5.29319L5.57019 5.74084C5.59405 5.78879 5.61886 5.84255 5.64488 5.888C5.78338 6.12695 6.17144 5.95152 6.02817 5.66258C5.98272 5.57043 5.58885 4.79167 5.58635 4.77429ZM1.36223 3.77747H2.06148C2.09818 3.94722 2.14625 4.11879 2.2026 4.26957C2.24123 4.37365 2.29492 4.5008 2.3465 4.60068C2.36093 4.6284 2.39389 4.67894 2.40184 4.70473C2.34003 4.69053 2.12745 4.56851 2.07916 4.53431C1.99156 4.47216 1.95036 4.44443 1.8673 4.37876C1.71494 4.25764 1.56905 4.08858 1.45599 3.93076C1.43543 3.90247 1.37291 3.80996 1.36223 3.77747Z" fill="#BE957D"/>
</svg>
