<svg width="19" height="14" viewBox="0 0 19 14" fill="none" xmlns="http://www.w3.org/2000/svg">
<path fill-rule="evenodd" clip-rule="evenodd" d="M2.53048 7.00005C2.60941 7.13645 2.71405 7.31028 2.84369 7.51101C3.17665 8.02656 3.66974 8.71216 4.3099 9.395C5.60339 10.7747 7.41184 12.0556 9.6511 12.0556C11.8904 12.0556 13.6988 10.7747 14.9923 9.395C15.6325 8.71216 16.1256 8.02656 16.4585 7.51101C16.5882 7.31028 16.6928 7.13645 16.7717 7.00005C16.6928 6.86364 16.5882 6.68981 16.4585 6.48909C16.1256 5.97354 15.6325 5.28794 14.9923 4.6051C13.6988 3.22537 11.8904 1.94446 9.6511 1.94446C7.41184 1.94446 5.60339 3.22537 4.3099 4.6051C3.66974 5.28794 3.17665 5.97354 2.84369 6.48909C2.71405 6.68981 2.60941 6.86364 2.53048 7.00005ZM17.5956 7.00005C18.2416 6.67706 18.2413 6.67655 18.2413 6.67655L18.2402 6.67423L18.2377 6.6693L18.2295 6.65325C18.2226 6.63985 18.2129 6.6211 18.2003 6.59736C18.1752 6.54988 18.1387 6.48238 18.0911 6.3977C17.9959 6.22845 17.8557 5.99002 17.6719 5.70544C17.3052 5.13765 16.7601 4.37879 16.0461 3.61718C14.6312 2.108 12.4674 0.5 9.6511 0.5C6.83477 0.5 4.67097 2.108 3.25611 3.61718C2.5421 4.37879 1.99699 5.13765 1.63029 5.70544C1.44649 5.99002 1.30634 6.22845 1.21113 6.3977C1.1635 6.48238 1.12704 6.54988 1.10192 6.59736C1.08936 6.6211 1.07962 6.63985 1.07273 6.65325L1.06454 6.6693L1.06204 6.67423L1.0612 6.67591C1.0612 6.67591 1.06062 6.67706 1.7066 7.00005L1.06062 6.67706C0.958959 6.88038 0.958959 7.11971 1.06062 7.32304L1.7066 7.00005C1.06062 7.32304 1.06062 7.32304 1.06062 7.32304L1.06204 7.32587L1.06454 7.3308L1.07273 7.34684C1.07962 7.36024 1.08936 7.37899 1.10192 7.40273C1.12704 7.45021 1.1635 7.51772 1.21113 7.60239C1.30634 7.77165 1.44649 8.01007 1.63029 8.29466C1.99699 8.86245 2.5421 9.6213 3.25611 10.3829C4.67097 11.8921 6.83477 13.5001 9.6511 13.5001C12.4674 13.5001 14.6312 11.8921 16.0461 10.3829C16.7601 9.6213 17.3052 8.86245 17.6719 8.29466C17.8557 8.01007 17.9959 7.77165 18.0911 7.60239C18.1387 7.51772 18.1752 7.45021 18.2003 7.40273C18.2129 7.37899 18.2226 7.36024 18.2295 7.34684L18.2377 7.3308L18.2402 7.32587L18.241 7.32419C18.241 7.32419 18.2416 7.32304 17.5956 7.00005ZM17.5956 7.00005L18.2416 7.32304C18.3433 7.11971 18.343 6.87988 18.2413 6.67655L17.5956 7.00005Z" fill="#FFFAF5"/>
<path fill-rule="evenodd" clip-rule="evenodd" d="M9.6511 5.55559C8.85335 5.55559 8.20665 6.2023 8.20665 7.00005C8.20665 7.7978 8.85335 8.4445 9.6511 8.4445C10.4489 8.4445 11.0956 7.7978 11.0956 7.00005C11.0956 6.2023 10.4489 5.55559 9.6511 5.55559ZM6.7622 7.00005C6.7622 5.40455 8.0556 4.11114 9.6511 4.11114C11.2466 4.11114 12.54 5.40455 12.54 7.00005C12.54 8.59555 11.2466 9.88896 9.6511 9.88896C8.0556 9.88896 6.7622 8.59555 6.7622 7.00005Z" fill="#FFFAF5"/>
</svg>
