<svg width="27" height="26" fill="none" xmlns="http://www.w3.org/2000/svg"><path fill-rule="evenodd" clip-rule="evenodd" d="M6.64 2.38c.06.252.094.513.144.77.036.165.075.352.067.518.076.111.114.274.145.421.057.247.147.494.224.736.059.098.116.234.169.362l.093.217.138.24c.066.11.132.222.174.33.268.373.545.718.827 1.08l-1.186.244c-.093.094-1.11.481-1.164.505a.937.937 0 01-.233.156l-.134.075c-1.257.833-1.772 1.661-2.007 2.04l-.147.216-.503 1.155c.006.147-.031.283-.07.422l-.05.201c-.04.215-.056.415-.075.647l-.004.04c-.014.178-.002.468.01.743.013.293.024.579.003.735.036.05.124.712.134.775.033.16.066.325.058.473l.09.235.08.368c.074.168.128.347.182.525.058.194.118.395.202.575.054.146.126.296.197.442.085.175.171.354.229.524.069.084.177.282.265.448.132.24.267.453.425.674.056.073.091.117.113.228l1.112 1.315 1.271 1.18c.311.067 1.674 1.007 2.012 1.212l.316.136c.123.027.24.069.354.108l.25.081.626.138.515.022.585-.053.476-.094c.56-.239 1.143-.094 1.7.046l.192.048.562.053.65-.05c.327-.095.617-.185.938-.299.427-.22.78-.414 1.197-.657l.42-.306c.219-.152.47-.328.676-.504l.2-.183c.157-.147.322-.304.463-.364.177-.177.58-.54.61-.693l.1-.042 1.747-2.336c.03-.146.123-.296.209-.436l.1-.166.112-.245c.057-.129.116-.265.19-.387l.1-.278c.028-.083.043-.125.108-.182.015-.142.084-.32.14-.467.094-.254.16-.52.234-.781l.1-.445.025-.203c.139-1.098.219-1.74-.02-2.91l-.067-.285c-.106-.276-.202-.547-.326-.816-.065-.134-.139-.281-.162-.388-.092-.095-.24-.32-.363-.506l-.163-.241c-.134-.177-.262-.308-.396-.447l-.212-.221a1.52 1.52 0 00-.22-.208c-.326-.263-1.012-.63-1.23-.878-.107-.026-.234-.089-.352-.146-.235-.11-.473-.2-.713-.296l-.832-.196-.435-.069-.444-.04a6.801 6.801 0 00-1.463.087 2.784 2.784 0 01-.413.046c-.112.055-.297.097-.418.129l-.896.307.01-.162a3.31 3.31 0 01.105-.503c.04-.14.086-.275.128-.342.043-.181.145-.456.262-.693.093-.192.202-.369.3-.463.067-.209.362-.532.55-.74l.098-.107a3.1 3.1 0 01.544-.505l.225-.181-.037-.106c-.118-.094-.257-.327-.35-.483l-.134-.21a5.054 5.054 0 01-.326-.525l-.037-.071c-.107.044-.259.169-.37.263l-.09.075c-.205.164-.312.274-.436.4l-.3.295-.487.61c-.055.077-.093.134-.181.193a1.39 1.39 0 01-.123.263 1.09 1.09 0 01-.197.261l-.087.07-.573-.743-.26-.267-.32-.288a6.88 6.88 0 00-.66-.467 4.208 4.208 0 00-.77-.367 6.656 6.656 0 00-1.89-.447 10.609 10.609 0 00-2.155.03zM9.9 4.302c.13.007.336.092.536.2.264.141.533.329.624.421l.3.28c.077.078.147.157.178.21.134.175.281.383.413.606.133.226.252.469.332.716l.043.13-.136.011a1.8 1.8 0 01-.41-.044 1.708 1.708 0 01-.366-.11c-.15-.037-.53-.126-.633-.25-.237-.036-.484-.198-.706-.39a6.134 6.134 0 01-.585-.597 2.447 2.447 0 01-.214-.287.836.836 0 01-.096-.212 1.485 1.485 0 01-.227-.349c-.092-.185-.17-.394-.182-.492l-.016-.159 1.144.316zm11.754 10.29l-.162.674a.377.377 0 01-.092.203c-.011.111-.067.29-.138.472-.105.276-.251.58-.323.703-.05.178-.213.462-.317.644l-.326.52a.667.667 0 01-.165.213l-.044.094a4.737 4.737 0 01-.376.526 9.35 9.35 0 01-.54.634l-.126.152c-.055.075-.11.151-.226.238l-.13.143-.157.118c-.104.157-.48.469-.68.636l-.1.085a8.197 8.197 0 01-.557.43 2.36 2.36 0 01-.375.23c-.078.077-.255.186-.449.288a4.454 4.454 0 01-.643.289 1.766 1.766 0 01-.345.11 1.364 1.364 0 01-.338.03l-.408-.037a.624.624 0 01-.297-.094l-.697-.138a4.195 4.195 0 00-1.23.1l-.223.044c-.162.085-.433.109-.626.124l-.408-.012a1.9 1.9 0 01-.323-.065l-.18-.093a.81.81 0 01-.43-.145c-.305-.093-.825-.386-1.293-.704-.45-.303-.867-.637-1.014-.84-.11-.02-.223-.16-.298-.24-.062-.065-.1-.103-.134-.169-.212-.139-.637-.636-1.018-1.163-.36-.499-.693-1.037-.784-1.335-.07-.088-.174-.296-.26-.503a2.69 2.69 0 01-.164-.493c-.088-.073-.185-.502-.207-.605-.102-.201-.19-.632-.25-1.101-.078-.591-.12-1.255-.104-1.597a4.04 4.04 0 01.52-1.843l.043-.08c.073-.14.162-.306.284-.389.063-.154.254-.38.47-.587.248-.238.54-.468.713-.548.066-.073.214-.163.38-.25.246-.126.543-.252.654-.282.374-.189.923-.286 1.486-.303.616-.019 1.26.055 1.714.204.407.133.707.261.981.416.27.152.517.333.823.571l.065.05c.124.095.301.233.403.354.08-.047.165-.119.24-.183l.525-.43c.081-.058.267-.192.46-.31.176-.106.367-.202.506-.224.054-.061.073-.06.15-.098a.798.798 0 01.218-.066l.03-.006c.336-.181.994-.273 1.643-.273.65 0 1.308.09 1.644.273.178.041.482.162.737.293.197.102.37.218.452.317.22.075.58.405.894.774.324.38.613.812.66 1.051.064.079.12.2.166.324l.106.346c.098.391.149.852.146 1.3a4.726 4.726 0 01-.156 1.233z" fill="#BE957D"/></svg>