<svg width="27" height="26" fill="none" xmlns="http://www.w3.org/2000/svg"><path fill-rule="evenodd" clip-rule="evenodd" d="M3.78 10.243c-.334 1.24-.334 1.77.267 2.93.61 1.18.596.77.573 2.314-.094 5.973-1.7 4.302 11.31 7.788 1.35.363 2.63-2.691 3.27-3.876 1.71-3.172 2.628-1.456 3.554-4.91 1.11-4.14-2.975-5.633-3.413-6.4-.228-.399-.296-2.005-1.528-3.305-.787-.829-2.08-1.674-3.631-2.089-.408 1.523-1.072 2.025-2.088 2.487-.778.353-.869.172-1.61.264-2.004.25-1.652 1.337-2.686 1.838-.624.302-3.241.055-4.019 2.96zm5.46-1.61c.686-1.285 1.13-1.931 3.685-1.247.574-1.965 1.099-.695 2.071-2.518 1.56 1.337 3.08 1.813 2.411 4.557 1.62.433 2.872 1.302 3.431 2.426.911 1.834.063 2.686-.727 4.165-1.956-1.126.92-1.004-5.232-.664-4.574.25-11.351-1.795-9.198-5.211.697-1.108.963-.828 2.045-1.075.735 3.212 3.85 3.825 6.86 4.631l.419-1.564c-1.47-.394-2.2-.716-3.495-1.287-1.395-.615-1.827-.909-2.27-2.214zm6.067 12.8l-8.34-2.236c-1.113-.297-.62-2.818-.396-3.736.558.297.545.362 1.234.609-.449 1.676-.5 1.543 1.405 2.053l.418-1.564 1.566.419-.42 1.563 1.563.42.489-1.825c.66.023 1.384.078 1.965-.032-.354.983-.537.957-.89 2.276 1.967.527 1.68.546 2.195-.777.345-.886.455-1.032.728-1.793.72.131.742.07 1.373.089-.29 1.088-1.777 4.832-2.89 4.534z" fill="#BE957D"/></svg>