<svg width="27" height="26" fill="none" xmlns="http://www.w3.org/2000/svg"><path fill-rule="evenodd" clip-rule="evenodd" d="M20.95 9.182c.161-.131.313-.254.323-.58.012-.406-.703-1.024-1.21-1.464-.986-.88-2.047-1.8-2.962-2.713-.41-.413-.841-.845-1.342-.906l-2.161-.185c-1.573-.046-3.033.065-4.357.33-1.323.267-2.512.69-3.539 1.266a8.853 8.853 0 00-1.43.99c-.423.363-.81.769-1.14 1.206a9.677 9.677 0 00-1.056 1.813c-.238.542-.409 1.1-.422 1.58l-.24 8.02c-.007.244.019.457.1.633a.76.76 0 00.474.413c.54.206 3.372.499 4.198.614 1.524.219 3.349.481 3.81.495.627.018.698-.338.785-.781.036-.176.075-.376.175-.54.163-.269.39-.444.634-.534a1.274 1.274 0 011.085.112c.225.136.41.347.51.62.069.188.057.419.047.63-.027.495-.05.928.613 1.064 1.725.32 3.625.511 5.388.76.714.105 1.433.213 2.151.293l.397.061c.176.03.356.063.54.077l1.085.158c.154.026.33.056.491.061.477.014.914-.137.936-.878l.06-1.976c.025-.87-.514-.91-1.042-.949-.176-.012-.354-.027-.463-.083a1.263 1.263 0 01-.608-.656 1.266 1.266 0 01.056-1.045c.13-.25.35-.464.651-.583.09-.037.248-.038.408-.04.524-.004 1.098-.013 1.124-.886l.067-2.267c.012-.375-.357-.785-.582-1.032-.527-.592-1.082-1.335-1.6-1.956-.651-.855-.978-.631-1.332-.389-.102.07-.211.145-.324.141-.182-.005-.324-.052-.413-.131-.079-.07-.12-.177-.117-.311a.523.523 0 01.231-.452zm-1.622-.583l.057.057a1.89 1.89 0 00-.256.89c-.01.344.075.685.23.987.152.297.38.564.657.762a1.93 1.93 0 001.069.366c.334.01.485-.035.665-.086l.128-.036.543.667-10.722-1.522a2.574 2.574 0 00-.26-.652c-.176-.324-.41-.634-.587-.778-.424-.35-.721-.534-1.042-.637-.323-.106-.646-.123-1.135-.136a2.37 2.37 0 00-1.367.399 3.357 3.357 0 00-1.011 1.04c-.264-.017-.52-.059-.746-.095l-1.21-.178a9.097 9.097 0 00-.706-.075c-.134-.008-.17.033-.188.01-.043-.05.076-.025.151-.182l.159-.34c.174-.384.477-.813.824-1.21.39-.449.839-.86 1.223-1.134.858-.611 1.95-1.069 3.098-1.37a13.84 13.84 0 013.835-.448l2.433.129c.306.015.354.065.439.16 1.195 1.164 2.568 2.234 3.719 3.412zm-9.48 1.883c.24.265.395.619.384.991l-.045.233-.093.306c-.076.186-.27.4-.503.558-.197.135-.427.228-.639.22-.77-.021-1.222-.377-1.402-.823a1.388 1.388 0 01-.095-.566c.006-.194.055-.393.138-.573.211-.467.673-.83 1.326-.81.342.01.682.19.929.464zm9.784 7.084c.107-.286.148-.599.158-.916a1.67 1.67 0 00-.171-.72 2.195 2.195 0 00-.462-.665 2.085 2.085 0 00-1.417-.554 2.099 2.099 0 00-1.418.576 1.93 1.93 0 00-.547 1.987c.083.292.23.57.423.802.193.233.439.432.714.562.61.288 1.377.271 2.142-.296a1.66 1.66 0 00.579-.776zm-1.472-.574c-.063.148-.213.262-.463.255-.186-.006-.32-.14-.38-.305a.544.544 0 01.007-.409c.068-.147.234-.259.518-.25.16.005.277.13.329.288a.596.596 0 01-.01.421zm-2.045-8.148c.097-.277.129-.57.138-.885.014-.445-.187-.895-.518-1.242a2.179 2.179 0 00-.653-.473 2.048 2.048 0 00-.812-.2c-.503-.015-1.04.164-1.528.626-.62.587-.71 1.35-.478 2.013.096.275.25.534.444.75.192.218.433.404.7.529.635.301 1.422.278 2.157-.338.28-.234.45-.496.55-.78zm-1.49-.554c-.068.153-.22.272-.463.265a.407.407 0 01-.375-.262.584.584 0 010-.424c.061-.146.204-.264.426-.27a.412.412 0 01.412.248.579.579 0 010 .443zm2.926 4.81l5.928.82-.03.981a3.309 3.309 0 00-1.392.696 2.694 2.694 0 00-.806 1.22 2.83 2.83 0 00.562 2.694c.224.254.452.443.715.59.22.124.467.22.757.304l-.018.585c-2.17-.294-4.328-.595-6.495-.909a25.836 25.836 0 00-1.517-.191c-.232-.025-.375-.04-.437-.06l-.029-.24c-.128-.913-.604-1.567-1.226-1.958a2.892 2.892 0 00-1.375-.431 3 3 0 00-1.417.27 2.66 2.66 0 00-1.404 1.58 10.136 10.136 0 00-.87-.127c-1.827-.248-3.66-.494-5.481-.773l.211-7.074c.248.024.52.07.778.112l.83.12c.345.04.74.088 1.04.15a2.818 2.818 0 00.215 1.082c.056.138.147.301.24.453.1.16.213.316.31.425a2.75 2.75 0 001.95.954 3.297 3.297 0 002.29-.812c.404-.359.69-.808.78-1.287l2.86.406 1.521.188 1.51.231z" fill="#BE957D"/></svg>