<svg width="27" height="26" fill="none" xmlns="http://www.w3.org/2000/svg"><path fill-rule="evenodd" clip-rule="evenodd" d="M20.654 2.453c-.041.037.02-.003-.062.042-.142.076-.243.085-.7.344-.158.121-.313.213-.44.36l-.846 1.09c-.124.157-.083.156-.166.171-.056.144-.167.25-.267.377-.095.12-.169.245-.301.322-.016.127.018.026-.072.136-.143.18-.583.666-.641.803-.157-.019-.283-.08-.458-.111-.779-.149-1.207.086-1.452.061-.071.063-.3.148-.392.176-.093.054-.207.116-.307.183-.105.071-.177.134-.279.212l-.99.946c-.082.09-.408.429-.49.436-2.332-.56-5.254.79-4.519 4.578-.351.305-.64.661-.934.961-.23.236-.353.336-.581.617-.11.137-.22.374-.266.409l-.179.414-.015.02c.014.14-.054.295-.082.455-.125.733.09 1.11.131 1.455-.097.042-.163.117-.247.183-.09.07-.16.116-.224.175-.107.098-.325.336-.467.355-.077.132-.203.206-.322.3-.128.1-.233.212-.377.268-.017.091-.302.262-.382.325l-.942.747c-.356.363-.441.67-.556.832-.02.063-.032.12-.056.183a.727.727 0 01-.03.066c-.023.044-.018.034-.041.06l-.05.592.029.424c.103.445.238.725.44 1.037.09.099.172.213.266.311.115.12.206.153.311.285.053.012.46.267.727.366.65.24 1.344.19 2.034.12.344-.034.71-.123 1.028-.138l.222-.067c.331-.002.886-.249 1.235-.3l.238-.089.196-.059c.141.076.266.214.424.319.14.093.358.16.466.238l.283.083c.722.069.778.085 1.479-.033.075-.047.415-.166.512-.197l.639-.412c.131-.087.539-.425.66-.439.077-.154 1.043-.787 1.175-.978l.195.067c.978.45 2.3.341 3.205-.294.361-.253.41-.35.709-.643l2.032-2.023a3.27 3.27 0 00.567-.79l.105-.257c.038-.094.065-.195.122-.26-.014-.146.072-.4.093-.563a3.4 3.4 0 00-.263-1.742l-.065-.195c.19-.13.826-1.098.978-1.175.011-.101.02-.088.092-.178l.76-1.121c.029-.097.15-.436.196-.512.042-.25.105-.458.107-.747 0-.274-.062-.487-.074-.733l-.084-.28c-.07-.098-.146-.33-.238-.468-.104-.156-.242-.283-.32-.424l.062-.194.087-.238.282-1.113.086-.348c.015-.317.104-.68.138-1.026.072-.69.122-1.385-.12-2.034-.107-.287-.348-.653-.366-.725-.144-.116-.192-.234-.333-.357-.096-.085-.277-.192-.355-.302-.092-.016-.247-.134-.448-.215-.172-.068-.328-.103-.501-.149l-.421-.025-.59.05zm1.077 5.255c-.064.15-.071.297-.134.431l-.012.02-.013.022c-.103-.036-.15-.05-.218-.138-.135-.01-.435-.188-.576-.267-.097-.053-.483-.204-.527-.274l-.735-.334c-.22-.101-.444-.19-.679-.312.012-.11 0-.056.071-.144.05-.062.054-.07.105-.106l.981-1.237c.06-.072.106-.14.161-.207.06-.073.1-.113.152-.185.104-.136.203-.274.316-.421.112-.146.183-.262.369-.338.448-.186.831.133.961.416.133.294.122.415.127.757l-.021.357c-.04.216.037-.126-.015.052l-.02.047c.088.33-.233 1.474-.293 1.861zm-6.524.46c.11-.206.446-.402.774-.458.365-.03.468.02.754.144.207.088.382.155.58.25l.11.062c.3.09 2.847 1.3 2.918 1.393.187.055.822.397.932.489.161.077.32.174.462.269.147.097.316.205.287.437l.025.046c.06.143-.027-.126.02.051l.005.275a1.406 1.406 0 01-.037.187l-.081.113c-.019.246-.781 1.189-.983 1.465-.055.077-.287.402-.351.415-.071.183-.071.197-.225.072l-1.572-1.221c-.152-.134-.301-.237-.45-.353l-1.119-.847c-.048-.036-.066-.047-.105-.078l-.101-.097-.2-.125-.177-.13c-.1-.075-.301-.208-.362-.283l-1.885-1.33c.128-.127.26-.233.39-.366.122-.123.263-.304.391-.38zm-1.927 2.128l.68.457c.304.217.611.418.89.64.095.048.34.21.386.3.087.013.054-.063.071.045.117.047.157.092.264.167.068.05.15.104.215.154.136.103.295.208.413.32l2.292 1.738c.083.07.085.038.101.11.134.05.084.029.196.114.084.066.082.058.136.149.095.013.077.023.169.099.058.048.116.09.155.12.094.072.229.174.306.25.084.046.142.109.224.171.13.097.103.058.205.197.12.165.205.323.272.53.075.304.07.537.006.837l-.036.115c-.256.587-1.017 1.229-1.477 1.69-.272.276-.524.528-.797.8-.232.234-.486.545-.893.677l-.247.068c-.275.024-.435.04-.704-.037-.542-.149-.657-.408-.945-.722-.14-.154-.672-.822-.716-.94-.072-.013-.095-.075-.153-.156-.052-.072-.08-.103-.132-.173-.54-.688-1.177-1.49-1.675-2.196l-.197-.263c-.044-.065-.033-.05-.065-.106-.09-.085-.063-.046-.112-.178-.062-.014-.061-.04-.122-.125l-.047-.075c-.034-.067-.016-.009-.031-.084-.1-.052-.091-.07-.154-.162-.043-.061-.086-.107-.111-.19-.106-.082-1.316-1.884-1.418-2.124-.846-1.465.457-3.971 3.051-2.217zm-5.325 5.468c.032-.173.074-.335.154-.471.07-.12.21-.281.307-.334l.747-.772c.07.05.025.007.08.085l.167.26c.08.126.158.22.24.346.12.189.408.564.466.713.071.042.492.647.516.716l2.124 2.806c.154.134.338.4.469.575.16.209.338.37.464.591-.03.062.048.026-.071.062-.145.14-.317.246-.463.368a7.207 7.207 0 01-.468.36c-.173.124-.824.625-1.012.638-.068.087-.17.103-.3.118l-.302-.014c-.062-.02-.036-.008-.07-.038-.232.03-.34-.135-.439-.284-.069-.103-.237-.355-.253-.471-.094-.071-.088-.12-.156-.227a2.557 2.557 0 01-.12-.216c-.075-.152-.171-.29-.227-.48-.086-.066-1.31-2.625-1.392-2.918l-.064-.11c-.093-.205-.16-.372-.249-.58-.12-.28-.166-.368-.148-.723zm-1.1 3.001a.532.532 0 01.257-.194c.054.19.22.512.305.697.052.078.257.518.283.61.114.207.214.45.324.65.117.21.216.426.32.63l.086.166c-.128.084-.325.096-.472.158-.383.06-1.533.38-1.862.293l-.219.045c-.081.005-.156.005-.236.01-.194-.001-.562.007-.687-.106-.33-.103-.67-.489-.496-.958.072-.195.191-.272.347-.392l2.05-1.609z" fill="#BE957D"/></svg>