<svg width="29" height="26" fill="none" xmlns="http://www.w3.org/2000/svg"><path fill-rule="evenodd" clip-rule="evenodd" d="M9.461 7.682c-.093-.065-.207-.433-.257-.553-.108-.26-.217-.74-.106-1.008.084-.199.986-.567 1.205-.633.058-.018.078-.018.139-.036.102-.032.206-.061.308-.096.366-.125.548-.154.919-.218.093-.017.076-.036.15-.05.069-.012.083.007.158-.005.128-.016.157-.07.33-.041-.055.146-.066.104-.185.178-.174.106-.357.302-.562.44l-1.07.98c-.057.059-.042.038-.087.082l-.756.816c-.096.112-.12.134-.186.144zm12.505-2.514l-.05.012-.055.01c-.115.011-.194-.022-.397.11-.188.124-.354.638-.247.835.181.336.255.421.66.499.14.027.166 0 .27-.036.53-.18.598-.8.348-1.18-.053-.08-.31-.245-.425-.258l-.104.008zm6.05 2.26l.125-.467c-.056-.085.104-.362.087-.772-.006-.152.07-.592-.024-.715-.06-.08-.744-.252-.907-.297-.046-.013-.12-.032-.161-.047a.527.527 0 01-.075-.032c-.053-.028-.032-.013-.062-.048-.062-.211.298-.998.252-1.267-.123-.14-.507-.274-.688-.395-.133-.09-.725-.227-.753-.352l-1.728-.463-.044.065c-.335-.083-.838-.223-1.201-.226-.225-.003-.546-.124-.773-.106l-1.041-.008c-.122.006-.234-.025-.374-.014-.1.009-.072.016-.173.011-.132-.006-.188.038-.322.023-.227-.024-.182.035-.349.025-.218-.01-.619.009-.822.075l-1.114.188c-.072.017-.084-.006-.156.007-.112.023-.053.042-.142.06l-.93.235c-.098.014-.164.065-.263.1l-.442.137c-.028.011-.037.01-.077.022l-.41.161-.016.01-.016.01c-.299.142-.371.151-.727.061-.259-.065-.49-.07-.749-.074-.157-.002-.149.038-.325.016-.074-.008-.203-.03-.284-.006-.144.042-.23-.032-.433-.003-.096.015-.084.006-.178.005-.152-.003-.089.039-.318.036-.106 0-.121.029-.16.036-.074.013-.095-.01-.181.007-.07.014-.037.028-.131.037-.085.008-.088-.009-.181.01-.08.015-.079.018-.168.024l-1.05.266c-.035.017-.304.053-.456.11l-.656.241c-.05.021-.017.011-.072.029l-.22.09c-.369.155-.8.38-1.11.635l-.271.368c-.174.373-.13.028-.296.702-.046.182-.006.188-.014.352-.01.225-.02.444.05.65.029.084.008.08.024.168.056.312.034.173.123.453.016.048.03.107.047.154l.445.965c.389.73.267.402.127.721-.076.174-.162.263-.244.442-.043.095-.075.12-.132.2-.117.164-.066.282-.23.467-.132.149-.56 1.248-.638 1.489-.394 1.21-.123 1.193-.784 1.002a13.822 13.822 0 00-.456-.12c-.777-.2-.886-.11-1.243-.193-.216-.05-.179.002-.362-.006-.114-.006-.304-.06-.422-.05-.173.013-.146.033-.377-.008-.12.107-.004.059-.202.052-.203-.01-.07.022-.202.039-.082.01-.146-.017-.227.006-.147.044-.012.034-.205.028-.168-.003-.387.068-.54.091l-.29.091c-.305.106-.248.114-.378.166-.068.026-.114.03-.191.064-.51.214-.628.664-.715.711l-.166.617c.092.235-.017.292.341.808.043.059.003.008.056.061.224.225.222.25.509.449l1.036.518c.124.056.242.082.342.165.059.049.697.347.8.447.166.162.15.07.395.335.076.082.04.036.131.108.223.178.526.657.655.915l.268.753c.026.112.012.078.02.198l.084.488c.004.062-.013.116-.012.19.002.124.017.216.003.359-.014.158.03.22.006.38-.012.07-.039.144-.046.21-.02.194.076-.013-.04.566-.032.163.003.227 0 .363-.003.076-.023.129-.028.2-.003.091.026.1.036.18.01.082-.027.267.07.507.087.219.069.21.219.44.185.287.188.078.184.28l1.153.31c.048-.112.034-.065.154-.088.173-.033.325-.145.475-.237l.929-.817c.176-.227.535-.66.663-.893.037-.069.064-.154.092-.202.06-.11.07-.08.114-.148l.282-.522c.055-.141.094-.25.163-.398.301-.652.37-1.341.561-1.782.363.078.827.253 1.161.277.262.019.659.115 1.086.155.21.02.366.06.571.097l.726-.02c.21.014.188-.036.486-.012.28.023.188-.179.55.482l1.348 1.6c.091.075.212.11.298.17.143.102.063.097.293.164.416.122.758.226 1.18.125l.363-.116c.211-.08.663-.368.86-.55.152-.139.324-.223.468-.364.082-.08.167-.129.232-.188.045-.042.061-.071.114-.118l1.053-1.133c.074-.105.22-.202.299-.36.123-.26.08-.07.191-.244.022-.035.023-.055.042-.085.048-.07.085-.068.143-.2.096-.217.106-.037.193-.239.048-.11-.001-.078.083-.163.051-.054.057-.036.095-.111l.32-.635c.037-.087.03-.103.083-.16.192-.204.21-.66.348-.848.034-.048.163-.132.237-.176.228-.14.408-.321.615-.505l.418-.367c.196-.24.433-.435.642-.664l.203-.24c.044-.046.032-.016.1-.1.085-.104.043-.046.116-.111l.2-.239c.038-.056.044-.088.083-.138l.4-.485c.118-.092.245-.455.352-.57.116-.127.269-.376.362-.544.073-.133.108-.125.173-.298.069-.18.11-.134.177-.277.033-.07.038-.115.078-.183l.403-.75c.056-.12.083-.24.136-.359.056-.124.091-.129.158-.3.038-.095.072-.277.157-.348l.556-2.074zM7.316 20.74l-.834 1.067c-.092-.065-.038-.36-.014-.494.037-.196.004-.354.033-.537.091-.561-.006-.275.03-.54l-.02-.526-.062-.698-.273-1.023c-.052-.146-.112-.244-.18-.391a3.813 3.813 0 00-.198-.363 5.9 5.9 0 00-.72-.923c-.17-.184-.353-.375-.578-.507-.127-.074-.062-.064-.15-.137-.14-.118-.837-.496-1.021-.613-.138-.087-.34-.102-.482-.201-.095-.068-.035-.067-.19-.116-.155-.05-.35-.115-.452-.203.035-.192.104-.083.297-.136.071-.02.259-.084.305-.084l.702-.044c.17.015.216-.043.371-.017.225.038.19.037.377.014.09-.012.636.109.804.126.734.08 1.002.26 1.586.488.32.125.585.265.845.428.046.03.105.053.174.082.119.052.134.108.215.144.158.072-.14-.034.043.012h.023c.022-.025.047.003.071-.107l.096-1.105a3.24 3.24 0 01.083-.41c.037-.161.025-.263.059-.414.06-.273.14-.654.246-.908.042-.102.043-.05.086-.154.084-.203.096-.45.202-.64.067-.125.136-.209.184-.348l.331-.722c.154-.196.08-.069.202-.31.059-.116.05-.031.118-.15.043-.073.036-.093.086-.167.058-.085.14-.28.196-.331.04-.036.073-.043.113-.117.049-.083.024-.09.088-.166l.341-.423c.08-.097.149-.207.229-.265l.223-.242c.026-.034.025-.046.048-.077.063-.082-.003-.002.059-.056l.07-.073c.028-.037.017-.035.05-.073l.244-.244c.036-.033.076-.08.113-.12.177-.194.315-.285.486-.451l.25-.24c.173-.2.795-.654 1.04-.826.106-.075.156-.108.256-.186l1.68-1.017c.283-.148.478-.183.616-.266l.915-.379c.048-.017.128-.039.174-.053l.157-.05c.129-.066.183-.075.32-.1.214-.037.063-.047.517-.098.082-.01.058-.029.154-.048l.882-.127c.082-.015-.004.006.069-.025.09-.04.164-.011.277-.035l.347-.063c.087-.015.105.009.192.009.106 0 .08-.027.181-.034.074-.005.12.018.188.009.054-.007.061-.036.158-.037.077 0 .123.023.197.022.06 0 .117-.02.19-.022.074-.001.12.015.196.017.122.005.21-.041.362-.02.215.031.203-.013.386.002.158.011.233.047.393.047.121 0 .286.006.401.033.268.06.212.002.389.01.374.013.895.232 1.28.255.27.016.563.146.815.253.236.1.44.026.361.32l-.23.976c-.06.24-.197.402.073.486.32.1.683.177.991.292.48.179.385.023.308.556-.094.657-.233.789-.362 1.237-.082.287-.15.609-.29.833l-.512 1.12c-.106.144-.107.163-.187.34-.051.116-.059.083-.11.16-.079.116-.093.237-.19.342-.09.1-.093.2-.2.324-.095.109-.058.127-.213.29-.065.068-.04.067-.092.153-.052.084-.085.085-.123.137l-.317.439c-.193-.037-.141-.068-.286-.139-.112-.053-.208-.063-.307-.119-.099-.055-.162-.117-.27-.159-.185-.072-.136-.036-.263-.147-.109-.092-.208-.077-.282-.156-.104-.112.052-.01-.094-.1l-.229-.162c-.055-.035-.07-.03-.122-.07l-1.198-1.144c-.184-.19-.316-.39-.477-.61a5.944 5.944 0 01-.54-.913l-.466-1.087c-.022-.09-.027-.064-.048-.137l-.16-.662c-.013-.14-.068-.266-.094-.416l-.072-.548c-.022-.118.006-.176-.008-.278-.076-.14-.473-.01-.614-.022-.221-.018-.84.005-1.013.089-.057.207.061.765.088 1.017.018.168.08.303.092.469.009.118.046.12.07.248l.004.022.006.021.043.156c.01.047.009.046.022.081.015.04.012.02.03.07.013.029.03.102.038.135l.296.876c.1.289.27.568.4.835.18.373.433.66.631 1.016.175.31.439.571.66.846.128.164.347.309.44.449l.452.418c.108.072.047.044.12.112.054.05.081.052.14.101.048.04.058.062.11.096.08.056.074.03.143.1.15.153.418.27.529.373.147.14.213.1.416.279l.562.288c.154.08-.012.158-.07.212-.05.044-.036.052-.082.096-.05.05-.047.035-.079.06-.203.165-.292.317-.517.447-.126.073-.315.269-.518.394l-.3.227-.017.011-.016.01-1.154.67c-.408.216-1.28.602-1.78.771l-.019.006c-.286.09-.574.218-.873.291a1.733 1.733 0 00-.21.068c-.214.087-.453.115-.673.17-.091.023-.004.01-.124.023-.06.007-.033-.006-.1.02l-.728.16c-.055.025-.063.05-.138.046l-.764.034c-.135.018-.076.038-.225.038-.119-.001-.136.014-.238.02-.096.005-.17-.024-.257-.009-.144.026-.028.05-.233.02l-.235.026c-.234.028-.846-.144-1.067-.078-.146.044.024.035-.11.027l-1.584-.378-1.08-.39c-.2-.119-.27-.132-.514-.212-.166-.055-.076-.047-.205-.124-.078-.048-.2-.079-.301-.108l-.023.59c.025.216-.026.332-.01.529.038.429-.174 1.36-.36 1.804-.045.11-.057.19-.11.282-.088.146-.142.37-.21.537-.06.147-.086.112-.141.229-.045.092-.059.207-.112.29-.045.073-.096.086-.116.192zm11.51-1.903l-.698.634c-.125.105-.247.181-.383.281-.16.118-.22.172-.374.254-.195.104-.28.132-.484-.035-.085-.07-.247-.102-.378-.304-.096-.147-.12-.063-.319-.36-.15-.223-.244-.259-.22-.393l.368-.07c.063-.012.11-.03.18-.042l2.086-.624c.122-.035.064-.046.141-.035l.06-.047.019-.012.46-.186c.083-.024.18-.08.264-.127l.126-.062c.1-.038.15.004.103.11-.045.105-.138.147-.173.193l-.494.575c-.086.103-.208.253-.285.25z" fill="#BE957D"/></svg>