<svg width="27" height="26" fill="none" xmlns="http://www.w3.org/2000/svg"><path d="M21.105 5.41l-.02.02c.11.019.21.082.271.185.236.202.478.415.682.648.252.278.499.592.726.915.24.34.462.696.65 1.038.543 1.134.662 1.427.841 2.613.02.073.02.153-.006.23-.006.041.028.476.024.6a.396.396 0 01-.018.278l-.061.422a6.83 6.83 0 01-.1.578 8.987 8.987 0 01-.264.745c-.038.09-.083.193-.086.224a.394.394 0 01-.148.278c-.118.34-.417.739-.606 1.048l-.186.25a.371.371 0 01-.119.121c-.206.242-.436.485-.628.736a.384.384 0 01-.126.106c-.41.37-.762.692-1.213 1.03-.042.03-.08.025-.092.048a.393.393 0 01-.243.193l-1.204.782c-.567.327-1.12.612-1.687.871-.566.26-1.137.491-1.74.712-.17.043-.408.138-.572.196a.405.405 0 01-.22.074c-.274.073-.567.176-.842.26a.404.404 0 01-.177.08l-.138.024-1.461.423c-.334.09-.955.263-1.04.317a.4.4 0 01-.23.069l-.526.188a.391.391 0 01-.22.085l-.18.08c-.243.096-.486.241-.724.382a6.747 6.747 0 01-.665.361l-.028.014a1.909 1.909 0 01-.831.173 2.6 2.6 0 01-.661-.116 1.665 1.665 0 01-.684-.403 3.004 3.004 0 01-.54-.708l-2.758-4.768c-.35-.596-.88-1.496-.972-1.826a1.818 1.818 0 01-.064-.566l-.002-.093a.386.386 0 01.007-.172l.022-.098c.018-.092.034-.171.078-.28l.096-.235a.391.391 0 01.172-.276l.062-.084c.096-.116.211-.259.359-.37a5.06 5.06 0 01.559-.345l.158-.088c.182-.105.301-.194.392-.29.097-.102.184-.232.293-.404l.03-.045a.37.37 0 01.074-.126c.035-.042.093-.142.148-.253.07-.14.133-.284.151-.352l.052-.112c.212-.322.507-1.517.653-2.105.124-.498.213-1.023.307-1.53a.383.383 0 01.045-.236l.08-.58c.054-.423.115-.896.213-1.127a3.58 3.58 0 01.587-.964c.246-.281.548-.524.929-.722l.017-.01a2.827 2.827 0 011.135-.313l.304-.012a.398.398 0 01.234.03c.223.012.412.07.623.141.076.03-.014.12.08.095a.394.394 0 01.302.043l.386.233c.046.026.09.063.124.11l.084.072c.234.204.64.559.892 1.225l.127.413c.024.045.04.095.045.148l.032.3c.027.222.01.474-.022.712 1.09-.73 2.058-1.354 3.38-1.854.213-.083.434-.14.651-.227.34-.07.614-.146.961-.191a.392.392 0 01.232-.046c.066.009.501-.023.6-.025.306-.006.585-.01.962.06.389.064.688.143 1.05.3.204.082.48.19.812.397l.09.058c.062.042.05.083.103.093a.43.43 0 01.19.1l.027.024zm-5.492 1.166a.597.597 0 00-.175.078l-.053.025c-.547.223-1.19.623-1.758.977l-.98.636c-.498.336-1.119.756-1.424.904-.079.03-.107.05-.186.058-.233.014-.315-.02-.399-.063a.402.402 0 01-.318-.254l-.103-.144a.401.401 0 01-.065-.154l-.008-.04a.394.394 0 01-.004-.34l.02-.125a.401.401 0 01.023-.183l.055-.285c.077-.497.196-1.262.182-1.479l-.003-.021a1.538 1.538 0 00-.43-.911c-.178-.187-.347-.301-.432-.308l-.038.003a.426.426 0 01-.211-.063.355.355 0 00-.154-.032 1.227 1.227 0 00-.338.04 1.97 1.97 0 00-.473.21 1.667 1.667 0 00-.374.328l-.01.01c-.078.08-.14.18-.187.28a1.282 1.282 0 00-.11.332l-.117.964a.39.39 0 01-.05.147c-.026.62-.322 1.797-.497 2.46-.085.326-.216.82-.306 1.058-.086.257-.222.737-.361.986l-.035-.014c.01.09-.01.184-.063.263-.075.136-.197.321-.24.466.27.456.516 1.243.78 1.771.171.36.36.725.553 1.09.257.463.509.94.784 1.391.392.64.759 1.236 1.183 1.866.205.305.411.587.616.853l.503.637a33.144 33.144 0 011.65-.524c.21-.056.463-.123.505-.147a.392.392 0 01.26-.075l1.462-.438a.4.4 0 01.241-.082l.2-.069c.872-.26 1.843-.659 2.779-1.139.893-.458 1.752-.993 2.458-1.555l.076-.055a.392.392 0 01.215-.172c.04-.013.25-.217.396-.36l.124-.123c.12-.119.427-.436.64-.695l.175-.205a.392.392 0 01.17-.264l.186-.305c.14-.245.273-.51.285-.569a.396.396 0 01.06-.137l.047-.123a.361.361 0 01.047-.143.393.393 0 01.047-.16l.046-.124.043-.242a.383.383 0 01.048-.202l.012-.119c0-.053.01-.107.03-.158.018-.041.02-.309.008-.595-.01-.24-.03-.468-.057-.551a.379.379 0 01-.041-.196l-.006-.022c-.146-.627-.437-1.272-.808-1.868a7.695 7.695 0 00-1.406-1.678l-.017-.017a1.894 1.894 0 00-.217-.183l.009-.014a.42.42 0 01-.296-.18l-.21-.106a5.44 5.44 0 00-.667-.263 4.74 4.74 0 00-.68-.108l-.288-.015a.39.39 0 01-.311-.01c-.019-.008-.17.042-.325.07l-.25.037c-.165.039-.558.138-.885.244l-.316.117a.403.403 0 01-.236.106zM7.899 21.2c.022.02-.007-.015-.017-.033l.017.032zm-.724-2.892l-.09-.151a40.705 40.705 0 01-1.588-2.832 19.633 19.633 0 01-.751-1.628l-.327.196c-.15.081-.358.197-.387.226-.039.037-.11.1-.133.146l-.014-.007a.392.392 0 01-.077.31c-.013.016.417.64.653 1.02.841 1.29 1.636 2.79 2.401 4.152.248.45.647 1.164.795 1.32l.06.04a.38.38 0 01.14.065l.022-.005c.13-.025.296-.11.395-.167l.566-.324-.709-.934c-.318-.47-.656-.947-.956-1.427z" fill="#BE957D"/></svg>