<svg width="27" height="26" fill="none" xmlns="http://www.w3.org/2000/svg"><path fill-rule="evenodd" clip-rule="evenodd" d="M15.233 5.258l.321-.06.062.023c.085.032.316.022.507.015l4.339-.006c.222 0 .447.012.668.051.226.04.45.112.674.23l.197.13c.07.051.146.107.197.128.134.057.28.265.368.393.072.1.188.259.318.553.046.105.082.223.105.335a2.351 2.351 0 01-.03 1.08 2.72 2.72 0 01-.346.73c-.026.047-.445.47-.496.5-.153.101-.31.178-.465.238l-.297.1c.002.135.025.466-.004.572-.021.077-.038.563-.04 1.04-.003.455.003.894.023.953l.017.054-.015.055c-.03.118-.023.277-.017.437v.804l.048.072c-.068.281-.008.37-.026.637l.517.007.162.127c.103.078.144.107.275.288l.036.05.02.788.003.849c0 .268 0 .426-.077.733a1.617 1.617 0 01-.29.594c-.017.025-.082-.032-.09-.026.29.207.465.346.622.504.163.165.302.35.524.659.04.054.07.152.097.214.142.331.245.569.296.93.03.205.026.413.023.607-.004.175-.01.343.014.47.084.43-.01 1.872-.01 2.403.003.82-.252.952-.963.955l-1.2-.013c-1.496.01-7.95.052-8.186-.061-.47-.226-.449-.7-.435-1.037.032-1.061-.043-2.124.036-3.185l-.034-.075.029-.076a3.7 3.7 0 00.104-.375l.037-.145a3.59 3.59 0 01.271-.592c.084-.154.088-.18.19-.3.293-.348.49-.579.876-.827-.415-.643-.4-1.125-.383-1.66l.002-.491c-.013-.298-.032-.733.111-.963.235-.378.624-.376.939-.362.016-1.204.014-2.4.01-3.604l-.018-1.016-.093-.026a1.866 1.866 0 01-.364-.126 2.28 2.28 0 01-.318-.19 2.748 2.748 0 01-.296-.246c-.072-.068-.224-.294-.289-.385-.234-.356-.352-.837-.332-1.307.018-.444.162-.888.44-1.22.275-.335.601-.633 1.012-.786a1.92 1.92 0 01.36-.11l.264-.038zm6.351 1.994a.814.814 0 00-.329-.413c-.268-.175-.48-.165-.72-.155a96.55 96.55 0 01-4.578.002c-.256-.006-.594-.013-.755.032a.815.815 0 00-.595.687.856.856 0 00.394.851c.278.175 1.099.155 1.638.141.523-.01 1.045.006 1.569.014.77.008 2.63.032 2.828-.038a.871.871 0 00.451-.351.901.901 0 00.138-.377.925.925 0 00-.04-.393zM17.51 9.82c-.427-.006-.96-.014-1.214.007.009.181.001.426-.003.643l-.012 3.844 1.816.017 1.814-.017c-.006-.779-.047-1.608-.011-2.382.009-.153.016-.292.003-.445 0-.442-.02-.916.01-1.354a1.578 1.578 0 000-.315l-.442-.002a29.616 29.616 0 00-1.367.007l-.594-.003zm.852 5.93c-.401.006-2.672.085-2.87.024a.732.732 0 00-.19-.027l-.047.002-.003.31c-.01.473-.025 1.075.488 1.151l2.04-.011c.405-.02.873-.01 1.328.001l.824.012c.368.003.985.008 1.016-.575l.002-.052c.01-.16.015-.27.008-.457l.005-.052c.016-.07.018-.154.018-.24l.002-.078-1.175-.003c-.166.012-.31.006-.454-.002h-.515c-.15.005-.296.013-.477-.002zM5.275 5.802l.097-.96c.117-1.104.293-2.72 1.114-3.127.118-.059.23-.09.328-.118l.205-.077c.377 0 .333-.027.646.07.102.025.209.054.334.118l.25.156.203.172c.135.126.25.288.333.477.077.18.13.384.148.602.034.502.091 1.009.147 1.509l.236 2.204c.254 0 .488-.003.74.01l.053.097c.021.037-.022.021-.006.027.044.019.096.04.186.151.07.083.15.237.212.345l-.016.075c-.053.235-.038.778-.027 1.183l.002.125c.442.008.686.06.843.245.172.205.176.509.176 1.05V23.67c-.019.485-.2.597-.414.73l-.134.084H3.546l-.055-.044c-.285-.216-.405-.312-.463-.53-.037-.142-.033-.31-.027-.596.028-2.438.012-4.887.004-7.328-.014-2.08-.04-6.378.067-6.741l.025-.08.07-.04.054-.05c.088-.129.163-.238.795-.24L4.01 8.5c-.01-.382-.022-.805.03-1.056.063-.333.26-.495.53-.57a2.05 2.05 0 01.599-.047l.106-1.025zm1.95-2.787a.226.226 0 00-.133.054c-.098.102-.358 2.94-.433 3.76l1.156.006L7.46 3.29l-.093-.242-.051-.026-.09-.007zM8.978 8.67l-.002-.678-.002-.019-.012-.001c-.017.048-.05.187-.092.194l-.747-.005-2.613.024v.658l3.47-.001-.002-.172zm1.016 3.573L9.99 10.32l-5.497.008.007 3.517 5.49-.002.004-1.602zm0 5.297v-1.313l-.017-.892-5.481.008-.008 2.636 5.501-.003.005-.436zm-.004 5.45l-.007-3.527-5.49.014-.003 3.511 5.5.003zm4.15.003l1.566.015.5-.024 2.031.022.506-.02.483.018A13.45 13.45 0 0120.378 23l.366.008c.45-.024.857-.016 1.312-.011.004-.67-.004-1.346.011-2.013.015-.496.028-1.063-.33-1.563l-.13-.156c-.084-.102-.14-.172-.305-.282-.567-.36-.974-.354-1.47-.35-1.16.018-2.348.01-3.507 0-.441-.004-.801-.008-1.315.285l-.03.023c-.176.133-.385.293-.488.47l-.12.176-.074.236-.036.034c-.173.17-.149 1.218-.127 2.11.01.391.017.758.004 1.026z" fill="#BE957D"/></svg>