<svg width="27" height="26" fill="none" xmlns="http://www.w3.org/2000/svg"><path fill-rule="evenodd" clip-rule="evenodd" d="M6.184 7.731l1.813.012-.017-1.642c-.03-1.852-.044-2.832.45-3.372.554-.602 1.702-.603 4.128-.604l1.177-.001c2.562-.009 3.76-.011 4.33.61.5.544.485 1.53.455 3.376l-.018 1.632 1.59-.018c1.867-.03 2.864-.047 3.411.456.62.57.62 1.76.617 4.296l.001 1.123c.003 2.483.004 3.655-.609 4.216-.545.502-1.539.484-3.412.452l-1.598-.02.018 1.636c.028 1.848.043 2.831-.453 3.373-.558.609-1.719.612-4.181.616l-.979.004c-2.653.011-3.886.014-4.469-.622-.502-.549-.487-1.54-.458-3.383l.017-1.624-1.598.02c-1.872.032-2.865.05-3.41-.452-.614-.56-.614-1.733-.61-4.216v-1.091c-.001-2.58-.003-3.77.61-4.331.524-.483 1.462-.47 3.195-.446zm3.513 6.36c-.324-.41-.583-.88-.685-1.415a3.01 3.01 0 01.131-1.667 2.864 2.864 0 011.015-1.307c1.148-.803 1.924-.51 2.523-.282.25.093.468.177.656.152.066-.008.173-.05.303-.1.57-.22 1.594-.613 2.804.303.216.163.402.341.553.528.434.535.622 1.157.571 1.81-.049.644-.33 1.325-.825 1.98a6.703 6.703 0 01-1.108 1.127c-.452.368-.8.676-1.078.922-.609.54-.925.817-1.285.812-.378-.006-.756-.329-1.526-.987l-.978-.823c-.363-.3-.75-.649-1.07-1.054zm1.204-1.207c.424.722 1.223 1.524 2.349 2.24 1.068-.68 1.887-1.49 2.33-2.228.22-.369.35-.72.366-1.025.015-.293-.072-.546-.274-.73-.156-.141-.383-.247-.684-.309-.532-.106-.788.12-1.025.332-.199.182-.393.354-.713.354-.301 0-.496-.166-.7-.343-.246-.21-.518-.44-1.038-.341-.295.056-.52.162-.675.303-.198.18-.29.43-.282.72.01.304.129.657.346 1.027zM9.587 6.12c.048 1.09.1 2.24-.238 3.047l-.02.046-.05.012c-.78.185-1.756.153-2.704.124-.939-.031-1.853-.06-2.506.125l-.067.022-.041 7.011c.786.301 1.905.245 2.989.19.846-.041 1.677-.083 2.334.046l.052.011.02.047c.315.757.266 1.819.22 2.867-.042.946-.084 1.887.146 2.553l7.059.052c.213-.57.182-1.528.149-2.51-.037-1.094-.077-2.222.22-2.946l.022-.048.05-.01c.633-.14 1.52-.103 2.417-.066 1.086.044 2.194.09 2.857-.176l-.279-7.083-2.233-.08-.572.005c-.767.01-1.532.02-2.199-.113l-.05-.01-.02-.048c-.293-.688-.238-1.648-.181-2.635.057-.995.116-2.02-.181-2.786l-7.063-.052c-.213.568-.173 1.466-.131 2.405z" fill="#BE957D"/></svg>