<svg width="27" height="26" fill="none" xmlns="http://www.w3.org/2000/svg"><path fill-rule="evenodd" clip-rule="evenodd" d="M12.022 3.843c-.369.469-.586 1.128-.586 2.002 0 2.025 1.23 4.268 2.967 6.004 1.739 1.739 3.984 2.97 6.007 2.97 1.155 0 1.448-.24 2.016-.697l.225-.182c.604-.474.794-1.272.756-2.144-.057-1.227-.567-2.598-1.043-3.453-.183-.328-.578-.9-.985-1.433-.363-.478-.738-.928-.977-1.143L19.16 4.72c-1.445-1.136-3.27-1.848-4.785-1.848a3.64 3.64 0 00-1.351.236c-.397.157-.74.402-1.002.735zm-3.965 9.52c-.302.612-.567 1.146-.567 2.022a3.3 3.3 0 00.887 2.265c.54.571 1.29.93 2.125.93 1.014 0 1.29-.122 1.855-.371l.527-.225c1.034-.416 1.997-.581 2.912-.736a18.4 18.4 0 001.488-.294 12.3 12.3 0 001.292-.407l.341-.152c-.68-.078-1.505-.396-2.32-.822-1.135-.595-2.259-1.404-2.935-2.061-.103-.1-.195-.166-.278-.227-.102-.073-.2-.143-.325-.28-.853-.932-1.527-1.811-2.063-2.78-.498-.9-.88-1.886-1.175-3.071l-.11.232c-.438.975-.59 1.927-.744 2.909l-.155.928c-.179.973-.485 1.588-.755 2.14zm17.049-2.143l-.002 1.382a4.65 4.65 0 01-.233 1.005c-.11.311-.258.615-.443.902-.395.613-1.122 1.266-1.935 1.85-1.005.722-2.152 1.349-2.971 1.683-1.498.611-2.19.716-2.986.832-.427.063-.887.133-1.514.287a14.08 14.08 0 00-2.12.698c-1.097.435-1.74.691-3.75.23-.139.111-.528.478-.848.797l-.446.464c0 .162.038.261.076.366.052.134.107.28.107.55 0 .774-.235 1.365-.595 1.783-.425.494-1.029.752-1.636.802h-.437a2.577 2.577 0 01-.83-.203 2.124 2.124 0 01-.66-.443l-.24-.281-.206-.322c-.081-.143-.123-.262-.159-.364-.051-.147-.093-.262-.238-.365l-.165-.085a2.912 2.912 0 01-1.01-.796 2.247 2.247 0 01-.462-1.085 5.94 5.94 0 010-.633 2.68 2.68 0 01.392-1.07 2.39 2.39 0 01.776-.777 2.63 2.63 0 01.565-.248 2.4 2.4 0 01.595-.103c.3-.012.574.06.835.128l.284.071 1.21-1.17c-.383-.84-.4-1.698-.241-2.517.163-.835.516-1.634.857-2.336.392-.808.501-1.566.62-2.397.247-1.72.542-3.757 3.435-7.254.142-.171.388-.342.614-.498l.233-.163a3.73 3.73 0 011.527-.686c.505-.099 1.027-.105 1.618-.105 1.167 0 2.345.372 3.42.907 1.444.719 2.71 1.737 3.514 2.54.847.848 1.693 1.98 2.34 3.219.566 1.084.98 2.256 1.107 3.392l.002.013zm-9.673-2.458c-.183-.424-.27-.89-.27-1.45 0-.41.157-.746.415-.99.245-.23.587-.38.975-.43a2.826 2.826 0 011.254.142c.823.281 1.67.938 2.243 2.051.404.786.447 1.474.247 1.992a1.53 1.53 0 01-.594.734 1.848 1.848 0 01-.945.287c-.742.03-1.64-.31-2.466-1.136-.395-.394-.676-.777-.86-1.2zm2.601-.542c-.32-.32-.728-.554-1.127-.605l.06.163c.206.565.463 1.267 1.675 1.594-.045-.408-.28-.825-.608-1.152zM6.224 22.679c.025-.09.04-.197.04-.321 0-.243-.125-.415-.235-.57-.239-.333-.439-.614.243-1.276l.278-.264c.338-.318.756-.714.986-1.017l-.596-.563c-.164.22-.362.403-.561.59l-.275.265c-1.038 1.04-1.302.818-1.64.535-.14-.121-.299-.254-.569-.254a.794.794 0 00-.71.41.721.721 0 00-.09.303.624.624 0 00.055.3c.098.212.34.387.756.424.97.088.974.564.977 1.045 0 .332.002.676.494.819.063.018.142.03.222.03.126 0 .26-.03.37-.099a.61.61 0 00.255-.357z" fill="#BE957D"/></svg>