<svg width="27" height="26" fill="none" xmlns="http://www.w3.org/2000/svg"><path fill-rule="evenodd" clip-rule="evenodd" d="M22.209 3.027a2.358 2.358 0 011.177 1.24l.009.018c.152.39.196.817.13 1.22-.069.403-.25.791-.544 1.103-.181.19-.4.353-.661.475.26.542.238.916-.1 1.503a15.46 15.46 0 01-.624.615c-.338.322-.677.645-.96 1.004.076.326.18.658.286.998.408 1.307.857 2.752.162 5.16-.724 2.514-2.245 4.358-4.113 5.488a9.327 9.327 0 01-7.376.964c-2.107-.607-4.047-1.985-5.366-4.167a9.043 9.043 0 01-1.247-5.492 9.41 9.41 0 011.296-4 8.913 8.913 0 013.028-3.049c1.631-.986 3.687-1.506 6.105-1.29 2.536.224 3.71 1.423 5.536 3.289l.722.732 1.139-1.028-2.333-2.337-.567.563a.183.183 0 01-.252 0l-.81-.791a.182.182 0 01-.02-.256c.79-.884 1.565-1.512 2.448-.918a2.57 2.57 0 01.38-.52 2.288 2.288 0 011.206-.686c.445-.091.918-.04 1.349.162zm-.192 2.024c-.002-.223-.132-.445-.441-.569l-.177-.097c-.055-.038-.093-.063-.334.02a.719.719 0 00-.493.66.7.7 0 00.108.395c.08.126.211.236.39.304.285.108.552.01.727-.175a.775.775 0 00.221-.538zm-9.465 13.113c-.32.515-.662 1.066-1.207 1.39a.18.18 0 01-.176.016c-.774-.352-.97-1.2-1.143-1.963-.099-.428-.192-.832-.373-1.054-.166-.206-.585-.305-1.053-.414-.735-.173-1.585-.372-2.024-1.098a.186.186 0 010-.185c.343-.594.925-.979 1.455-1.327.516-.342.982-.65 1.05-1.057.04-.243.012-.56-.019-.895-.07-.763-.147-1.62.497-2.157a.185.185 0 01.117-.042c.563.001 1.082.445 1.59.88.464.396.925.79 1.333.757.304-.022.673-.188 1.047-.353.676-.301 1.381-.615 1.986-.278l.06.057c.44.638.115 1.343-.208 2.043-.162.352-.325.704-.37 1.02-.054.394.384.9.809 1.388.51.588 1.01 1.163.784 1.699-.27.643-1.5.556-2.365.495a5.267 5.267 0 00-.641-.026c-.487.038-.806.549-1.15 1.104zm-1.867-6.379l-.037-.015.008.379c.008.436.018.924-.036 1.098-.158.494-.592.796-1.02 1.094-.153.106-.308.213-.444.327l.514.168c.439.13.889.266 1.108.477.246.234.354.61.467 1.005.067.233.137.473.235.68l.298-.406c.309-.433.628-.885.955-1.022.192-.078.787-.069 1.293-.06l.371.006c-.088-.199-.252-.41-.414-.617-.26-.332-.52-.665-.54-1.023-.016-.281.098-.58.218-.889.094-.244.193-.501.22-.748-.863.176-1.207.334-1.38.416l-.014.008c-.106.05-.165.077-.253.072-.11-.012-.172-.06-.302-.158a8.525 8.525 0 00-1.059-.692l-.188-.1zm6.15-3.614l-.663-.633c-.492-.506-1.177-.813-1.888-.995-1.1-.28-2.271-.265-2.93-.22-.78.053-1.698.306-2.596.753-.8.4-1.584.955-2.237 1.66a7.752 7.752 0 00-2.024 4.847c-.094 1.77.406 3.537 1.495 4.9l.02.03c.197.361.463.706.778 1.024.977.98 2.452 1.707 4.082 1.97 1.631.261 3.42.058 5.016-.817a7.542 7.542 0 001.69-1.27 7.742 7.742 0 001.778-2.721 7.661 7.661 0 00.494-3.212c-.166-2.61-1.008-3.409-3.015-5.316z" fill="#BE957D"/></svg>