<svg width="27" height="26" fill="none" xmlns="http://www.w3.org/2000/svg"><path fill-rule="evenodd" clip-rule="evenodd" d="M1.368 6.354c-.077.149-.193.278-.273.5a2.178 2.178 0 00-.126.592c-.032.369.069.614.225.983l.144.174c.33.42.73.633.918.917-.23.195-.814.46-1.118.646-.304.275-.468.428-.62.76a2.184 2.184 0 00-.148 1l.006.108c.078.576.212.731.503 1.092.159.126.3.26.47.348.132.067.432.202.578.23-.14.255-.455.502-.682.674l-.374.53c-.141.234-.13.394-.257.642.025.238.012.461.054.77.093.324.293.598.342.815.194.052.076.011.22.145.09.085.126.113.227.18.152.1.32.19.514.263.37.138.77.166.974.255l.11.057a.913.913 0 01.037.02c-.186.164-.293.404-.48.573 0 .132-.083.307-.14.444-.008.112-.024.172-.035.268-.006.053-.01.115-.016.157l-.042.163.17.623.41.622.27.258.711.32c.28.007.418.056.736.041.285-.013.556-.037.797-.013-.044.502-.68 1.36-.187 2.27.393.725.982 1.06 1.862 1l.77-.187c.572-.155 1.046-.495 1.495-.779.188-.143.336-.253.506-.39.822-.538 1.371-1.377 1.83-1.86.107-.113.049-.062.147-.116l.857-1.421c.274-.506.634-1.487.68-1.557.023-.364.264-.872.238-1.28l1.31-.351c.17.34.774.905 1.042 1.142.397.352 1.07.778 1.194.91.175.011 1.126.578 1.197.652l.316.082c.597.235 1.009.402 1.67.563.246.06.514.078.743.164.22 0 .465.047.648.088.225-.015.567.027.81.033.307.007.553-.017.86-.05l.193-.046c1.89-.273 2.306-2 1.49-3.013-.284-.355-.667-.55-.902-.883.125-.09.271-.172.45-.244l.063-.044c.571-.358.522-.19 1.11-.886l.15-.257c.021-.2.08-.281.107-.514a1.998 1.998 0 00-.01-.58c-.073-.665-.234-.661-.483-1.088-.11-.073-.36-.26-.412-.346-.252-.054-.414-.178-.643-.221.172-.33.399-.396.656-.69.22-.252.386-.456.51-.746.382-.899-.04-1.458-.271-1.976-.165-.109-.17-.165-.332-.287a1.864 1.864 0 00-.407-.235c-.338-.152-.583-.175-.913-.283l-.408-.136c.631-.546.807-1.398.496-2.268-.196-.282-.233-.43-.502-.695-.778-.764-1.694-.376-2.368-.501.016-.207.154-.586.248-.81.024-.113.059-.187.078-.315.012-.077.012-.124.02-.2.012-.1.007-.08.026-.148l-.113-.74-.188-.217c-.416-.65-.79-.707-1.333-.842-1.02.082-1.246.16-2.159.635l-.39.237-1.144.92c-.452.393-.758.786-.914.926-.074.065-.05.047-.13.088-.057.18-.12.198-.228.332-.094.117-.132.2-.247.308-.09.175-.005.05-.11.097-.073.242-.388.655-.397.645-.006-.007-.016.016-.024.022l-.19.33-.195.415c-.073.15-.112.29-.245.409.048.067.064.046-.007.073-.069.358-.518 1.198-.557 2.17l-1.317.348c-.312-.49-.651-.72-.843-.986-.228-.151-.443-.386-.705-.575-.819-.592-1.202-.792-2.099-1.19-.097-.043-.1-.025-.151-.1-.229-.057-.592-.123-.75-.295-.171.026-.198-.008-.366-.073-.26-.05-.47-.124-.73-.17-.236-.041-.453-.095-.686-.146-.665-.033-1.158-.154-1.93-.075-.368.038-.782.117-1.14.274-.372.164-.49.318-.75.522zm8.843 7.48l.152.57.065.25.31-.097.753-.2.804-.216.588-.158.804-.216.752-.201.804-.215.747-.202.517-.136-.432-1.629-.489.11-.806.217-.75.2-.806.215-.75.203-.642.172-.75.2-.806.216-.285.102.22.816zM3.3 7.315c.327-.153 1.526-.068 1.751.047.38.007 1.307.238 1.533.407.468.053 1.51.654 1.875.87.31.185 1.446.994 1.55 1.404.174.068.16.108.254.285.323.316.36.796.587.79l3.537-.948c.122-.114.078-.31.078-.493 0-.148-.001-.353.035-.484-.033-.93.552-2.096.98-2.835.753-1.31 1.49-1.742 1.898-2.255.232-.148.435-.34.693-.525a5.67 5.67 0 01.753-.442c.373-.146.43-.203.836-.229.05.196.053.235-.063.371-.104.574-.632 1.354.147 2.291l.199.165c.227.261.596.408.942.447.146.016.224.006.333.08.198-.081.622-.103.791-.074l.209-.014.187.294-.556.828c-.292.53-.14.832-.236 1.033l.321.663s.036.004.076.057c.05.065.026.036.058.105.518.334.553.403 1.227.556.23.051 1.157.17.832.603-.15.201.014.033-.155.11-.078.175-.311.357-.456.49-.155.145-.33.332-.448.493-.219.294-.343.781-.24 1.332.185.524.49.808.85.984.203.099.354.15.56.25.221.108.309.268.12.506l-.692.371a1.873 1.873 0 00-.943.926c-.051.11-.083.307-.148.366.008.95.03 1.096.645 1.753.158.128.553.396.623.645-.414.207-.966.275-1.376.23a2.281 2.281 0 01-.568-.029 5.938 5.938 0 00-.267-.04c-.177-.023-.168-.005-.285-.098-.19.059-.12.025-.348-.028-.132-.031-.223-.044-.366-.087-.503-.15-1.71-.543-2.022-.81l-.75-.43c-.56-.315-1.397-1.113-1.82-1.853-.116-.17-.212-.46-.389-.5l-3.537.947c-.13.126-.072.428-.088.63.002.27-.137 1.492-.305 1.63-.064.467-.42 1.051-.634 1.422-.163.285-.631 1.051-.918 1.248-.076.307-1.58 1.62-2.026 1.834-.01.008-.027.008-.03.023-.001.016-.022.02-.03.024l-.585.287c-.222.128-.429.147-.655.154-.078-.309.277-.895.317-1.311a1.78 1.78 0 00-.479-1.427c-1.014-1.034-2.534-.152-2.566-.795.24-.696.924-.84.705-2.001l-.22-.5c-.104-.068-.146-.155-.238-.243a1.383 1.383 0 00-.314-.245c-.21-.116-.493-.166-.728-.266-.196-.002-.323-.065-.512-.106-1.109-.236-.085-.77.39-1.31.257-.306.472-.616.513-1.08.055-.642-.188-.873-.487-1.268-.276-.175-.312-.209-.596-.344-.2-.095-.373-.167-.574-.28 0-.332-.03-.345.3-.511.22-.11.395-.226.624-.258.075-.151.059-.094.28-.258.157-.117.391-.382.473-.555.072-.155.028-.159.168-.292-.026-.165-.026-.137.038-.302-.04-.315.034-.38-.09-.799-.226-.631-.61-.808-.953-1.177-.174-.08-.188-.098-.244-.298.173-.075.313-.176.528-.177.103-.001.06.001.12.026z" fill="#BE957D"/></svg>