<svg width="27" height="26" fill="none" xmlns="http://www.w3.org/2000/svg"><path fill-rule="evenodd" clip-rule="evenodd" d="M13.25 3.436c1.16 0 1.384 1.535 1.992 1.19 1.495-.848 2.178-.607 2.577 1.077.159.663 1.387-.273 2.194.534.807.809-.13 2.035.533 2.195 1.686.4 1.926 1.081 1.079 2.576-.345.61 1.189.833 1.189 1.992 0 1.16-1.534 1.385-1.19 1.991.848 1.498.608 2.178-1.076 2.577-.665.16.272 1.388-.535 2.195-.807.807-2.035-.131-2.194.534-.4 1.683-1.082 1.924-2.577 1.078-.608-.345-.833 1.189-1.992 1.189-1.16 0-1.384-1.534-1.99-1.189-1.498.847-2.179.607-2.578-1.078-.16-.664-1.388.273-2.195-.534-.807-.807.131-2.035-.533-2.195-1.684-.399-1.925-1.08-1.079-2.577.345-.606-1.189-.831-1.189-1.99 0-1.16 1.534-1.385 1.19-1.993-.847-1.494-.606-2.177 1.078-2.576.663-.157-.274-1.386.533-2.195.807-.807 2.035.13 2.194-.533.4-1.685 1.082-1.925 2.578-1.078.608.345.832-1.19 1.991-1.19zm0-1.478c1.059 0 1.655.479 2.1.979.794-.315 1.488-.356 2.147-.09.662.27 1.13.78 1.458 1.559.647-.036 1.378.059 2.103.786.725.73.822 1.461.787 2.105.78.328 1.29.797 1.559 1.463.263.654.22 1.345-.091 2.137.5.446.98 1.04.98 2.103 0 1.059-.48 1.655-.98 2.1.314.793.357 1.486.092 2.14-.27.669-.78 1.137-1.56 1.463.035.646-.06 1.38-.787 2.106-.724.726-1.456.821-2.105.785-.326.78-.794 1.29-1.456 1.56-.661.265-1.355.22-2.146-.091-.445.5-1.042.98-2.1.98-1.061 0-1.657-.48-2.101-.98-.794.313-1.485.356-2.14.092-.67-.27-1.138-.78-1.464-1.561-.646.036-1.38-.06-2.104-.785-.727-.727-.823-1.46-.785-2.106-.782-.328-1.293-.798-1.56-1.464-.264-.653-.223-1.346.09-2.138-.5-.446-.98-1.042-.98-2.1 0-1.062.48-1.656.98-2.101-.313-.793-.354-1.486-.09-2.14.269-.666.778-1.136 1.56-1.463-.037-.645.06-1.373.785-2.1.724-.731 1.458-.828 2.106-.791.328-.783.798-1.291 1.463-1.559.654-.265 1.345-.222 2.137.09.445-.5 1.04-.98 2.102-.98z" fill="#BE957D"/><path d="M15.15 16.703a.892.892 0 00.677.28.88.88 0 00.677-.288.976.976 0 00.267-.684.964.964 0 00-.267-.692.889.889 0 00-.677-.28.89.89 0 00-.677.28.969.969 0 00-.265.692.97.97 0 00.265.692zm2.501 1.086c-.485.488-1.093.73-1.824.73-.73 0-1.337-.242-1.824-.73a2.421 2.421 0 01-.73-1.778c0-.7.244-1.293.73-1.78.487-.486 1.095-.73 1.824-.73.73 0 1.339.244 1.824.73a2.42 2.42 0 01.731 1.78c0 .699-.243 1.292-.73 1.778zm-7.655-7.108a.887.887 0 00.677.281.913.913 0 00.684-.28.953.953 0 00.274-.692.925.925 0 00-.274-.685.927.927 0 00-.684-.274.9.9 0 00-.677.274.943.943 0 00-.266.685c0 .272.09.503.266.691zm-.798 6.045l6.934-7.71.927.518-6.949 7.724-.912-.532zm3.315-4.949c-.486.48-1.094.721-1.825.721-.73 0-1.34-.243-1.833-.73a2.414 2.414 0 01-.737-1.778c0-.7.247-1.293.737-1.779.493-.486 1.103-.73 1.833-.73s1.339.24 1.825.723c.486.48.73 1.076.73 1.786 0 .708-.244 1.304-.73 1.787z" fill="#BE957D"/></svg>