<svg width="27" height="26" viewBox="0 0 27 26" fill="none" xmlns="http://www.w3.org/2000/svg">
<path fill-rule="evenodd" clip-rule="evenodd" d="M6.64034 2.37938C6.69927 2.63244 6.73392 2.89288 6.78418 3.14941C6.81971 3.31537 6.85917 3.50213 6.8505 3.66766C6.92676 3.77945 6.9649 3.94154 6.99567 4.0893C7.0533 4.33586 7.14298 4.58283 7.22011 4.82462C7.27904 4.92299 7.33582 5.05946 7.38868 5.18729L7.48184 5.40356L7.61964 5.64404C7.68594 5.75454 7.75223 5.86635 7.79383 5.97338C8.06162 6.34691 8.3394 6.6918 8.62063 7.05319L7.43503 7.29843C7.34187 7.39202 6.32486 7.77898 6.2707 7.80325C6.207 7.86738 6.12339 7.91423 6.03759 7.95929L5.9037 8.03421C4.64706 8.86705 4.13226 9.69514 3.89653 10.0747L3.75008 10.2897L3.24654 11.4453C3.25261 11.5918 3.21578 11.7279 3.17679 11.8666L3.12607 12.068C3.08707 12.283 3.07105 12.4832 3.05156 12.7154L3.04765 12.7548C3.03422 12.9329 3.04637 13.2229 3.05764 13.498C3.07107 13.7914 3.08188 14.0765 3.06108 14.2325C3.09661 14.2827 3.18504 14.9449 3.195 15.0077C3.22837 15.1685 3.26129 15.3332 3.25263 15.4805L3.34361 15.7162L3.42335 16.0836C3.49701 16.2518 3.55118 16.4312 3.60534 16.6093C3.66297 16.8034 3.72321 17.0036 3.80684 17.1843C3.86101 17.3303 3.93338 17.4802 4.00444 17.6263C4.08937 17.8009 4.17515 17.9803 4.23278 18.1497C4.30168 18.2342 4.41002 18.4322 4.49842 18.5978C4.62972 18.8374 4.76491 19.051 4.9235 19.2724C4.97854 19.3448 5.01407 19.389 5.03617 19.4995L6.14808 20.8151L7.41946 21.9941C7.73015 22.0617 9.09336 23.0016 9.43135 23.2066L9.74681 23.3431C9.86987 23.37 9.98645 23.4115 10.1008 23.451L10.3513 23.532L10.9775 23.6698L11.4922 23.6919L12.0768 23.6391L12.5535 23.5454C13.1137 23.3062 13.6961 23.451 14.2534 23.5909L14.4453 23.6391L15.0065 23.6919L15.6574 23.6412C15.9841 23.5467 16.2739 23.4571 16.5946 23.3431C17.0223 23.123 17.3746 22.9288 17.7923 22.6858L18.2127 22.3798C18.431 22.2277 18.6815 22.0518 18.8882 21.8763L19.0884 21.6934C19.2452 21.5461 19.4099 21.3888 19.5512 21.3286C19.728 21.1518 20.131 20.7891 20.1617 20.6357L20.2601 20.5941L22.0081 18.2576C22.0376 18.1116 22.1307 17.9617 22.2165 17.8217L22.3162 17.6558L22.4293 17.4113C22.4856 17.2822 22.5446 17.1461 22.6182 17.0244L22.7192 16.7457C22.7474 16.6634 22.7621 16.6214 22.8271 16.5638C22.8418 16.4225 22.9107 16.2444 22.9662 16.097C23.0607 15.8427 23.127 15.5775 23.2006 15.3158L23.3003 14.8712L23.3259 14.6684C23.4645 13.5704 23.5447 12.9282 23.3064 11.7573L23.2387 11.4726C23.133 11.1975 23.0373 10.9258 22.9133 10.6567C22.8479 10.5228 22.7742 10.3755 22.7513 10.2689C22.659 10.174 22.5103 9.94954 22.3877 9.76277L22.2252 9.52183C22.0913 9.34504 21.9626 9.21376 21.8287 9.07467L21.6173 8.85363C21.5042 8.731 21.4591 8.69504 21.3963 8.64608C21.0708 8.38305 20.3853 8.01604 20.1665 7.76774C20.0599 7.74218 19.9334 7.67932 19.8155 7.62169C19.5798 7.51249 19.3423 7.4228 19.1018 7.32573L18.2703 7.13035L17.8352 7.06145L17.3906 7.02112C16.7484 6.98559 16.2644 7.05793 15.9277 7.1082C15.7596 7.1342 15.6218 7.15505 15.5152 7.15376C15.4034 7.20922 15.2179 7.25082 15.0975 7.28289L14.2009 7.58962L14.2105 7.42756C14.2157 7.33916 14.2634 7.11691 14.3162 6.92538C14.3569 6.78411 14.402 6.65021 14.444 6.58261C14.4869 6.40192 14.5888 6.12677 14.7058 5.88974C14.7989 5.69822 14.9081 5.52141 15.0065 5.42651C15.0728 5.21808 15.3679 4.89478 15.5568 4.68722L15.6539 4.58024C15.9043 4.29685 16.0482 4.18722 16.1981 4.07456L16.4226 3.89385L16.3858 3.78813C16.2679 3.69366 16.1292 3.46138 16.0361 3.30539L15.9022 3.09526C15.7904 2.92973 15.6405 2.7061 15.5763 2.5696L15.5386 2.49853C15.4316 2.54273 15.2804 2.66795 15.1699 2.76241L15.0788 2.83739C14.8739 3.00075 14.7669 3.11128 14.6429 3.23781L14.3431 3.53158L13.8556 4.14167C13.8014 4.21923 13.7633 4.27561 13.6749 4.33454C13.6528 4.40734 13.6051 4.50657 13.5523 4.59756C13.4881 4.7059 13.4123 4.81377 13.3547 4.85927L13.2684 4.92902L12.6947 4.1859L12.4356 3.91851L12.1149 3.63083C11.9074 3.46746 11.689 3.30802 11.4541 3.16415C11.2232 3.02549 10.9701 2.89762 10.6841 2.79666C10.0956 2.55617 9.45477 2.41229 8.79482 2.34989C8.0924 2.28229 7.35792 2.30051 6.64034 2.37938ZM9.89935 4.30287C10.0306 4.31024 10.2356 4.39475 10.4358 4.50308C10.7001 4.64434 10.9692 4.83196 11.0598 4.92426L11.3596 5.20335C11.4372 5.28179 11.507 5.36148 11.5377 5.41434C11.6716 5.58897 11.819 5.79654 11.9507 6.02013C12.0842 6.24589 12.2033 6.48902 12.2835 6.73601L12.3264 6.86646L12.1899 6.87724C12.1002 6.88461 11.9334 6.86384 11.78 6.83307C11.6348 6.80361 11.4901 6.76072 11.4138 6.72259C11.2639 6.68575 10.8843 6.59731 10.7812 6.47338C10.5441 6.43742 10.2972 6.2754 10.0749 6.08387C9.8426 5.88368 9.63373 5.64925 9.4903 5.48588C9.42747 5.41309 9.34297 5.30648 9.27624 5.19945C9.23334 5.12926 9.1978 5.05561 9.1796 4.98714C9.1055 4.91218 9.0236 4.77826 8.95341 4.63829C8.86111 4.45283 8.78268 4.24393 8.77141 4.14557L8.75452 3.98701L9.89935 4.30287ZM21.6541 14.5934L21.492 15.2668C21.4712 15.3578 21.4626 15.3955 21.3997 15.4696C21.3889 15.581 21.3326 15.7591 21.2624 15.9424C21.1566 16.2176 21.0106 16.5222 20.9391 16.6448C20.8888 16.8229 20.7255 17.1067 20.6224 17.2887L20.2956 17.8095C20.2501 17.8893 20.2085 17.9603 20.131 18.0219L20.0868 18.1163C20.0244 18.232 19.8731 18.437 19.7111 18.642C19.5048 18.9024 19.2739 19.1741 19.1716 19.276L19.0451 19.4284C18.99 19.503 18.9359 19.5792 18.8193 19.6655L18.6889 19.8089L18.532 19.9268C18.4276 20.0841 18.0528 20.396 17.8526 20.5633L17.7529 20.6478C17.6511 20.7353 17.4153 20.9243 17.1952 21.0781C17.0531 21.1799 16.9153 21.267 16.8195 21.3086C16.7419 21.3849 16.5651 21.4941 16.371 21.5964C16.1366 21.7203 15.8662 21.8442 15.7275 21.885C15.6257 21.9292 15.5053 21.9708 15.3835 21.9955C15.2743 22.0176 15.1577 22.0297 15.0446 22.0249L14.6369 21.9881C14.5277 21.9734 14.4367 21.9599 14.3396 21.8936L13.6432 21.7558C13.0474 21.7337 12.8594 21.7693 12.4122 21.8568L12.1899 21.8997C12.0278 21.9855 11.7566 22.0089 11.5637 22.0236L11.156 22.0115C11.0464 21.9989 10.9359 21.9781 10.8327 21.9473L10.6533 21.8542C10.5857 21.8529 10.5012 21.8369 10.425 21.8113C10.3474 21.7853 10.275 21.7498 10.2235 21.7095C9.91754 21.6159 9.39799 21.3225 8.93 21.0053C8.47934 20.702 8.06292 20.3679 7.91559 20.1642C7.80596 20.1443 7.69331 20.0056 7.61835 19.9259C7.55552 19.8596 7.51869 19.8223 7.48446 19.756C7.27169 19.6174 6.84704 19.1199 6.46615 18.593C6.10605 18.0942 5.77326 17.5565 5.68226 17.2579C5.6125 17.1704 5.50805 16.962 5.42182 16.7553C5.34469 16.5698 5.2771 16.3757 5.25847 16.2618C5.17007 16.1894 5.07302 15.7604 5.05092 15.6572C4.94909 15.4557 4.86069 15.0246 4.80046 14.5557C4.72289 13.9647 4.68128 13.3013 4.69731 12.9585C4.71074 12.6309 4.76233 12.3077 4.84856 11.9983C4.93566 11.6911 5.05958 11.3938 5.21688 11.1152L5.25976 11.0363C5.33342 10.8963 5.42185 10.7295 5.54361 10.6472C5.60731 10.4934 5.79796 10.2676 6.01418 10.06C6.26204 9.82172 6.55453 9.59202 6.72656 9.51185C6.79286 9.43949 6.94148 9.34851 7.10744 9.26271C7.3527 9.13618 7.64997 9.00965 7.7609 8.98018C8.13529 8.79125 8.68433 8.69416 9.24678 8.67682C9.8634 8.65819 10.5073 8.73191 10.9606 8.88054C11.3683 9.01357 11.6682 9.14227 11.942 9.29696C12.212 9.44949 12.459 9.63017 12.7649 9.8685L12.8299 9.91743C12.9538 10.0132 13.1311 10.1506 13.2329 10.2724C13.3139 10.2247 13.3976 10.1532 13.4725 10.0895L13.9981 9.65963C14.0792 9.6007 14.2647 9.46679 14.4575 9.34979C14.6343 9.24319 14.8249 9.14741 14.9636 9.12531C15.0178 9.06378 15.0373 9.06513 15.1135 9.02699C15.2041 8.98496 15.2608 8.97411 15.3319 8.96068L15.3627 8.95459C15.6981 8.7739 16.3563 8.68165 17.005 8.68165C17.6558 8.68165 18.3132 8.7726 18.6486 8.95459C18.8267 8.99619 19.1313 9.11667 19.3857 9.24797C19.5832 9.3498 19.7566 9.46552 19.8376 9.56475C20.0573 9.63971 20.4174 9.97035 20.7316 10.3387C21.0561 10.7183 21.3447 11.1507 21.3924 11.3903C21.4565 11.4687 21.5128 11.5905 21.5583 11.7144L21.6641 12.0598C21.7624 12.4515 21.8127 12.9122 21.8101 13.3594C21.8088 13.7966 21.7559 14.2338 21.6541 14.5934Z" fill="#BE957D"/>
</svg>
