<svg width="27" height="26" viewBox="0 0 27 26" fill="none" xmlns="http://www.w3.org/2000/svg">
<path fill-rule="evenodd" clip-rule="evenodd" d="M3.77941 10.2431C3.44618 11.4837 3.44618 12.0128 4.04719 13.1724C4.65645 14.3527 4.64259 13.9437 4.61963 15.4868C4.52603 21.4601 2.91927 19.7892 15.9298 23.2753C17.2796 23.6375 18.5609 20.5839 19.1996 19.3988C20.9095 16.2273 21.8282 17.9432 22.7542 14.4892C23.8635 10.3484 19.7794 8.85604 19.3409 8.08862C19.1134 7.6904 19.0449 6.08362 17.8126 4.78409C17.0265 3.95514 15.7322 3.11023 14.1817 2.6951C13.774 4.21823 13.1097 4.72041 12.0936 5.18233C11.3162 5.53462 11.2252 5.35435 10.4833 5.44621C8.48008 5.69581 8.83237 6.78259 7.79847 7.28395C7.17448 7.58597 4.55679 7.33901 3.77941 10.2431ZM9.23928 8.63246C9.92567 7.34766 10.3702 6.70155 12.9251 7.38577C13.4988 5.42065 14.0236 6.69072 14.9964 4.86773C16.5551 6.2054 18.0769 6.68074 17.4074 9.42497C19.0263 9.85829 20.279 10.7267 20.838 11.8508C21.7493 13.6846 20.9008 14.5369 20.1109 16.0159C18.1553 14.8897 21.0308 15.0123 14.8794 15.3516C10.3052 15.602 3.52764 13.5567 5.68082 10.1408C6.37847 9.03284 6.64366 9.3132 7.72567 9.0662C8.46145 12.2784 11.5753 12.8911 14.586 13.6971L15.0046 12.1332C13.5344 11.7389 12.8059 11.417 11.5103 10.8459C10.115 10.2306 9.68257 9.93719 9.23928 8.63246ZM15.3071 21.4328L6.96691 19.1973C5.85371 18.9 6.34642 16.3794 6.57132 15.4608C7.129 15.758 7.11643 15.823 7.80455 16.07C7.35606 17.7457 7.30577 17.6126 9.20979 18.1226L9.6284 16.5588L11.1936 16.9778L10.7732 18.5412L12.3371 18.9616L12.8259 17.1364C13.4867 17.1585 14.2099 17.2135 14.791 17.1043C14.4374 18.0871 14.2541 18.0611 13.9018 19.3802C15.8682 19.9075 15.581 19.9257 16.0957 18.6028C16.4407 17.7171 16.5512 17.571 16.8241 16.8105C17.5439 16.941 17.566 16.8795 18.1974 16.899C17.9062 17.9875 16.4199 21.7313 15.3071 21.4328Z" fill="#BE957D"/>
</svg>
