<svg width="27" height="26" viewBox="0 0 27 26" fill="none" xmlns="http://www.w3.org/2000/svg">
<path fill-rule="evenodd" clip-rule="evenodd" d="M20.9493 9.18204C21.1114 9.05074 21.2626 8.92766 21.2726 8.60223C21.2847 8.19578 20.5697 7.5779 20.0627 7.13808C19.0774 6.25756 18.0162 5.33893 17.101 4.42505C16.6907 4.01209 16.2595 3.57964 15.7586 3.51941L13.598 3.33394C12.0255 3.28758 10.5652 3.39935 9.24095 3.66454C7.91802 3.93103 6.729 4.35486 5.70246 4.92987C5.19763 5.2111 4.71491 5.54389 4.27248 5.92088C3.84869 6.28313 3.46175 6.68869 3.13155 7.12591C2.79746 7.5731 2.37844 8.2461 2.07641 8.93898C1.83809 9.48063 1.66734 10.0396 1.65391 10.5184L1.41429 18.5384C1.40692 18.7828 1.4325 18.9964 1.51397 19.1719C1.60323 19.366 1.75445 19.5059 1.98801 19.5848C2.52837 19.7911 5.35971 20.0836 6.18649 20.1988C7.71048 20.4177 9.53476 20.6803 9.99538 20.6937C10.6228 20.7123 10.6943 20.3562 10.7814 19.9129C10.8169 19.7369 10.8564 19.5367 10.9556 19.3721C11.119 19.1043 11.3452 18.9288 11.5896 18.8391C11.7651 18.7754 11.9583 18.7546 12.1447 18.7741C12.3314 18.7923 12.5156 18.8551 12.6742 18.9509C12.9004 19.0874 13.0858 19.2984 13.1851 19.5701C13.254 19.759 13.2418 19.99 13.2318 20.2002C13.205 20.6963 13.1829 21.1287 13.845 21.2652C15.5705 21.5846 17.4697 21.7761 19.2334 22.0253C19.9471 22.1297 20.6655 22.2381 21.3844 22.3178L21.7809 22.3793C21.9568 22.4088 22.1371 22.4417 22.3204 22.4564L23.4058 22.6137C23.5597 22.6397 23.7352 22.6701 23.8972 22.6753C24.3739 22.6887 24.8111 22.5375 24.8332 21.797L24.8921 19.8206C24.9181 18.9509 24.3787 18.9105 23.8509 18.8724C23.6749 18.8598 23.4968 18.8451 23.3876 18.7888C23.0843 18.6328 22.8841 18.3945 22.7797 18.1327C22.7156 17.9633 22.6861 17.7805 22.6961 17.6032C22.7047 17.4252 22.7537 17.247 22.836 17.0876C22.9651 16.8371 23.1862 16.6244 23.4873 16.5052C23.5779 16.4684 23.7351 16.4671 23.895 16.4649C24.4194 16.461 24.9931 16.4523 25.0187 15.5792L25.0863 13.3116C25.0975 12.9372 24.7288 12.5269 24.5043 12.2799C23.9774 11.688 23.4219 10.9448 22.9036 10.3243C22.2528 9.46931 21.9261 9.69291 21.572 9.93514C21.4702 10.0049 21.361 10.0799 21.2479 10.0764C21.0659 10.0712 20.9238 10.0236 20.8354 9.94473C20.7565 9.87496 20.7149 9.76793 20.7184 9.63403C20.7271 9.36407 20.8436 9.26827 20.9493 9.18204ZM19.3279 8.59879L19.3846 8.65645C19.2187 8.94244 19.1389 9.24703 19.1289 9.54689C19.1194 9.88964 19.2039 10.2311 19.3586 10.5331C19.5111 10.8304 19.7382 11.0969 20.016 11.295C20.3193 11.5121 20.6876 11.6498 21.0845 11.6607C21.4186 11.6719 21.5699 11.6264 21.7501 11.5748L21.8779 11.5393L22.4209 12.2062L11.6988 10.6844C11.6546 10.4794 11.5566 10.2471 11.4396 10.0322C11.2628 9.70765 11.0284 9.39831 10.8525 9.25358C10.4278 8.90475 10.1306 8.72011 9.80992 8.61698C9.48666 8.51125 9.16382 8.49434 8.67504 8.4809C8.17238 8.46487 7.707 8.62217 7.30791 8.88C6.89365 9.14649 6.54353 9.52222 6.29697 9.91914C6.03264 9.90311 5.7774 9.86149 5.55121 9.82465L4.34138 9.64745C4.02809 9.60109 3.79842 9.58375 3.63506 9.57161C3.50116 9.56425 3.46564 9.60456 3.44701 9.58246C3.40411 9.53219 3.52326 9.55687 3.59823 9.39957L3.75682 9.06071C3.93101 8.67592 4.23434 8.24738 4.581 7.84959C4.97012 7.4011 5.41992 6.98943 5.80428 6.71557C6.66183 6.10502 7.75379 5.64702 8.90209 5.3463C10.1808 5.0096 11.5367 4.86227 12.737 4.89781L15.1701 5.02694C15.476 5.04167 15.5241 5.09189 15.6086 5.18635C16.8037 6.35069 18.177 7.42059 19.3279 8.59879ZM9.84803 10.4816C10.0885 10.7467 10.2432 11.1008 10.2324 11.473L10.1869 11.7062L10.0937 12.0121C10.0175 12.1976 9.82465 12.4125 9.59109 12.5697C9.3935 12.7049 9.16384 12.7982 8.95237 12.7908C8.18106 12.7687 7.73041 12.4125 7.54971 11.9666C7.47864 11.7885 7.44786 11.5944 7.45522 11.4007C7.46129 11.2074 7.51026 11.0085 7.59259 10.8282C7.80405 10.3611 8.266 9.99885 8.91945 10.0188C9.26091 10.0283 9.60104 10.2077 9.84803 10.4816ZM19.6325 17.5656C19.7395 17.2804 19.7802 16.9671 19.7898 16.6503C19.7971 16.4168 19.7248 16.1603 19.619 15.9293C19.4925 15.6541 19.3109 15.4046 19.1571 15.2646C18.7472 14.8915 18.2411 14.7082 17.7397 14.7108C17.2323 14.7143 16.7266 14.9097 16.3223 15.2867C15.7131 15.8578 15.5853 16.6123 15.7746 17.2744C15.8582 17.5664 16.0042 17.8441 16.1984 18.0764C16.3912 18.3095 16.6369 18.5076 16.9121 18.6376C17.5213 18.9262 18.2887 18.9093 19.054 18.3416C19.3404 18.1306 19.522 17.8637 19.6325 17.5656ZM18.16 16.9918C18.0972 17.1405 17.9473 17.2544 17.6968 17.2471C17.5114 17.241 17.3762 17.1071 17.3172 16.9424C17.2938 16.8761 17.2791 16.8011 17.2817 16.7301C17.2843 16.6638 17.2977 16.5936 17.3246 16.5334C17.3922 16.386 17.5582 16.2742 17.8416 16.2829C18.0027 16.2881 18.1193 16.4134 18.1709 16.5707C18.193 16.637 18.2055 16.7153 18.2029 16.7864C18.2003 16.8592 18.1856 16.9303 18.16 16.9918ZM16.1148 8.84449C16.2118 8.56674 16.2439 8.27335 16.2534 7.95875C16.2669 7.51417 16.0658 7.06442 15.7352 6.71689C15.5571 6.52753 15.3322 6.362 15.0817 6.24414C14.8325 6.12627 14.5548 6.05216 14.2697 6.04393C13.7674 6.02919 13.2293 6.20816 12.7418 6.67008C12.1225 7.25723 12.032 8.02031 12.2638 8.68329C12.3596 8.95845 12.5147 9.21673 12.7084 9.43382C12.9004 9.65135 13.1409 9.83682 13.4086 9.96205C14.0426 10.2632 14.83 10.2398 15.5645 9.62444C15.8444 9.38958 16.0151 9.12789 16.1148 8.84449ZM14.625 8.29028C14.5574 8.44281 14.4049 8.56199 14.1618 8.55463C13.9737 8.54943 13.845 8.43542 13.787 8.29286C13.7614 8.22873 13.7467 8.15418 13.7467 8.08008C13.748 8.00772 13.7601 7.93409 13.787 7.8691C13.8485 7.72307 13.991 7.60473 14.2133 7.59867C14.4235 7.5913 14.5622 7.70315 14.625 7.84701C14.6545 7.91591 14.6701 7.99302 14.6692 8.06798C14.6692 8.14165 14.6545 8.22138 14.625 8.29028ZM17.5508 13.0993L23.4786 13.9196L23.4492 14.9011C22.8802 15.041 22.4161 15.2867 22.0573 15.5974C21.663 15.9401 21.3939 16.3653 21.2505 16.8172C21.1066 17.2705 21.0832 17.7545 21.1768 18.2151C21.27 18.6831 21.4862 19.1337 21.8129 19.5111C22.0365 19.7651 22.2649 19.9544 22.5279 20.1005C22.7489 20.2248 22.9946 20.3206 23.2845 20.4051L23.2672 20.9901C21.0967 20.6963 18.9387 20.3955 16.7721 20.081C16.0471 19.9692 15.5683 19.9202 15.255 19.8895C15.0228 19.8648 14.8802 19.85 14.8178 19.8305L14.7892 19.5896C14.6605 18.677 14.1852 18.0235 13.5633 17.6318C13.1521 17.3727 12.6716 17.2276 12.188 17.2007C11.7053 17.176 11.2126 17.2657 10.7715 17.4719C10.1488 17.7644 9.62574 18.2914 9.36747 19.0519C9.10358 18.9964 8.80026 18.9595 8.4978 18.924C6.67005 18.6757 4.83753 18.43 3.01584 18.1514L3.2273 11.0774C3.47516 11.1008 3.74687 11.1463 4.0047 11.1892L4.83493 11.3084C5.18029 11.3487 5.57463 11.3967 5.87536 11.4583C5.87926 11.6437 5.89527 11.8106 5.92214 11.9679C5.95767 12.1707 6.01662 12.3575 6.09028 12.5403C6.14575 12.679 6.23673 12.8423 6.3299 12.9936C6.42956 13.1535 6.54267 13.3095 6.63974 13.4187C7.19959 14.0513 7.89722 14.3373 8.5901 14.3728C9.01389 14.3941 9.44116 14.3226 9.83332 14.1787C10.225 14.0366 10.586 13.8203 10.8798 13.5612C11.2837 13.2024 11.5701 12.7526 11.6598 12.2738L14.5206 12.6802L16.0411 12.8683L17.5508 13.0993Z" fill="#BE957D"/>
</svg>
