<svg width="27" height="26" viewBox="0 0 27 26" fill="none" xmlns="http://www.w3.org/2000/svg">
<path fill-rule="evenodd" clip-rule="evenodd" d="M20.6537 2.45309C20.613 2.48993 20.6745 2.44962 20.5922 2.49468C20.4496 2.57095 20.3491 2.57958 19.8924 2.83871C19.7338 2.96047 19.5791 3.05233 19.4513 3.19879L18.6063 4.28951C18.4819 4.4455 18.5227 4.44549 18.4403 4.46023C18.384 4.60409 18.2731 4.70934 18.1726 4.83718C18.0781 4.95764 18.0044 5.08161 17.8718 5.15918C17.8558 5.28571 17.89 5.18476 17.8003 5.29525C17.6565 5.47465 17.2171 5.96125 17.159 6.09775C17.0021 6.07911 16.8756 6.01887 16.701 5.9868C15.9223 5.83817 15.4937 6.07306 15.2493 6.04836C15.1778 6.11119 14.9495 6.19567 14.8572 6.22384C14.764 6.278 14.6496 6.33953 14.5504 6.40712C14.4447 6.47819 14.3732 6.541 14.2714 6.61943L13.2812 7.56541C13.1993 7.65511 12.8734 7.99397 12.7902 8.00134C10.4585 7.44018 7.53663 8.7913 8.27241 12.5794C7.92098 12.884 7.6311 13.2402 7.33774 13.5401C7.10894 13.7758 6.98501 13.8763 6.75664 14.1567C6.64615 14.2941 6.53654 14.531 6.49147 14.5657L6.31206 14.9796L6.29734 15.0004C6.31078 15.1403 6.24316 15.295 6.21499 15.4549C6.08976 16.1881 6.30471 16.5651 6.34631 16.9104C6.24924 16.952 6.18295 17.027 6.09931 17.0933C6.00875 17.1635 5.93984 17.209 5.87484 17.268C5.76781 17.3663 5.5503 17.6042 5.40774 17.6228C5.3306 17.7554 5.20536 17.8291 5.08619 17.9235C4.95836 18.0232 4.85265 18.135 4.70878 18.1905C4.69188 18.2823 4.40674 18.4531 4.32701 18.5159L3.38497 19.2625C3.02877 19.6261 2.94387 19.9333 2.8286 20.0954C2.80867 20.1582 2.79653 20.2145 2.77313 20.2782C2.76229 20.3055 2.7571 20.3163 2.74367 20.3436C2.72027 20.3878 2.72501 20.3779 2.70205 20.4039L2.65137 20.9958L2.68082 21.4196C2.78439 21.8655 2.91916 22.1454 3.12065 22.4574C3.21035 22.5557 3.29268 22.6701 3.38715 22.7681C3.50155 22.8872 3.59254 22.9206 3.69827 23.0532C3.75071 23.0654 4.1576 23.3197 4.42539 23.4193C5.07494 23.6598 5.76912 23.6096 6.4594 23.5394C6.80346 23.5052 7.16918 23.4155 7.48724 23.4008L7.70867 23.3344C8.04016 23.3318 8.59526 23.0853 8.94409 23.0337L9.18241 22.9453L9.37783 22.886C9.51909 22.9622 9.64433 23.1 9.80163 23.2045C9.94159 23.2976 10.1604 23.3652 10.2683 23.4427L10.5508 23.526C11.2732 23.5949 11.3295 23.6109 12.0298 23.4931C12.1047 23.4463 12.4449 23.3271 12.542 23.2963L13.1807 22.8838C13.312 22.7975 13.7197 22.4587 13.8402 22.4453C13.9178 22.2914 14.8845 21.6579 15.0158 21.4672L15.2112 21.5335C16.1888 21.9833 17.5117 21.8754 18.4156 21.2402C18.777 20.9871 18.826 20.89 19.1245 20.5967L21.1573 18.5736C21.3848 18.3465 21.5468 18.1068 21.7236 17.7849C21.7531 17.7077 21.796 17.6068 21.8293 17.5271C21.8675 17.4326 21.8943 17.3316 21.9507 17.2666C21.9372 17.1206 22.0235 16.8662 22.0443 16.7042C22.0685 16.4892 22.0698 16.2604 22.0538 16.0442C22.0257 15.6759 21.9177 15.2582 21.7812 14.9622L21.7162 14.7668C21.9065 14.6368 22.5417 13.6688 22.6938 13.5916C22.7051 13.4907 22.7138 13.5041 22.7861 13.4135L23.5453 12.293C23.5748 12.1963 23.6952 11.857 23.7416 11.7807C23.7836 11.5303 23.8473 11.3227 23.8486 11.0341C23.8486 10.7603 23.7871 10.5467 23.775 10.301L23.6913 10.0206C23.6203 9.9227 23.5453 9.69174 23.453 9.55264C23.3486 9.39664 23.2112 9.27007 23.1337 9.12881L23.1952 8.93515L23.2823 8.69678L23.5635 7.58359L23.6497 7.23607C23.6645 6.91931 23.7542 6.55577 23.7884 6.21042C23.8595 5.52013 23.9102 4.82506 23.6679 4.17637C23.5613 3.88908 23.3204 3.52294 23.3018 3.45058C23.1584 3.33488 23.1102 3.21702 22.969 3.09439C22.8732 3.00946 22.6925 2.90152 22.6141 2.79189C22.5218 2.77629 22.3671 2.65804 22.1656 2.577C21.994 2.50854 21.838 2.47387 21.6647 2.42837L21.2435 2.40278L20.6537 2.45309ZM21.731 7.70796C21.6673 7.85789 21.6599 8.00523 21.5971 8.13913L21.585 8.15989L21.5724 8.18072C21.4693 8.14519 21.4216 8.13049 21.354 8.04339C21.2188 8.03212 20.9189 7.85527 20.7777 7.77554C20.6806 7.72267 20.295 7.5715 20.2508 7.50174L19.5163 7.16849C19.2953 7.06666 19.0717 6.97824 18.8373 6.85647C18.8494 6.74598 18.8373 6.80013 18.9083 6.71174C18.9586 6.65021 18.9625 6.64154 19.0128 6.60601L19.9942 5.36931C20.0532 5.29651 20.1 5.22892 20.155 5.16176C20.2152 5.08896 20.2547 5.04865 20.3075 4.97715C20.4107 4.84109 20.5099 4.7033 20.623 4.55597C20.7348 4.40994 20.8058 4.29423 20.9917 4.21796C21.4398 4.0325 21.8233 4.35099 21.9533 4.63439C22.0859 4.92818 22.075 5.04863 22.0798 5.39139L22.059 5.7485C22.0183 5.96387 22.0958 5.62194 22.0443 5.80047L22.0235 5.84682C22.1119 6.17745 21.7912 7.32101 21.731 7.70796ZM15.2073 8.16855C15.3178 7.96186 15.6532 7.76561 15.9812 7.71014C16.3461 7.67981 16.4492 7.73009 16.7352 7.85402C16.9419 7.94242 17.1174 8.0087 17.315 8.10316L17.4259 8.16597C17.7241 8.25567 20.2716 9.46552 20.3431 9.55912C20.5298 9.61415 21.1646 9.95558 21.2751 10.0479C21.4363 10.125 21.5945 10.2221 21.737 10.317C21.8844 10.4136 22.0529 10.522 22.0235 10.7542L22.0491 10.7997C22.1093 10.9432 22.0222 10.6741 22.0685 10.8513L22.0738 11.1264C22.0686 11.1693 22.0491 11.2785 22.0369 11.3127L21.9559 11.4259C21.9373 11.6716 21.1746 12.6149 20.9731 12.8914C20.9176 12.9676 20.6858 13.2931 20.6217 13.3065C20.5506 13.4885 20.5506 13.5032 20.3972 13.3775L18.8247 12.1569C18.6726 12.023 18.524 11.9198 18.3753 11.8041L17.2561 10.9566C17.2084 10.921 17.1898 10.9102 17.1508 10.8795L17.0498 10.7824L16.8496 10.6572C16.8019 10.6216 16.7279 10.5674 16.6728 10.5267C16.5732 10.4517 16.3717 10.3191 16.3106 10.2442L14.426 8.91392C14.5539 8.78739 14.6852 8.68074 14.8169 8.54815C14.9382 8.42508 15.0786 8.24438 15.2073 8.16855ZM13.2803 10.2958L13.9593 10.7529C14.264 10.9704 14.5712 11.1707 14.8498 11.393C14.9447 11.4406 15.1891 11.6027 15.2355 11.6937C15.323 11.7058 15.2897 11.6299 15.307 11.7378C15.4236 11.7846 15.4643 11.8301 15.5709 11.9051C15.6385 11.9541 15.7208 12.0095 15.7858 12.0585C15.9223 12.1616 16.0809 12.2674 16.1987 12.3792L18.4906 14.1172C18.5742 14.187 18.5755 14.1554 18.5924 14.2264C18.7255 14.2767 18.6761 14.2559 18.7879 14.3408C18.8715 14.4071 18.8702 14.3985 18.9244 14.4895C19.0188 14.5029 19.0006 14.5129 19.0925 14.5887C19.1514 14.6368 19.2091 14.6784 19.2485 14.7092C19.3421 14.7807 19.4769 14.8825 19.5544 14.9587C19.6381 15.0051 19.6957 15.068 19.778 15.1304C19.9071 15.2274 19.8811 15.1884 19.983 15.3271C20.1034 15.4917 20.1884 15.6503 20.2547 15.8579C20.3296 16.1612 20.3244 16.3944 20.2607 16.6942L20.2252 16.8086C19.9695 17.3958 19.2082 18.0379 18.7484 18.4998C18.4759 18.775 18.2241 19.0268 17.9515 19.2994C17.7193 19.5329 17.4649 19.8436 17.0585 19.9762L16.8115 20.0438C16.5363 20.0685 16.3756 20.0832 16.1065 20.007C15.5648 19.8583 15.4495 19.5992 15.1618 19.2846C15.0219 19.1312 14.4902 18.463 14.446 18.3452C14.3745 18.3317 14.3511 18.2702 14.2934 18.1891C14.2406 18.1168 14.2137 18.086 14.1608 18.0158C13.6218 17.3282 12.9839 16.526 12.4865 15.8197L12.2889 15.5567C12.2447 15.4917 12.256 15.5077 12.2239 15.451C12.1342 15.3665 12.161 15.4047 12.1121 15.2729C12.0505 15.2595 12.0506 15.2339 11.9903 15.1477L11.9426 15.0727C11.9093 15.0064 11.9266 15.0641 11.9119 14.9895C11.8122 14.9375 11.8209 14.9193 11.7581 14.827C11.7152 14.7659 11.6723 14.7204 11.6467 14.6368C11.541 14.5545 10.3311 12.7527 10.2289 12.5131C9.38258 11.0476 10.686 8.54167 13.2803 10.2958ZM7.95523 15.7643C7.9873 15.591 8.02889 15.4289 8.10906 15.2928C8.17882 15.1724 8.31879 15.0116 8.41585 14.9587L9.16291 14.187C9.23267 14.2377 9.18845 14.1944 9.24262 14.2719L9.4099 14.5324C9.48963 14.6576 9.56806 14.7512 9.64909 14.8777C9.77085 15.0667 10.0582 15.4423 10.1162 15.591C10.1873 15.633 10.6085 16.2375 10.6319 16.3072L12.7556 19.1126C12.9103 19.2465 13.0936 19.5134 13.2249 19.6876C13.3848 19.8965 13.5629 20.0572 13.6894 20.2795C13.6586 20.341 13.7371 20.3055 13.6179 20.3411C13.4732 20.481 13.3011 20.5867 13.1547 20.7094C13.0086 20.8324 12.8492 20.9529 12.6867 21.0682C12.5138 21.1934 11.8625 21.6935 11.6749 21.7069C11.6073 21.794 11.5041 21.81 11.375 21.8247L11.073 21.8113C11.0114 21.7918 11.0375 21.8026 11.0028 21.7732C10.7705 21.8026 10.6626 21.638 10.5643 21.4894C10.4954 21.3862 10.3272 21.1344 10.3112 21.0179C10.2167 20.9468 10.2228 20.8974 10.1552 20.7908C10.1015 20.7046 10.0802 20.663 10.0347 20.5746C9.9602 20.4234 9.86401 20.2847 9.80768 20.0954C9.72188 20.0291 8.49819 17.4703 8.41585 17.1769L8.35215 17.0677C8.25898 16.8623 8.19271 16.6955 8.10301 16.4866C7.98254 16.2076 7.93703 16.1192 7.95523 15.7643ZM6.85503 18.765C6.90746 18.6879 7.00364 18.6069 7.11154 18.5709C7.16571 18.7616 7.33255 19.0831 7.41748 19.2677C7.46904 19.3461 7.67401 19.786 7.70001 19.8778C7.81397 20.0854 7.91363 20.3289 8.02413 20.5278C8.14069 20.7388 8.24034 20.9542 8.34478 21.1578L8.42971 21.3238C8.30188 21.4083 8.10517 21.4196 7.95784 21.482C7.57479 21.5413 6.42474 21.8616 6.09584 21.7745L5.87702 21.82C5.79599 21.8247 5.72103 21.8247 5.6413 21.8308C5.44717 21.8286 5.07885 21.8373 4.95448 21.7242C4.62429 21.6211 4.28413 21.2354 4.45832 20.7662C4.52982 20.5707 4.64899 20.4936 4.80499 20.3744L6.85503 18.765Z" fill="#BE957D"/>
</svg>
