<svg width="29" height="26" viewBox="0 0 29 26" fill="none" xmlns="http://www.w3.org/2000/svg">
<path fill-rule="evenodd" clip-rule="evenodd" d="M9.46146 7.68245C9.36829 7.61745 9.25389 7.24909 9.20362 7.12863C9.09573 6.8682 8.9874 6.38809 9.0979 6.12116C9.18153 5.92227 10.0841 5.55397 10.303 5.48767C10.3606 5.47033 10.3814 5.47029 10.4416 5.45209C10.5439 5.42003 10.6483 5.39056 10.7502 5.35589C11.1163 5.23066 11.2979 5.2025 11.6688 5.1375C11.7624 5.12146 11.7451 5.102 11.8187 5.08857C11.8876 5.076 11.9024 5.09461 11.9773 5.08334C12.1047 5.06731 12.1342 5.01229 12.3075 5.04176C12.2525 5.18779 12.2412 5.14622 12.122 5.21988C11.9479 5.32561 11.7646 5.52191 11.5596 5.66057L10.4898 6.63987C10.433 6.6988 10.4481 6.67799 10.4035 6.72219L9.64692 7.53771C9.55116 7.64951 9.52689 7.67161 9.46146 7.68245ZM21.9659 5.16831C21.9451 5.17308 21.9485 5.17304 21.9169 5.18041L21.8614 5.19039C21.7462 5.20123 21.6673 5.16828 21.4636 5.30088C21.2756 5.42351 21.1096 5.93832 21.2166 6.13505C21.3982 6.4713 21.4719 6.55622 21.8775 6.63379C22.0161 6.66065 22.0434 6.63378 22.1479 6.59782C22.6769 6.41756 22.7445 5.79706 22.4954 5.41877C22.4425 5.33774 22.1847 5.17308 22.0703 5.15965L21.9659 5.16831ZM28.0163 7.42848L28.1407 6.96141C28.0852 6.87561 28.2451 6.59909 28.2278 6.18874C28.2217 6.03664 28.298 5.59688 28.2044 5.47425C28.1442 5.39408 27.4599 5.22247 27.2966 5.17697C27.2511 5.1644 27.1766 5.14489 27.1358 5.13016C27.1051 5.11889 27.089 5.11282 27.0609 5.09809C27.008 5.06992 27.0288 5.08465 26.9993 5.05042C26.9369 4.83896 27.2966 4.0516 27.2511 3.7825C27.1284 3.64384 26.7441 3.5087 26.5634 3.38823C26.4295 3.29853 25.8376 3.16111 25.8103 3.03588L24.0822 2.57271L24.038 2.63771C23.7026 2.55538 23.2004 2.41537 22.8368 2.41191C22.6119 2.40931 22.2913 2.28798 22.0642 2.30618L21.0225 2.29752C20.9007 2.30359 20.7889 2.27327 20.649 2.2841C20.5498 2.29276 20.5766 2.30011 20.4761 2.29534C20.3444 2.28884 20.288 2.33308 20.1541 2.31835C19.9266 2.29408 19.9721 2.35298 19.8053 2.34301C19.5865 2.33218 19.1861 2.35169 18.9833 2.41799L17.8692 2.60604C17.7968 2.62294 17.7847 2.60001 17.7132 2.61344C17.6014 2.63554 17.6595 2.65504 17.5711 2.67368L16.6412 2.90807C16.5428 2.9215 16.4765 2.97311 16.3781 3.00864L15.9362 3.14511C15.908 3.15638 15.8993 3.15506 15.8586 3.16719L15.4496 3.328L15.4326 3.33792L15.4166 3.3479C15.118 3.49046 15.0457 3.49915 14.6895 3.40946C14.4313 3.34403 14.1994 3.33924 13.9411 3.33534C13.7838 3.33317 13.7925 3.37264 13.6157 3.3514C13.5421 3.34317 13.4129 3.32062 13.3319 3.34532C13.1885 3.38735 13.1023 3.31322 12.8986 3.34182C12.8028 3.35655 12.815 3.34788 12.7214 3.34658C12.5693 3.34398 12.6321 3.38601 12.4033 3.38341C12.2967 3.38211 12.282 3.41161 12.2425 3.41898C12.1689 3.43241 12.1481 3.40942 12.0618 3.42632C11.9929 3.43975 12.025 3.45448 11.9305 3.46315C11.8456 3.47051 11.8434 3.4545 11.7498 3.47313C11.6701 3.48786 11.6714 3.49134 11.5817 3.49654L10.5326 3.763C10.4971 3.78033 10.228 3.8159 10.0759 3.87223L9.41987 4.11443C9.3709 4.13523 9.40253 4.12526 9.3475 4.14259L9.12868 4.23364C8.75905 4.38834 8.32788 4.61323 8.01849 4.86846L7.74681 5.23588C7.57348 5.60897 7.61768 5.26402 7.45085 5.93827C7.40535 6.12027 7.44477 6.12634 7.4374 6.2897C7.42613 6.51459 7.41748 6.7343 7.48768 6.93926C7.51585 7.02419 7.49506 7.02034 7.51109 7.10787C7.56742 7.41986 7.54531 7.28076 7.63371 7.56112C7.64974 7.60878 7.66319 7.66772 7.68052 7.71451L8.1264 8.67993C8.51466 9.40965 8.39288 9.08161 8.25292 9.40097C8.17665 9.57516 8.09087 9.66401 8.00854 9.84298C7.96564 9.93787 7.93356 9.96216 7.87723 10.0423C7.76023 10.207 7.81092 10.3249 7.64756 10.5103C7.51453 10.659 7.08727 11.7583 7.00884 11.9987C6.61539 13.2099 6.88581 13.1917 6.22499 13.0011C6.07376 12.9582 5.92166 12.9187 5.76913 12.881C4.99175 12.6817 4.88253 12.7713 4.52634 12.6877C4.31012 12.6374 4.34697 12.6904 4.16368 12.6817C4.04971 12.6756 3.86032 12.6214 3.74246 12.6314C3.56913 12.6448 3.59644 12.6648 3.36548 12.624C3.24502 12.7311 3.36072 12.683 3.16269 12.6756C2.96033 12.6669 3.09379 12.6977 2.96119 12.715C2.87886 12.7259 2.81517 12.6977 2.73413 12.7211C2.5868 12.7653 2.72199 12.7545 2.52916 12.7493C2.3606 12.7458 2.14222 12.8169 1.98969 12.8403L1.69979 12.9312C1.39386 13.037 1.45062 13.0452 1.32149 13.0968C1.25259 13.1228 1.2071 13.1276 1.12997 13.1609C0.619083 13.3746 0.502082 13.8252 0.414984 13.872L0.249023 14.4886C0.341321 14.7243 0.232141 14.7811 0.590499 15.2968C0.632531 15.3557 0.593075 15.3054 0.64594 15.3583C0.869535 15.5832 0.86824 15.6075 1.15467 15.8068L2.19119 16.325C2.31512 16.3814 2.43297 16.4074 2.53263 16.4897C2.59157 16.5387 3.23029 16.8372 3.33212 16.9369C3.49938 17.099 3.48336 17.0067 3.72775 17.2719C3.80401 17.3542 3.76717 17.3078 3.85903 17.3802C4.08176 17.5583 4.38508 18.0371 4.51378 18.2954L4.78157 19.048C4.80757 19.1598 4.79413 19.1256 4.8015 19.2461L4.886 19.7336C4.8899 19.7964 4.87257 19.8501 4.87387 19.9238C4.87647 20.0482 4.89121 20.14 4.87734 20.2826C4.86261 20.4412 4.9068 20.5036 4.88253 20.6622C4.87126 20.7324 4.84441 20.8069 4.83704 20.8736C4.81711 21.0673 4.91331 20.8597 4.79631 21.4395C4.76468 21.602 4.80021 21.6658 4.79631 21.8023C4.79414 21.8781 4.7742 21.931 4.76943 22.0025C4.76553 22.093 4.79501 22.1017 4.80497 22.1827C4.81494 22.2637 4.77813 22.4492 4.87519 22.6888C4.96229 22.9076 4.94366 22.899 5.09359 23.1299C5.27905 23.4159 5.28163 23.2071 5.27773 23.4086L6.43125 23.7184C6.47935 23.6066 6.46462 23.6543 6.58508 23.6309C6.75798 23.5979 6.91049 23.4861 7.06042 23.3938L7.98904 22.577C8.16453 22.35 8.52419 21.9175 8.65202 21.684C8.68885 21.6155 8.71616 21.5305 8.74432 21.4816C8.80455 21.3711 8.81321 21.4027 8.85828 21.3343L9.13995 20.8121C9.19498 20.6709 9.2344 20.5616 9.3033 20.4139C9.60402 19.7617 9.67293 19.0727 9.86446 18.6316C10.2267 18.7105 10.6912 18.8847 11.0253 18.9094C11.287 18.9276 11.6835 19.0238 12.1112 19.0641C12.321 19.0836 12.477 19.1243 12.6823 19.1612L13.4082 19.1417C13.6183 19.1551 13.5962 19.1048 13.8935 19.1291C14.1747 19.1525 14.0824 18.9501 14.4438 19.6109L15.7923 21.2112C15.8833 21.2862 16.0038 21.3204 16.0896 21.3819C16.2334 21.4829 16.1533 21.4777 16.3834 21.5453C16.7985 21.6671 17.1408 21.7714 17.5637 21.6705L17.926 21.554C18.137 21.4742 18.5894 21.1856 18.7857 21.0049C18.9382 20.865 19.1098 20.7813 19.2537 20.6401C19.336 20.5603 19.4209 20.511 19.4859 20.452C19.5314 20.4104 19.5475 20.3809 19.5999 20.3341L20.6529 19.2006C20.7266 19.0961 20.8739 18.9991 20.9515 18.8405C21.0754 18.5801 21.0325 18.7716 21.143 18.5974C21.1651 18.5618 21.1664 18.5419 21.1846 18.5125C21.2327 18.4414 21.2695 18.444 21.3284 18.3123C21.4242 18.0952 21.4342 18.2755 21.5213 18.0731C21.5689 17.9622 21.52 17.9955 21.6036 17.9097C21.6552 17.8556 21.6612 17.8737 21.6994 17.7988L22.0187 17.164C22.0556 17.0769 22.0495 17.0608 22.1023 17.0041C22.2939 16.8004 22.3112 16.3433 22.4499 16.1556C22.4841 16.1075 22.6132 16.0239 22.6869 15.9797C22.9153 15.8397 23.0946 15.659 23.3022 15.4749L23.72 15.1078C23.9162 14.8682 24.1532 14.6728 24.3621 14.4444L24.5649 14.2048C24.6091 14.1585 24.597 14.1879 24.6659 14.1043C24.7504 13.9998 24.7075 14.0575 24.7811 13.9925L24.9814 13.7542C25.0195 13.6978 25.0255 13.6658 25.0637 13.6155L25.4641 13.1314C25.5819 13.0391 25.7085 12.6756 25.8155 12.5604C25.932 12.4338 26.0846 12.1855 26.1778 12.0174C26.2514 11.8835 26.2857 11.8922 26.3511 11.7189C26.4196 11.5395 26.4616 11.5849 26.5279 11.4423C26.5608 11.3713 26.566 11.3271 26.6063 11.2595L27.0093 10.509C27.0647 10.3885 27.0916 10.2693 27.1445 10.1502C27.2008 10.0262 27.2363 10.0211 27.3031 9.84946C27.3408 9.75456 27.3755 9.57303 27.4599 9.50153L28.0163 7.42848ZM7.31564 20.7397L6.48151 21.807C6.38964 21.742 6.44382 21.4461 6.46808 21.313C6.50492 21.1167 6.47197 20.9594 6.50144 20.7765C6.59244 20.215 6.49536 20.5014 6.5309 20.2358L6.5101 19.7102L6.44858 19.0125L6.176 17.9895C6.12443 17.843 6.06422 17.745 5.99533 17.5977C5.93639 17.472 5.87486 17.3629 5.79773 17.235C5.5984 16.907 5.34058 16.595 5.07755 16.3116C4.90812 16.1283 4.72525 15.9368 4.50036 15.8055C4.37253 15.7306 4.43796 15.7405 4.35043 15.6677C4.21047 15.5498 3.51281 15.1716 3.32865 15.055C3.19085 14.9679 2.9885 14.9531 2.84723 14.8535C2.75233 14.7859 2.81171 14.7872 2.65658 14.7382C2.50188 14.6888 2.30775 14.6225 2.20461 14.5354C2.24015 14.3426 2.30903 14.4518 2.50186 14.399C2.57335 14.3795 2.761 14.3145 2.8065 14.3145L3.50936 14.2711C3.67878 14.2858 3.72512 14.2282 3.88025 14.2542C4.10472 14.2924 4.07051 14.291 4.25727 14.2676C4.34697 14.2564 4.89336 14.3768 5.06062 14.3941C5.79511 14.4739 6.06291 14.6533 6.64747 14.8816C6.96682 15.0069 7.23202 15.1469 7.49158 15.3102C7.53795 15.3397 7.59688 15.3631 7.66578 15.3925C7.78494 15.4441 7.79967 15.4996 7.8807 15.5364C8.03929 15.6075 7.74075 15.5022 7.92361 15.5477L7.94702 15.5485C7.96912 15.523 7.99379 15.5511 8.01849 15.4406L8.11427 14.3365C8.13117 14.1953 8.15845 14.0835 8.19659 13.9262C8.23428 13.765 8.22217 13.6632 8.25553 13.5124C8.31663 13.2394 8.39679 12.8576 8.50209 12.6045C8.54412 12.5023 8.54541 12.5542 8.58831 12.4498C8.67194 12.247 8.68408 12.0001 8.78981 11.8098C8.85741 11.6855 8.92589 11.601 8.97399 11.4623L9.30548 10.74C9.45931 10.5445 9.38562 10.671 9.50695 10.4301C9.56588 10.3136 9.55637 10.3985 9.62484 10.2793C9.66817 10.2069 9.66079 10.187 9.71106 10.1133C9.76869 10.0284 9.85104 9.83215 9.90737 9.78188C9.9468 9.74635 9.98013 9.73895 10.0204 9.66485C10.0685 9.58165 10.0438 9.57518 10.1075 9.49935L10.449 9.07559C10.5292 8.97853 10.5976 8.86931 10.6778 8.81124L10.901 8.56944C10.9269 8.53521 10.9257 8.52265 10.9491 8.49189C11.0119 8.40955 10.9456 8.48972 11.008 8.43555L11.0782 8.36315C11.1063 8.32632 11.0951 8.32848 11.1285 8.29035L11.3716 8.04597C11.4084 8.01304 11.4478 7.96627 11.4847 7.92597C11.6615 7.73184 11.8001 7.64086 11.9708 7.4749L12.2204 7.23521C12.3938 7.03415 13.0164 6.58094 13.2608 6.40891C13.3666 6.33395 13.4168 6.30058 13.5174 6.22345L15.1965 5.20639C15.4803 5.05776 15.6745 5.02313 15.8131 4.93993L16.7283 4.5612C16.7764 4.5443 16.8561 4.52224 16.9016 4.50751L17.0589 4.45719C17.1876 4.39176 17.2418 4.38314 17.3791 4.35887C17.5932 4.32074 17.442 4.31075 17.8965 4.26048C17.9776 4.25052 17.9542 4.23105 18.0499 4.21242L18.9317 4.085C19.0141 4.07027 18.9283 4.09104 19.0006 4.06027C19.0916 4.02084 19.1653 4.04903 19.2784 4.02477L19.6246 3.96195C19.7117 3.94722 19.7303 3.97062 19.8174 3.97062C19.9232 3.97192 19.8972 3.94372 19.9981 3.93722C20.0718 3.93246 20.1173 3.95455 20.1862 3.94589C20.2399 3.93852 20.2473 3.91036 20.3444 3.90906C20.4206 3.90906 20.4674 3.93244 20.5411 3.93114C20.6013 3.93114 20.6576 3.91036 20.7313 3.90906C20.805 3.90776 20.8518 3.92378 20.9268 3.92638C21.0494 3.93115 21.1369 3.88478 21.289 3.90688C21.5039 3.93721 21.4918 3.893 21.6747 3.90774C21.8333 3.919 21.9082 3.95455 22.0677 3.95455C22.1894 3.95585 22.3541 3.96064 22.4694 3.98794C22.7372 4.04817 22.6808 3.99009 22.8576 3.99746C23.2324 4.01133 23.7529 4.22975 24.1385 4.25314C24.4089 4.26918 24.7014 4.39915 24.9532 4.50619C25.1889 4.60672 25.3939 4.53177 25.3141 4.82687L25.0832 5.8018C25.0242 6.04143 24.8869 6.20351 25.1568 6.28844C25.4762 6.38811 25.8397 6.46524 26.1483 6.57964C26.6284 6.75903 26.5326 6.60305 26.4564 7.13603C26.3619 7.79295 26.2232 7.92468 26.0941 8.37274C26.0118 8.66046 25.9442 8.98199 25.8042 9.20558L25.292 10.3257C25.1863 10.4696 25.1854 10.4891 25.1053 10.6663C25.0537 10.7816 25.0463 10.7495 24.9948 10.8258C24.9163 10.9423 24.9016 11.0627 24.8058 11.1685C24.7148 11.2681 24.7123 11.3687 24.6057 11.4917C24.5099 11.6009 24.5467 11.6192 24.3916 11.7817C24.3266 11.8501 24.3526 11.8488 24.2997 11.9351C24.2482 12.0187 24.2148 12.0195 24.1767 12.0724L23.8599 12.5109C23.6671 12.4741 23.7186 12.4425 23.5739 12.3723C23.4621 12.3194 23.3659 12.3094 23.2667 12.2531C23.1683 12.1976 23.1046 12.1365 22.9976 12.0945C22.8121 12.0221 22.8611 12.0577 22.7337 11.9472C22.6254 11.8553 22.5261 11.8701 22.4525 11.7912C22.348 11.6794 22.504 11.7816 22.3576 11.6919L22.1292 11.5295C22.0737 11.494 22.0582 11.4991 22.0066 11.4597L20.8089 10.3149C20.6247 10.1246 20.493 9.92441 20.3322 9.70558C20.126 9.42565 19.9487 9.1111 19.7927 8.79174L19.3261 7.70453C19.304 7.61483 19.2992 7.64082 19.2784 7.56846L19.1172 6.90633C19.1051 6.76507 19.05 6.63984 19.024 6.48991L18.9517 5.94217C18.9296 5.82388 18.9577 5.7663 18.9443 5.66447C18.868 5.52451 18.4711 5.65445 18.3298 5.64232C18.1088 5.62369 17.4901 5.64709 17.3167 5.73072C17.26 5.93828 17.3783 6.49602 17.4051 6.74778C17.4233 6.91591 17.4849 7.05107 17.4974 7.21703C17.5057 7.33489 17.5425 7.33618 17.5672 7.46531L17.5711 7.48746L17.5772 7.50822L17.6201 7.6642C17.63 7.711 17.6287 7.70973 17.6422 7.74526C17.6569 7.78556 17.6543 7.76476 17.6729 7.81416C17.6851 7.84362 17.7011 7.9173 17.7098 7.95023L18.0057 8.82599C18.1067 9.11502 18.2761 9.39362 18.4061 9.66141C18.5868 10.0336 18.8386 10.321 19.0374 10.6771C19.2121 10.9878 19.476 11.2483 19.6961 11.5234C19.8248 11.6868 20.0436 11.8319 20.1368 11.9719L20.5888 12.3896C20.6971 12.4619 20.6356 12.4338 20.7092 12.5022C20.7634 12.5516 20.7902 12.5542 20.8492 12.6032C20.8973 12.6435 20.9073 12.6648 20.9588 12.699C21.0386 12.7545 21.0333 12.7285 21.1022 12.7987C21.2522 12.9521 21.52 13.0686 21.6305 13.1718C21.7778 13.3117 21.8441 13.2714 22.0469 13.4508L22.6093 13.7394C22.7632 13.8191 22.5972 13.8967 22.5383 13.9509C22.4893 13.9951 22.5027 14.0033 22.4572 14.0475C22.4078 14.0969 22.4104 14.0822 22.3784 14.1078C22.1747 14.2724 22.0863 14.4236 21.8614 14.5536C21.7349 14.6273 21.546 14.8227 21.3432 14.948L21.0433 15.1755L21.026 15.1862L21.0104 15.1962L19.8556 15.8657C19.4478 16.0819 18.5756 16.4676 18.0768 16.637L18.0573 16.6431C17.7713 16.7328 17.4827 16.8607 17.1841 16.9343C17.1261 16.9478 17.0281 16.9798 16.974 17.0019C16.7604 17.089 16.5207 17.1172 16.301 17.1726C16.21 17.1947 16.2971 17.1821 16.1766 17.1947C16.1177 17.2021 16.1437 17.1895 16.0761 17.2142L15.349 17.375C15.2936 17.3997 15.2862 17.4257 15.2112 17.4205L14.4473 17.4551C14.3121 17.4733 14.371 17.4933 14.2224 17.4933C14.1032 17.492 14.0863 17.5067 13.984 17.5128C13.8883 17.5176 13.8146 17.4894 13.7275 17.5041C13.5828 17.5301 13.6994 17.5535 13.494 17.5236L13.2595 17.5496C13.0251 17.5778 12.4133 17.4058 12.1923 17.4721C12.0458 17.5163 12.2156 17.5067 12.0817 17.4994L10.4984 17.121L9.41858 16.7302C9.21708 16.6123 9.1473 16.5989 8.90377 16.5192C8.73824 16.4637 8.82796 16.4723 8.69883 16.3948C8.62127 16.3471 8.49862 16.3164 8.39766 16.2869L8.37468 16.8767C8.40024 17.0929 8.3487 17.2095 8.36473 17.4058C8.40286 17.8347 8.1914 18.7655 8.00464 19.2101C7.95957 19.3197 7.94829 19.4008 7.89412 19.4918C7.80702 19.6378 7.75289 19.8627 7.68442 20.0295C7.62419 20.1756 7.59948 20.1413 7.54402 20.2579C7.49895 20.3502 7.48507 20.4646 7.43221 20.5478C7.38714 20.6214 7.33557 20.634 7.31564 20.7397ZM18.8251 18.837L18.1275 19.4705C18.0031 19.5763 17.8805 19.6525 17.7453 19.7522C17.5845 19.8701 17.5243 19.9238 17.3709 20.0061C17.1755 20.1105 17.0918 20.1379 16.8869 19.9706C16.8019 19.9017 16.6399 19.8687 16.5095 19.6673C16.4128 19.5199 16.3894 19.6044 16.1901 19.3072C16.0393 19.0836 15.9457 19.048 15.9704 18.9141L16.3378 18.8431C16.4015 18.8318 16.4484 18.8136 16.5181 18.8023L18.6041 18.1784C18.7255 18.1428 18.6678 18.132 18.7454 18.1429L18.8052 18.096L18.8238 18.0839L19.2844 17.8984C19.3668 17.8737 19.4639 17.8174 19.5484 17.7706L19.674 17.7095C19.7732 17.6714 19.8235 17.713 19.7771 17.8187C19.7316 17.9245 19.6393 17.966 19.6038 18.0115L19.1098 18.5874C19.024 18.6897 18.9023 18.8405 18.8251 18.837Z" fill="#BE957D"/>
</svg>
