<svg width="27" height="26" viewBox="0 0 27 26" fill="none" xmlns="http://www.w3.org/2000/svg">
<path d="M21.1045 5.40918L21.085 5.43047C21.1942 5.44867 21.2951 5.51235 21.3562 5.61461C21.5924 5.81697 21.8342 6.02972 22.0383 6.26285C22.29 6.54061 22.5366 6.85519 22.7641 7.17801C23.0037 7.51817 23.226 7.87437 23.4136 8.21583C23.9566 9.34984 24.0757 9.64318 24.2551 10.8288C24.2759 10.9024 24.2751 10.9822 24.2491 11.0585C24.243 11.1001 24.2773 11.5351 24.2725 11.659C24.2994 11.7474 24.2959 11.8458 24.2551 11.9368L24.1936 12.3593C24.1607 12.5851 24.1252 12.8199 24.0944 12.9365C24.0095 13.2016 23.9371 13.424 23.83 13.6822C23.7924 13.7728 23.7469 13.875 23.7443 13.9058C23.7356 14.0124 23.684 14.1155 23.5956 14.1844C23.4778 14.5246 23.1792 14.9228 22.9898 15.2322L22.8044 15.4813C22.7749 15.5294 22.7359 15.5711 22.6852 15.6031C22.479 15.8449 22.2493 16.0884 22.0565 16.3389C22.0244 16.3818 21.9815 16.4173 21.9313 16.4446C21.5209 16.8156 21.1686 17.1375 20.7175 17.475C20.6759 17.5045 20.6378 17.4998 20.6257 17.5232C20.5763 17.615 20.4905 17.6865 20.3834 17.716L19.1788 18.4981C18.6124 18.8248 18.0595 19.11 17.4923 19.3691C16.9259 19.6295 16.3548 19.8605 15.7516 20.0815C15.5822 20.1244 15.3439 20.2193 15.1805 20.2769C15.1177 20.3211 15.0414 20.348 14.9604 20.3506C14.6865 20.4243 14.3932 20.5274 14.118 20.611C14.0677 20.6505 14.0075 20.6786 13.9412 20.6908L13.8034 20.7154L12.3418 21.1379C12.0077 21.2289 11.3872 21.401 11.3014 21.4547C11.2338 21.5002 11.1541 21.5249 11.0717 21.5236L10.5461 21.7117C10.4846 21.7606 10.4083 21.7927 10.326 21.7975L10.1466 21.8763C9.9035 21.9734 9.66042 22.1181 9.42209 22.2594C9.20976 22.3846 8.99698 22.5112 8.75735 22.6204L8.72919 22.6342C8.42239 22.769 8.15073 22.8131 7.89767 22.8071C7.65587 22.801 7.44439 22.7495 7.23683 22.6906C6.98767 22.6204 6.75542 22.4791 6.55262 22.2876C6.34766 22.0934 6.16568 21.8504 6.01358 21.58L3.2546 16.8117C2.90448 16.2163 2.3741 15.3158 2.2831 14.9865C2.21421 14.7347 2.2168 14.5593 2.2194 14.4202L2.21679 14.327C2.20682 14.2716 2.20813 14.2126 2.22416 14.155L2.24628 14.0566C2.26361 13.9647 2.27964 13.8858 2.32383 13.7766L2.41961 13.5422C2.43434 13.4326 2.49455 13.3295 2.59248 13.2658L2.65404 13.1822C2.7498 13.0656 2.86547 12.923 3.0128 12.8125C3.18093 12.686 3.38722 12.5703 3.57181 12.4671L3.72997 12.3788C3.91197 12.2744 4.03113 12.1846 4.1217 12.0889C4.21876 11.987 4.30627 11.8566 4.41547 11.685L4.44496 11.6404C4.46099 11.5953 4.48438 11.552 4.51861 11.5143C4.55415 11.4722 4.61222 11.3717 4.66725 11.2612C4.73745 11.1208 4.79983 10.9774 4.81847 10.9085L4.87004 10.7967C5.08237 10.4747 5.37701 9.27964 5.52347 8.69249C5.6474 8.19373 5.7358 7.66943 5.83026 7.16201C5.81943 7.08358 5.83416 7.00126 5.8749 6.9263L5.95464 6.34517C6.0088 5.92268 6.06991 5.44991 6.16827 5.21895C6.32167 4.85799 6.50972 4.53609 6.75541 4.25486C7.00111 3.97363 7.30314 3.7314 7.68403 3.5325L7.70135 3.52384C7.88292 3.42938 8.0723 3.35787 8.26122 3.30631C8.45275 3.25734 8.64341 3.22523 8.83624 3.2105L9.13956 3.1984C9.21799 3.18497 9.30032 3.19366 9.37399 3.22789C9.59671 3.24002 9.78564 3.29806 9.9971 3.36912C10.0729 3.39859 9.98324 3.4883 10.0768 3.4636C10.1761 3.43804 10.2857 3.45018 10.3789 3.50652L10.7645 3.74005C10.8113 3.76605 10.8542 3.80285 10.8889 3.84921L10.9734 3.92201C11.207 4.12568 11.6121 4.4806 11.8651 5.14662L11.9917 5.56046C12.0164 5.60466 12.0324 5.65491 12.0372 5.70778L12.0693 6.00763C12.0961 6.22992 12.0788 6.48168 12.0471 6.72C13.1365 5.99029 14.1054 5.36632 15.4275 4.86627C15.6398 4.78307 15.8608 4.72631 16.0784 4.63921C16.4185 4.56815 16.6924 4.49316 17.039 4.44767C17.1075 4.40953 17.1885 4.39351 17.2709 4.40218C17.3372 4.41084 17.7722 4.37875 17.8706 4.37745C18.1774 4.37138 18.4564 4.36666 18.8334 4.43642C19.2217 4.50056 19.5211 4.58028 19.8825 4.73628C20.0875 4.81861 20.3639 4.92779 20.6954 5.13405L20.7851 5.19211C20.8466 5.23371 20.8358 5.2753 20.8882 5.28527C20.9571 5.3026 21.0234 5.33427 21.0789 5.38584L21.1045 5.40918ZM15.6129 6.57613C15.593 6.58003 15.5588 6.58739 15.4383 6.65368L15.3855 6.67927C14.8377 6.90157 14.1943 7.3024 13.6266 7.656L12.6465 8.29213C12.149 8.62753 11.5285 9.04782 11.223 9.19645C11.1441 9.22679 11.116 9.24674 11.0375 9.25411C10.804 9.26754 10.7216 9.23413 10.638 9.19123C10.4894 9.16783 10.3689 9.0699 10.3199 8.93687L10.2168 8.79345C10.186 8.74925 10.1626 8.69637 10.1518 8.63873L10.1444 8.59933C10.0929 8.49489 10.089 8.36964 10.1405 8.25914L10.1592 8.13391C10.1531 8.06631 10.1613 8.00609 10.1826 7.95062L10.2376 7.66598C10.3152 7.16939 10.4343 6.40411 10.4196 6.18701L10.417 6.16579C10.3862 5.79876 10.2008 5.47942 9.98715 5.25452C9.80905 5.06776 9.63962 4.95377 9.55469 4.94727L9.51654 4.94991C9.44158 4.94645 9.36922 4.92779 9.30552 4.8875C9.27475 4.86886 9.21799 4.85803 9.15169 4.85543C9.04856 4.85066 8.92722 4.86753 8.81412 4.89569C8.62866 4.95376 8.47396 5.02139 8.34093 5.10589C8.20833 5.18822 8.08833 5.29392 7.96656 5.43258L7.95658 5.44257C7.87945 5.5236 7.81662 5.62329 7.76982 5.72252C7.71219 5.84038 7.67667 5.95737 7.65934 6.0553L7.54277 7.0186C7.5354 7.07147 7.52067 7.12042 7.49381 7.16592C7.46651 7.78513 7.17055 8.96288 6.99635 9.6263C6.91142 9.95172 6.78011 10.4466 6.69042 10.6836C6.60419 10.9406 6.46814 11.4207 6.32904 11.6703L6.2935 11.6564C6.30347 11.7461 6.28351 11.8397 6.23108 11.9195C6.15612 12.0547 6.03437 12.2401 5.99018 12.3848C6.26144 12.8407 6.50712 13.628 6.77145 14.1562C6.94218 14.5159 7.13025 14.8808 7.32394 15.2469C7.5809 15.7089 7.83267 16.1864 8.10783 16.6374C8.49955 17.2762 8.86699 17.8729 9.29078 18.5033C9.49574 18.808 9.70201 19.0905 9.90741 19.3557L10.4096 19.9931C10.9955 19.7894 11.4856 19.637 12.0593 19.4688C12.2694 19.4134 12.5234 19.3457 12.5654 19.3223C12.6391 19.2686 12.7314 19.24 12.8258 19.2474L14.2874 18.8088C14.355 18.7572 14.44 18.727 14.5284 18.727L14.7286 18.6581C15.6004 18.3976 16.571 17.9994 17.507 17.5193C18.3997 17.0613 19.2585 16.5257 19.9648 15.9641L20.0407 15.9091C20.0875 15.8302 20.1624 15.7678 20.256 15.737C20.2963 15.7236 20.5065 15.5195 20.6525 15.3761L20.7764 15.2543C20.8956 15.1351 21.2028 14.8184 21.4164 14.5592L21.5911 14.3539C21.6084 14.2494 21.6674 14.1524 21.7618 14.09L21.9473 13.7854C22.0872 13.5397 22.2198 13.2745 22.2324 13.2164C22.2432 13.1687 22.2627 13.1219 22.2922 13.079L22.339 12.956C22.3438 12.907 22.3598 12.858 22.3858 12.8125C22.3906 12.7584 22.4053 12.7042 22.4335 12.6539L22.479 12.5287L22.5219 12.2865C22.5197 12.218 22.5344 12.1491 22.57 12.0854L22.5821 11.9663C22.5821 11.9134 22.5921 11.8592 22.6129 11.8077C22.6302 11.7669 22.6315 11.4991 22.6202 11.2131C22.6107 10.9735 22.5895 10.7452 22.5626 10.6615C22.5331 10.6026 22.5171 10.5349 22.5219 10.4665L22.5158 10.4444C22.3698 9.81651 22.0786 9.17174 21.7076 8.57592C21.3072 7.93373 20.8124 7.34662 20.3024 6.89813L20.2855 6.88074C20.2413 6.83654 20.1516 6.75685 20.068 6.69792L20.0766 6.6845C19.9609 6.66846 19.8491 6.60822 19.7806 6.50379L19.5718 6.39807C19.3283 6.2815 19.0263 6.17097 18.9045 6.13544C18.8005 6.10597 18.4958 6.05053 18.2242 6.02713L17.9356 6.01239C17.8385 6.05052 17.7267 6.0505 17.6249 6.00241C17.6062 5.99417 17.4555 6.04444 17.3003 6.0713L17.0499 6.10945C16.8852 6.14759 16.4922 6.24728 16.1654 6.35258L15.8487 6.46954C15.7872 6.52717 15.7061 6.56659 15.6129 6.57613ZM7.89895 21.1995C7.92105 21.2203 7.8916 21.1848 7.88163 21.1674L7.89895 21.1995ZM7.17531 18.3079L7.08476 18.1567C6.677 17.5032 6.03567 16.3857 5.49748 15.3245C5.20282 14.7447 4.93373 14.1758 4.74567 13.697L4.41894 13.8932C4.26944 13.9742 4.0606 14.0899 4.03244 14.1194C3.993 14.1562 3.92148 14.2187 3.89851 14.2655L3.88466 14.2581C3.90329 14.3651 3.87859 14.4782 3.80753 14.5688C3.79496 14.5835 4.22526 15.2088 4.46099 15.5871C5.3025 16.8779 6.09721 18.3781 6.86246 19.74C7.11032 20.1898 7.50939 20.9035 7.65715 21.0595L7.71696 21.0998C7.76636 21.1119 7.81403 21.1332 7.85736 21.1648L7.87945 21.16C8.00815 21.1353 8.17542 21.0496 8.27379 20.9928L8.83971 20.6686L8.13123 19.7353C7.81317 19.2647 7.47517 18.788 7.17531 18.3079Z" fill="#BE957D"/>
</svg>
