<svg width="27" height="26" viewBox="0 0 27 26" fill="none" xmlns="http://www.w3.org/2000/svg">
<path fill-rule="evenodd" clip-rule="evenodd" d="M15.2327 5.25784L15.5542 5.19893L15.6158 5.22101C15.7007 5.25264 15.9317 5.24312 16.1232 5.23575L20.4616 5.22967C20.6839 5.22967 20.9088 5.24181 21.1298 5.28124C21.3556 5.32024 21.5805 5.39305 21.804 5.51091L22.0008 5.6409C22.0706 5.69247 22.1468 5.74794 22.1984 5.76874C22.3323 5.82638 22.4783 6.03393 22.5658 6.16176C22.6382 6.26229 22.7535 6.42089 22.8839 6.71469C22.9302 6.81998 22.9662 6.93785 22.9892 7.04965C23.0165 7.18355 23.0325 7.31873 23.036 7.42706C23.0434 7.67622 23.0239 7.90111 22.9597 8.13077C22.896 8.35913 22.7842 8.59139 22.6135 8.85918C22.5866 8.90685 22.1676 9.32977 22.1174 9.36011C21.964 9.46107 21.8067 9.53821 21.652 9.59758L21.3547 9.69811C21.3569 9.83331 21.3803 10.1635 21.3508 10.2705C21.33 10.3468 21.3127 10.833 21.3114 11.3109C21.3079 11.7655 21.314 12.204 21.3335 12.2629L21.3508 12.3167L21.3361 12.3721C21.3066 12.49 21.3127 12.6486 21.3187 12.8094V13.6127L21.3668 13.6851C21.2992 13.9663 21.3595 14.0547 21.3408 14.3217L21.8582 14.329L22.0203 14.4556C22.1234 14.534 22.1642 14.5634 22.2954 14.7441L22.331 14.7931L22.3518 15.5817L22.3544 16.4306C22.3544 16.6993 22.3531 16.8566 22.2768 17.1638C22.2083 17.4477 22.0792 17.6292 21.9869 17.7583C21.97 17.783 21.9046 17.7263 21.8972 17.7315C22.1862 17.939 22.3617 18.0777 22.519 18.2363C22.6824 18.4005 22.8211 18.5851 23.0434 18.8945C23.0828 18.9487 23.1136 19.0466 23.1404 19.1094C23.2817 19.4401 23.3848 19.678 23.4364 20.0393C23.4658 20.2443 23.4624 20.4519 23.4585 20.646C23.455 20.8215 23.4498 20.9887 23.4732 21.1153C23.5568 21.5464 23.4637 22.9885 23.4624 23.5189C23.4658 24.3396 23.2106 24.4709 22.5004 24.4735L21.3005 24.4614C19.8043 24.4709 13.3495 24.513 13.1138 24.3999C12.6445 24.1737 12.6653 23.7009 12.6787 23.3629C12.7108 22.3017 12.6358 21.2392 12.7147 20.178L12.6813 20.103L12.7095 20.0268C12.7454 19.9349 12.7823 19.7837 12.8139 19.6524L12.8507 19.5072C12.9404 19.2507 13.0193 19.1055 13.1224 18.9153C13.2061 18.7606 13.2095 18.7346 13.3127 18.6146C13.6052 18.2666 13.8014 18.0361 14.1884 17.7878C13.7733 17.1452 13.788 16.6625 13.8053 16.1282L13.8067 15.6368C13.7941 15.3395 13.7746 14.9036 13.9184 14.674C14.1529 14.2957 14.5424 14.2983 14.8566 14.3117C14.8726 13.1079 14.8713 11.9115 14.8679 10.7078L14.8492 9.69203L14.7561 9.66604C14.649 9.63788 14.5312 9.60712 14.3925 9.53952C14.2833 9.48666 14.175 9.42165 14.0744 9.35058C13.9713 9.27692 13.8691 9.19069 13.7781 9.10359C13.7057 9.036 13.5536 8.8098 13.4895 8.71924C13.255 8.36305 13.1372 7.88247 13.1567 7.41232C13.1753 6.96773 13.3187 6.52403 13.5978 6.19254C13.8716 5.85715 14.1984 5.55857 14.6087 5.40647C14.7166 5.36444 14.8102 5.32762 14.9684 5.29599L15.2327 5.25784ZM21.5844 7.25244C21.5289 7.09384 21.4197 6.94563 21.255 6.83859C20.9872 6.66397 20.7749 6.67394 20.5353 6.68391C19.0477 6.72421 17.4461 6.71816 15.9572 6.68609C15.7007 6.68002 15.3627 6.67266 15.202 6.71816C14.987 6.77969 14.8271 6.90837 14.7288 7.06436C14.6638 7.16792 14.6235 7.28451 14.6074 7.40498C14.5914 7.52501 14.6013 7.65283 14.6343 7.76983C14.6897 7.96136 14.8137 8.13684 15.0017 8.256C15.2791 8.43063 16.0998 8.4107 16.6388 8.39727C17.1623 8.38644 17.6844 8.40333 18.2075 8.41069C18.9779 8.41936 20.8386 8.44277 21.0362 8.37257C21.2342 8.30411 21.3876 8.17627 21.4873 8.02158C21.561 7.90848 21.6086 7.77588 21.6247 7.64545C21.6394 7.51286 21.626 7.37637 21.5844 7.25244ZM17.5098 9.81858C17.0826 9.81338 16.5492 9.80515 16.2961 9.82595C16.3048 10.0075 16.2974 10.2519 16.2926 10.4694L16.2805 14.313L18.097 14.3299L19.9113 14.313C19.9052 13.5343 19.8645 12.7049 19.9 11.931C19.9087 11.7776 19.9161 11.6389 19.9026 11.4864C19.9026 11.0444 19.8831 10.5704 19.9126 10.1319C19.92 10.0261 19.9273 9.91302 19.9139 9.81726L19.4715 9.81468C19.0096 9.80991 18.5234 9.80602 18.1043 9.82205L17.5098 9.81858ZM18.3622 15.7499C17.9605 15.7551 15.6895 15.8335 15.4919 15.7733C15.4329 15.7573 15.3679 15.7464 15.3025 15.7464L15.2548 15.7477L15.2522 16.0571C15.2414 16.5312 15.2275 17.1331 15.7397 17.2093L17.7802 17.198C18.1854 17.1772 18.6534 17.1885 19.1079 17.1994L19.9321 17.2106C20.2996 17.2141 20.917 17.2188 20.9478 16.6356L20.9504 16.584C20.9591 16.4233 20.9651 16.3136 20.9578 16.1269L20.9625 16.0753C20.9786 16.0056 20.9812 15.9206 20.9812 15.8348L20.9825 15.7573L19.8082 15.7538C19.6422 15.7659 19.4983 15.7599 19.3536 15.7525L18.8388 15.7512C18.6889 15.7572 18.5429 15.7646 18.3622 15.7499ZM5.27453 5.80081L5.3716 4.84142C5.48946 3.73688 5.6654 2.1206 6.48568 1.71415C6.60355 1.65522 6.71664 1.62316 6.8137 1.59629L7.01864 1.5187C7.39606 1.5187 7.35187 1.49185 7.66473 1.58892C7.76699 1.61448 7.8736 1.64264 7.99883 1.70678L8.24972 1.86279L8.45208 2.0348C8.58728 2.16133 8.70166 2.32338 8.7853 2.51231C8.86243 2.69171 8.91531 2.89581 8.93264 3.1142C8.96688 3.61555 9.02449 4.12254 9.07996 4.62259L9.31571 6.82735C9.57007 6.82735 9.80449 6.82387 10.0562 6.83731L10.1091 6.93437C10.1303 6.9712 10.087 6.95518 10.103 6.96125C10.1472 6.97988 10.1988 7.00067 10.2885 7.11246C10.3587 7.19479 10.4397 7.34949 10.5013 7.45652L10.4852 7.5315C10.4324 7.76723 10.4471 8.31018 10.4579 8.71534L10.4605 8.83971C10.9017 8.84794 11.146 8.89949 11.3033 9.08495C11.4754 9.29034 11.4788 9.59367 11.4788 10.1353V23.6701C11.4602 24.1555 11.2799 24.2673 11.065 24.3999L10.9311 24.4844H3.54643L3.49099 24.4402C3.20629 24.2239 3.08581 24.1282 3.02818 23.9098C2.99135 23.7685 2.99481 23.5999 3.00087 23.314C3.02904 20.8757 3.01344 18.4265 3.00477 15.9856C2.99134 13.9052 2.96535 9.60842 3.07238 9.24486L3.09665 9.16512L3.16687 9.12568L3.22102 9.07543C3.30942 8.9463 3.38439 8.83711 4.01575 8.83581L4.00966 8.49909C3.9997 8.11734 3.98842 7.69356 4.03912 7.4431C4.10282 7.10987 4.30044 6.94781 4.56953 6.87284C4.74893 6.82388 4.95301 6.8191 5.16881 6.82646L5.27453 5.80081ZM7.22536 3.01367C7.1738 3.01843 7.1231 3.03795 7.09233 3.06785C6.9944 3.16968 6.73395 6.00838 6.65898 6.82735L7.81466 6.83383L7.45979 3.28882L7.36663 3.04659L7.31592 3.02104L7.22536 3.01367ZM8.97813 8.66896L8.97555 7.99083L8.97423 7.97219L8.9621 7.9709C8.94477 8.019 8.91269 8.15766 8.8698 8.16502L8.1232 8.16023L5.51025 8.18364V8.84186L8.97946 8.84057L8.97813 8.66896ZM9.99383 12.2417L9.98996 10.3208L4.49326 10.3295L4.49974 13.8463L9.98907 13.8437L9.99383 12.2417ZM9.99383 17.5395V16.2265L9.97651 15.3335L4.49584 15.3421L4.4885 17.978L9.98907 17.9746L9.99383 17.5395ZM9.98996 22.9898L9.98259 19.4621L4.49237 19.4756L4.48979 22.9873L9.98996 22.9898ZM14.1394 22.992L15.7055 23.0067L16.2055 22.9834L18.237 23.0054L18.7431 22.9846L19.2258 23.0033C19.5993 22.9799 19.9997 22.9899 20.378 22.9994L20.7441 23.0067C21.1948 22.9833 21.6012 22.9907 22.0558 22.9959C22.0597 22.3264 22.0523 21.6496 22.0671 20.9827C22.0818 20.4866 22.0953 19.9202 21.7378 19.4201L21.6064 19.2641C21.5228 19.1623 21.4665 19.0921 21.3018 18.9816C20.7355 18.6228 20.3277 18.628 19.8316 18.6328C18.672 18.6501 17.4843 18.6427 16.3247 18.6328C15.8836 18.628 15.5239 18.6241 15.0104 18.9166L14.9809 18.94C14.8037 19.0726 14.5953 19.2334 14.4917 19.4102L14.3726 19.5861L14.298 19.8218L14.2621 19.8561C14.0892 20.0268 14.1134 21.0737 14.1347 21.9655C14.1442 22.3572 14.1516 22.7242 14.1394 22.992Z" fill="#BE957D"/>
</svg>
