<svg width="27" height="26" viewBox="0 0 27 26" fill="none" xmlns="http://www.w3.org/2000/svg">
<path fill-rule="evenodd" clip-rule="evenodd" d="M6.1844 7.73106L7.99743 7.74319L7.98008 6.10091C7.95061 4.24889 7.93591 3.26872 8.42946 2.72923C8.98368 2.12735 10.132 2.12603 12.5581 2.12473L13.7346 2.12387C16.2968 2.11521 17.4945 2.11262 18.0644 2.73313C18.5644 3.27825 18.5497 4.26449 18.5202 6.10957L18.502 7.7419L20.0923 7.72372C21.9595 7.69425 22.9557 7.67692 23.5034 8.18044C24.1227 8.7494 24.1226 9.93971 24.12 12.4759L24.1214 13.5987C24.124 16.0825 24.1253 17.2542 23.5121 17.8154C22.9666 18.3167 21.973 18.2994 20.0997 18.2673L18.502 18.2465L18.5202 19.8827C18.5484 21.7313 18.5631 22.7141 18.067 23.2557C17.5093 23.865 16.3484 23.8676 13.8858 23.8724L12.907 23.8758C10.2537 23.8871 9.02051 23.8905 8.43812 23.2544C7.9359 22.7054 7.95061 21.714 7.98008 19.8706L7.99743 18.2465L6.39932 18.2673C4.52737 18.2994 3.53375 18.3167 2.9882 17.8154C2.37505 17.2542 2.37507 16.0825 2.37897 13.5987V12.508C2.37767 9.92845 2.37637 8.73812 2.98952 8.17697C3.51254 7.69425 4.45111 7.70766 6.1844 7.73106ZM9.69734 14.0901C9.37278 13.681 9.11368 13.2117 9.01184 12.6762C8.89138 12.0461 8.96026 11.481 9.14313 11.0091C9.36455 10.4346 9.75021 9.98738 10.158 9.70226C11.3063 8.89931 12.0815 9.19267 12.6808 9.41973C12.9304 9.51332 13.1488 9.59696 13.3368 9.57226C13.4031 9.5636 13.5102 9.52199 13.6402 9.47173C14.21 9.2516 15.2343 8.85858 16.4442 9.77505C16.6604 9.93842 16.8459 10.1165 16.9971 10.3033C17.4309 10.8376 17.6185 11.4603 17.5682 12.1137C17.5192 12.7572 17.238 13.4379 16.7427 14.0922C16.4481 14.4805 16.0772 14.8614 15.6347 15.2202C15.1828 15.5885 14.8353 15.8957 14.5575 16.1423C13.9483 16.6818 13.6315 16.9595 13.2718 16.9543C12.8936 16.9483 12.5161 16.625 11.7461 15.9668L10.7685 15.1439C10.405 14.8441 10.018 14.4953 9.69734 14.0901ZM10.9011 12.8837C11.3249 13.6061 12.1244 14.4081 13.2497 15.1231C14.3183 14.4437 15.1373 13.6342 15.5797 12.8963C15.8007 12.5275 15.9298 12.1752 15.9459 11.8706C15.9615 11.5781 15.8744 11.3251 15.6716 11.1409C15.5156 10.9996 15.2885 10.8939 14.9878 10.8324C14.4557 10.7258 14.2004 10.9528 13.9634 11.1643C13.7641 11.3459 13.5699 11.5179 13.2497 11.5179C12.9486 11.5179 12.7544 11.3519 12.5495 11.1751C12.3038 10.9641 12.0321 10.7344 11.5117 10.8337C11.2166 10.8904 10.9917 10.9957 10.837 11.137C10.6394 11.3164 10.5462 11.5668 10.5545 11.8567C10.5644 12.1605 10.6836 12.5141 10.9011 12.8837ZM9.58685 6.11956C9.63452 7.21023 9.68608 8.35984 9.34853 9.16712L9.32988 9.21346L9.27963 9.22474C8.49965 9.4102 7.52294 9.37815 6.57483 9.34868C5.63626 9.31791 4.72151 9.28845 4.06893 9.47391L4.00175 9.49599L3.96102 16.5072C4.74707 16.8083 5.86636 16.7516 6.94967 16.6978C7.79595 16.6558 8.62748 16.6142 9.28353 16.7433L9.33596 16.7542L9.3559 16.8009C9.67136 17.5575 9.62237 18.62 9.57687 19.6678C9.53397 20.6137 9.49195 21.5545 9.72161 22.2214L16.7809 22.2729C16.9945 21.7031 16.9629 20.7451 16.9295 19.7623C16.8927 18.669 16.8532 17.5415 17.1505 16.817L17.1717 16.7689L17.222 16.7581C17.8555 16.619 18.7425 16.6558 19.6391 16.6926C20.725 16.7368 21.833 16.7823 22.4964 16.5171L22.2174 9.43447L19.9844 9.35344L19.412 9.35863C18.6455 9.36816 17.8802 9.37813 17.2133 9.24553L17.1631 9.23558L17.1423 9.18791C16.8498 8.49979 16.9048 7.53955 16.9616 6.55287C17.0192 5.55796 17.0781 4.5323 16.7809 3.76705L9.71814 3.71548C9.50451 4.28313 9.54482 5.18098 9.58685 6.11956Z" fill="#BE957D"/>
</svg>
