<svg width="27" height="26" viewBox="0 0 27 26" fill="none" xmlns="http://www.w3.org/2000/svg">
<path fill-rule="evenodd" clip-rule="evenodd" d="M12.0216 3.84255C11.6532 4.31184 11.4357 4.97138 11.4357 5.84453C11.4357 7.87031 12.6668 10.1131 14.4035 11.8486C16.1416 13.588 18.3871 14.8186 20.4098 14.8186C21.5646 14.8186 21.858 14.579 22.4256 14.1223L22.6514 13.9403C23.2546 13.4662 23.4452 12.668 23.4071 11.7958C23.3503 10.5686 22.8395 9.19801 22.3641 8.34306C22.1812 8.01504 21.7856 7.44257 21.3792 6.90959C21.0156 6.43163 20.6408 5.9823 20.4025 5.76737L19.1605 4.72049C17.715 3.58432 15.8898 2.87192 14.3754 2.87192C13.8827 2.87192 13.4234 2.9482 13.0238 3.1081C12.6273 3.26496 12.2846 3.50976 12.0216 3.84255ZM8.05665 13.3631C7.75462 13.9749 7.4903 14.5092 7.4903 15.385C7.4903 16.262 7.82831 17.0689 8.37733 17.6499C8.91768 18.2211 9.66687 18.5799 10.5023 18.5799C11.5159 18.5799 11.7919 18.4581 12.3569 18.2089L12.8839 17.9841C13.9182 17.5676 14.8811 17.403 15.7962 17.2483C16.305 17.1625 16.8037 17.0762 17.2838 16.9536C17.5282 16.8907 18.1119 16.73 18.576 16.5467L18.9174 16.3946C18.2371 16.317 17.4117 15.999 16.597 15.573C15.4621 14.9785 14.3385 14.1691 13.6617 13.5117C13.5594 13.412 13.4675 13.3458 13.3839 13.2847C13.2821 13.2119 13.1837 13.1421 13.0585 13.0056C12.2062 12.0735 11.5315 11.1939 10.9959 10.2258C10.4975 9.32451 10.1167 8.33917 9.82072 7.15403L9.7111 7.38624C9.27257 8.36122 9.12178 9.31324 8.96708 10.2947L8.81193 11.2233C8.63297 12.1961 8.32704 12.8115 8.05665 13.3631ZM25.1057 11.2199L25.1044 12.6017C25.0628 12.9466 24.9853 13.2855 24.8713 13.6075C24.7617 13.9181 24.613 14.2215 24.4276 14.5092C24.0332 15.1219 23.3061 15.7754 22.4932 16.3591C21.4884 17.0814 20.3409 17.7076 19.5219 18.0416C18.0235 18.6535 17.3319 18.7579 16.5359 18.8745C16.1095 18.9373 15.6489 19.0071 15.0223 19.1609C14.0634 19.394 13.4268 19.6472 12.9012 19.8586C11.8045 20.2945 11.1618 20.5502 9.15123 20.0896C9.01343 20.2001 8.6243 20.5671 8.30364 20.8864L7.85776 21.3497C7.85776 21.5117 7.8959 21.6114 7.93403 21.7158C7.98559 21.8505 8.04061 21.9957 8.04061 22.2661C8.04061 23.0396 7.80619 23.6306 7.4461 24.0492C7.02144 24.5432 6.41698 24.8011 5.81033 24.8513H5.37265C5.07799 24.8292 4.79807 24.7582 4.54241 24.6477C4.29455 24.5406 4.06706 24.3899 3.8829 24.2053L3.64325 23.924L3.43699 23.6025C3.35596 23.4587 3.31437 23.3395 3.2784 23.2377C3.22684 23.0912 3.18524 22.9759 3.04007 22.8728L2.87454 22.7879C2.43212 22.5669 2.09935 22.2917 1.86493 21.9918C1.6019 21.6556 1.45455 21.282 1.40298 20.9072C1.39171 20.7477 1.39171 20.4345 1.40298 20.2737C1.45325 19.8915 1.59451 19.5206 1.79471 19.2038C1.9988 18.8806 2.26789 18.608 2.57122 18.4273C2.73068 18.3342 2.92352 18.2431 3.13628 18.1794C3.31914 18.124 3.52323 18.0846 3.73079 18.0764C4.03152 18.0638 4.30539 18.1361 4.56582 18.2037L4.84964 18.2752L6.06079 17.1057C5.6773 16.2642 5.6591 15.4071 5.81856 14.5877C5.98192 13.7527 6.33464 12.954 6.6761 12.2516C7.06782 11.4443 7.17744 10.6856 7.2966 9.85489C7.54316 8.13547 7.83827 6.09754 10.7307 2.60063C10.8733 2.4299 11.119 2.2592 11.3451 2.10321L11.5783 1.93983C12.1004 1.55547 12.5953 1.35613 13.1053 1.2543C13.6101 1.15507 14.1318 1.14857 14.7229 1.14857C15.8898 1.14857 17.0676 1.52081 18.1422 2.05639C19.5869 2.77484 20.8522 3.79314 21.6565 4.59652C22.5041 5.4441 23.3503 6.57683 23.9977 7.81483C24.5628 8.89944 24.9779 10.0711 25.1044 11.2073L25.1057 11.2199ZM15.4327 8.7616C15.2498 8.33825 15.1636 7.87118 15.1636 7.31133C15.1636 6.90227 15.3196 6.56554 15.5778 6.32244C15.8235 6.09148 16.165 5.94154 16.5528 5.89128C16.935 5.84231 17.3696 5.88527 17.8073 6.0339C18.6302 6.31512 19.4777 6.97199 20.0501 8.0852C20.454 8.87124 20.4969 9.55893 20.2967 10.0772C20.1767 10.3857 19.97 10.6362 19.7035 10.8108C19.4409 10.9828 19.1155 11.0846 18.758 11.0981C18.0157 11.1275 17.1179 10.7874 16.2915 9.96194C15.8972 9.56762 15.616 9.18539 15.4327 8.7616ZM18.0344 8.21995C17.7137 7.89972 17.3059 7.66619 16.9068 7.61462L16.9671 7.778C17.1733 8.34306 17.4299 9.04543 18.6423 9.37215C18.5968 8.96439 18.3611 8.54667 18.0344 8.21995ZM6.22414 22.6786C6.24884 22.5889 6.26444 22.4819 6.26444 22.358C6.26444 22.1149 6.13922 21.9429 6.02872 21.7882C5.79039 21.4554 5.59019 21.1741 6.27181 20.512L6.54955 20.2477C6.88754 19.9297 7.30613 19.534 7.53579 19.2307L6.93998 18.6683C6.77575 18.888 6.57772 19.0712 6.37882 19.2588L6.10367 19.5232C5.06586 20.5623 4.80155 20.3413 4.464 20.0575C4.32403 19.937 4.16543 19.8044 3.89504 19.8044C3.56354 19.8044 3.31047 19.9838 3.18524 20.2148C3.13367 20.308 3.10161 20.4137 3.09555 20.5168C3.08948 20.62 3.1068 20.7257 3.1497 20.8167C3.24806 21.029 3.48989 21.2045 3.90631 21.2413C4.87652 21.3288 4.8804 21.8055 4.88257 22.2856C4.88257 22.6184 4.88516 22.9625 5.37655 23.105C5.44025 23.1232 5.51911 23.1345 5.59884 23.1345C5.72537 23.1345 5.85929 23.1059 5.96849 23.0361C6.07898 22.9646 6.17517 22.8507 6.22414 22.6786Z" fill="#BE957D"/>
</svg>
