<svg width="27" height="26" viewBox="0 0 27 26" fill="none" xmlns="http://www.w3.org/2000/svg">
<path fill-rule="evenodd" clip-rule="evenodd" d="M22.209 3.02665C22.4243 3.12718 22.6354 3.26844 22.8256 3.44783C23.0778 3.68356 23.2654 3.9674 23.3859 4.26725L23.3946 4.28544C23.5467 4.67499 23.5909 5.10229 23.5246 5.50528C23.4561 5.90827 23.2741 6.2961 22.9807 6.60809C22.8 6.79746 22.5803 6.96081 22.3199 7.08257C22.5803 7.62509 22.5582 7.99858 22.2202 8.58574C22.0161 8.80196 21.8051 9.00345 21.5963 9.20105C21.2583 9.52301 20.9194 9.84632 20.6356 10.2047C20.7119 10.5314 20.8163 10.8633 20.922 11.2035C21.3298 12.5104 21.7791 13.9546 21.0841 16.3621C20.3596 18.8767 18.8386 20.7214 16.9706 21.8506C15.8673 22.5175 14.638 22.9387 13.3775 23.1007C12.1221 23.2641 10.8278 23.171 9.59454 22.8148C7.48773 22.2077 5.54816 20.8297 4.22912 18.6484C3.20952 16.9619 2.81521 15.0297 2.98247 13.1565C3.1064 11.7486 3.5497 10.3732 4.27812 9.15688C5.00913 7.94098 6.02744 6.87978 7.30617 6.10717C8.9372 5.12093 10.9933 4.60132 13.4108 4.81625C15.947 5.04071 17.1205 6.23975 18.9469 8.10564L19.6688 8.83752L20.8076 7.80969L18.4751 5.47321L17.9078 6.03563C17.8389 6.10236 17.7258 6.10323 17.6556 6.03563L16.8462 5.24484C16.7704 5.17854 16.7617 5.06411 16.8267 4.98915C17.6166 4.10474 18.3914 3.47733 19.2737 4.07055C19.3829 3.87642 19.5107 3.70091 19.6532 3.55098C19.9921 3.19002 20.4172 2.95515 20.8605 2.86545C21.3051 2.77358 21.7782 2.82515 22.209 3.02665ZM22.0175 5.05071C22.0153 4.82841 21.8849 4.60614 21.5755 4.48221L21.3995 4.38515C21.3445 4.34701 21.3064 4.32232 21.0646 4.40465C20.9073 4.45752 20.7821 4.55717 20.6997 4.6772C20.6209 4.79159 20.5766 4.92896 20.5719 5.06545C20.5693 5.20065 20.6027 5.34193 20.6798 5.45979C20.76 5.58632 20.8913 5.69551 21.0707 5.7644C21.3545 5.8723 21.6223 5.77438 21.7965 5.58892C21.8653 5.51742 21.9217 5.4316 21.9598 5.3419C21.998 5.24483 22.0188 5.14517 22.0175 5.05071ZM12.5519 18.1644C12.2326 18.6787 11.8903 19.2303 11.3447 19.5549C11.2932 19.5891 11.2282 19.5965 11.1692 19.5696C10.3953 19.2182 10.1986 18.3693 10.0257 17.6067C9.92731 17.179 9.83372 16.7751 9.65346 16.5528C9.48749 16.3474 9.06849 16.2482 8.6005 16.1386C7.86472 15.9657 7.01496 15.7668 6.57644 15.0405C6.54438 14.9855 6.54222 14.9153 6.57515 14.8563C6.91921 14.2618 7.50116 13.8775 8.03068 13.5287C8.54677 13.1872 9.01346 12.8786 9.08106 12.4722C9.12136 12.2291 9.09318 11.9111 9.06241 11.577C8.99265 10.8139 8.91509 9.95766 9.55858 9.4199C9.59064 9.3939 9.63137 9.37831 9.67557 9.37831C10.2393 9.37918 10.7576 9.82289 11.2663 10.2575C11.7304 10.6544 12.191 11.0474 12.5988 11.0154C12.9034 10.9933 13.2721 10.8274 13.6465 10.6618C14.3221 10.3607 15.0271 10.0474 15.6316 10.3841L15.6918 10.4408C16.1325 11.0795 15.8071 11.7845 15.4843 12.4844C15.3222 12.8358 15.1588 13.1885 15.1146 13.504C15.0605 13.8983 15.4977 14.4044 15.9228 14.8919C16.4337 15.4804 16.9324 16.0553 16.7075 16.5909C16.4363 17.2344 15.2078 17.1474 14.342 17.0858C14.0703 17.0663 13.8346 17.0489 13.7007 17.0598C13.2141 17.0979 12.8947 17.6089 12.5519 18.1644ZM10.6852 11.7854L10.6484 11.7698L10.6557 12.149C10.6644 12.5854 10.6739 13.0728 10.6202 13.2474C10.4616 13.741 10.0279 14.0435 9.60059 14.3407C9.4472 14.4473 9.29207 14.5543 9.15601 14.6683L9.67038 14.8356C10.1089 14.9656 10.5587 15.102 10.7784 15.3135C11.0241 15.5466 11.1324 15.9237 11.2451 16.318C11.3118 16.5515 11.3816 16.7912 11.4799 16.9974L11.7785 16.5918C12.0866 16.1585 12.4059 15.7065 12.7327 15.57C12.9255 15.4916 13.52 15.5011 14.0261 15.5098L14.3971 15.5159C14.3087 15.317 14.1453 15.1068 13.9832 14.8992C13.7228 14.5665 13.4624 14.2337 13.4429 13.8762C13.4268 13.5949 13.5408 13.2964 13.6613 12.987C13.7549 12.7426 13.8541 12.4856 13.8814 12.2387C13.0178 12.4146 12.6737 12.5727 12.5017 12.6551L12.487 12.6625C12.3812 12.7132 12.3223 12.74 12.2339 12.7353C12.1234 12.7227 12.0619 12.675 11.9319 12.5767C11.7759 12.4575 11.4908 12.2386 10.8733 11.885L10.6852 11.7854ZM16.8354 8.17064L16.1719 7.538C15.6797 7.03188 14.9955 6.72509 14.284 6.5431C13.1846 6.26317 12.0129 6.27786 11.3547 6.32206C10.5747 6.37622 9.65564 6.62933 8.7578 7.07609C7.95832 7.47561 7.17442 8.03068 6.52097 8.7357C5.26347 10.0968 4.58881 11.8408 4.49694 13.5828C4.40334 15.3525 4.90337 17.1201 5.99188 18.4837L6.01138 18.5132C6.20898 18.8741 6.47462 19.2195 6.79007 19.5375C7.76678 20.5164 9.24182 21.2436 10.872 21.5066C12.503 21.7683 14.2913 21.5655 15.8881 20.6898C16.4805 20.3643 17.0503 19.944 17.5772 19.4197C18.4235 18.5747 18.9972 17.6374 19.356 16.6988C19.7833 15.5861 19.9124 14.4633 19.8496 13.4866C19.6836 10.8767 18.8425 10.0781 16.8354 8.17064Z" fill="#BE957D"/>
</svg>
