<svg width="27" height="26" viewBox="0 0 27 26" fill="none" xmlns="http://www.w3.org/2000/svg">
<path fill-rule="evenodd" clip-rule="evenodd" d="M1.36831 6.35435C1.29075 6.50298 1.17547 6.63212 1.0953 6.85442C1.02034 7.06198 0.988714 7.22666 0.968781 7.44635C0.937149 7.81468 1.03766 8.06037 1.19365 8.42913L1.33753 8.60332C1.66772 9.02364 2.0681 9.23598 2.25617 9.5198C2.02521 9.71523 1.44197 9.9791 1.13821 10.1659C0.833588 10.441 0.670205 10.5944 0.518109 10.9264C0.402845 11.1794 0.335272 11.6054 0.369505 11.926L0.375555 12.0339C0.45442 12.6103 0.588331 12.765 0.87909 13.1259C1.03769 13.2524 1.17894 13.3855 1.34966 13.4739C1.48096 13.5415 1.78083 13.6762 1.92686 13.7048C1.78689 13.9587 1.47229 14.2057 1.24523 14.3778L0.870858 14.9082C0.729595 15.1417 0.740414 15.3016 0.613884 15.5495C0.638583 15.7878 0.626003 16.0114 0.668036 16.3208C0.7612 16.644 0.961412 16.9179 1.00951 17.1354C1.20364 17.187 1.08576 17.1463 1.22919 17.2801C1.32019 17.3651 1.35572 17.3933 1.45668 17.4596C1.60878 17.5601 1.77606 17.6498 1.97106 17.7226C2.34112 17.8613 2.74151 17.8894 2.94517 17.9778L3.05565 18.0346C3.06432 18.0393 3.08035 18.048 3.09248 18.0554C2.90615 18.2187 2.79913 18.4592 2.61106 18.6278C2.61236 18.7604 2.52872 18.9346 2.47109 19.0724C2.46372 19.1842 2.4477 19.2444 2.43687 19.3402C2.43081 19.393 2.4269 19.4554 2.42084 19.4975L2.37882 19.6595L2.54868 20.2835L2.95988 20.9049L3.22899 21.1632L3.94007 21.4834C4.21913 21.4899 4.35779 21.5388 4.67585 21.5241C4.96098 21.5107 5.23223 21.4873 5.47316 21.5107C5.42896 22.0129 4.79285 22.8705 5.2864 23.7804C5.67943 24.5063 6.26786 24.8403 7.14751 24.7805L7.91754 24.5938C8.48996 24.4391 8.96401 24.0985 9.41337 23.8151C9.60143 23.6725 9.74875 23.562 9.91948 23.4242C10.7415 22.8873 11.2905 22.0484 11.7498 21.5644C11.8556 21.4517 11.7979 21.5033 11.8959 21.4492L12.7534 20.0279C13.0273 19.5217 13.3874 18.5407 13.4337 18.4705C13.4558 18.1069 13.6968 17.5995 13.6708 17.1905L14.9815 16.8395C15.151 17.1796 15.7555 17.7447 16.0233 17.9817C16.4198 18.334 17.0931 18.7604 17.2171 18.8917C17.3925 18.903 18.3433 19.4702 18.4135 19.5438L18.7302 19.6262C19.3274 19.861 19.739 20.0279 20.3998 20.1891C20.6464 20.2493 20.9142 20.2675 21.143 20.3533C21.3627 20.3533 21.6084 20.4001 21.7912 20.4408C22.0161 20.4261 22.3576 20.4677 22.6007 20.4738C22.9079 20.4811 23.1536 20.4568 23.4604 20.4235L23.6536 20.378C25.5438 20.1054 25.9602 18.3773 25.1447 17.3651C24.8596 17.0102 24.4765 16.8148 24.2417 16.482C24.3669 16.3923 24.5134 16.31 24.6915 16.2385L24.7551 16.1943C25.3263 15.8359 25.2773 16.004 25.8658 15.3077L26.0157 15.0507C26.0365 14.8505 26.0941 14.7695 26.1223 14.5372C26.1505 14.3089 26.1409 14.201 26.1123 13.9566C26.0386 13.2919 25.8779 13.2958 25.6287 12.8694C25.5191 12.7957 25.2686 12.609 25.2171 12.5232C24.9653 12.469 24.8032 12.3451 24.5736 12.3017C24.7456 11.9728 24.9727 11.9065 25.2305 11.6114C25.4506 11.3597 25.6162 11.156 25.7392 10.8661C26.1223 9.96699 25.6998 9.408 25.4688 8.88975C25.3042 8.78142 25.2994 8.72508 25.1373 8.60332C24.9848 8.48936 24.8942 8.44257 24.7296 8.3676C24.3916 8.21551 24.1472 8.19297 23.817 8.08507L23.4088 7.94857C24.0402 7.40345 24.2161 6.5511 23.9054 5.68142C23.7087 5.39889 23.6719 5.25027 23.4028 4.98594C22.6254 4.22199 21.7089 4.61025 21.0346 4.48502C21.0507 4.27832 21.1893 3.89917 21.2829 3.67558C21.3072 3.56248 21.3419 3.48752 21.3614 3.35969C21.3726 3.28343 21.3726 3.23573 21.3809 3.16077C21.3934 3.06024 21.3882 3.07976 21.4069 3.01217L21.2938 2.27159L21.1057 2.05538C20.6897 1.40409 20.3162 1.34775 19.7732 1.21255C18.7536 1.29488 18.5266 1.37377 17.614 1.84783L17.2244 2.08484L16.0796 3.00479C15.6276 3.39782 15.3217 3.79084 15.1657 3.9308C15.0921 3.99623 15.1168 3.9776 15.0366 4.0192C14.979 4.1999 14.9166 4.21723 14.8082 4.35112C14.7138 4.46769 14.6756 4.55131 14.5612 4.65921C14.4707 4.83384 14.5565 4.70947 14.4507 4.75627C14.3784 4.9985 14.0629 5.41104 14.0542 5.40107C14.0482 5.39371 14.0382 5.41709 14.0296 5.42316L13.8393 5.75379L13.6452 6.1676C13.5715 6.31753 13.5334 6.45749 13.3995 6.57665C13.4485 6.64425 13.4645 6.62347 13.3934 6.65034C13.3245 7.00783 12.8752 7.84802 12.8358 8.81953L11.5189 9.16838C11.2069 8.67829 10.868 8.44863 10.6761 8.18213C10.4477 8.03091 10.2328 7.79645 9.97106 7.60709C9.15207 7.01517 8.76859 6.81499 7.87205 6.4172C7.77498 6.37387 7.7715 6.39249 7.7208 6.31753C7.49244 6.25989 7.12889 6.1936 6.9716 6.02157C6.79957 6.04844 6.7727 6.0142 6.60457 5.94921C6.34414 5.89981 6.13529 5.82484 5.87487 5.77934C5.63914 5.73775 5.4216 5.68358 5.18934 5.63332C4.52376 5.60039 4.03108 5.47864 3.25977 5.55837C2.89144 5.5965 2.47719 5.67491 2.1197 5.83221C1.74747 5.99557 1.6283 6.15026 1.36831 6.35435ZM10.2107 13.8348L10.3632 14.4046L10.4282 14.6542L10.7389 14.5572L11.4907 14.357L12.2954 14.1407L12.8825 13.9834L13.6868 13.7672L14.4386 13.5657L15.2433 13.3508L15.9899 13.1493L16.5073 13.0132L16.0748 11.3844L15.586 11.4936L14.7801 11.7111L14.0296 11.9113L13.224 12.1262L12.4743 12.329L11.8322 12.501L11.0817 12.7013L10.2757 12.9175L9.99099 13.0193L10.2107 13.8348ZM3.30007 7.31375C3.62809 7.16122 4.82708 7.24613 5.05197 7.36053C5.43157 7.3679 6.35887 7.59886 6.58463 7.76829C7.05262 7.82116 8.09562 8.42176 8.46048 8.63886C8.76987 8.82345 9.90604 9.6316 10.0092 10.042C10.1838 10.1104 10.1691 10.1498 10.2635 10.3266C10.5868 10.6425 10.6245 11.1227 10.8507 11.1179L14.3884 10.1693C14.5097 10.0554 14.4655 9.85864 14.4655 9.67578C14.4668 9.52845 14.4646 9.32305 14.5014 9.19175C14.4681 8.26184 15.0526 7.09621 15.4803 6.35697C16.2343 5.04746 16.9714 4.61501 17.3791 4.10152C17.6114 3.95419 17.8142 3.76135 18.072 3.57719C18.3138 3.40386 18.5279 3.28861 18.8251 3.13478C19.1982 2.98875 19.255 2.93244 19.6614 2.90644C19.7117 3.10187 19.7143 3.14128 19.5977 3.27734C19.4942 3.85106 18.9664 4.63105 19.7451 5.56832L19.944 5.73299C20.171 5.99429 20.5398 6.14073 20.886 6.18016C21.032 6.19576 21.1096 6.18624 21.2188 6.2599C21.4168 6.17887 21.8406 6.15678 22.01 6.18624L22.2189 6.17236L22.4057 6.46616L21.8502 7.29425C21.5581 7.82333 21.7102 8.12578 21.6144 8.32684L21.9351 8.99028C21.9351 8.99028 21.9706 8.99418 22.0114 9.04705C22.0603 9.11205 22.0369 9.08258 22.069 9.15234C22.5872 9.48557 22.6215 9.55532 23.2961 9.70785C23.5258 9.75941 24.4531 9.87727 24.1277 10.3106C23.9778 10.5121 24.1424 10.344 23.973 10.4202C23.8954 10.5957 23.6619 10.7777 23.5171 10.9116C23.3624 11.0564 23.1878 11.2431 23.0687 11.4039C22.8503 11.6977 22.7259 12.1852 22.829 12.7355C23.0136 13.2598 23.3182 13.5436 23.6792 13.7196C23.882 13.8188 24.0328 13.8691 24.2382 13.97C24.4605 14.0779 24.5476 14.2378 24.3587 14.4761L23.6671 14.8471C23.3893 14.9602 23.1055 15.1993 22.9495 15.4034C22.8589 15.5226 22.7848 15.6379 22.7237 15.7731C22.673 15.8823 22.6414 16.0803 22.5764 16.1392C22.5838 17.0886 22.6067 17.2347 23.2212 17.892C23.3794 18.0199 23.7737 18.2885 23.8439 18.5368C23.4301 18.7443 22.8784 18.8119 22.4681 18.7677C22.2631 18.7825 22.0945 18.7704 21.9004 18.7383C21.7752 18.7175 21.7457 18.7136 21.6331 18.6988C21.4558 18.6754 21.4645 18.6928 21.3479 18.6005C21.1586 18.6586 21.2275 18.6252 21.0004 18.5723C20.8678 18.5407 20.7768 18.5281 20.6343 18.4852C20.1307 18.3353 18.9231 17.9423 18.6124 17.6745L17.8619 17.2459C17.302 16.93 16.4653 16.1318 16.0428 15.3922C15.9262 15.2227 15.8305 14.9316 15.6532 14.8926L12.116 15.8394C11.9869 15.9646 12.0445 16.2671 12.0285 16.4681C12.0298 16.7398 11.8911 17.9609 11.723 18.0983C11.6588 18.5663 11.3026 19.15 11.089 19.5209C10.9256 19.8056 10.4577 20.5721 10.1712 20.7689C10.0954 21.0757 8.59178 22.3899 8.14459 22.6027C8.13593 22.6113 8.11774 22.6113 8.11514 22.6261C8.11384 22.6417 8.09302 22.6456 8.08565 22.6503L7.49983 22.9368C7.27753 23.0655 7.07127 23.0841 6.84508 23.0914C6.76665 22.7821 7.12152 22.1958 7.16225 21.7798C7.21599 21.2282 7.03311 20.7108 6.68298 20.3533C5.66944 19.3194 4.14894 20.2012 4.11688 19.5577C4.3578 18.8622 5.0407 18.7175 4.82231 17.5566L4.60219 17.0579C4.49776 16.989 4.45616 16.9019 4.36387 16.8135C4.24124 16.6956 4.16366 16.6319 4.0497 16.5691C3.84084 16.4525 3.55701 16.4031 3.32215 16.3026C3.12585 16.3013 2.99931 16.2376 2.80995 16.1968C1.70108 15.9611 2.72546 15.4268 3.20082 14.8861C3.45735 14.5814 3.67228 14.2707 3.71302 13.8079C3.76805 13.1653 3.52493 12.9344 3.22637 12.5387C2.95035 12.3645 2.91354 12.3303 2.62971 12.1951C2.42951 12.1002 2.25748 12.0279 2.05599 11.9148C2.05599 11.5833 2.02521 11.5698 2.3567 11.4039C2.57683 11.2947 2.75102 11.1781 2.97981 11.1461C3.05478 10.9948 3.03877 11.0516 3.25977 10.8882C3.41706 10.7712 3.65149 10.506 3.73252 10.3327C3.80489 10.178 3.76066 10.1745 3.90106 10.0406C3.87506 9.87597 3.87508 9.90415 3.93878 9.73949C3.89848 9.42403 3.97342 9.35902 3.84949 8.94C3.62329 8.30865 3.23896 8.13186 2.89621 7.7631C2.72158 7.68337 2.70813 7.66516 2.65179 7.46497C2.82469 7.39 2.9651 7.28903 3.18002 7.28773C3.28316 7.28687 3.24027 7.28905 3.30007 7.31375Z" fill="#BE957D"/>
</svg>
