<svg width="27" height="26" viewBox="0 0 27 26" fill="none" xmlns="http://www.w3.org/2000/svg">
<path fill-rule="evenodd" clip-rule="evenodd" d="M13.2503 3.43649C14.4095 3.43649 14.6344 4.97088 15.2423 4.62552C16.7373 3.77794 17.4202 4.01885 17.8193 5.70274C17.9779 6.36616 19.2063 5.43021 20.0132 6.23705C20.82 7.04563 19.8832 8.27234 20.5462 8.43223C22.2318 8.83262 22.4723 9.51296 21.6247 11.0079C21.2798 11.6172 22.8137 11.8407 22.8137 13.0003C22.8137 14.1599 21.2798 14.3848 21.6247 14.9914C22.4723 16.4886 22.2318 17.1693 20.5475 17.5684C19.8832 17.7279 20.82 18.9563 20.0132 19.7632C19.2063 20.5705 17.9779 19.6319 17.8193 20.2966C17.4189 21.9805 16.7373 22.2215 15.2423 21.3752C14.6344 21.0298 14.4095 22.5637 13.2503 22.5637C12.0907 22.5637 11.8659 21.0298 11.2592 21.3752C9.76165 22.2223 9.08132 21.9818 8.68223 20.2966C8.52234 19.6332 7.29387 20.5705 6.48702 19.7632C5.68018 18.9563 6.61831 17.7279 5.95403 17.5684C4.26971 17.1693 4.02921 16.4873 4.87549 14.9914C5.22041 14.3848 3.68645 14.1599 3.68645 13.0003C3.68645 11.8407 5.22041 11.6159 4.87549 11.0079C4.02921 9.51426 4.26971 8.83132 5.95403 8.43223C6.61701 8.27494 5.68018 7.04563 6.48702 6.23705C7.29387 5.43021 8.52235 6.36618 8.68094 5.70406C9.08133 4.01887 9.76295 3.77924 11.2592 4.62552C11.8672 4.97088 12.0907 3.43649 13.2503 3.43649ZM13.2503 1.95752C14.3089 1.95752 14.9047 2.43677 15.3493 2.93682C16.144 2.62223 16.8382 2.58067 17.4965 2.84716C18.1586 3.11712 18.6278 3.62712 18.9546 4.4058C19.6019 4.37027 20.3326 4.46472 21.0584 5.19183C21.7833 5.92285 21.8804 6.65343 21.8448 7.29735C22.6257 7.62538 23.1357 8.09423 23.4035 8.76025C23.6674 9.4137 23.6245 10.1053 23.3125 10.8974C23.8125 11.3433 24.2927 11.9378 24.2927 13.0003C24.2927 14.0589 23.8138 14.6548 23.3125 15.1007C23.6271 15.8932 23.67 16.5857 23.4048 17.2391C23.1357 17.9086 22.6257 18.3765 21.8448 18.7033C21.8804 19.3494 21.7859 20.0825 21.0584 20.8088C20.3338 21.5346 19.602 21.6304 18.9533 21.5936C18.6266 22.3748 18.1586 22.8844 17.4965 23.1535C16.8356 23.4187 16.1415 23.3745 15.3506 23.0625C14.9061 23.5638 14.3089 24.0427 13.2503 24.0427C12.19 24.0427 11.5941 23.5638 11.1496 23.0625C10.3561 23.3758 9.66457 23.4187 9.00982 23.1548C8.34034 22.8857 7.87236 22.3748 7.54563 21.5936C6.89955 21.6304 6.16635 21.5346 5.44183 20.8088C4.71472 20.0825 4.61896 19.3494 4.65666 18.7033C3.87451 18.3752 3.36449 17.9051 3.0967 17.2391C2.8328 16.5857 2.87442 15.8932 3.18771 15.1007C2.68679 14.6548 2.20752 14.0589 2.20752 13.0003C2.20752 11.9391 2.68679 11.3446 3.18771 10.9C2.87442 10.1075 2.8328 9.4137 3.0967 8.76025C3.36579 8.09423 3.87451 7.62408 4.65666 7.29735C4.61983 6.65213 4.71689 5.92414 5.44183 5.19659C6.16635 4.46601 6.89953 4.36897 7.54821 4.4058C7.87624 3.62322 8.34553 3.11495 9.01111 2.84716C9.66456 2.58153 10.3562 2.62489 11.1483 2.93774C11.5933 2.43682 12.1887 1.95752 13.2503 1.95752Z" fill="#BE957D"/>
<path d="M15.1504 16.7026C15.3285 16.8902 15.5534 16.9838 15.8272 16.9838C16.1011 16.9838 16.3269 16.8867 16.5041 16.6952C16.6822 16.5019 16.7706 16.2736 16.7706 16.011C16.7706 15.7371 16.6822 15.5062 16.5041 15.3194C16.3269 15.1313 16.1011 15.0382 15.8272 15.0382C15.5534 15.0382 15.3285 15.1313 15.1504 15.3194C14.9736 15.5062 14.8847 15.7371 14.8847 16.011C14.8847 16.2849 14.9736 16.5145 15.1504 16.7026ZM17.6511 17.7894C17.1658 18.2773 16.5578 18.5191 15.8272 18.5191C15.0975 18.5191 14.4896 18.2773 14.0029 17.7894C13.5168 17.3032 13.2732 16.71 13.2732 16.011C13.2732 15.3108 13.5168 14.7175 14.0029 14.2309C14.4896 13.7447 15.0975 13.5012 15.8272 13.5012C16.5578 13.5012 17.1658 13.7447 17.6511 14.2309C18.1386 14.7175 18.3821 15.3108 18.3821 16.011C18.3821 16.71 18.1386 17.3032 17.6511 17.7894ZM9.99644 10.6811C10.1732 10.8692 10.399 10.9624 10.6728 10.9624C10.9471 10.9624 11.1742 10.8692 11.3571 10.6811C11.5404 10.493 11.6314 10.2621 11.6314 9.98954C11.6314 9.71568 11.5404 9.48733 11.3571 9.30534C11.1742 9.12247 10.9471 9.03147 10.6728 9.03147C10.399 9.03147 10.1732 9.12247 9.99644 9.30534C9.81921 9.48733 9.72952 9.71568 9.72952 9.98954C9.72952 10.2621 9.81921 10.493 9.99644 10.6811ZM9.19785 16.7256L16.1319 9.01672L17.0592 9.53411L10.1104 17.2576L9.19785 16.7256ZM12.5132 11.777C12.0266 12.2571 11.4186 12.4981 10.688 12.4981C9.95831 12.4981 9.34777 12.2545 8.85508 11.7683C8.365 11.2817 8.11798 10.6885 8.11798 9.98954C8.11798 9.2893 8.365 8.69737 8.85508 8.21119C9.34777 7.72457 9.95831 7.48017 10.688 7.48017C11.4186 7.48017 12.0266 7.72106 12.5132 8.20378C12.9994 8.6839 13.2429 9.27976 13.2429 9.98954C13.2429 10.6985 12.9994 11.2942 12.5132 11.777Z" fill="#BE957D"/>
</svg>
